<svg width="40" height="40" viewBox="0 0 40 40" fill="none" xmlns="http://www.w3.org/2000/svg">
<path d="M3.33325 19.0997V27.433C3.33325 31.2497 6.41658 34.333 10.2333 34.333H29.7499C33.5666 34.333 36.6666 31.233 36.6666 27.4163V19.0997C36.6666 17.983 35.7666 17.083 34.6499 17.083H5.34992C4.23325 17.083 3.33325 17.983 3.33325 19.0997ZM13.3333 28.7497H9.99992C9.31659 28.7497 8.74992 28.183 8.74992 27.4997C8.74992 26.8163 9.31659 26.2497 9.99992 26.2497H13.3333C14.0166 26.2497 14.5833 26.8163 14.5833 27.4997C14.5833 28.183 14.0166 28.7497 13.3333 28.7497ZM24.1666 28.7497H17.4999C16.8166 28.7497 16.2499 28.183 16.2499 27.4997C16.2499 26.8163 16.8166 26.2497 17.4999 26.2497H24.1666C24.8499 26.2497 25.4166 26.8163 25.4166 27.4997C25.4166 28.183 24.8499 28.7497 24.1666 28.7497Z" fill="#C42942"/>
<path d="M22.4999 7.68366V12.567C22.4999 13.6837 21.5999 14.5837 20.4833 14.5837H5.34992C4.21659 14.5837 3.33325 13.6503 3.33325 12.5337C3.34992 10.6503 4.09992 8.93366 5.34992 7.68366C6.59992 6.43366 8.33325 5.66699 10.2333 5.66699H20.4833C21.5999 5.66699 22.4999 6.56699 22.4999 7.68366Z" fill="#C42942"/>
<path d="M33.2833 3.33301H28.3833C26.2667 3.33301 25 4.59967 25 6.71634V11.6163C25 13.733 26.2667 14.9997 28.3833 14.9997H33.2833C35.4 14.9997 36.6667 13.733 36.6667 11.6163V6.71634C36.6667 4.59967 35.4 3.33301 33.2833 3.33301ZM34.3833 7.41634L30.4333 12.033C30.2833 12.2163 30.05 12.333 29.8167 12.333C29.8 12.333 29.8 12.333 29.7833 12.333C29.55 12.333 29.3333 12.2497 29.1667 12.083L27.3333 10.283C27 9.94967 27 9.39967 27.3333 9.06634C27.6667 8.73301 28.2167 8.71634 28.55 9.06634L29.7167 10.2163L33.05 6.31634C33.3667 5.94967 33.9 5.91634 34.2667 6.21634C34.65 6.51634 34.6833 7.06634 34.3833 7.41634Z" fill="#C42942"/>
</svg>
