<svg width="40" height="40" viewBox="0 0 40 40" fill="none" xmlns="http://www.w3.org/2000/svg">
<path d="M34.5167 13.5338V29.2171C34.5167 33.3171 31.1667 36.6671 27.0667 36.6671H12.9334C8.8334 36.6671 5.4834 33.3171 5.4834 29.2171V13.5338C5.4834 10.6838 7.0834 8.20045 9.4334 6.95045C10.2501 6.51712 11.2667 7.10045 11.2667 8.03379C11.2667 10.6838 13.4334 12.8505 16.0834 12.8505H23.9167C26.5667 12.8505 28.7334 10.6838 28.7334 8.03379C28.7334 7.10045 29.7334 6.51712 30.5667 6.95045C32.9167 8.20045 34.5167 10.6838 34.5167 13.5338Z" fill="#C42942"/>
<path d="M23.9167 3.33301H16.0833C14.35 3.33301 12.9333 4.73301 12.9333 6.46634V8.03301C12.9333 9.76634 14.3333 11.1663 16.0667 11.1663H23.9167C25.65 11.1663 27.05 9.76634 27.05 8.03301V6.46634C27.0667 4.73301 25.65 3.33301 23.9167 3.33301Z" fill="#C42942"/>
<path d="M25.2985 28.4861C23.6652 28.4861 22.1583 27.718 21.1763 26.3666C20.943 26.0458 21.011 25.5889 21.3319 25.3458C21.6527 25.1028 22.1097 25.1805 22.3527 25.5014C23.0624 26.4639 24.1319 27.018 25.2985 27.018C27.3305 27.018 28.993 25.3653 28.993 23.3236C28.993 21.2819 27.3402 19.6291 25.2985 19.6291C23.918 19.6291 22.6152 20.368 21.9055 21.5444L19.3291 25.8319C18.3569 27.4555 16.5777 28.4569 14.6916 28.4569C11.8527 28.4569 9.53882 26.143 9.53882 23.3041C9.53882 20.4653 11.8527 18.1514 14.6916 18.1514C16.3249 18.1514 17.8319 18.9194 18.8138 20.2708C19.0472 20.5916 18.9791 21.0486 18.6583 21.2916C18.3277 21.5347 17.8805 21.4569 17.6374 21.1361C16.9374 20.193 15.868 19.6389 14.7013 19.6389C12.6694 19.6389 11.0069 21.2916 11.0069 23.3333C11.0069 25.375 12.6597 27.0278 14.7013 27.0278C16.0819 27.0278 17.3847 26.2889 18.0944 25.1125L20.6708 20.825C21.643 19.2014 23.4222 18.2 25.3083 18.2C28.1472 18.2 30.461 20.5139 30.461 23.3528C30.461 26.1916 28.1374 28.4861 25.2985 28.4861Z" fill="white" stroke="white" stroke-width="0.833333"/>
</svg>
