<svg width="40" height="40" viewBox="0 0 40 40" fill="none" xmlns="http://www.w3.org/2000/svg">
<path d="M29.3666 17.9163C28.6499 17.9163 28.0833 17.333 28.0833 16.633C28.0833 16.0163 27.4666 14.733 26.4333 13.6163C25.4166 12.533 24.2999 11.8997 23.3666 11.8997C22.6499 11.8997 22.0833 11.3163 22.0833 10.6163C22.0833 9.91634 22.6666 9.33301 23.3666 9.33301C25.0333 9.33301 26.7833 10.233 28.3166 11.8497C29.7499 13.3663 30.6666 15.2497 30.6666 16.6163C30.6666 17.333 30.0833 17.9163 29.3666 17.9163Z" fill="#C42942"/>
<path d="M35.3834 17.9163C34.6668 17.9163 34.1001 17.333 34.1001 16.633C34.1001 10.7163 29.2834 5.91634 23.3834 5.91634C22.6668 5.91634 22.1001 5.33301 22.1001 4.63301C22.1001 3.93301 22.6668 3.33301 23.3668 3.33301C30.7001 3.33301 36.6668 9.29967 36.6668 16.633C36.6668 17.333 36.0834 17.9163 35.3834 17.9163Z" fill="#C42942"/>
<path d="M18.4166 24.9163L15.3333 27.9997C14.6833 28.6497 13.6499 28.6497 12.9833 28.0163C12.7999 27.833 12.6166 27.6663 12.4333 27.483C10.7166 25.7497 9.16659 23.933 7.78325 22.033C6.41659 20.133 5.31659 18.233 4.51659 16.3497C3.73325 14.4497 3.33325 12.633 3.33325 10.8997C3.33325 9.76634 3.53325 8.68301 3.93325 7.68301C4.33325 6.66634 4.96659 5.73301 5.84992 4.89967C6.91659 3.84967 8.08325 3.33301 9.31659 3.33301C9.78325 3.33301 10.2499 3.43301 10.6666 3.63301C11.0999 3.83301 11.4833 4.13301 11.7833 4.56634L15.6499 10.0163C15.9499 10.433 16.1666 10.8163 16.3166 11.183C16.4666 11.533 16.5499 11.883 16.5499 12.1997C16.5499 12.5997 16.4333 12.9997 16.1999 13.383C15.9833 13.7663 15.6666 14.1663 15.2666 14.5663L13.9999 15.883C13.8166 16.0663 13.7333 16.283 13.7333 16.5497C13.7333 16.683 13.7499 16.7997 13.7833 16.933C13.8333 17.0663 13.8833 17.1663 13.9166 17.2663C14.2166 17.8163 14.7333 18.533 15.4666 19.3997C16.2166 20.2663 17.0166 21.1497 17.8833 22.033C18.0499 22.1997 18.2333 22.3663 18.3999 22.533C19.0666 23.183 19.0833 24.2497 18.4166 24.9163Z" fill="#C42942"/>
<path d="M36.6159 30.5504C36.6159 31.0171 36.5326 31.5004 36.3659 31.9671C36.3159 32.1004 36.2659 32.2337 36.1993 32.3671C35.9159 32.9671 35.5493 33.5337 35.0659 34.0671C34.2493 34.9671 33.3493 35.6171 32.3326 36.0337C32.3159 36.0337 32.2993 36.0504 32.2826 36.0504C31.2993 36.4504 30.2326 36.6671 29.0826 36.6671C27.3826 36.6671 25.5659 36.2671 23.6493 35.4504C21.7326 34.6337 19.8159 33.5337 17.9159 32.1504C17.2659 31.6671 16.6159 31.1837 15.9993 30.6671L21.4493 25.2171C21.9159 25.5671 22.3326 25.8337 22.6826 26.0171C22.7659 26.0504 22.8659 26.1004 22.9826 26.1504C23.1159 26.2004 23.2493 26.2171 23.3993 26.2171C23.6826 26.2171 23.8993 26.1171 24.0826 25.9337L25.3493 24.6837C25.7659 24.2671 26.1659 23.9504 26.5493 23.7504C26.9326 23.5171 27.3159 23.4004 27.7326 23.4004C28.0493 23.4004 28.3826 23.4671 28.7493 23.6171C29.1159 23.7671 29.4993 23.9837 29.9159 24.2671L35.4326 28.1837C35.8659 28.4837 36.1659 28.8337 36.3493 29.2504C36.5159 29.6671 36.6159 30.0837 36.6159 30.5504Z" fill="#C42942"/>
</svg>
