<svg width="40" height="40" viewBox="0 0 40 40" fill="none" xmlns="http://www.w3.org/2000/svg">
<path d="M28.3333 4.0498H11.6666C6.66659 4.0498 3.33325 7.38314 3.33325 12.3831V22.3831C3.33325 27.3831 6.66659 30.7165 11.6666 30.7165V34.2665C11.6666 35.5998 13.1499 36.3998 14.2499 35.6498L21.6666 30.7165H28.3333C33.3333 30.7165 36.6666 27.3831 36.6666 22.3831V12.3831C36.6666 7.38314 33.3333 4.0498 28.3333 4.0498ZM19.9999 24.3331C19.2999 24.3331 18.7499 23.7665 18.7499 23.0831C18.7499 22.3998 19.2999 21.8331 19.9999 21.8331C20.6999 21.8331 21.2499 22.3998 21.2499 23.0831C21.2499 23.7665 20.6999 24.3331 19.9999 24.3331ZM22.0999 17.4165C21.4499 17.8498 21.2499 18.1331 21.2499 18.5998V18.9498C21.2499 19.6331 20.6833 20.1998 19.9999 20.1998C19.3166 20.1998 18.7499 19.6331 18.7499 18.9498V18.5998C18.7499 16.6665 20.1666 15.7165 20.6999 15.3498C21.3166 14.9331 21.5166 14.6498 21.5166 14.2165C21.5166 13.3831 20.8333 12.6998 19.9999 12.6998C19.1666 12.6998 18.4833 13.3831 18.4833 14.2165C18.4833 14.8998 17.9166 15.4665 17.2333 15.4665C16.5499 15.4665 15.9833 14.8998 15.9833 14.2165C15.9833 11.9998 17.7833 10.1998 19.9999 10.1998C22.2166 10.1998 24.0166 11.9998 24.0166 14.2165C24.0166 16.1165 22.6166 17.0665 22.0999 17.4165Z" fill="#C42942"/>
</svg>
