<svg width="40" height="40" viewBox="0 0 40 40" fill="none" xmlns="http://www.w3.org/2000/svg">
<path d="M26.9835 3.33301H13.0168C6.95016 3.33301 3.3335 6.94967 3.3335 13.0163V26.9663C3.3335 33.0497 6.95016 36.6663 13.0168 36.6663H26.9668C33.0335 36.6663 36.6502 33.0497 36.6502 26.983V13.0163C36.6668 6.94967 33.0502 3.33301 26.9835 3.33301ZM11.2502 23.5663C11.2502 24.2497 10.6835 24.8163 10.0002 24.8163C9.31683 24.8163 8.75016 24.2497 8.75016 23.5663V16.433C8.75016 15.7497 9.31683 15.183 10.0002 15.183C10.6835 15.183 11.2502 15.7497 11.2502 16.433V23.5663ZM16.2502 25.9497C16.2502 26.633 15.6835 27.1997 15.0002 27.1997C14.3168 27.1997 13.7502 26.633 13.7502 25.9497V14.0497C13.7502 13.3663 14.3168 12.7997 15.0002 12.7997C15.6835 12.7997 16.2502 13.3663 16.2502 14.0497V25.9497ZM21.2502 28.333C21.2502 29.0163 20.6835 29.583 20.0002 29.583C19.3168 29.583 18.7502 29.0163 18.7502 28.333V11.6663C18.7502 10.983 19.3168 10.4163 20.0002 10.4163C20.6835 10.4163 21.2502 10.983 21.2502 11.6663V28.333ZM26.2502 25.9497C26.2502 26.633 25.6835 27.1997 25.0002 27.1997C24.3168 27.1997 23.7502 26.633 23.7502 25.9497V14.0497C23.7502 13.3663 24.3168 12.7997 25.0002 12.7997C25.6835 12.7997 26.2502 13.3663 26.2502 14.0497V25.9497ZM31.2502 23.5663C31.2502 24.2497 30.6835 24.8163 30.0002 24.8163C29.3168 24.8163 28.7502 24.2497 28.7502 23.5663V16.433C28.7502 15.7497 29.3168 15.183 30.0002 15.183C30.6835 15.183 31.2502 15.7497 31.2502 16.433V23.5663Z" fill="#C42942"/>
</svg>
