<svg width="40" height="40" viewBox="0 0 40 40" fill="none" xmlns="http://www.w3.org/2000/svg">
<path d="M36.6668 36.667H3.3335C2.65016 36.667 2.0835 36.1003 2.0835 35.417C2.0835 34.7337 2.65016 34.167 3.3335 34.167H36.6668C37.3502 34.167 37.9168 34.7337 37.9168 35.417C37.9168 36.1003 37.3502 36.667 36.6668 36.667Z" fill="#C42942"/>
<path d="M16.25 6.66634V36.6663H23.75V6.66634C23.75 4.83301 23 3.33301 20.75 3.33301H19.25C17 3.33301 16.25 4.83301 16.25 6.66634Z" fill="#C42942"/>
<path d="M5 16.6663V36.6663H11.6667V16.6663C11.6667 14.833 11 13.333 9 13.333H7.66667C5.66667 13.333 5 14.833 5 16.6663Z" fill="#C42942"/>
<path d="M28.3335 25.0003V36.667H35.0002V25.0003C35.0002 23.167 34.3335 21.667 32.3335 21.667H31.0002C29.0002 21.667 28.3335 23.167 28.3335 25.0003Z" fill="#C42942"/>
</svg>
