<svg width="40" height="40" viewBox="0 0 40 40" fill="none" xmlns="http://www.w3.org/2000/svg">
<path d="M20 7.75C12.0334 7.75 5.55005 14.2333 5.55005 22.2C5.55005 30.1667 12.0334 36.6667 20 36.6667C27.9667 36.6667 34.45 30.1833 34.45 22.2167C34.45 14.25 27.9667 7.75 20 7.75ZM21.25 21.6667C21.25 22.35 20.6834 22.9167 20 22.9167C19.3167 22.9167 18.75 22.35 18.75 21.6667V13.3333C18.75 12.65 19.3167 12.0833 20 12.0833C20.6834 12.0833 21.25 12.65 21.25 13.3333V21.6667Z" fill="#C42942"/>
<path d="M24.816 5.75016H15.1827C14.516 5.75016 13.9827 5.21683 13.9827 4.55016C13.9827 3.8835 14.516 3.3335 15.1827 3.3335H24.816C25.4827 3.3335 26.016 3.86683 26.016 4.5335C26.016 5.20016 25.4827 5.75016 24.816 5.75016Z" fill="#C42942"/>
</svg>
