<svg width="40" height="40" viewBox="0 0 40 40" fill="none" xmlns="http://www.w3.org/2000/svg">
<path d="M28.6675 20.6665C24.2508 20.6665 20.6675 24.2498 20.6675 28.6665C20.6675 30.1665 21.0841 31.5832 21.8341 32.7832C23.2175 35.0998 25.7508 36.6665 28.6675 36.6665C31.5841 36.6665 34.1341 35.0998 35.5008 32.7832C36.2341 31.5832 36.6675 30.1665 36.6675 28.6665C36.6675 24.2498 33.0841 20.6665 28.6675 20.6665ZM32.6341 27.6165L28.3675 31.5498C28.1341 31.7665 27.8175 31.8832 27.5175 31.8832C27.2008 31.8832 26.8841 31.7665 26.6341 31.5165L24.6675 29.5498C24.1841 29.0665 24.1841 28.2665 24.6675 27.7832C25.1508 27.2998 25.9508 27.2998 26.4341 27.7832L27.5508 28.8998L30.9341 25.7665C31.4341 25.2998 32.2341 25.3332 32.7008 25.8332C33.1675 26.3498 33.1341 27.1498 32.6341 27.6165Z" fill="#C42942"/>
<path d="M36.6668 14.5501C36.6668 16.5334 36.3502 18.3667 35.8002 20.0667C35.7002 20.4167 35.2835 20.5167 34.9835 20.3001C33.1668 18.9501 30.9502 18.2334 28.6668 18.2334C22.8835 18.2334 18.1668 22.9501 18.1668 28.7334C18.1668 30.5334 18.6335 32.3001 19.5168 33.8667C19.7835 34.3334 19.4668 34.9334 18.9668 34.7501C14.9502 33.3834 6.8335 28.4001 4.20016 20.0667C3.65016 18.3667 3.3335 16.5334 3.3335 14.5501C3.3335 9.40006 7.4835 5.2334 12.6002 5.2334C15.6168 5.2334 18.3168 6.70006 20.0002 8.95006C21.6835 6.70006 24.3835 5.2334 27.4002 5.2334C32.5168 5.2334 36.6668 9.40006 36.6668 14.5501Z" fill="#C42942"/>
</svg>
