<svg width="40" height="40" viewBox="0 0 40 40" fill="none" xmlns="http://www.w3.org/2000/svg">
<path d="M3.33325 19.1007V27.434C3.33325 31.2506 6.41658 34.334 10.2333 34.334H29.7499C33.5666 34.334 36.6666 31.234 36.6666 27.4173V19.1007C36.6666 17.984 35.7666 17.084 34.6499 17.084H5.34992C4.23325 17.084 3.33325 17.984 3.33325 19.1007ZM13.3333 28.7507H9.99992C9.31659 28.7507 8.74992 28.184 8.74992 27.5007C8.74992 26.8173 9.31659 26.2507 9.99992 26.2507H13.3333C14.0166 26.2507 14.5833 26.8173 14.5833 27.5007C14.5833 28.184 14.0166 28.7507 13.3333 28.7507ZM24.1666 28.7507H17.4999C16.8166 28.7507 16.2499 28.184 16.2499 27.5007C16.2499 26.8173 16.8166 26.2507 17.4999 26.2507H24.1666C24.8499 26.2507 25.4166 26.8173 25.4166 27.5007C25.4166 28.184 24.8499 28.7507 24.1666 28.7507Z" fill="#C42942"/>
<path d="M22.4999 7.68268V12.566C22.4999 13.6827 21.5999 14.5827 20.4833 14.5827H5.34992C4.21659 14.5827 3.33325 13.6493 3.33325 12.5327C3.34992 10.6493 4.09992 8.93268 5.34992 7.68268C6.59992 6.43268 8.33325 5.66602 10.2333 5.66602H20.4833C21.5999 5.66602 22.4999 6.56602 22.4999 7.68268Z" fill="#C42942"/>
<path d="M33.2833 3.33398H28.3833C26.2667 3.33398 25 4.60065 25 6.71732V11.6173C25 13.734 26.2667 15.0007 28.3833 15.0007H33.2833C35.4 15.0007 36.6667 13.734 36.6667 11.6173V6.71732C36.6667 4.60065 35.4 3.33398 33.2833 3.33398ZM34.3833 7.41732L30.4333 12.034C30.2833 12.2173 30.05 12.334 29.8167 12.334C29.8 12.334 29.8 12.334 29.7833 12.334C29.55 12.334 29.3333 12.2507 29.1667 12.084L27.3333 10.284C27 9.95065 27 9.40065 27.3333 9.06732C27.6667 8.73398 28.2167 8.71732 28.55 9.06732L29.7167 10.2173L33.05 6.31732C33.3667 5.95065 33.9 5.91732 34.2667 6.21732C34.65 6.51732 34.6833 7.06732 34.3833 7.41732Z" fill="#C42942"/>
</svg>
