<svg width="40" height="40" viewBox="0 0 40 40" fill="none" xmlns="http://www.w3.org/2000/svg">
<path fill-rule="evenodd" clip-rule="evenodd" d="M13.0166 3.33398H26.9833C33.0499 3.33398 36.6666 6.95065 36.6499 13.0173V26.984C36.6499 33.0507 33.0333 36.6673 26.9666 36.6673H13.0166C6.94992 36.6673 3.33325 33.0507 3.33325 26.9673V13.0173C3.33325 6.95065 6.94992 3.33398 13.0166 3.33398ZM23.8263 22.7756C24.1126 23.359 24.8338 23.6055 25.4173 23.3192L25.4243 23.3335L29.594 21.2877C29.6011 21.2842 29.6064 21.2771 29.6118 21.2701C29.6172 21.263 29.6225 21.256 29.6297 21.2525C29.6889 21.2235 29.7345 21.1841 29.7783 21.1463C29.7977 21.1296 29.8167 21.1132 29.8364 21.0981C29.8555 21.0834 29.874 21.0707 29.8917 21.0585C29.9333 21.0298 29.9703 21.0042 30.0005 20.9646C30.0394 20.9318 30.0612 20.8859 30.0859 20.8339C30.0929 20.8191 30.1002 20.8038 30.1081 20.7882C30.1441 20.7176 30.1801 20.647 30.2091 20.5621C30.2048 20.5533 30.2086 20.5473 30.2138 20.539C30.217 20.5338 30.2208 20.5278 30.2236 20.5197C30.2273 20.4914 30.2275 20.4648 30.2277 20.4383C30.2279 20.4117 30.2281 20.385 30.2319 20.3567C30.2341 20.331 30.2368 20.3064 30.2394 20.2825C30.2462 20.2207 30.2526 20.1629 30.248 20.1016C30.2437 20.0449 30.2267 19.9943 30.2098 19.9438C30.2013 19.9185 30.1928 19.8932 30.1859 19.8672C30.172 19.8387 30.1669 19.8103 30.1618 19.7819C30.1567 19.7535 30.1516 19.7252 30.1376 19.6967L28.0918 15.527C27.8056 14.9436 27.0843 14.6971 26.5008 14.9834C25.9174 15.2696 25.6709 15.9909 25.9572 16.5744L26.83 18.3532C21.6105 16.7118 16.9969 13.6784 13.4485 9.46904C13.0199 8.95539 12.2689 8.90012 11.7695 9.32172C11.3485 9.68719 11.2306 10.2747 11.468 10.7586C11.5099 10.8439 11.5518 10.9293 11.6222 11.0008C15.3814 15.4598 20.2414 18.7078 25.7504 20.5073L24.37 21.1846C23.7865 21.4709 23.54 22.1921 23.8263 22.7756ZM11.468 31.5001C10.7847 31.5001 10.218 30.9335 10.218 30.2501V19.8835C10.218 19.2001 10.7847 18.6335 11.468 18.6335C12.1514 18.6335 12.718 19.2001 12.718 19.8835V30.2501C12.718 30.9335 12.1514 31.5001 11.468 31.5001ZM18.7514 30.2501C18.7514 30.9335 19.318 31.5001 20.0014 31.5001C20.6847 31.5001 21.2514 30.9335 21.2514 30.2501V23.3335C21.2514 22.6501 20.6847 22.0835 20.0014 22.0835C19.318 22.0835 18.7514 22.6501 18.7514 23.3335V30.2501ZM28.5347 31.5001C27.8514 31.5001 27.2847 30.9335 27.2847 30.2501V26.8001C27.2847 26.1168 27.8514 25.5501 28.5347 25.5501C29.218 25.5501 29.7847 26.1168 29.7847 26.8001V30.2501C29.7847 30.9335 29.218 31.5001 28.5347 31.5001Z" fill="#C42942"/>
</svg>
