<svg width="263" height="368" viewBox="0 0 263 368" fill="none" xmlns="http://www.w3.org/2000/svg">
<g clip-path="url(#clip0_357_359)">
<path fill-rule="evenodd" clip-rule="evenodd" d="M219.853 121.978L220.173 122.517C221.026 124.086 222.986 124.667 224.561 123.802C225.633 123.222 226.231 122.108 226.231 120.971C226.231 120.444 226.107 119.906 225.834 119.414L225.514 118.84C224.644 117.271 222.684 116.708 221.127 117.578C220.055 118.159 219.463 119.266 219.463 120.403C219.463 120.936 219.581 121.463 219.853 121.978ZM242.124 121.167C242.124 122.558 243.007 123.879 244.386 124.311C246.092 124.832 247.88 123.956 248.407 122.251L248.597 121.641C249.13 119.941 248.182 118.123 246.477 117.59C244.777 117.057 242.959 118.005 242.426 119.71L242.278 120.19C242.178 120.516 242.124 120.841 242.124 121.167ZM116.718 124.282L117.262 124.637C118.749 125.608 120.756 125.188 121.733 123.701C122.088 123.157 122.26 122.541 122.26 121.925C122.26 120.871 121.745 119.846 120.792 119.219L120.229 118.84C118.731 117.886 116.718 118.313 115.764 119.811C115.403 120.362 115.231 120.971 115.231 121.57C115.231 122.624 115.764 123.666 116.718 124.282ZM117.091 245.916C118.044 247.438 120.057 247.876 121.561 246.917L122.136 246.544C123.089 245.934 123.622 244.892 123.622 243.832C123.622 243.222 123.45 242.606 123.089 242.079C122.118 240.575 120.122 240.155 118.624 241.126L118.097 241.463C117.126 242.079 116.593 243.121 116.593 244.193C116.593 244.791 116.753 245.389 117.091 245.916ZM99.018 116.199L99.616 116.388C101.321 116.903 103.145 115.944 103.66 114.239C103.761 113.919 103.809 113.611 103.809 113.279C103.809 111.906 102.908 110.627 101.529 110.2L100.848 109.993C99.1364 109.501 97.3481 110.473 96.8329 112.19C96.75 112.486 96.7026 112.788 96.7026 113.096C96.7026 114.493 97.6205 115.79 99.018 116.199ZM96.3414 251.619C96.821 253.336 98.6153 254.325 100.333 253.845L100.996 253.644C102.399 253.235 103.317 251.956 103.317 250.559C103.317 250.251 103.264 249.943 103.181 249.641C102.666 247.912 100.877 246.941 99.1541 247.456L98.5561 247.628C97.1467 248.036 96.2052 249.315 96.2052 250.725C96.2052 251.015 96.2585 251.323 96.3414 251.619ZM79.4768 113.457H80.4006C82.1711 113.469 83.6396 112.036 83.6574 110.212C83.6574 108.459 82.2244 107.014 80.4657 106.991H79.4768C77.6885 106.991 76.2377 108.436 76.2377 110.212C76.2377 112.006 77.6885 113.457 79.4768 113.457ZM76.0186 253.455C76.0186 255.225 77.4516 256.694 79.2399 256.694L79.9031 256.711C81.6974 256.711 83.0771 255.261 83.0771 253.472C83.0771 251.678 81.5612 250.233 79.7669 250.233H79.2755C77.4812 250.233 76.0364 251.666 76.0186 253.455ZM56.2228 114.102C56.7321 115.808 58.5263 116.779 60.2317 116.282L60.8653 116.098C62.2569 115.684 63.1274 114.428 63.1274 113.048C63.1274 112.741 63.0977 112.415 62.9911 112.107C62.4997 110.402 60.6581 109.43 58.9349 109.928L58.4079 110.076C56.9926 110.484 56.0807 111.781 56.0807 113.185C56.0807 113.469 56.1399 113.795 56.2228 114.102ZM58.1651 253.537L58.8342 253.745C60.5515 254.236 62.3398 253.253 62.8372 251.524C62.926 251.24 62.9734 250.932 62.9734 250.624C62.9734 249.227 62.0555 247.93 60.6403 247.521L60.0422 247.349C58.3191 246.84 56.5307 247.794 56.0037 249.517C55.9149 249.825 55.8675 250.127 55.8675 250.44C55.8675 251.838 56.7735 253.111 58.1651 253.537ZM38.1147 123.482C39.0858 124.98 41.0814 125.407 42.5795 124.436L43.1302 124.092C44.0658 123.482 44.5751 122.476 44.5751 121.433C44.5751 120.818 44.4034 120.208 44.0481 119.663C43.0769 118.141 41.0281 117.75 39.5299 118.709L39.068 119.011C38.1147 119.627 37.5877 120.664 37.5877 121.724C37.5877 122.322 37.7594 122.937 38.1147 123.482ZM38.8667 244.554L39.4411 244.927C40.9452 245.887 42.9407 245.443 43.9119 243.945C44.2494 243.394 44.427 242.796 44.427 242.204C44.427 241.144 43.8941 240.107 42.923 239.468L42.396 239.136C40.9097 238.165 38.9022 238.568 37.9311 240.072C37.5699 240.617 37.3981 241.232 37.3981 241.842C37.3981 242.902 37.9133 243.921 38.8667 244.554ZM23.37 137.581C24.7142 138.736 26.7571 138.588 27.9177 137.244L28.3263 136.758C28.8711 136.148 29.1494 135.385 29.1494 134.633C29.1494 133.727 28.7764 132.838 28.0421 132.193C26.692 131.02 24.6609 131.151 23.4706 132.501L23.0265 133.028C22.4995 133.626 22.2389 134.372 22.2389 135.124C22.2389 136.03 22.6179 136.93 23.37 137.581ZM22.8548 230.485L23.3167 231.018C24.4892 232.362 26.538 232.504 27.8881 231.326C28.6165 230.674 28.9955 229.792 28.9955 228.886C28.9955 228.14 28.7171 227.364 28.1901 226.754L27.7815 226.292C26.6209 224.93 24.578 224.776 23.2278 225.937C22.4817 226.565 22.085 227.471 22.085 228.389C22.085 229.123 22.3455 229.875 22.8548 230.485ZM13.1553 155.245C14.7896 155.98 16.6964 155.263 17.4306 153.641L17.7208 153.049C17.9103 152.604 18.0169 152.16 18.0169 151.698C18.0169 150.473 17.3122 149.294 16.122 148.767C14.4876 148.015 12.575 148.732 11.8407 150.372L11.5505 150.97C11.361 151.391 11.2604 151.852 11.2604 152.297C11.2604 153.522 11.9769 154.695 13.1553 155.245ZM11.4617 212.537L11.74 213.135C12.4921 214.751 14.3988 215.468 16.0332 214.716C17.2116 214.189 17.9103 213.01 17.9103 211.785C17.9103 211.34 17.8215 210.879 17.6201 210.434L17.3477 209.842C16.5957 208.22 14.6889 207.503 13.0664 208.255C11.8762 208.782 11.1775 209.955 11.1775 211.186C11.1775 211.631 11.2604 212.092 11.4617 212.537ZM8.39434 175.077C10.153 175.331 11.7874 174.082 12.0242 172.317L12.119 171.713L12.1664 171.222C12.1664 169.653 11.0235 168.267 9.41877 168.03C7.64822 167.758 5.99017 168.972 5.73554 170.724L5.63489 171.447L5.59935 171.867C5.59935 173.454 6.75999 174.852 8.39434 175.077ZM5.59935 192.024L5.68818 192.705C5.94281 194.476 7.58308 195.707 9.3477 195.453C10.9702 195.228 12.1308 193.824 12.1308 192.267L12.0953 191.799L12.0124 191.166C11.7756 189.401 10.153 188.152 8.38247 188.394C6.75997 188.613 5.56383 189.987 5.56383 191.58L5.59935 192.024ZM152.081 246.846C153.443 248.001 155.474 247.847 156.647 246.503L157.073 245.993C157.606 245.378 157.861 244.643 157.861 243.891C157.861 242.967 157.47 242.067 156.724 241.44C155.356 240.279 153.325 240.433 152.17 241.795L151.738 242.286C151.211 242.885 150.956 243.637 150.956 244.389C150.956 245.295 151.347 246.195 152.081 246.846ZM136.803 262.047C137.875 263.486 139.906 263.758 141.339 262.68L141.884 262.254C142.701 261.626 143.134 260.667 143.134 259.696C143.134 259.015 142.909 258.316 142.464 257.718C141.375 256.321 139.332 256.048 137.929 257.155L137.437 257.534C136.578 258.162 136.158 259.116 136.158 260.104C136.158 260.785 136.359 261.466 136.803 262.047ZM138.331 105.877L138.858 106.262C140.291 107.316 142.322 106.991 143.359 105.558C143.785 104.977 143.998 104.314 143.998 103.645C143.998 102.656 143.53 101.667 142.666 101.034L142.121 100.649C140.67 99.5887 138.639 99.9263 137.603 101.383C137.194 101.946 136.987 102.609 136.987 103.254C136.987 104.261 137.461 105.25 138.331 105.877ZM119.122 272.072C119.891 273.694 121.822 274.375 123.421 273.606L124.037 273.321C125.191 272.771 125.86 271.616 125.86 270.42C125.86 269.94 125.754 269.466 125.535 269.01C124.765 267.406 122.823 266.719 121.218 267.506L120.655 267.779C119.477 268.324 118.796 269.502 118.796 270.692C118.796 271.172 118.903 271.634 119.122 272.072ZM118.05 94.7212L118.624 94.9759C120.247 95.7042 122.159 94.9877 122.888 93.3533C123.095 92.927 123.178 92.4651 123.178 92.021C123.178 90.7893 122.461 89.6168 121.271 89.0721L120.638 88.7997C118.997 88.0832 117.096 88.8352 116.374 90.4696C116.208 90.8841 116.102 91.3223 116.102 91.7486C116.102 93.0099 116.836 94.1883 118.05 94.7212ZM99.7345 278.248C100.143 279.983 101.902 281.043 103.643 280.634L104.294 280.463C105.757 280.102 106.746 278.793 106.746 277.324C106.746 277.087 106.728 276.815 106.657 276.56C106.23 274.819 104.478 273.76 102.737 274.192L102.121 274.346C100.635 274.701 99.6456 276.01 99.6456 277.478C99.6456 277.739 99.6634 277.993 99.7345 278.248ZM96.4658 88.7168L97.0816 88.853C98.8225 89.2201 100.54 88.1305 100.937 86.3778C100.984 86.1587 101.002 85.9218 101.002 85.679C101.002 84.1927 99.9772 82.8663 98.4613 82.5406L97.7804 82.3866C96.0394 82.0313 94.3162 83.1564 93.9609 84.8914C93.9136 85.1165 93.8958 85.3415 93.8958 85.5606C93.8958 87.0647 94.9499 88.4089 96.4658 88.7168ZM79.5123 280.273C79.5656 282.062 81.0638 283.465 82.858 283.412L83.5034 283.382C85.2444 283.329 86.6241 281.878 86.6241 280.036C86.5531 278.248 85.0549 276.868 83.2666 276.916L82.633 276.933C80.8743 277.005 79.5123 278.467 79.5123 280.273ZM71.4649 83.9558C71.5833 85.7441 73.1348 87.0943 74.9053 86.9521L75.5567 86.9225C77.2562 86.8041 78.5708 85.3889 78.5708 83.7012L78.5589 83.4821C78.4346 81.6879 76.9068 80.3378 75.1304 80.4562L74.4494 80.5154C72.738 80.6338 71.4471 82.0313 71.4649 83.9558ZM61.9016 281.878L62.5648 281.996C64.3235 282.304 65.9934 281.114 66.3013 279.355C66.3191 279.166 66.3309 278.994 66.3309 278.811C66.3309 277.259 65.2236 275.897 63.6425 275.619L63.0267 275.518C61.268 275.21 59.5803 276.389 59.2724 278.147C59.2428 278.313 59.225 278.503 59.225 278.692C59.225 280.244 60.3324 281.606 61.9016 281.878ZM49.4189 88.1838C49.8986 89.8892 51.6869 90.8959 53.4101 90.4044L54.02 90.2327C55.4589 89.836 56.3945 88.5273 56.3945 87.1298C56.3945 86.8337 56.3649 86.5317 56.2761 86.2416C55.7965 84.5184 54.0081 83.5117 52.285 84.0091L51.6336 84.1927C50.2183 84.5894 49.2827 85.8863 49.2827 87.3015C49.2827 87.5858 49.3301 87.8759 49.4189 88.1838ZM41.715 276.081L42.3486 276.335C43.9948 276.987 45.8719 276.187 46.5351 274.512C46.6891 274.139 46.7601 273.724 46.7601 273.339C46.7601 272.042 45.9903 270.834 44.729 270.319L44.1369 270.082C42.4789 269.413 40.5899 270.218 39.9207 271.871C39.7668 272.261 39.6839 272.67 39.6839 273.079C39.6839 274.358 40.4478 275.572 41.715 276.081ZM30.8193 96.4385C31.6661 98.0077 33.6143 98.5998 35.2013 97.7708L35.7638 97.4748C36.8534 96.9004 37.4811 95.7753 37.4811 94.6146C37.4811 94.1054 37.3804 93.5902 37.1258 93.1165C36.2908 91.5236 34.3485 90.9137 32.7616 91.7486L32.1635 92.0565C31.0739 92.6309 30.4403 93.756 30.4403 94.9166C30.4403 95.4318 30.5587 95.9411 30.8193 96.4385ZM23.1627 266.239L23.7253 266.6C25.2116 267.589 27.219 267.198 28.2079 265.7C28.5632 265.156 28.7349 264.54 28.7349 263.924C28.7349 262.864 28.2434 261.845 27.3078 261.23L26.7571 260.856C25.2767 259.868 23.2634 260.258 22.2745 261.739C21.9014 262.307 21.7297 262.917 21.7297 263.551C21.7297 264.593 22.2271 265.611 23.1627 266.239ZM14.3277 108.323C15.4765 109.703 17.5017 109.88 18.8814 108.732L19.3611 108.341C20.1427 107.689 20.5572 106.772 20.5572 105.83C20.5572 105.114 20.3145 104.385 19.817 103.787C18.6801 102.401 16.6312 102.2 15.2693 103.343L14.7363 103.769C13.9724 104.415 13.5816 105.339 13.5816 106.262C13.5816 106.991 13.8185 107.725 14.3277 108.323ZM7.05014 252.803L7.51201 253.265C8.75554 254.55 10.7985 254.562 12.0775 253.301C12.7111 252.673 13.0309 251.838 13.0309 251.003C13.0309 250.18 12.7289 249.363 12.119 248.735L11.6512 248.255C10.3899 246.994 8.34695 246.976 7.06789 248.238C6.43428 248.865 6.1086 249.7 6.1086 250.541C6.1086 251.358 6.41653 252.175 7.05014 252.803ZM0.601549 123.346C1.99904 124.453 4.0479 124.211 5.15524 122.819L5.54604 122.322C6.02569 121.724 6.26849 121.007 6.26849 120.291C6.26849 119.355 5.84215 118.413 5.05458 117.786C3.65117 116.655 1.63191 116.88 0.500887 118.265L0.0745217 118.81C-0.38736 119.402 -0.624224 120.101 -0.624224 120.8C-0.624224 121.759 -0.197863 122.712 0.601549 123.346ZM-6.01285 236.341L-5.63385 236.898C-4.68047 238.402 -2.66715 238.84 -1.169 237.869C-0.209705 237.259 0.311394 236.217 0.311394 235.139C0.311394 234.541 0.145592 233.949 -0.197858 233.404L-0.55316 232.859C-1.51245 231.361 -3.50801 230.917 -5.00616 231.87C-5.9773 232.486 -6.50434 233.54 -6.50434 234.594C-6.50434 235.192 -6.35038 235.791 -6.01285 236.341ZM-9.74933 140.856C-8.14459 141.656 -6.20232 141.01 -5.41475 139.405L-5.1246 138.849C-4.88182 138.363 -4.76338 137.872 -4.76338 137.38C-4.76338 136.196 -5.41475 135.059 -6.53985 134.49C-8.14459 133.691 -10.0809 134.325 -10.8922 135.923L-11.1942 136.527C-11.4192 136.983 -11.5377 137.475 -11.5377 137.955C-11.5377 139.151 -10.8685 140.288 -9.74933 140.856ZM-15.3867 217.552L-15.1498 218.18C-14.5162 219.85 -12.645 220.685 -10.9751 220.057C-9.69604 219.56 -8.89072 218.334 -8.89072 217.019C-8.89072 216.646 -8.96178 216.249 -9.09798 215.876L-9.33483 215.278C-9.95067 213.614 -11.8219 212.756 -13.4977 213.389C-14.7945 213.863 -15.5939 215.112 -15.5939 216.403C-15.5939 216.8 -15.5229 217.173 -15.3867 217.552ZM-16.2571 160.119C-14.5399 160.581 -12.7634 159.539 -12.3193 157.821L-12.1476 157.206C-12.0647 156.915 -12.0351 156.643 -12.0351 156.353C-12.0351 154.938 -12.9884 153.629 -14.4333 153.25C-16.1565 152.776 -17.933 153.795 -18.3889 155.536L-18.5666 156.181C-18.6258 156.459 -18.6791 156.732 -18.6791 157.004C-18.6613 158.431 -17.7079 159.746 -16.2571 160.119ZM-20.6746 197.223L-20.568 197.904C-20.3016 199.663 -18.6258 200.871 -16.873 200.581C-15.286 200.326 -14.1431 198.964 -14.1431 197.395C-14.1431 197.223 -14.1609 197.052 -14.1964 196.88L-14.2794 196.264C-14.5517 194.499 -16.192 193.286 -17.9625 193.54C-19.5673 193.777 -20.722 195.157 -20.722 196.732L-20.6746 197.223ZM-18.6495 180.329C-16.8552 180.412 -15.3393 179.032 -15.2564 177.244L-15.2209 176.439C-15.2209 174.733 -16.5532 173.3 -18.2705 173.211C-20.0588 173.117 -21.5806 174.479 -21.6813 176.249L-21.7168 177.049C-21.7168 178.772 -20.3845 180.24 -18.6495 180.329ZM185.313 247.711C186.847 248.628 188.842 248.137 189.766 246.603L190.103 246.023C190.411 245.514 190.565 244.933 190.565 244.389C190.565 243.281 189.985 242.209 188.961 241.588C187.427 240.688 185.449 241.197 184.543 242.736L184.223 243.281C183.898 243.791 183.756 244.371 183.756 244.933C183.756 246.023 184.306 247.101 185.313 247.711ZM185.153 122.505L185.508 123.032C186.515 124.513 188.528 124.892 190.009 123.885C190.932 123.275 191.424 122.251 191.424 121.208C191.424 120.581 191.234 119.947 190.861 119.402L190.488 118.863C189.482 117.377 187.468 116.998 186 118.005C185.082 118.638 184.59 119.663 184.59 120.687C184.59 121.315 184.774 121.943 185.153 122.505ZM173.055 265.274C174.417 266.429 176.466 266.275 177.609 264.913L178.053 264.398C178.562 263.788 178.811 263.053 178.811 262.319C178.811 261.401 178.426 260.483 177.656 259.85C176.294 258.689 174.246 258.879 173.103 260.241L172.694 260.72C172.167 261.33 171.924 262.088 171.924 262.817C171.924 263.734 172.297 264.64 173.055 265.274ZM172.38 102.141L172.824 102.603C174.032 103.917 176.081 103.983 177.39 102.757C178.071 102.123 178.414 101.259 178.414 100.388C178.414 99.6006 178.124 98.8012 177.544 98.1853L177.07 97.6939C175.844 96.397 173.795 96.3437 172.499 97.5695C171.835 98.2209 171.492 99.0736 171.492 99.9263C171.492 100.726 171.782 101.531 172.38 102.141ZM158.376 279.255C159.53 280.599 161.573 280.771 162.923 279.61L163.439 279.166C164.185 278.538 164.558 277.638 164.558 276.732C164.558 275.98 164.309 275.228 163.776 274.618C162.598 273.268 160.573 273.114 159.205 274.275L158.731 274.683C157.979 275.329 157.606 276.235 157.606 277.159C157.606 277.887 157.861 278.639 158.376 279.255ZM153.378 84.6901L153.887 85.0809C155.302 86.1705 157.334 85.8981 158.423 84.4888C158.867 83.9085 159.086 83.2097 159.086 82.5228C159.086 81.5517 158.66 80.5805 157.825 79.9469L157.298 79.5561C155.883 78.4666 153.858 78.7389 152.762 80.1542C152.318 80.7345 152.099 81.4333 152.099 82.1142C152.099 83.0854 152.543 84.0624 153.378 84.6901ZM141.647 290.677C142.565 292.211 144.561 292.691 146.083 291.749L146.639 291.412C147.646 290.814 148.197 289.736 148.197 288.646C148.197 288.084 148.043 287.503 147.717 286.976C146.793 285.443 144.804 284.963 143.264 285.905L142.725 286.242C141.712 286.84 141.168 287.912 141.168 289.008C141.168 289.564 141.322 290.144 141.647 290.677ZM136.75 74.0728L137.301 74.3748C138.882 75.2097 140.848 74.6294 141.683 73.0483C141.949 72.5628 142.068 72.0357 142.068 71.5265C142.068 70.3659 141.458 69.2585 140.368 68.6605L139.77 68.3585C138.183 67.5176 136.241 68.1157 135.406 69.7026C135.145 70.1823 135.027 70.6915 135.027 71.2008C135.027 72.3614 135.643 73.4865 136.75 74.0728ZM123.285 299.24C123.948 300.892 125.825 301.692 127.477 301.022L128.105 300.768C129.366 300.253 130.118 299.068 130.118 297.783C130.118 297.381 130.035 296.972 129.881 296.558C129.2 294.905 127.323 294.124 125.671 294.787L125.073 295.024C123.812 295.539 123.048 296.747 123.048 298.026C123.048 298.435 123.125 298.843 123.285 299.24ZM118.595 66.2741L119.222 66.4813C120.916 67.0616 122.734 66.1556 123.314 64.4502C123.433 64.1068 123.486 63.7693 123.486 63.4258C123.486 62.0816 122.633 60.8203 121.283 60.3584L120.655 60.1393C118.968 59.5709 117.144 60.4828 116.564 62.1823C116.445 62.5257 116.392 62.8692 116.392 63.2067C116.392 64.5509 117.245 65.8122 118.595 66.2741ZM103.761 304.712C104.152 306.447 105.893 307.554 107.634 307.163L108.273 307.015C109.777 306.683 110.784 305.339 110.784 303.859C110.784 303.634 110.766 303.397 110.719 303.154C110.322 301.419 108.587 300.312 106.846 300.703L106.219 300.857C104.714 301.2 103.69 302.526 103.69 304.007C103.69 304.25 103.708 304.475 103.761 304.712ZM99.4443 61.5368L100.072 61.6375C101.848 61.9217 103.453 60.7315 103.761 58.9787L103.767 58.9193C103.783 58.76 103.797 58.6165 103.797 58.4635C103.797 56.8943 102.636 55.5146 101.049 55.2422L100.469 55.1593C98.71 54.8691 97.0579 56.0831 96.7678 57.8358C96.7322 58.0017 96.7322 58.1793 96.7322 58.3451C96.7322 59.9202 97.8633 61.2822 99.4443 61.5368ZM83.6219 306.956C83.7403 308.75 85.2799 310.1 87.0446 309.994L87.7018 309.958C89.4191 309.84 90.7337 308.424 90.7337 306.535C90.633 304.741 89.0993 303.397 87.3051 303.498L86.6596 303.533C84.9365 303.652 83.6219 305.102 83.6219 306.956ZM79.7669 59.9617H80.4006C82.1948 59.9617 83.6396 58.5346 83.6574 56.7404C83.6574 54.9698 82.2244 53.5072 80.4361 53.4894H79.7669C77.9786 53.4894 76.5279 54.9402 76.5279 56.7285C76.5279 58.5168 77.9786 59.9617 79.7669 59.9617ZM66.2658 309.502L66.929 309.567C68.7055 309.739 70.2865 308.442 70.4583 306.654L70.476 306.346C70.476 304.694 69.2325 303.296 67.5626 303.125L66.929 303.053C65.1584 302.882 63.5715 304.185 63.382 305.955L63.3642 306.263C63.3642 307.88 64.5959 309.313 66.2658 309.502ZM58.9526 58.0727C59.1777 59.8492 60.7943 61.0927 62.5707 60.8914L63.2221 60.8025C64.8505 60.5953 66.0467 59.1978 66.0467 57.5931L66.0348 57.1904C65.8098 55.4376 64.2051 54.1704 62.4345 54.3895L61.7654 54.4606C60.1311 54.6619 58.9349 56.0653 58.9349 57.6641L58.9526 58.0727ZM45.8364 305.665L46.47 305.837C48.1873 306.293 49.9696 305.268 50.4434 303.551C50.5085 303.279 50.544 302.988 50.544 302.716C50.544 301.277 49.6084 299.986 48.1576 299.595L47.5299 299.424C45.8068 298.962 44.0303 299.974 43.5743 301.692C43.4855 301.982 43.4559 302.272 43.4559 302.544C43.4559 303.959 44.4034 305.268 45.8364 305.665ZM40.2997 62.6797C40.8149 64.3969 42.6032 65.374 44.3027 64.8766L44.9185 64.7049C46.3338 64.2963 47.2753 63.0054 47.2753 61.5842C47.2753 61.294 47.222 61.0098 47.1391 60.7019C46.6595 58.9787 44.8712 57.9898 43.1421 58.4813L42.5025 58.6708C41.0873 59.0794 40.1813 60.3762 40.1813 61.7796C40.1813 62.0816 40.2168 62.3718 40.2997 62.6797ZM26.2834 298.553L26.8992 298.825C28.5336 299.56 30.4403 298.843 31.1746 297.221C31.3641 296.783 31.4647 296.333 31.4647 295.894C31.4647 294.669 30.7482 293.49 29.558 292.945L28.9955 292.691C27.3552 291.939 25.4484 292.637 24.6964 294.254C24.4891 294.698 24.3885 295.16 24.3885 295.622C24.3885 296.83 25.0872 298.008 26.2834 298.553ZM22.6475 70.4488C23.4351 72.0535 25.3596 72.7345 26.9821 71.9528L27.5447 71.6804C28.7171 71.1179 29.3863 69.975 29.3863 68.767C29.3863 68.2874 29.2856 67.8137 29.0784 67.3696C28.3086 65.7589 26.384 65.0779 24.7615 65.8536L24.1694 66.1379C23.0087 66.6827 22.3218 67.8433 22.3218 69.0572C22.3218 69.5132 22.4462 69.9928 22.6475 70.4488ZM8.15747 288.374L8.70225 288.753C10.1886 289.736 12.196 289.327 13.1908 287.859C13.5638 287.296 13.7356 286.669 13.7356 286.059C13.7356 285.016 13.2382 283.992 12.3026 283.358L11.7518 283.003C10.2715 282.014 8.25814 282.405 7.27516 283.891C6.89618 284.454 6.72445 285.07 6.72445 285.686C6.72445 286.74 7.23962 287.764 8.15747 288.374ZM5.44539 81.1253C6.46982 82.5939 8.48315 82.9492 9.94577 81.9307L10.455 81.5694C11.3788 80.9358 11.8584 79.9292 11.8584 78.8929C11.8584 78.2652 11.669 77.6257 11.2959 77.0691C10.2715 75.6005 8.25814 75.2275 6.79551 76.2519L6.25074 76.625C5.34474 77.2526 4.86508 78.2652 4.86508 79.2837C4.86508 79.9173 5.05457 80.5569 5.44539 81.1253ZM-8.0913 275.418L-7.59389 275.856C-6.29707 277.087 -4.25413 277.005 -3.02837 275.708C-2.44806 275.08 -2.16973 274.287 -2.16973 273.505C-2.16973 272.634 -2.51911 271.77 -3.20009 271.136L-3.67383 270.692C-4.97065 269.466 -7.01358 269.532 -8.24527 270.846C-8.82558 271.462 -9.11574 272.261 -9.11574 273.049C-9.11574 273.919 -8.7782 274.766 -8.0913 275.418ZM-9.81448 94.4607C-8.57095 95.7338 -6.52209 95.7575 -5.24895 94.5081L-4.79892 94.0699C-4.1357 93.4362 -3.81593 92.5895 -3.81593 91.7486C-3.81593 90.9314 -4.10017 90.132 -4.71601 89.4984C-5.95954 88.2194 -8.00248 88.172 -9.28746 89.4155L-9.76119 89.8892C-10.4066 90.5229 -10.7501 91.3578 -10.7501 92.1927C-10.7501 93.0099 -10.4422 93.8271 -9.81448 94.4607ZM-22.0425 260.004L-21.628 260.549C-20.5384 261.946 -18.5133 262.201 -17.0921 261.111C-16.2749 260.46 -15.8545 259.506 -15.8545 258.553C-15.8545 257.854 -16.0736 257.155 -16.5354 256.563L-16.9263 256.066C-17.9981 254.645 -20.0233 254.39 -21.4622 255.468C-22.2734 256.113 -22.7235 257.073 -22.7235 258.044C-22.7235 258.725 -22.4985 259.423 -22.0425 260.004ZM-22.7709 110.058C-21.3378 111.118 -19.3127 110.81 -18.2349 109.377L-17.8619 108.868C-17.4355 108.288 -17.2105 107.607 -17.2105 106.937C-17.2105 105.949 -17.6724 104.977 -18.5251 104.332C-19.9581 103.278 -21.9715 103.562 -23.0433 104.995L-23.4341 105.522C-23.8663 106.108 -24.0854 106.789 -24.0854 107.447C-24.0854 108.436 -23.6295 109.413 -22.7709 110.058ZM-33.329 242.577L-33.0211 243.157C-32.1625 244.726 -30.2024 245.306 -28.6391 244.454C-27.5614 243.873 -26.9515 242.748 -26.9515 241.605C-26.9515 241.078 -27.0699 240.551 -27.3423 240.072L-27.6502 239.497C-28.497 237.922 -30.463 237.342 -32.0263 238.195C-33.104 238.775 -33.7198 239.882 -33.7198 241.037C-33.7198 241.558 -33.6014 242.079 -33.329 242.577ZM-33.0211 127.539C-31.4341 128.356 -29.4918 127.722 -28.6747 126.141L-28.3845 125.573C-28.124 125.093 -28.0233 124.584 -28.0233 124.08C-28.0233 122.92 -28.6391 121.795 -29.7465 121.232C-31.3275 120.391 -33.2757 121.007 -34.1107 122.594L-34.4186 123.192C-34.6732 123.666 -34.7916 124.163 -34.7916 124.678C-34.7916 125.833 -34.1462 126.97 -33.0211 127.539ZM-41.6606 223.527L-41.4416 224.178C-40.8435 225.866 -39.0019 226.754 -37.3202 226.156C-35.9819 225.682 -35.1528 224.433 -35.1528 223.107C-35.1528 222.745 -35.218 222.39 -35.3364 222.029L-35.5437 221.437C-36.124 219.743 -37.9656 218.843 -39.6533 219.423C-41.0034 219.885 -41.8324 221.146 -41.8324 222.491C-41.8324 222.834 -41.7791 223.189 -41.6606 223.527ZM-40.3165 146.464C-38.6111 147.009 -36.7872 146.073 -36.2424 144.385L-36.0588 143.77C-35.9523 143.432 -35.8812 143.089 -35.8812 142.763C-35.8812 141.395 -36.7517 140.14 -38.1196 139.695C-39.825 139.133 -41.6429 140.069 -42.1936 141.756L-42.3949 142.408C-42.5193 142.727 -42.5726 143.071 -42.5726 143.396C-42.5726 144.758 -41.6784 146.02 -40.3165 146.464ZM-46.7769 203.4L-46.6585 204.063C-46.3505 205.816 -44.6806 206.994 -42.9279 206.686C-41.3586 206.414 -40.2454 205.034 -40.2454 203.5C-40.2454 203.311 -40.2691 203.127 -40.2987 202.932L-40.4053 202.304C-40.7073 200.545 -42.3831 199.367 -44.1359 199.663C-45.7051 199.935 -46.8302 201.286 -46.8302 202.831C-46.8302 203.021 -46.8183 203.204 -46.7769 203.4ZM-44.426 166.313C-42.6732 166.562 -41.0152 165.354 -40.7606 163.583L-40.654 162.938L-40.6244 162.458C-40.6244 160.889 -41.7791 159.503 -43.3661 159.266C-45.1425 159 -46.7947 160.22 -47.0493 161.984L-47.1559 162.63L-47.1914 163.121C-47.1914 164.69 -46.0308 166.07 -44.426 166.313ZM-48.5889 182.698L-48.5711 183.361C-48.5534 185.138 -47.0848 186.571 -45.3143 186.547C-43.5437 186.529 -42.1107 185.102 -42.1107 183.296V182.645C-42.1225 180.856 -43.5911 179.423 -45.3794 179.441C-47.1026 179.459 -48.5889 180.785 -48.5889 182.698ZM216.579 246.84C218.219 247.586 220.132 246.876 220.86 245.241L221.132 244.643C221.34 244.217 221.423 243.755 221.423 243.317C221.423 242.085 220.724 240.907 219.534 240.362C217.917 239.628 215.987 240.344 215.252 241.967L214.98 242.565C214.79 243.009 214.69 243.447 214.69 243.909C214.69 245.141 215.389 246.295 216.579 246.84ZM210.817 105.795L211.143 106.333C211.995 107.909 213.956 108.483 215.525 107.612C216.597 107.032 217.189 105.925 217.189 104.782C217.189 104.249 217.07 103.728 216.804 103.236L216.478 102.65C215.608 101.081 213.648 100.518 212.096 101.389C211.018 101.969 210.426 103.077 210.426 104.219C210.426 104.752 210.545 105.279 210.817 105.795ZM206.595 265.475C208.111 266.429 210.101 265.973 211.042 264.469L211.397 263.912C211.741 263.361 211.895 262.787 211.895 262.183C211.895 261.111 211.35 260.051 210.379 259.441C208.857 258.5 206.861 258.962 205.926 260.46L205.582 261.01C205.245 261.555 205.073 262.153 205.073 262.728C205.073 263.805 205.618 264.859 206.595 265.475ZM198.666 91.6953L199.051 92.2105C200.111 93.6435 202.142 93.9514 203.575 92.8915C204.428 92.2638 204.884 91.2749 204.884 90.286C204.884 89.6228 204.682 88.9536 204.256 88.3792L203.865 87.8463C202.787 86.4192 200.78 86.1054 199.341 87.1831C198.477 87.8108 198.032 88.7819 198.032 89.7767C198.032 90.434 198.234 91.1209 198.666 91.6953ZM194.367 281.552C195.729 282.701 197.778 282.512 198.921 281.126L199.341 280.623C199.839 280.019 200.075 279.284 200.075 278.574C200.075 277.638 199.685 276.708 198.921 276.081C197.541 274.944 195.492 275.127 194.367 276.507L193.958 277.005C193.443 277.597 193.206 278.337 193.206 279.065C193.206 279.983 193.603 280.907 194.367 281.552ZM186.201 78.1113L186.639 78.5672C187.889 79.8522 189.932 79.8818 191.211 78.6383C191.874 78.0106 192.2 77.1579 192.2 76.317C192.2 75.5117 191.91 74.7004 191.3 74.0728L190.838 73.5872C189.588 72.3141 187.545 72.2963 186.266 73.5339C185.615 74.1734 185.295 75.0024 185.295 75.8433C185.295 76.6605 185.585 77.4717 186.201 78.1113ZM180.126 295.859C181.322 297.191 183.371 297.274 184.697 296.06L185.194 295.604C185.875 294.976 186.213 294.1 186.213 293.23C186.213 292.448 185.929 291.666 185.348 291.033C184.135 289.724 182.086 289.653 180.789 290.867L180.315 291.287C179.634 291.939 179.279 292.809 179.279 293.674C179.279 294.455 179.551 295.249 180.126 295.859ZM171.504 64.8943L172.013 65.3029C173.405 66.4103 175.442 66.1734 176.549 64.7582C177.023 64.1778 177.248 63.4673 177.248 62.7685C177.248 61.8092 176.821 60.8558 176.022 60.2222L175.507 59.8077C174.097 58.7063 172.06 58.9609 170.953 60.3584C170.497 60.9565 170.272 61.6553 170.272 62.3599C170.272 63.3074 170.698 64.2607 171.504 64.8943ZM164.131 308.187C165.162 309.632 167.175 309.994 168.638 308.975L169.171 308.596C170.071 307.968 170.55 306.956 170.55 305.955C170.55 305.31 170.361 304.658 169.952 304.096C168.928 302.627 166.915 302.284 165.452 303.308L164.919 303.669C164.031 304.303 163.533 305.31 163.533 306.328C163.533 306.956 163.747 307.607 164.131 308.187ZM155.184 53.7441L155.747 54.0638C157.28 54.9876 159.258 54.4724 160.164 52.9387C160.484 52.4295 160.62 51.8728 160.62 51.3044C160.62 50.197 160.057 49.1193 159.057 48.5094L158.476 48.1659C156.943 47.2659 154.947 47.7751 154.041 49.3266C153.739 49.8358 153.597 50.4043 153.597 50.9668C153.597 52.0742 154.165 53.146 155.184 53.7441ZM146.639 318.242C147.462 319.835 149.405 320.463 150.992 319.64L151.601 319.338C152.697 318.757 153.325 317.638 153.325 316.478C153.325 315.962 153.2 315.447 152.963 314.974C152.134 313.387 150.168 312.789 148.605 313.612L148.043 313.896C146.935 314.458 146.284 315.601 146.284 316.78C146.284 317.277 146.396 317.769 146.639 318.242ZM137.538 44.8617L138.13 45.1163C139.788 45.8151 141.683 45.0275 142.376 43.3932C142.547 42.9846 142.636 42.5582 142.636 42.1319C142.636 40.8706 141.884 39.6803 140.658 39.1474L140.043 38.9106C138.408 38.2118 136.513 38.9757 135.815 40.61C135.643 41.0423 135.56 41.4687 135.56 41.8772C135.56 43.1385 136.294 44.3288 137.538 44.8617ZM127.974 325.934C128.567 327.61 130.426 328.492 132.096 327.877L132.747 327.658C134.044 327.184 134.861 325.934 134.861 324.626C134.861 324.253 134.79 323.874 134.654 323.512C134.056 321.825 132.196 320.978 130.515 321.594L129.917 321.795C128.602 322.269 127.785 323.512 127.785 324.845C127.785 325.2 127.838 325.579 127.974 325.934ZM118.849 38.4131L119.465 38.5671C121.188 39.0467 122.906 38.0223 123.385 36.2991C123.456 36.0267 123.486 35.7544 123.486 35.4701C123.486 34.0312 122.497 32.7047 121.052 32.308L120.561 32.1777C118.814 31.6981 117.043 32.7166 116.581 34.4398C116.498 34.7358 116.463 35.0023 116.463 35.2925C116.463 36.7077 117.416 38.0223 118.849 38.4131ZM108.498 331.033C108.877 332.774 110.648 333.881 112.389 333.508L112.934 333.39C114.432 333.052 115.474 331.714 115.474 330.233C115.474 329.997 115.438 329.772 115.385 329.535C115.018 327.794 113.295 326.686 111.554 327.059L110.92 327.196C109.404 327.539 108.415 328.854 108.415 330.334C108.415 330.553 108.445 330.796 108.498 331.033ZM99.4798 34.5108L100.131 34.5937C101.902 34.8365 103.518 33.593 103.761 31.8165L103.797 31.3902C103.797 29.7854 102.618 28.4057 100.978 28.1866L100.35 28.0978C98.5738 27.8609 96.9395 29.1045 96.7026 30.8809L96.6789 31.3073C96.6789 32.8883 97.8633 34.2858 99.4798 34.5108ZM88.3947 333.508C88.5486 335.296 90.106 336.617 91.8943 336.475L92.5398 336.421C94.2274 336.285 95.5065 334.87 95.5065 333.2L95.4887 332.928C95.3525 331.151 93.7833 329.825 92.0068 329.979L91.3614 330.032C89.6737 330.168 88.3947 331.584 88.3947 333.253V333.508ZM71.2754 336.712L71.9268 336.747C73.6973 336.83 75.2133 335.468 75.3198 333.508C75.3198 331.803 73.9757 330.37 72.2466 330.287L71.607 330.245C69.8128 330.168 68.2969 331.53 68.214 333.437C68.214 335.172 69.5226 336.629 71.2754 336.712ZM52.3856 32.5508C52.6758 34.3036 54.3457 35.4997 56.1044 35.2096L56.7321 35.1089C58.319 34.8484 59.4086 33.4864 59.4086 31.9349C59.4086 31.7632 59.3968 31.5797 59.3553 31.4079C59.0888 29.6315 57.3775 28.4412 55.6247 28.7314L55.0503 28.8321C53.4574 29.0926 52.3323 30.4546 52.3323 32.006C52.3323 32.1896 52.356 32.3613 52.3856 32.5508ZM50.7987 334.242L51.4678 334.361C53.2206 334.686 54.8964 333.526 55.2161 331.767C55.2517 331.56 55.2694 331.376 55.2694 331.175C55.2694 329.653 54.1739 328.291 52.6225 328.001L51.9948 327.877C50.2361 327.557 48.5484 328.718 48.2287 330.476C48.1754 330.678 48.1576 330.867 48.1576 331.068C48.1576 332.602 49.2472 333.952 50.7987 334.242ZM32.1161 37.5782C32.6431 39.2836 34.4492 40.237 36.1546 39.71L36.7527 39.5441C38.1502 39.1119 39.068 37.821 39.068 36.4413C39.068 36.1274 39.0207 35.8254 38.92 35.4997C38.4226 33.7943 36.6165 32.8173 34.9111 33.3324L34.2597 33.5338C32.8622 33.966 31.9799 35.2451 31.9799 36.6248C31.9799 36.9327 32.0095 37.2525 32.1161 37.5782ZM30.8371 329.055L31.4647 329.274C33.1702 329.825 34.994 328.907 35.5388 327.213C35.6572 326.876 35.7105 326.532 35.7105 326.189C35.7105 324.845 34.84 323.566 33.4781 323.122L32.88 322.92C31.1746 322.352 29.3508 323.276 28.7882 324.963C28.6698 325.307 28.6165 325.644 28.6165 325.988C28.6165 327.356 29.4692 328.617 30.8371 329.055ZM13.4099 45.1637C14.1619 46.7862 16.0687 47.5027 17.703 46.7566L18.2833 46.4842C19.4617 45.9335 20.1782 44.7729 20.1782 43.5471C20.1782 43.0852 20.0776 42.647 19.8703 42.197C19.136 40.5804 17.2115 39.8639 15.595 40.61L14.9909 40.8884C13.8185 41.4331 13.1197 42.5938 13.1197 43.8195C13.1197 44.2636 13.2026 44.7255 13.4099 45.1637ZM11.9413 321.369L12.3322 321.558C13.9369 322.34 15.8792 321.653 16.649 320.054C16.8681 319.592 16.9687 319.119 16.9687 318.639C16.9687 317.449 16.3055 316.282 15.1449 315.737L14.5705 315.447C12.9658 314.666 11.1242 315.382 10.3425 316.981C10.1353 317.425 10.0346 317.887 10.0346 318.331C10.0346 319.581 10.7689 320.789 11.9413 321.369ZM-4.10017 55.1948C-3.1468 56.693 -1.15123 57.1371 0.346923 56.1778L0.879867 55.8581C1.86285 55.2422 2.41354 54.1882 2.41354 53.1104C2.41354 52.5183 2.24182 51.938 1.91613 51.3932C0.962761 49.8891 -1.01504 49.4154 -2.53688 50.3688L-3.11719 50.7241C-4.08832 51.3399 -4.61535 52.3821 -4.61535 53.4539C-4.61535 54.046 -4.44362 54.6441 -4.10017 55.1948ZM-6.14312 310.982L-5.60426 311.355C-4.10018 312.35 -2.10461 311.936 -1.12163 310.438C-0.742653 309.887 -0.570914 309.277 -0.570914 308.667C-0.570914 307.607 -1.08018 306.589 -2.02171 305.955L-2.56649 305.612C-4.04688 304.629 -6.04245 305.019 -7.04911 306.5C-7.41033 307.062 -7.58206 307.672 -7.58206 308.288C-7.58206 309.348 -7.08465 310.373 -6.14312 310.982ZM-20.1476 67.4347C-19.0047 68.8026 -16.9618 68.9861 -15.5939 67.8433L-15.1202 67.4347C-14.3326 66.807 -13.9418 65.8655 -13.9418 64.9476C-13.9418 64.2134 -14.1787 63.4791 -14.6761 62.8869C-15.813 61.5013 -17.8619 61.3118 -19.2238 62.4606L-19.7568 62.8869C-20.5207 63.5265 -20.9115 64.4325 -20.9115 65.3562C-20.9115 66.0905 -20.6569 66.8425 -20.1476 67.4347ZM-22.5162 298.435L-22.007 298.879C-20.6569 300.051 -18.6258 299.921 -17.4592 298.571C-16.9085 297.961 -16.648 297.191 -16.648 296.439C-16.648 295.539 -17.0269 294.651 -17.7553 293.999L-18.2349 293.579C-19.5851 292.395 -21.628 292.537 -22.8064 293.887C-23.3512 294.497 -23.6058 295.249 -23.6058 296.019C-23.6058 296.901 -23.2327 297.801 -22.5162 298.435ZM-34.4363 81.6879C-33.1218 82.9018 -31.0729 82.813 -29.8827 81.5043L-29.4385 81.0247C-28.876 80.4088 -28.5859 79.6272 -28.5859 78.8396C-28.5859 77.9691 -28.9293 77.0987 -29.6221 76.4592C-30.9367 75.2393 -32.9856 75.3281 -34.1995 76.6427L-34.6377 77.1401C-35.218 77.75 -35.4904 78.5317 -35.4904 79.3193C-35.4904 80.1897 -35.1351 81.0602 -34.4363 81.6879ZM-37.0774 283.838L-36.6332 284.353C-35.443 285.686 -33.3882 285.816 -32.0677 284.643C-31.3512 283.992 -30.9722 283.104 -30.9722 282.204C-30.9722 281.452 -31.2269 280.682 -31.7716 280.072L-32.1861 279.61C-33.3586 278.248 -35.3897 278.112 -36.7517 279.272C-37.486 279.918 -37.859 280.824 -37.859 281.73C-37.859 282.476 -37.6044 283.228 -37.0774 283.838ZM-46.7236 97.7175C-45.2787 98.742 -43.2476 98.3985 -42.2291 96.9359L-41.8501 96.3852C-41.4593 95.8286 -41.2698 95.1772 -41.2698 94.5495C-41.2698 93.5192 -41.7495 92.5184 -42.6555 91.8848C-44.1181 90.8604 -46.1314 91.2157 -47.1559 92.6842L-47.5348 93.2172C-47.9257 93.7797 -48.1092 94.4252 -48.1092 95.0765C-48.1092 96.095 -47.6296 97.0839 -46.7236 97.7175ZM-49.5719 267.471L-49.2166 268.016C-48.2099 269.502 -46.2143 269.893 -44.7339 268.904C-43.7924 268.288 -43.2832 267.264 -43.2832 266.21C-43.2832 265.594 -43.4549 264.978 -43.8339 264.439L-44.1892 263.888C-45.1781 262.39 -47.1914 261.999 -48.6718 262.988C-49.6074 263.616 -50.1048 264.64 -50.1048 265.683C-50.1048 266.292 -49.9331 266.926 -49.5719 267.471ZM-56.7902 115.245C-55.2033 116.063 -53.2551 115.435 -52.4438 113.842L-52.13 113.279C-51.8931 112.806 -51.7747 112.296 -51.7747 111.781C-51.7747 110.627 -52.4024 109.501 -53.5097 108.921C-55.0967 108.098 -57.0449 108.714 -57.8798 110.301L-58.1877 110.881C-58.4246 111.361 -58.543 111.87 -58.543 112.362C-58.543 113.54 -57.8976 114.671 -56.7902 115.245ZM-59.8043 249.564L-59.4964 250.18C-58.7148 251.785 -56.7725 252.43 -55.1677 251.648C-54.0249 251.086 -53.3794 249.925 -53.3794 248.747C-53.3794 248.255 -53.4801 247.782 -53.7051 247.32L-53.9716 246.751C-54.7592 245.152 -56.7014 244.472 -58.3002 245.253C-59.449 245.822 -60.13 246.959 -60.13 248.172C-60.13 248.628 -60.0116 249.126 -59.8043 249.564ZM-64.4291 133.946C-62.7355 134.544 -60.8939 133.679 -60.3017 131.986L-60.0767 131.376C-59.9405 131.02 -59.8932 130.641 -59.8932 130.28C-59.8932 128.954 -60.7103 127.71 -62.019 127.254C-63.7126 126.638 -65.5542 127.521 -66.1641 129.191L-66.3891 129.824C-66.5075 130.18 -66.5727 130.535 -66.5727 130.896C-66.5727 132.228 -65.7555 133.472 -64.4291 133.946ZM-67.5497 230.473L-67.3425 231.101C-66.7799 232.788 -64.9383 233.712 -63.2507 233.149C-61.9006 232.688 -61.0479 231.42 -61.0479 230.076C-61.0479 229.739 -61.1012 229.401 -61.2077 229.058L-61.4091 228.448C-61.9716 226.754 -63.7955 225.836 -65.4831 226.381C-66.8451 226.825 -67.7155 228.087 -67.7155 229.449C-67.7155 229.792 -67.6682 230.129 -67.5497 230.473ZM-69.492 153.505C-67.7333 153.878 -66.0338 152.758 -65.6548 151L-65.5186 150.384C-65.4831 150.147 -65.4535 149.922 -65.4535 149.703C-65.4535 148.217 -66.4898 146.872 -68.0116 146.547C-69.7466 146.174 -71.4698 147.281 -71.8429 149.016L-71.9968 149.691C-72.0324 149.91 -72.062 150.129 -72.062 150.348C-72.062 151.852 -71.0079 153.185 -69.492 153.505ZM-72.66 210.606L-72.5594 211.157C-72.2219 212.91 -70.5283 214.07 -68.7755 213.727C-67.2241 213.419 -66.1522 212.069 -66.1522 210.559C-66.1522 210.351 -66.1641 210.15 -66.2115 209.943L-66.3358 209.309C-66.6615 207.557 -68.3491 206.449 -70.0901 206.787C-71.6356 207.077 -72.7311 208.457 -72.7311 209.996C-72.7311 210.198 -72.6956 210.405 -72.66 210.606ZM-71.9139 173.555C-70.1375 173.697 -68.5683 172.365 -68.4321 170.576L-68.3847 169.925V169.67C-68.3847 168.001 -69.6756 166.585 -71.3691 166.449C-73.1397 166.313 -74.7089 167.639 -74.8451 169.434L-74.8984 170.079V170.351C-74.8984 172.003 -73.6016 173.425 -71.9139 173.555ZM-75.1175 190.029L-75.082 190.692C-74.9813 192.486 -73.4476 193.848 -71.6711 193.747C-69.9539 193.647 -68.6215 192.214 -68.6215 190.337L-68.6571 189.703C-68.7577 187.909 -70.2736 186.547 -72.0442 186.63C-73.8029 186.719 -75.1175 188.223 -75.1175 190.029ZM246.643 247.195C248.312 247.794 250.172 246.923 250.764 245.235L250.989 244.614C251.125 244.258 251.196 243.885 251.196 243.53C251.196 242.198 250.373 240.972 249.047 240.492C247.377 239.882 245.517 240.771 244.919 242.434L244.7 243.05C244.564 243.406 244.493 243.785 244.493 244.146C244.493 245.478 245.31 246.716 246.643 247.195ZM230.814 91.2808L231.14 91.8138C232.081 93.3297 234.077 93.8093 235.593 92.8737C236.576 92.2579 237.127 91.1979 237.127 90.1083C237.127 89.5339 236.973 88.9477 236.647 88.4207L236.292 87.8404C235.332 86.3363 233.343 85.8803 231.821 86.8159C230.85 87.4496 230.317 88.4858 230.317 89.5636C230.317 90.1616 230.477 90.7538 230.814 91.2808ZM231.661 278.899C233.165 279.871 235.161 279.444 236.15 277.964L236.505 277.384C236.866 276.857 237.02 276.235 237.02 275.649C237.02 274.589 236.505 273.546 235.54 272.913C234.036 271.959 232.04 272.403 231.069 273.908L230.725 274.417C230.37 274.962 230.198 275.577 230.198 276.193C230.198 277.247 230.725 278.272 231.661 278.899ZM217.283 73.0128L217.674 73.4865C218.782 74.9077 220.813 75.1386 222.21 74.0313C223.027 73.4036 223.454 72.4502 223.454 71.4969C223.454 70.7922 223.229 70.0935 222.755 69.4954L222.346 68.9684C221.239 67.5709 219.19 67.3518 217.81 68.4591C217.011 69.0868 216.579 70.0461 216.579 70.9817C216.579 71.6982 216.822 72.4147 217.283 73.0128ZM215.951 297.428C217.331 298.571 219.362 298.37 220.511 297.002L220.925 296.475C221.423 295.877 221.665 295.16 221.665 294.449C221.665 293.502 221.251 292.572 220.469 291.939C219.09 290.796 217.041 291.015 215.916 292.395L215.525 292.874C215.033 293.49 214.773 294.207 214.773 294.941C214.773 295.877 215.187 296.8 215.951 297.428ZM204.167 58.2267L204.611 58.6885C205.873 59.9498 207.921 59.9617 209.183 58.7241C209.828 58.0905 210.154 57.2555 210.154 56.4206C210.154 55.5857 209.846 54.7626 209.212 54.1526L208.756 53.6789C207.495 52.4117 205.452 52.3999 204.185 53.6552C203.557 54.2888 203.232 55.1238 203.232 55.9646C203.232 56.7759 203.539 57.5931 204.167 58.2267ZM202.106 312.007C203.338 313.286 205.399 313.321 206.678 312.078L207.14 311.61C207.785 310.982 208.111 310.148 208.111 309.313C208.111 308.495 207.803 307.672 207.187 307.045C205.95 305.766 203.895 305.754 202.616 306.991L202.16 307.435C201.514 308.069 201.183 308.922 201.183 309.757C201.183 310.574 201.497 311.391 202.106 312.007ZM189.488 45.0275L189.985 45.4243C191.383 46.5494 193.414 46.3303 194.539 44.9446C195.012 44.3465 195.249 43.63 195.249 42.9135C195.249 41.9779 194.841 41.0423 194.041 40.3909L193.526 39.9824C192.146 38.8573 190.103 39.0823 188.996 40.4738C188.516 41.0719 188.28 41.7943 188.28 42.5049C188.28 43.4405 188.682 44.3821 189.488 45.0275ZM186.71 324.951C187.8 326.361 189.831 326.615 191.246 325.508L191.761 325.117C192.579 324.472 192.999 323.53 192.999 322.565C192.999 321.86 192.78 321.162 192.318 320.569C191.211 319.172 189.18 318.929 187.77 320.019L187.273 320.416C186.456 321.043 186.023 321.997 186.023 322.968C186.023 323.672 186.249 324.371 186.71 324.951ZM173.405 33.5338L173.955 33.8832C175.459 34.8484 177.455 34.4102 178.426 32.912C178.764 32.3613 178.918 31.7632 178.918 31.1711C178.918 30.0934 178.408 29.0511 177.437 28.4412L176.875 28.08C175.371 27.1266 173.375 27.5708 172.422 29.0748C172.084 29.6196 171.906 30.2118 171.906 30.8099C171.906 31.8639 172.439 32.9239 173.405 33.5338ZM169.952 336.066C170.888 337.6 172.866 338.08 174.399 337.156L174.962 336.8C175.951 336.185 176.496 335.131 176.496 334.053C176.496 333.473 176.348 332.88 176.022 332.347C175.08 330.832 173.085 330.37 171.569 331.311L171.042 331.631C170.035 332.247 169.49 333.301 169.49 334.396C169.49 334.971 169.627 335.551 169.952 336.066ZM156.155 23.9349L156.73 24.2132C158.334 25.0008 160.265 24.3494 161.052 22.7447C161.289 22.2887 161.39 21.7913 161.39 21.3176C161.39 20.1214 160.727 18.9786 159.584 18.416L158.986 18.1259C157.381 17.3383 155.439 18.0074 154.651 19.6063C154.432 20.0681 154.331 20.5478 154.331 21.0215C154.331 22.2177 154.995 23.3783 156.155 23.9349ZM152.063 345.256C152.809 346.879 154.74 347.572 156.356 346.826L156.96 346.53C158.133 345.985 158.814 344.83 158.814 343.598C158.814 343.16 158.713 342.681 158.512 342.236C157.76 340.614 155.829 339.915 154.213 340.685L153.633 340.963C152.454 341.508 151.755 342.663 151.755 343.894C151.755 344.333 151.856 344.812 152.063 345.256ZM137.929 16.3317L138.527 16.5567C140.214 17.1547 142.068 16.2665 142.666 14.5789C142.79 14.2236 142.838 13.8624 142.838 13.5071C142.838 12.1806 142.026 10.9312 140.694 10.4515L140.078 10.2502C138.39 9.65213 136.543 10.5404 135.951 12.2102C135.832 12.5655 135.761 12.9386 135.761 13.288C135.761 14.6322 136.602 15.8757 137.929 16.3317ZM133.239 352.327C133.801 354.038 135.631 354.956 137.33 354.393L137.964 354.174C139.308 353.712 140.161 352.469 140.161 351.101C140.161 350.763 140.114 350.42 139.989 350.083C139.415 348.389 137.591 347.477 135.897 348.051L135.282 348.241C133.937 348.697 133.067 349.964 133.067 351.308C133.067 351.652 133.138 351.995 133.239 352.327ZM118.956 10.8601L119.584 11.0141C121.324 11.4108 122.994 10.3153 123.403 8.5744C123.456 8.33754 123.468 8.10069 123.468 7.85791C123.468 6.37752 122.414 5.03331 120.916 4.6721L120.383 4.55366C118.642 4.16284 116.907 5.25242 116.516 6.99336C116.463 7.23022 116.427 7.48483 116.427 7.72169C116.427 9.19024 117.446 10.5226 118.956 10.8601ZM113.733 357.259C114.112 358.994 115.817 360.125 117.57 359.746L118.216 359.604C119.732 359.291 120.774 357.94 120.774 356.454C120.774 356.235 120.738 355.998 120.691 355.773C120.312 354.014 118.612 352.913 116.854 353.286L116.238 353.422C114.722 353.748 113.668 355.074 113.668 356.573C113.668 356.798 113.698 357.017 113.733 357.259ZM99.8351 7.57367L100.487 7.63879C102.257 7.84605 103.862 6.567 104.063 4.79053L104.087 4.41747C104.087 2.80089 102.855 1.39748 101.215 1.20799L100.569 1.14284C98.7989 0.94151 97.1941 2.22058 96.9928 3.99113L96.975 4.36419C96.975 5.98669 98.183 7.37826 99.8351 7.57367ZM93.801 359.954C93.9905 361.73 95.5598 363.021 97.3481 362.849L97.9994 362.784C99.6456 362.613 100.913 361.209 100.913 359.581L100.895 359.249C100.712 357.479 99.1364 356.164 97.3481 356.353L96.7204 356.407C95.0505 356.573 93.7833 357.994 93.7833 359.628L93.801 359.954ZM80.8447 6.46634L81.4724 6.47817C83.2607 6.47817 84.7115 5.04516 84.7292 3.25685C84.7292 1.48038 83.2784 0.0177647 81.5079 0L80.8447 0C79.0445 0 77.6056 1.45076 77.6056 3.23907C77.6056 5.03331 79.0445 6.46634 80.8447 6.46634ZM76.8891 363.667H77.5523C79.3465 363.684 80.7914 362.257 80.8269 360.433C80.8269 358.675 79.3939 357.224 77.6233 357.212H76.9897C75.1955 357.171 73.7329 358.604 73.6973 360.41C73.6973 362.287 75.1126 363.637 76.8891 363.667ZM58.6684 4.21022C58.8164 5.98669 60.3857 7.29534 62.174 7.1473L62.8076 7.09401C64.4775 6.94598 65.7565 5.54257 65.7565 3.8727V3.60029C65.6085 1.82383 64.0511 0.497392 62.2628 0.651352L61.5996 0.698744C59.9238 0.852705 58.6507 2.23242 58.6507 3.88453L58.6684 4.21022ZM56.4597 362.204L57.1288 362.287C58.8994 362.512 60.5159 361.251 60.7232 359.474L60.7528 359.083C60.7528 357.467 59.5626 356.081 57.9282 355.88L57.2946 355.791C55.5241 355.572 53.9016 356.815 53.6647 358.592L53.6469 358.977C53.6469 360.599 54.8253 362.003 56.4597 362.204ZM38.4581 7.44932C38.8193 9.19025 40.5247 10.3153 42.2775 9.96006L42.8934 9.84162C44.433 9.52778 45.4515 8.20136 45.4515 6.7032C45.4515 6.47818 45.4396 6.25315 45.3863 6.03997C45.0429 4.28127 43.2842 3.15618 41.5492 3.51147L40.9866 3.63583C39.447 3.93783 38.393 5.28795 38.393 6.7861C38.393 7.0052 38.4107 7.23022 38.4581 7.44932ZM36.3441 358.467L36.9718 358.621C38.7127 359.048 40.4478 357.976 40.88 356.259C40.9452 355.98 40.9807 355.726 40.9807 355.483C40.9807 354.014 39.974 352.688 38.5055 352.35L37.8778 352.191C36.1369 351.77 34.3782 352.824 33.9696 354.559C33.9044 354.82 33.8689 355.074 33.8689 355.335C33.8689 356.78 34.8578 358.112 36.3441 358.467ZM20.1664 13.2465C20.7289 14.9519 22.5469 15.8757 24.2345 15.325L24.8504 15.1236C26.2182 14.6973 27.1006 13.4182 27.1006 12.0563C27.1006 11.7306 27.0532 11.3872 26.9525 11.0674C26.4018 9.35606 24.5839 8.42637 22.8726 8.97116L22.2449 9.17249C20.8829 9.61661 20.0065 10.8957 20.0065 12.2398C20.0065 12.5774 20.0598 12.9268 20.1664 13.2465ZM16.7497 352.469L17.3655 352.688C19.0531 353.322 20.9066 352.451 21.5224 350.775C21.6586 350.408 21.7119 350.029 21.7119 349.65C21.7119 348.342 20.9066 347.116 19.5979 346.618L18.9821 346.399C17.3122 345.783 15.4528 346.636 14.8429 348.324C14.7067 348.679 14.6357 349.058 14.6357 349.431C14.6357 350.746 15.441 351.995 16.7497 352.469ZM2.98793 20.4945C3.72813 22.1289 5.65266 22.8454 7.27516 22.117L7.83178 21.8624C9.0457 21.3176 9.75629 20.1392 9.75629 18.8898C9.75629 18.4456 9.66155 18.0074 9.47206 17.5811C8.73778 15.9467 6.83103 15.2243 5.20852 15.9467L4.59268 16.2191C3.40244 16.758 2.69778 17.9364 2.69778 19.1622C2.69778 19.6063 2.7866 20.0682 2.98793 20.4945ZM-2.03947 344.297L-1.44138 344.593C0.163366 345.393 2.10562 344.741 2.90503 343.142C3.13005 342.681 3.2485 342.189 3.2485 341.709C3.2485 340.513 2.57936 339.37 1.45426 338.814L0.891703 338.518C-0.707119 337.718 -2.6553 338.352 -3.45471 339.957C-3.69157 340.413 -3.81593 340.91 -3.81593 341.407C-3.81593 342.58 -3.16457 343.723 -2.03947 344.297ZM-14.6405 30.1822C-13.7168 31.6981 -11.7212 32.1896 -10.2053 31.2717L-9.67829 30.9638C-8.65386 30.348 -8.07947 29.2762 -8.07947 28.1689C-8.07947 27.6063 -8.2275 27.0438 -8.53542 26.5286C-9.44142 25.0008 -11.4192 24.4856 -12.947 25.3857L-13.5273 25.7292C-14.5399 26.345 -15.1024 27.4168 -15.1024 28.5123C-15.1024 29.0748 -14.9485 29.6492 -14.6405 30.1822ZM-19.7745 334.053L-19.2061 334.414C-17.7079 335.385 -15.7124 334.959 -14.7412 333.473C-14.38 332.928 -14.2083 332.312 -14.2083 331.702C-14.2083 330.642 -14.7412 329.618 -15.6768 328.99L-16.2098 328.646C-17.7079 327.658 -19.7035 328.084 -20.6924 329.57C-21.0477 330.115 -21.2194 330.725 -21.2194 331.341C-21.2194 332.401 -20.7102 333.425 -19.7745 334.053ZM-31.0729 41.7588C-29.9833 43.1741 -27.9582 43.4405 -26.537 42.351L-26.0455 41.9779C-25.2106 41.3443 -24.7664 40.3791 -24.7664 39.3902C-24.7664 38.7211 -24.9737 38.0401 -25.4119 37.4598C-26.4718 36.0267 -28.497 35.7425 -29.93 36.8084L-30.4807 37.2229C-31.2979 37.8506 -31.742 38.8276 -31.742 39.7988C-31.742 40.4738 -31.517 41.1607 -31.0729 41.7588ZM-36.2424 321.878L-35.7332 322.31C-34.3534 323.447 -32.3223 323.246 -31.1736 321.878C-30.6821 321.262 -30.4452 320.534 -30.4452 319.811C-30.4452 318.876 -30.836 317.958 -31.6236 317.33L-32.0973 316.916C-33.4771 315.773 -35.5082 315.962 -36.651 317.33C-37.1603 317.94 -37.4031 318.657 -37.4031 319.385C-37.4031 320.327 -37.0063 321.245 -36.2424 321.878ZM-46.1137 55.0942C-44.8879 56.3851 -42.8391 56.4384 -41.5422 55.1948L-41.104 54.7626C-40.4171 54.1349 -40.0796 53.2644 -40.0796 52.4117C-40.0796 51.6182 -40.3698 50.8247 -40.9678 50.197C-42.1936 48.9002 -44.2365 48.8351 -45.5334 50.0668L-46.013 50.5227C-46.6762 51.1682 -47.0197 52.0031 -47.0197 52.8558C-47.0197 53.6552 -46.7058 54.4724 -46.1137 55.0942ZM-51.2299 307.968L-50.7858 308.424C-49.5422 309.721 -47.4934 309.739 -46.2143 308.495C-45.5511 307.868 -45.2254 307.033 -45.2254 306.174C-45.2254 305.375 -45.5334 304.558 -46.1492 303.93L-46.5756 303.462C-47.8191 302.183 -49.8679 302.153 -51.1588 303.397C-51.8102 304.031 -52.1478 304.86 -52.1478 305.712C-52.1478 306.518 -51.8457 307.335 -51.2299 307.968ZM-59.5675 70.0579C-58.2055 71.2008 -56.1566 71.0172 -55.0138 69.6375L-54.5993 69.1401C-54.0959 68.542 -53.8532 67.8137 -53.8532 67.0794C-53.8532 66.1556 -54.244 65.2378 -55.0138 64.5864C-56.3817 63.4436 -58.4246 63.6153 -59.5675 64.995L-59.9938 65.4924C-60.4912 66.1023 -60.7459 66.8425 -60.7459 67.5709C-60.7459 68.4887 -60.3373 69.4125 -59.5675 70.0579ZM-64.5949 292.436L-64.1922 292.975C-63.0849 294.372 -61.0479 294.633 -59.6385 293.538C-58.8154 292.892 -58.3891 291.939 -58.3891 290.985C-58.3891 290.287 -58.6141 289.582 -59.0701 289.008L-59.4668 288.51C-60.5386 287.095 -62.5697 286.822 -63.9849 287.912C-64.8199 288.546 -65.2581 289.505 -65.2581 290.476C-65.2581 291.157 -65.039 291.856 -64.5949 292.436ZM-71.2744 86.4133C-69.7763 87.4022 -67.7866 86.9936 -66.7977 85.4895L-66.4365 84.9625C-66.0812 84.4177 -65.9095 83.8019 -65.9095 83.1742C-65.9095 82.132 -66.4069 81.1076 -67.3425 80.4799C-68.8229 79.491 -70.8362 79.8996 -71.8251 81.3859L-72.1804 81.9307C-72.5594 82.4932 -72.7311 83.1031 -72.7311 83.719C-72.7311 84.7612 -72.2219 85.7974 -71.2744 86.4133ZM-76.1242 275.518L-75.7629 276.093C-74.8451 277.614 -72.8495 278.094 -71.3336 277.17C-70.3269 276.56 -69.7762 275.5 -69.7762 274.411C-69.7762 273.831 -69.9361 273.25 -70.2618 272.741L-70.5816 272.196C-71.4994 270.657 -73.4831 270.165 -75.0168 271.089C-76.0176 271.699 -76.586 272.753 -76.586 273.86C-76.586 274.429 -76.4321 275.009 -76.1242 275.518ZM-81.0509 103.988C-79.4639 104.812 -77.5217 104.16 -76.7163 102.579L-76.4321 102.028C-76.1893 101.555 -76.0709 101.04 -76.0709 100.524C-76.0709 99.3696 -76.6986 98.2446 -77.8118 97.6642C-79.381 96.8471 -81.3411 97.457 -82.1582 99.0321L-82.4839 99.6598C-82.7208 100.122 -82.8451 100.619 -82.8451 101.117C-82.8451 102.283 -82.176 103.432 -81.0509 103.988ZM-85.6756 257.428L-85.3973 258.026C-84.6453 259.648 -82.7386 260.359 -81.1042 259.613C-79.9258 259.068 -79.2271 257.89 -79.2271 256.664C-79.2271 256.214 -79.3277 255.758 -79.5172 255.314L-79.7896 254.751C-80.5239 253.111 -82.4484 252.395 -84.0709 253.129C-85.2611 253.68 -85.9599 254.852 -85.9599 256.084C-85.9599 256.522 -85.877 256.984 -85.6756 257.428ZM-88.7904 122.576C-87.1205 123.192 -85.2611 122.333 -84.6453 120.664L-84.4262 120.071C-84.2722 119.692 -84.2012 119.302 -84.2012 118.929C-84.2012 117.614 -85.0065 116.388 -86.3033 115.909C-87.9732 115.275 -89.8326 116.116 -90.4603 117.786L-90.703 118.413C-90.8392 118.775 -90.9044 119.165 -90.9044 119.538C-90.9044 120.859 -90.105 122.079 -88.7904 122.576ZM-93.125 238.349L-92.9177 238.976C-92.3552 240.688 -90.5136 241.605 -88.8259 241.037C-87.4817 240.581 -86.6113 239.32 -86.6113 237.976C-86.6113 237.632 -86.6586 237.295 -86.783 236.951L-86.9665 236.353C-87.5291 234.648 -89.3529 233.73 -91.0406 234.269C-92.4203 234.719 -93.273 235.992 -93.273 237.36C-93.273 237.685 -93.2256 238.029 -93.125 238.349ZM-94.3863 141.892C-92.6631 142.319 -90.9044 141.265 -90.484 139.542L-90.3122 138.908C-90.2589 138.653 -90.2234 138.381 -90.2234 138.126C-90.2234 136.675 -91.1945 135.367 -92.6631 134.988C-94.3981 134.561 -96.1568 135.621 -96.5832 137.345L-96.7549 137.972C-96.8023 138.233 -96.8378 138.505 -96.8378 138.76C-96.8378 140.205 -95.8667 141.537 -94.3863 141.892ZM-98.3596 218.571L-98.2234 219.216C-97.8681 220.957 -96.139 222.082 -94.3981 221.703C-92.8822 221.401 -91.8281 220.057 -91.8281 218.553C-91.8281 218.334 -91.8578 218.109 -91.8933 217.884L-92.0295 217.256C-92.3907 215.521 -94.0961 214.39 -95.8489 214.751C-97.3707 215.059 -98.4248 216.403 -98.4248 217.907C-98.4248 218.127 -98.407 218.352 -98.3596 218.571ZM-97.7438 161.724C-95.9673 161.961 -94.3507 160.705 -94.1316 158.929L-94.0487 158.313L-94.0073 157.875C-94.0073 156.282 -95.1857 154.89 -96.8023 154.665C-98.5787 154.422 -100.213 155.666 -100.456 157.448L-100.539 158.094L-100.557 158.514C-100.557 160.119 -99.3781 161.516 -97.7438 161.724ZM-101.344 198.301L-101.273 198.964C-101.113 200.735 -99.5321 202.049 -97.7616 201.878C-96.0917 201.724 -94.8304 200.326 -94.8304 198.668L-94.8422 198.366L-94.8955 197.733C-95.0495 195.962 -96.6187 194.648 -98.407 194.801C-100.077 194.955 -101.356 196.371 -101.356 198.023L-101.344 198.301ZM-98.8689 181.81C-97.0806 181.827 -95.612 180.412 -95.5765 178.618L-95.5587 177.925C-95.5587 176.166 -96.9799 174.733 -98.7327 174.698C-100.521 174.662 -101.99 176.083 -102.037 177.872L-102.055 178.713C-102.055 180.359 -100.592 181.774 -98.8689 181.81ZM76.4094 33.5456L77.0549 33.6285C78.8313 33.8654 80.4479 32.6219 80.6907 30.8513L80.7203 30.4249C80.7203 28.8202 79.5419 27.4405 77.9076 27.2155L77.2799 27.1326C75.5034 26.8957 73.8691 28.1333 73.6322 29.9157L73.6085 30.342C73.6085 31.9231 74.7928 33.3265 76.4094 33.5456ZM152.999 122.262L153.36 122.789C154.367 124.27 156.374 124.649 157.861 123.642C158.784 123.032 159.276 122.008 159.276 120.966C159.276 120.332 159.086 119.704 158.713 119.154L158.334 118.615C157.334 117.128 155.32 116.749 153.858 117.762C152.934 118.396 152.436 119.408 152.436 120.433C152.436 121.066 152.62 121.7 152.999 122.262Z" fill="#C51A43"/>
</g>
<defs>
<clipPath id="clip0_357_359">
<rect width="378.824" height="368" fill="white" transform="matrix(-1 0 0 1 262.824 0)"/>
</clipPath>
</defs>
</svg>
