<svg width="189" height="320" viewBox="0 0 189 320" fill="none" xmlns="http://www.w3.org/2000/svg">
<path fill-rule="evenodd" clip-rule="evenodd" d="M321.908 241.689L322.228 241.15C323.081 239.581 325.041 239 326.616 239.865C327.688 240.445 328.286 241.558 328.286 242.695C328.286 243.222 328.161 243.761 327.889 244.253L327.569 244.827C326.699 246.396 324.739 246.959 323.181 246.088C322.109 245.508 321.517 244.401 321.517 243.264C321.517 242.731 321.636 242.204 321.908 241.689ZM344.179 242.5C344.179 241.108 345.061 239.788 346.441 239.355C348.147 238.834 349.935 239.711 350.462 241.416L350.651 242.026C351.184 243.726 350.237 245.544 348.531 246.076C346.832 246.609 345.014 245.662 344.481 243.957L344.333 243.477C344.232 243.151 344.179 242.826 344.179 242.5ZM218.772 239.385L219.317 239.03C220.803 238.059 222.811 238.479 223.788 239.965C224.143 240.51 224.315 241.126 224.315 241.742C224.315 242.796 223.8 243.82 222.846 244.448L222.284 244.827C220.786 245.78 218.772 245.354 217.819 243.856C217.458 243.305 217.286 242.695 217.286 242.097C217.286 241.043 217.819 240.001 218.772 239.385ZM219.145 117.75C220.099 116.229 222.112 115.79 223.616 116.75L224.19 117.123C225.144 117.733 225.677 118.775 225.677 119.835C225.677 120.445 225.505 121.061 225.144 121.588C224.173 123.092 222.177 123.512 220.679 122.541L220.152 122.203C219.181 121.588 218.648 120.545 218.648 119.474C218.648 118.875 218.808 118.277 219.145 117.75ZM201.073 247.468L201.671 247.279C203.376 246.763 205.2 247.723 205.715 249.428C205.816 249.748 205.863 250.056 205.863 250.387C205.863 251.761 204.963 253.04 203.583 253.467L202.902 253.674C201.191 254.165 199.403 253.194 198.888 251.477C198.805 251.181 198.757 250.879 198.757 250.571C198.757 249.173 199.675 247.877 201.073 247.468ZM198.396 112.048C198.876 110.331 200.67 109.342 202.387 109.821L203.05 110.023C204.454 110.431 205.372 111.71 205.372 113.108C205.372 113.416 205.318 113.724 205.236 114.026C204.72 115.755 202.932 116.726 201.209 116.211L200.611 116.039C199.201 115.63 198.26 114.351 198.26 112.942C198.26 112.652 198.313 112.344 198.396 112.048ZM181.531 250.21H182.455C184.226 250.198 185.694 251.631 185.712 253.455C185.712 255.208 184.279 256.652 182.52 256.676H181.531C179.743 256.676 178.292 255.231 178.292 253.455C178.292 251.66 179.743 250.21 181.531 250.21ZM178.073 110.212C178.073 108.442 179.506 106.973 181.295 106.973L181.958 106.955C183.752 106.955 185.132 108.406 185.132 110.194C185.132 111.989 183.616 113.434 181.822 113.434H181.33C179.536 113.434 178.091 112.001 178.073 110.212ZM158.277 249.564C158.787 247.859 160.581 246.888 162.286 247.385L162.92 247.569C164.312 247.983 165.182 249.239 165.182 250.618C165.182 250.926 165.152 251.252 165.046 251.56C164.554 253.265 162.713 254.236 160.99 253.739L160.463 253.591C159.047 253.182 158.135 251.886 158.135 250.482C158.135 250.198 158.195 249.872 158.277 249.564ZM160.22 110.129L160.889 109.922C162.606 109.431 164.394 110.414 164.892 112.143C164.981 112.427 165.028 112.735 165.028 113.043C165.028 114.44 164.11 115.737 162.695 116.146L162.097 116.317C160.374 116.827 158.585 115.873 158.058 114.15C157.97 113.842 157.922 113.54 157.922 113.226C157.922 111.829 158.828 110.556 160.22 110.129ZM140.169 240.185C141.14 238.686 143.136 238.26 144.634 239.231L145.185 239.575C146.121 240.185 146.63 241.191 146.63 242.233C146.63 242.849 146.458 243.459 146.103 244.004C145.132 245.526 143.083 245.917 141.585 244.957L141.123 244.655C140.169 244.039 139.642 243.003 139.642 241.943C139.642 241.345 139.814 240.729 140.169 240.185ZM140.921 119.112L141.496 118.739C143 117.78 144.995 118.224 145.967 119.722C146.304 120.273 146.482 120.871 146.482 121.463C146.482 122.523 145.949 123.559 144.978 124.199L144.451 124.531C142.964 125.502 140.957 125.099 139.986 123.595C139.625 123.05 139.453 122.434 139.453 121.824C139.453 120.764 139.968 119.746 140.921 119.112ZM125.425 226.085C126.769 224.931 128.812 225.079 129.972 226.423L130.381 226.908C130.926 227.518 131.204 228.282 131.204 229.034C131.204 229.94 130.831 230.828 130.097 231.474C128.747 232.646 126.716 232.516 125.525 231.166L125.081 230.639C124.554 230.041 124.294 229.295 124.294 228.543C124.294 227.637 124.673 226.737 125.425 226.085ZM124.909 133.182L125.371 132.649C126.544 131.305 128.593 131.163 129.943 132.341C130.671 132.992 131.05 133.875 131.05 134.781C131.05 135.527 130.772 136.303 130.245 136.913L129.836 137.374C128.676 138.736 126.633 138.89 125.283 137.73C124.536 137.102 124.14 136.196 124.14 135.278C124.14 134.544 124.4 133.792 124.909 133.182ZM115.21 208.421C116.844 207.687 118.751 208.404 119.485 210.026L119.775 210.618C119.965 211.062 120.072 211.506 120.072 211.968C120.072 213.194 119.367 214.372 118.177 214.899C116.542 215.652 114.63 214.935 113.895 213.295L113.605 212.697C113.416 212.276 113.315 211.814 113.315 211.37C113.315 210.144 114.032 208.972 115.21 208.421ZM113.516 151.13L113.795 150.532C114.547 148.916 116.453 148.199 118.088 148.951C119.266 149.478 119.965 150.656 119.965 151.882C119.965 152.326 119.876 152.788 119.675 153.232L119.402 153.825C118.65 155.447 116.744 156.164 115.121 155.411C113.931 154.884 113.232 153.712 113.232 152.48C113.232 152.036 113.315 151.574 113.516 151.13ZM110.449 188.59C112.208 188.335 113.842 189.585 114.079 191.349L114.174 191.953L114.221 192.445C114.221 194.014 113.078 195.4 111.473 195.637C109.703 195.909 108.045 194.695 107.79 192.942L107.69 192.22L107.654 191.799C107.654 190.212 108.815 188.815 110.449 188.59ZM107.654 171.642L107.743 170.961C107.997 169.191 109.638 167.959 111.402 168.214C113.025 168.439 114.186 169.842 114.186 171.4L114.15 171.867L114.067 172.501C113.83 174.266 112.208 175.515 110.437 175.272C108.815 175.053 107.619 173.68 107.619 172.087L107.654 171.642ZM254.136 116.821C255.498 115.666 257.529 115.82 258.701 117.164L259.128 117.673C259.661 118.289 259.915 119.024 259.915 119.776C259.915 120.699 259.524 121.599 258.778 122.227C257.41 123.388 255.379 123.234 254.225 121.872L253.792 121.38C253.265 120.782 253.011 120.03 253.011 119.278C253.011 118.372 253.402 117.472 254.136 116.821ZM238.858 101.62C239.93 100.181 241.961 99.9087 243.394 100.986L243.939 101.413C244.756 102.04 245.188 103 245.188 103.971C245.188 104.652 244.963 105.351 244.519 105.949C243.43 107.346 241.387 107.619 239.983 106.511L239.492 106.132C238.633 105.505 238.213 104.551 238.213 103.562C238.213 102.881 238.414 102.2 238.858 101.62ZM240.386 257.789L240.913 257.404C242.346 256.35 244.377 256.676 245.413 258.109C245.84 258.689 246.053 259.353 246.053 260.022C246.053 261.011 245.585 262 244.72 262.633L244.176 263.018C242.725 264.078 240.694 263.74 239.658 262.284C239.249 261.721 239.042 261.058 239.042 260.413C239.042 259.406 239.515 258.417 240.386 257.789ZM221.176 91.5949C221.946 89.9723 223.877 89.2914 225.475 90.0612L226.091 90.3454C227.246 90.8961 227.915 92.0508 227.915 93.247C227.915 93.7266 227.808 94.2003 227.589 94.6563C226.82 96.2611 224.877 96.9479 223.273 96.1604L222.71 95.888C221.532 95.3432 220.851 94.1648 220.851 92.9746C220.851 92.4949 220.957 92.033 221.176 91.5949ZM220.105 268.946L220.679 268.691C222.301 267.963 224.214 268.679 224.942 270.313C225.15 270.74 225.233 271.202 225.233 271.646C225.233 272.877 224.516 274.05 223.326 274.595L222.692 274.867C221.052 275.584 219.151 274.832 218.429 273.197C218.263 272.783 218.156 272.344 218.156 271.918C218.156 270.657 218.891 269.478 220.105 268.946ZM201.789 85.4187C202.198 83.6837 203.956 82.6237 205.697 83.0323L206.349 83.204C207.811 83.5652 208.8 84.8739 208.8 86.3424C208.8 86.5793 208.783 86.8517 208.711 87.1063C208.285 88.8473 206.532 89.9072 204.791 89.4749L204.176 89.321C202.689 88.9657 201.7 87.657 201.7 86.1885C201.7 85.9279 201.718 85.6733 201.789 85.4187ZM198.52 274.95L199.136 274.814C200.877 274.447 202.594 275.536 202.991 277.289C203.039 277.508 203.056 277.745 203.056 277.988C203.056 279.474 202.032 280.8 200.516 281.126L199.835 281.28C198.094 281.635 196.371 280.51 196.016 278.775C195.968 278.55 195.95 278.325 195.95 278.106C195.95 276.602 197.005 275.258 198.52 274.95ZM181.567 83.3935C181.62 81.6052 183.118 80.2018 184.913 80.255L185.558 80.2847C187.299 80.338 188.679 81.7888 188.679 83.6304C188.608 85.4187 187.11 86.7984 185.321 86.751L184.688 86.7333C182.929 86.6622 181.567 85.1996 181.567 83.3935ZM173.52 279.711C173.638 277.923 175.189 276.572 176.96 276.715L177.611 276.744C179.311 276.863 180.625 278.278 180.625 279.966L180.614 280.185C180.489 281.979 178.962 283.329 177.185 283.211L176.504 283.151C174.793 283.033 173.502 281.635 173.52 279.711ZM163.956 81.7888L164.619 81.6703C166.378 81.3624 168.048 82.5526 168.356 84.3113C168.374 84.5008 168.386 84.6725 168.386 84.8561C168.386 86.4075 167.278 87.7695 165.697 88.0478L165.081 88.1485C163.323 88.4564 161.635 87.278 161.327 85.5193C161.297 85.3535 161.28 85.164 161.28 84.9745C161.28 83.4231 162.387 82.0611 163.956 81.7888ZM151.474 275.483C151.953 273.778 153.742 272.771 155.465 273.262L156.075 273.434C157.514 273.831 158.449 275.139 158.449 276.537C158.449 276.833 158.42 277.135 158.331 277.425C157.851 279.148 156.063 280.155 154.34 279.658L153.688 279.474C152.273 279.077 151.337 277.78 151.337 276.365C151.337 276.081 151.385 275.791 151.474 275.483ZM143.77 87.586L144.403 87.3313C146.049 86.6799 147.927 87.4794 148.59 89.1552C148.744 89.5282 148.815 89.9427 148.815 90.3276C148.815 91.6244 148.045 92.8325 146.784 93.3476L146.192 93.5845C144.534 94.2537 142.645 93.4483 141.975 91.7962C141.821 91.4054 141.739 90.9968 141.739 90.5882C141.739 89.3091 142.502 88.0952 143.77 87.586ZM132.874 267.228C133.721 265.659 135.669 265.067 137.256 265.896L137.818 266.192C138.908 266.766 139.536 267.891 139.536 269.052C139.536 269.561 139.435 270.077 139.18 270.55C138.346 272.143 136.403 272.753 134.816 271.918L134.218 271.61C133.129 271.036 132.495 269.911 132.495 268.75C132.495 268.235 132.613 267.726 132.874 267.228ZM125.217 97.4276L125.78 97.0664C127.266 96.0775 129.274 96.4683 130.263 97.9664C130.618 98.5112 130.79 99.1271 130.79 99.7429C130.79 100.803 130.298 101.821 129.362 102.437L128.812 102.81C127.331 103.799 125.318 103.408 124.329 101.928C123.956 101.36 123.784 100.75 123.784 100.116C123.784 99.0738 124.282 98.0553 125.217 97.4276ZM116.382 255.344C117.531 253.964 119.556 253.786 120.936 254.935L121.416 255.326C122.197 255.977 122.612 256.895 122.612 257.837C122.612 258.553 122.369 259.282 121.872 259.88C120.735 261.265 118.686 261.467 117.324 260.324L116.791 259.897C116.027 259.252 115.636 258.328 115.636 257.404C115.636 256.676 115.873 255.942 116.382 255.344ZM109.105 110.864L109.567 110.402C110.81 109.117 112.853 109.105 114.132 110.366C114.766 110.994 115.086 111.829 115.086 112.664C115.086 113.487 114.784 114.304 114.174 114.932L113.706 115.411C112.445 116.673 110.402 116.69 109.123 115.429C108.489 114.801 108.163 113.967 108.163 113.126C108.163 112.308 108.471 111.491 109.105 110.864ZM102.656 240.321C104.054 239.213 106.103 239.456 107.21 240.848L107.601 241.345C108.08 241.943 108.323 242.66 108.323 243.376C108.323 244.312 107.897 245.253 107.109 245.881C105.706 247.012 103.687 246.787 102.556 245.401L102.129 244.857C101.667 244.264 101.43 243.566 101.43 242.867C101.43 241.908 101.857 240.954 102.656 240.321ZM96.0418 127.326L96.4208 126.769C97.3742 125.265 99.3875 124.827 100.886 125.798C101.845 126.408 102.366 127.45 102.366 128.528C102.366 129.126 102.2 129.718 101.857 130.263L101.502 130.807C100.542 132.306 98.5467 132.75 97.0485 131.796C96.0774 131.18 95.5504 130.126 95.5504 129.072C95.5504 128.474 95.7043 127.876 96.0418 127.326ZM92.3054 222.811C93.9101 222.011 95.8524 222.657 96.6399 224.261L96.9301 224.818C97.1729 225.304 97.2913 225.795 97.2913 226.287C97.2913 227.471 96.6399 228.608 95.5148 229.176C93.9101 229.976 91.9737 229.342 91.1625 227.743L90.8605 227.139C90.6355 226.683 90.517 226.192 90.517 225.712C90.517 224.516 91.1862 223.379 92.3054 222.811ZM86.668 146.115L86.9049 145.487C87.5385 143.817 89.4097 142.982 91.0796 143.61C92.3586 144.107 93.164 145.333 93.164 146.648C93.164 147.021 93.0929 147.417 92.9567 147.79L92.7199 148.389C92.104 150.052 90.2328 150.911 88.557 150.277C87.2602 149.804 86.4608 148.554 86.4608 147.263C86.4608 146.867 86.5318 146.494 86.668 146.115ZM85.7975 203.548C87.5148 203.086 89.2913 204.128 89.7354 205.845L89.9071 206.461C89.99 206.751 90.0196 207.024 90.0196 207.314C90.0196 208.729 89.0663 210.038 87.6214 210.417C85.8982 210.891 84.1217 209.872 83.6658 208.131L83.4881 207.486C83.4289 207.207 83.3756 206.935 83.3756 206.663C83.3934 205.235 84.3468 203.921 85.7975 203.548ZM81.3801 166.443L81.4866 165.762C81.7531 164.004 83.4289 162.796 85.1817 163.086C86.7687 163.34 87.9116 164.702 87.9116 166.272C87.9116 166.443 87.8938 166.615 87.8582 166.787L87.7753 167.403C87.5029 169.167 85.8627 170.381 84.0921 170.127C82.4874 169.89 81.3327 168.51 81.3327 166.935L81.3801 166.443ZM83.4052 183.338C85.1995 183.255 86.7154 184.634 86.7983 186.423L86.8338 187.228C86.8338 188.933 85.5015 190.366 83.7842 190.455C81.9959 190.55 80.4741 189.188 80.3734 187.418L80.3379 186.618C80.3379 184.895 81.6702 183.426 83.4052 183.338ZM287.368 115.956C288.901 115.038 290.897 115.53 291.821 117.063L292.158 117.644C292.466 118.153 292.62 118.733 292.62 119.278C292.62 120.385 292.04 121.457 291.015 122.079C289.482 122.979 287.504 122.47 286.598 120.93L286.278 120.385C285.952 119.876 285.81 119.296 285.81 118.733C285.81 117.644 286.361 116.566 287.368 115.956ZM287.208 241.162L287.563 240.635C288.57 239.154 290.583 238.775 292.063 239.782C292.987 240.392 293.479 241.416 293.479 242.458C293.479 243.086 293.289 243.72 292.916 244.264L292.543 244.803C291.536 246.29 289.523 246.669 288.055 245.662C287.137 245.028 286.645 244.004 286.645 242.979C286.645 242.352 286.829 241.724 287.208 241.162ZM275.11 98.3928C276.472 97.2381 278.521 97.392 279.664 98.754L280.108 99.2692C280.617 99.8791 280.866 100.613 280.866 101.348C280.866 102.266 280.481 103.183 279.711 103.817C278.349 104.978 276.3 104.788 275.157 103.426L274.749 102.946C274.222 102.337 273.979 101.579 273.979 100.85C273.979 99.9324 274.352 99.0264 275.11 98.3928ZM274.435 261.526L274.879 261.064C276.087 259.749 278.136 259.684 279.445 260.91C280.126 261.544 280.469 262.408 280.469 263.279C280.469 264.066 280.179 264.866 279.598 265.481L279.125 265.973C277.899 267.27 275.85 267.323 274.553 266.097C273.89 265.446 273.547 264.593 273.547 263.74C273.547 262.941 273.837 262.136 274.435 261.526ZM260.43 84.412C261.585 83.0678 263.628 82.8961 264.978 84.0567L265.493 84.5008C266.239 85.1285 266.613 86.0286 266.613 86.9346C266.613 87.6866 266.364 88.4387 265.831 89.0486C264.652 90.3987 262.627 90.5527 261.259 89.3921L260.786 88.9835C260.034 88.338 259.661 87.432 259.661 86.5082C259.661 85.7799 259.915 85.0278 260.43 84.412ZM255.433 278.977L255.942 278.586C257.357 277.496 259.388 277.769 260.478 279.178C260.922 279.758 261.141 280.457 261.141 281.144C261.141 282.115 260.715 283.086 259.88 283.72L259.353 284.111C257.937 285.2 255.912 284.928 254.817 283.513C254.373 282.932 254.154 282.233 254.154 281.553C254.154 280.581 254.598 279.604 255.433 278.977ZM243.702 72.9893C244.62 71.4556 246.615 70.976 248.137 71.9175L248.694 72.255C249.701 72.8531 250.251 73.9308 250.251 75.0204C250.251 75.583 250.097 76.1633 249.772 76.6903C248.848 78.224 246.858 78.7036 245.319 77.7621L244.78 77.4246C243.767 76.8265 243.222 75.7547 243.222 74.6592C243.222 74.1026 243.376 73.5223 243.702 72.9893ZM238.805 289.594L239.356 289.292C240.937 288.457 242.903 289.037 243.738 290.618C244.004 291.104 244.122 291.631 244.122 292.14C244.122 293.301 243.512 294.408 242.423 295.006L241.825 295.308C240.238 296.149 238.296 295.551 237.461 293.964C237.2 293.484 237.082 292.975 237.082 292.466C237.082 291.305 237.698 290.18 238.805 289.594ZM225.339 64.4267C226.002 62.7746 227.88 61.9752 229.532 62.6444L230.159 62.899C231.421 63.4141 232.173 64.5985 232.173 65.8835C232.173 66.2861 232.09 66.6947 231.936 67.1092C231.255 68.7613 229.378 69.543 227.726 68.8798L227.128 68.6429C225.866 68.1277 225.102 66.9197 225.102 65.6407C225.102 65.2321 225.179 64.8235 225.339 64.4267ZM220.649 297.393L221.277 297.185C222.971 296.605 224.788 297.511 225.369 299.217C225.487 299.56 225.541 299.897 225.541 300.241C225.541 301.585 224.688 302.846 223.338 303.308L222.71 303.527C221.022 304.096 219.199 303.184 218.618 301.484C218.5 301.141 218.447 300.798 218.447 300.46C218.447 299.116 219.299 297.855 220.649 297.393ZM205.816 58.9552C206.207 57.2202 207.948 56.1129 209.689 56.5037L210.328 56.6517C211.832 56.9833 212.839 58.3275 212.839 59.8079C212.839 60.0329 212.821 60.2698 212.774 60.5126C212.377 62.2476 210.642 63.3549 208.901 62.9641L208.273 62.8102C206.769 62.4667 205.745 61.1403 205.745 59.6599C205.745 59.4171 205.763 59.1921 205.816 58.9552ZM201.499 302.13L202.127 302.029C203.903 301.745 205.508 302.935 205.816 304.688L205.822 304.747C205.837 304.907 205.851 305.05 205.851 305.203C205.851 306.772 204.691 308.152 203.104 308.425L202.523 308.507C200.765 308.798 199.113 307.584 198.822 305.831C198.787 305.665 198.787 305.487 198.787 305.322C198.787 303.747 199.918 302.385 201.499 302.13ZM185.677 56.7109C185.795 54.9167 187.335 53.5666 189.099 53.6732L189.757 53.7087C191.474 53.8272 192.788 55.2424 192.788 57.1314C192.688 58.9256 191.154 60.2698 189.36 60.1691L188.714 60.1336C186.991 60.0152 185.677 58.5644 185.677 56.7109ZM181.822 303.705H182.455C184.249 303.705 185.694 305.132 185.712 306.926C185.712 308.697 184.279 310.16 182.491 310.177H181.822C180.033 310.177 178.583 308.727 178.583 306.938C178.583 305.15 180.033 303.705 181.822 303.705ZM168.32 54.1647L168.984 54.0995C170.76 53.9278 172.341 55.2247 172.513 57.013L172.531 57.3209C172.531 58.973 171.287 60.3705 169.617 60.5422L168.984 60.6133C167.213 60.785 165.626 59.4822 165.437 57.7117L165.419 57.4038C165.419 55.7872 166.651 54.3542 168.32 54.1647ZM161.007 305.594C161.232 303.818 162.849 302.574 164.625 302.775L165.277 302.864C166.905 303.071 168.101 304.469 168.101 306.074L168.09 306.476C167.864 308.229 166.26 309.496 164.489 309.277L163.82 309.206C162.186 309.005 160.99 307.601 160.99 306.003L161.007 305.594ZM147.891 58.0018L148.525 57.8301C150.242 57.3742 152.024 58.3986 152.498 60.1158C152.563 60.3882 152.599 60.6784 152.599 60.9508C152.599 62.3897 151.663 63.6806 150.212 64.0714L149.585 64.2432C147.861 64.7051 146.085 63.6925 145.629 61.9752C145.54 61.6851 145.511 61.3949 145.511 61.1225C145.511 59.7073 146.458 58.3986 147.891 58.0018ZM142.354 300.987C142.87 299.27 144.658 298.293 146.357 298.79L146.973 298.962C148.388 299.37 149.33 300.661 149.33 302.083C149.33 302.373 149.277 302.657 149.194 302.965C148.714 304.688 146.926 305.677 145.197 305.185L144.557 304.996C143.142 304.587 142.236 303.291 142.236 301.887C142.236 301.585 142.272 301.295 142.354 300.987ZM128.338 65.1137L128.954 64.8413C130.588 64.107 132.495 64.8235 133.229 66.446C133.419 66.8842 133.519 67.3342 133.519 67.7724C133.519 68.9982 132.803 70.1766 131.613 70.7213L131.05 70.976C129.41 71.728 127.503 71.0293 126.751 69.4127C126.544 68.9686 126.443 68.5067 126.443 68.0448C126.443 66.8368 127.142 65.6584 128.338 65.1137ZM124.702 293.218C125.49 291.613 127.414 290.932 129.037 291.714L129.599 291.986C130.772 292.549 131.441 293.692 131.441 294.9C131.441 295.379 131.34 295.853 131.133 296.297C130.363 297.908 128.439 298.589 126.816 297.813L126.224 297.529C125.063 296.984 124.377 295.823 124.377 294.61C124.377 294.154 124.501 293.674 124.702 293.218ZM110.212 75.2928L110.757 74.9138C112.243 73.9308 114.251 74.3394 115.245 75.808C115.619 76.3705 115.79 76.9982 115.79 77.6081C115.79 78.6503 115.293 79.6748 114.357 80.3084L113.807 80.6636C112.326 81.6525 110.313 81.2617 109.33 79.7754C108.951 79.2129 108.779 78.597 108.779 77.9812C108.779 76.9271 109.294 75.9027 110.212 75.2928ZM107.5 282.541C108.525 281.073 110.538 280.718 112 281.736L112.51 282.097C113.433 282.731 113.913 283.738 113.913 284.774C113.913 285.402 113.724 286.041 113.351 286.598C112.326 288.066 110.313 288.439 108.85 287.415L108.305 287.042C107.399 286.414 106.92 285.402 106.92 284.383C106.92 283.749 107.109 283.11 107.5 282.541ZM93.9634 88.2492L94.4608 87.811C95.7576 86.5793 97.8006 86.6622 99.0263 87.959C99.6066 88.5867 99.885 89.3802 99.885 90.1618C99.885 91.0323 99.5356 91.8968 98.8546 92.5304L98.3809 92.9746C97.084 94.2003 95.0411 94.1352 93.8094 92.8206C93.2291 92.2048 92.9389 91.4054 92.9389 90.6178C92.9389 89.7473 93.2765 88.9006 93.9634 88.2492ZM92.2402 269.206C93.4837 267.933 95.5326 267.909 96.8057 269.159L97.2558 269.597C97.919 270.231 98.2388 271.077 98.2388 271.918C98.2388 272.735 97.9545 273.535 97.3387 274.168C96.0951 275.447 94.0522 275.495 92.7672 274.251L92.2935 273.778C91.648 273.144 91.3046 272.309 91.3046 271.474C91.3046 270.657 91.6125 269.84 92.2402 269.206ZM80.0122 103.663L80.4267 103.118C81.5163 101.721 83.5414 101.466 84.9626 102.556C85.7798 103.207 86.2002 104.16 86.2002 105.114C86.2002 105.813 85.9811 106.511 85.5192 107.103L85.1284 107.601C84.0566 109.022 82.0314 109.277 80.5925 108.199C79.7812 107.553 79.3312 106.594 79.3312 105.623C79.3312 104.942 79.5562 104.243 80.0122 103.663ZM79.2838 253.609C80.7168 252.549 82.742 252.857 83.8197 254.29L84.1928 254.799C84.6191 255.379 84.8442 256.06 84.8442 256.729C84.8442 257.718 84.3823 258.689 83.5296 259.335C82.0966 260.389 80.0832 260.105 79.0114 258.672L78.6206 258.145C78.1883 257.558 77.9692 256.877 77.9692 256.22C77.9692 255.231 78.4252 254.254 79.2838 253.609ZM68.7257 121.09L69.0336 120.51C69.8922 118.941 71.8523 118.36 73.4156 119.213C74.4933 119.793 75.1032 120.918 75.1032 122.061C75.1032 122.588 74.9848 123.115 74.7124 123.595L74.4045 124.169C73.5577 125.744 71.5917 126.325 70.0284 125.472C68.9507 124.892 68.3349 123.784 68.3349 122.63C68.3349 122.109 68.4533 121.588 68.7257 121.09ZM69.0336 236.128C70.6206 235.311 72.5628 235.945 73.38 237.526L73.6702 238.094C73.9307 238.574 74.0314 239.083 74.0314 239.586C74.0314 240.747 73.4155 241.872 72.3082 242.435C70.7272 243.276 68.779 242.66 67.944 241.073L67.6361 240.475C67.3815 240.001 67.2631 239.504 67.2631 238.988C67.2631 237.834 67.9085 236.697 69.0336 236.128ZM60.394 140.14L60.6131 139.488C61.2112 137.801 63.0528 136.913 64.7345 137.511C66.0728 137.984 66.9018 139.234 66.9018 140.56C66.9018 140.921 66.8367 141.277 66.7183 141.638L66.511 142.23C65.9307 143.924 64.0891 144.824 62.4014 144.243C61.0513 143.782 60.2223 142.52 60.2223 141.176C60.2223 140.833 60.2756 140.477 60.394 140.14ZM61.7382 217.203C63.4436 216.658 65.2675 217.594 65.8123 219.281L65.9958 219.897C66.1024 220.235 66.1735 220.578 66.1735 220.904C66.1735 222.272 65.303 223.527 63.9351 223.971C62.2297 224.534 60.4118 223.598 59.8611 221.911L59.6598 221.259C59.5354 220.939 59.4821 220.596 59.4821 220.27C59.4821 218.908 60.3763 217.647 61.7382 217.203ZM55.2778 160.267L55.3962 159.604C55.7042 157.851 57.374 156.673 59.1268 156.981C60.696 157.253 61.8093 158.633 61.8093 160.166C61.8093 160.356 61.7856 160.54 61.756 160.735L61.6494 161.363C61.3474 163.121 59.6716 164.3 57.9188 164.004C56.3496 163.731 55.2245 162.381 55.2245 160.836C55.2245 160.646 55.2363 160.463 55.2778 160.267ZM57.6287 197.354C59.3814 197.105 61.0395 198.313 61.2941 200.084L61.4007 200.729L61.4303 201.209C61.4303 202.778 60.2756 204.164 58.6886 204.401C56.9122 204.667 55.26 203.447 55.0054 201.683L54.8988 201.037L54.8633 200.546C54.8633 198.976 56.0239 197.597 57.6287 197.354ZM53.4658 180.969L53.4836 180.306C53.5013 178.529 54.9699 177.096 56.7404 177.12C58.511 177.138 59.944 178.565 59.944 180.371V181.022C59.9322 182.811 58.4636 184.244 56.6753 184.226C54.9521 184.208 53.4658 182.882 53.4658 180.969ZM318.633 116.827C320.274 116.08 322.186 116.791 322.915 118.425L323.187 119.024C323.394 119.45 323.477 119.912 323.477 120.35C323.477 121.582 322.779 122.76 321.588 123.305C319.972 124.039 318.041 123.323 317.307 121.7L317.035 121.102C316.845 120.658 316.744 120.22 316.744 119.758C316.744 118.526 317.443 117.371 318.633 116.827ZM312.872 257.872L313.197 257.333C314.05 255.758 316.01 255.184 317.579 256.054C318.651 256.635 319.243 257.742 319.243 258.885C319.243 259.418 319.125 259.939 318.858 260.43L318.533 261.017C317.662 262.586 315.702 263.148 314.151 262.278C313.073 261.698 312.481 260.59 312.481 259.447C312.481 258.914 312.599 258.387 312.872 257.872ZM308.65 98.1915C310.166 97.2381 312.155 97.694 313.097 99.1981L313.452 99.7548C313.796 100.305 313.949 100.88 313.949 101.484C313.949 102.556 313.405 103.616 312.434 104.226C310.912 105.167 308.916 104.705 307.981 103.207L307.637 102.656C307.3 102.112 307.128 101.513 307.128 100.939C307.128 99.8614 307.673 98.8073 308.65 98.1915ZM300.721 271.971L301.106 271.456C302.166 270.023 304.197 269.715 305.63 270.775C306.482 271.403 306.938 272.392 306.938 273.381C306.938 274.044 306.737 274.713 306.311 275.288L305.92 275.82C304.842 277.248 302.835 277.561 301.396 276.484C300.531 275.856 300.087 274.885 300.087 273.89C300.087 273.233 300.288 272.546 300.721 271.971ZM296.422 82.1144C297.784 80.9657 299.832 81.1551 300.975 82.5408L301.396 83.0441C301.893 83.6481 302.13 84.3824 302.13 85.093C302.13 86.0286 301.739 86.9583 300.975 87.586C299.596 88.7229 297.547 88.5393 296.422 87.1596L296.013 86.6622C295.498 86.07 295.261 85.3298 295.261 84.6015C295.261 83.6836 295.658 82.7599 296.422 82.1144ZM288.256 285.555L288.694 285.1C289.943 283.815 291.986 283.785 293.265 285.028C293.929 285.656 294.254 286.509 294.254 287.35C294.254 288.155 293.964 288.966 293.354 289.594L292.892 290.08C291.643 291.353 289.6 291.37 288.321 290.133C287.67 289.493 287.35 288.664 287.35 287.823C287.35 287.006 287.64 286.195 288.256 285.555ZM282.18 67.8079C283.376 66.4756 285.425 66.3927 286.752 67.6066L287.249 68.0626C287.93 68.6903 288.268 69.5667 288.268 70.4371C288.268 71.2188 287.983 72.0004 287.403 72.634C286.189 73.9427 284.14 74.0138 282.844 72.7998L282.37 72.3794C281.689 71.728 281.334 70.8576 281.334 69.993C281.334 69.2114 281.606 68.4179 282.18 67.8079ZM273.559 298.772L274.068 298.364C275.459 297.256 277.496 297.493 278.604 298.909C279.077 299.489 279.302 300.199 279.302 300.898C279.302 301.858 278.876 302.811 278.077 303.445L277.561 303.859C276.152 304.96 274.115 304.706 273.008 303.308C272.552 302.71 272.327 302.011 272.327 301.307C272.327 300.359 272.753 299.406 273.559 298.772ZM266.186 55.4793C267.217 54.0344 269.23 53.6732 270.692 54.6917L271.225 55.0707C272.126 55.6984 272.605 56.711 272.605 57.7117C272.605 58.3572 272.416 59.0085 272.007 59.5711C270.983 61.0396 268.969 61.3831 267.507 60.3586L266.974 59.9974C266.086 59.3638 265.588 58.3572 265.588 57.3386C265.588 56.711 265.801 56.0596 266.186 55.4793ZM257.239 309.923L257.801 309.603C259.335 308.679 261.313 309.194 262.219 310.728C262.538 311.237 262.675 311.794 262.675 312.362C262.675 313.47 262.112 314.547 261.111 315.157L260.531 315.501C258.997 316.401 257.002 315.892 256.096 314.34C255.794 313.831 255.652 313.262 255.652 312.7C255.652 311.593 256.22 310.521 257.239 309.923ZM248.694 45.4245C249.517 43.8316 251.459 43.2039 253.046 44.027L253.656 44.329C254.752 44.9093 255.379 46.0285 255.379 47.1891C255.379 47.7043 255.255 48.2194 255.018 48.6932C254.189 50.2801 252.223 50.8782 250.66 50.0551L250.097 49.7709C248.99 49.2083 248.339 48.0655 248.339 46.8871C248.339 46.3897 248.451 45.8982 248.694 45.4245ZM239.592 318.805L240.185 318.55C241.843 317.852 243.738 318.639 244.43 320.274C244.602 320.682 244.691 321.109 244.691 321.535C244.691 322.796 243.939 323.986 242.713 324.519L242.097 324.756C240.463 325.455 238.568 324.691 237.869 323.057C237.698 322.624 237.615 322.198 237.615 321.789C237.615 320.528 238.349 319.338 239.592 318.805ZM230.029 37.7324C230.621 36.0566 232.481 35.1743 234.15 35.7901L234.802 36.0092C236.099 36.4829 236.916 37.7324 236.916 39.041C236.916 39.4141 236.845 39.7931 236.709 40.1543C236.111 41.8419 234.251 42.6887 232.569 42.0729L231.971 41.8715C230.657 41.3978 229.84 40.1543 229.84 38.8219C229.84 38.4666 229.893 38.0877 230.029 37.7324ZM220.904 325.254L221.52 325.1C223.243 324.62 224.96 325.644 225.44 327.368C225.511 327.64 225.541 327.912 225.541 328.197C225.541 329.636 224.552 330.962 223.107 331.359L222.615 331.489C220.868 331.969 219.098 330.95 218.636 329.227C218.553 328.931 218.518 328.664 218.518 328.374C218.518 326.959 219.471 325.644 220.904 325.254ZM210.553 32.6339C210.932 30.893 212.703 29.7856 214.444 30.1587L214.988 30.2771C216.486 30.6147 217.529 31.9529 217.529 33.4333C217.529 33.6702 217.493 33.8952 217.44 34.1321C217.073 35.873 215.35 36.9803 213.609 36.6073L212.975 36.4711C211.459 36.1276 210.47 34.8131 210.47 33.3327C210.47 33.1136 210.5 32.8708 210.553 32.6339ZM201.535 329.156L202.186 329.073C203.956 328.83 205.573 330.074 205.816 331.85L205.851 332.277C205.851 333.881 204.673 335.261 203.033 335.48L202.405 335.569C200.629 335.806 198.994 334.562 198.757 332.786L198.734 332.359C198.734 330.778 199.918 329.381 201.535 329.156ZM190.449 30.1587C190.603 28.3704 192.161 27.0499 193.949 27.192L194.594 27.2453C196.282 27.3815 197.561 28.7967 197.561 30.4666L197.543 30.739C197.407 32.5155 195.838 33.8419 194.062 33.6879L193.416 33.6346C191.728 33.4985 190.449 32.0832 190.449 30.4133V30.1587ZM173.33 26.9551L173.981 26.9196C175.752 26.8367 177.268 28.1986 177.375 30.1587C177.375 31.8641 176.03 33.2971 174.301 33.38L173.662 33.4215C171.867 33.4985 170.352 32.1365 170.269 30.2298C170.269 28.4947 171.577 27.038 173.33 26.9551ZM154.44 331.116C154.73 329.363 156.4 328.167 158.159 328.457L158.787 328.558C160.374 328.818 161.463 330.18 161.463 331.732C161.463 331.904 161.451 332.087 161.41 332.259C161.144 334.035 159.432 335.226 157.679 334.935L157.105 334.835C155.512 334.574 154.387 333.212 154.387 331.661C154.387 331.477 154.411 331.305 154.44 331.116ZM152.853 29.4244L153.522 29.306C155.275 28.9803 156.951 30.1409 157.271 31.8996C157.306 32.1069 157.324 32.2905 157.324 32.4918C157.324 34.0136 156.229 35.3756 154.677 35.6657L154.05 35.7901C152.291 36.1099 150.603 34.9492 150.283 33.1905C150.23 32.9892 150.212 32.7997 150.212 32.5984C150.212 31.0647 151.302 29.7146 152.853 29.4244ZM134.171 326.089C134.698 324.383 136.504 323.43 138.209 323.957L138.807 324.123C140.205 324.555 141.123 325.846 141.123 327.225C141.123 327.539 141.075 327.841 140.975 328.167C140.477 329.872 138.671 330.849 136.966 330.334L136.314 330.133C134.917 329.701 134.035 328.422 134.035 327.042C134.035 326.734 134.064 326.414 134.171 326.089ZM132.892 34.6117L133.519 34.3926C135.225 33.8419 137.049 34.7598 137.593 36.4533C137.712 36.7909 137.765 37.1343 137.765 37.4777C137.765 38.8219 136.895 40.101 135.533 40.5451L134.935 40.7465C133.229 41.3149 131.405 40.3911 130.843 38.7035C130.724 38.36 130.671 38.0225 130.671 37.6791C130.671 36.3112 131.524 35.0499 132.892 34.6117ZM115.465 318.503C116.217 316.881 118.123 316.164 119.758 316.91L120.338 317.183C121.516 317.733 122.233 318.894 122.233 320.12C122.233 320.582 122.132 321.02 121.925 321.47C121.191 323.086 119.266 323.803 117.65 323.057L117.046 322.778C115.873 322.234 115.174 321.073 115.174 319.847C115.174 319.403 115.257 318.941 115.465 318.503ZM113.996 42.2979L114.387 42.1084C115.992 41.3267 117.934 42.0137 118.704 43.6125C118.923 44.0744 119.023 44.5481 119.023 45.0277C119.023 46.218 118.36 47.3845 117.2 47.9293L116.625 48.2194C115.02 49.0011 113.179 48.2846 112.397 46.6857C112.19 46.2416 112.089 45.7798 112.089 45.3356C112.089 44.0862 112.824 42.8782 113.996 42.2979ZM97.9545 308.472C98.9079 306.974 100.903 306.53 102.402 307.489L102.935 307.809C103.918 308.425 104.468 309.479 104.468 310.556C104.468 311.148 104.297 311.729 103.971 312.274C103.017 313.778 101.04 314.251 99.5178 313.298L98.9375 312.943C97.9664 312.327 97.4393 311.285 97.4393 310.213C97.4393 309.621 97.6111 309.023 97.9545 308.472ZM95.9116 52.6843L96.4504 52.3112C97.9545 51.3164 99.9501 51.7309 100.933 53.2291C101.312 53.7798 101.484 54.3897 101.484 54.9996C101.484 56.0596 100.975 57.0781 100.033 57.7117L99.4882 58.0551C98.0078 59.0381 96.0122 58.6473 95.0056 57.1669C94.6444 56.6044 94.4726 55.9945 94.4726 55.3786C94.4726 54.3187 94.97 53.2942 95.9116 52.6843ZM81.9071 296.232C83.0499 294.864 85.0929 294.681 86.4608 295.823L86.9345 296.232C87.7221 296.86 88.1129 297.801 88.1129 298.719C88.1129 299.453 87.876 300.188 87.3786 300.78C86.2417 302.165 84.1928 302.355 82.8308 301.206L82.2979 300.78C81.534 300.14 81.1432 299.234 81.1432 298.311C81.1432 297.576 81.3978 296.824 81.9071 296.232ZM79.5384 65.2321L80.0477 64.7879C81.3978 63.6155 83.4289 63.7458 84.5955 65.0959C85.1462 65.7058 85.4067 66.4756 85.4067 67.2277C85.4067 68.1277 85.0277 69.016 84.2994 69.6673L83.8197 70.0878C82.4696 71.2721 80.4267 71.1299 79.2483 69.7798C78.7035 69.1699 78.4489 68.4179 78.4489 67.6481C78.4489 66.7658 78.8219 65.8657 79.5384 65.2321ZM67.6183 281.979C68.9329 280.765 70.9818 280.854 72.172 282.162L72.6162 282.642C73.1787 283.258 73.4688 284.04 73.4688 284.827C73.4688 285.698 73.1254 286.568 72.4326 287.208C71.118 288.427 69.0691 288.339 67.8552 287.024L67.417 286.527C66.8367 285.917 66.5643 285.135 66.5643 284.347C66.5643 283.477 66.9196 282.607 67.6183 281.979ZM64.9773 79.8287L65.4214 79.3136C66.6117 77.9812 68.6665 77.8509 69.987 79.0234C70.7035 79.6748 71.0824 80.563 71.0824 81.4631C71.0824 82.2151 70.8278 82.9849 70.283 83.5948L69.8685 84.0567C68.6961 85.4187 66.665 85.5549 65.303 84.3942C64.5687 83.7488 64.1957 82.8428 64.1957 81.9368C64.1957 81.1907 64.4503 80.4386 64.9773 79.8287ZM55.3311 265.949C56.7759 264.925 58.8071 265.268 59.8256 266.731L60.2045 267.282C60.5954 267.838 60.7849 268.49 60.7849 269.117C60.7849 270.148 60.3052 271.148 59.3992 271.782C57.9366 272.806 55.9233 272.451 54.8988 270.983L54.5198 270.45C54.129 269.887 53.9455 269.242 53.9455 268.59C53.9455 267.572 54.4251 266.583 55.3311 265.949ZM52.4828 96.1959L52.8381 95.6511C53.8448 94.1648 55.8404 93.774 57.3207 94.7629C58.2623 95.3787 58.7715 96.4032 58.7715 97.4572C58.7715 98.0731 58.5998 98.6889 58.2208 99.2277L57.8655 99.7784C56.8766 101.277 54.8633 101.667 53.3829 100.679C52.4473 100.051 51.9499 99.0264 51.9499 97.9842C51.9499 97.3743 52.1216 96.7407 52.4828 96.1959ZM45.2644 248.421C46.8514 247.604 48.7996 248.232 49.6109 249.825L49.9247 250.387C50.1616 250.861 50.28 251.37 50.28 251.886C50.28 253.04 49.6523 254.165 48.545 254.746C46.958 255.569 45.0098 254.953 44.1749 253.366L43.867 252.786C43.6301 252.306 43.5117 251.797 43.5117 251.305C43.5117 250.127 44.1571 248.996 45.2644 248.421ZM42.2504 114.103L42.5583 113.487C43.3399 111.882 45.2822 111.237 46.8869 112.018C48.0298 112.581 48.6753 113.741 48.6753 114.92C48.6753 115.411 48.5746 115.885 48.3496 116.347L48.0831 116.915C47.2955 118.514 45.3533 119.195 43.7544 118.414C42.6057 117.845 41.9247 116.708 41.9247 115.494C41.9247 115.038 42.0431 114.541 42.2504 114.103ZM37.6256 229.721C39.3192 229.123 41.1608 229.988 41.7529 231.681L41.978 232.291C42.1142 232.646 42.1615 233.025 42.1615 233.387C42.1615 234.713 41.3443 235.957 40.0357 236.412C38.3421 237.028 36.5005 236.146 35.8906 234.476L35.6656 233.843C35.5471 233.487 35.482 233.132 35.482 232.771C35.482 231.438 36.2992 230.195 37.6256 229.721ZM34.505 133.194L34.7122 132.566C35.2748 130.878 37.1164 129.955 38.804 130.517C40.1541 130.979 41.0068 132.246 41.0068 133.591C41.0068 133.928 40.9535 134.266 40.8469 134.609L40.6456 135.219C40.0831 136.913 38.2592 137.83 36.5716 137.286C35.2096 136.841 34.3392 135.58 34.3392 134.218C34.3392 133.875 34.3865 133.537 34.505 133.194ZM32.5627 210.162C34.3214 209.789 36.0209 210.908 36.3999 212.667L36.536 213.283C36.5716 213.52 36.6012 213.745 36.6012 213.964C36.6012 215.45 35.5649 216.794 34.0431 217.12C32.3081 217.493 30.5849 216.386 30.2118 214.651L30.0579 213.976C30.0223 213.757 29.9927 213.537 29.9927 213.318C29.9927 211.814 31.0468 210.482 32.5627 210.162ZM29.3946 153.061L29.4953 152.51C29.8328 150.757 31.5264 149.597 33.2792 149.94C34.8306 150.248 35.9024 151.598 35.9024 153.108C35.9024 153.315 35.8906 153.517 35.8432 153.724L35.7189 154.357C35.3932 156.11 33.7055 157.218 31.9646 156.88C30.4191 156.59 29.3236 155.21 29.3236 153.671C29.3236 153.469 29.3591 153.262 29.3946 153.061ZM30.1408 190.112C31.9172 189.97 33.4864 191.302 33.6226 193.09L33.67 193.742V193.996C33.67 195.666 32.3791 197.081 30.6855 197.218C28.915 197.354 27.3458 196.027 27.2096 194.233L27.1563 193.588V193.315C27.1563 191.663 28.4531 190.242 30.1408 190.112ZM26.9372 173.638L26.9727 172.975C27.0734 171.181 28.6071 169.819 30.3835 169.919C32.1008 170.02 33.4332 171.453 33.4332 173.33L33.3976 173.964C33.297 175.758 31.781 177.12 30.0105 177.037C28.2518 176.948 26.9372 175.444 26.9372 173.638ZM348.697 116.471C350.367 115.873 352.227 116.744 352.819 118.431L353.044 119.053C353.18 119.408 353.251 119.781 353.251 120.137C353.251 121.469 352.428 122.695 351.101 123.175C349.432 123.784 347.572 122.896 346.974 121.232L346.755 120.616C346.619 120.261 346.548 119.882 346.548 119.521C346.548 118.189 347.365 116.951 348.697 116.471ZM332.869 272.386L333.195 271.853C334.136 270.337 336.132 269.857 337.648 270.793C338.631 271.409 339.181 272.469 339.181 273.558C339.181 274.133 339.027 274.719 338.702 275.246L338.346 275.826C337.387 277.33 335.397 277.786 333.876 276.851C332.904 276.217 332.371 275.181 332.371 274.103C332.371 273.505 332.531 272.913 332.869 272.386ZM333.716 84.7673C335.22 83.7962 337.215 84.2225 338.204 85.7029L338.56 86.2832C338.921 86.8102 339.075 87.432 339.075 88.0182C339.075 89.0782 338.56 90.1204 337.594 90.754C336.09 91.7074 334.095 91.2633 333.124 89.7592L332.78 89.2499C332.425 88.7051 332.253 88.0893 332.253 87.4735C332.253 86.4194 332.78 85.395 333.716 84.7673ZM319.338 290.654L319.729 290.18C320.836 288.759 322.867 288.528 324.265 289.635C325.082 290.263 325.508 291.217 325.508 292.17C325.508 292.875 325.283 293.573 324.81 294.171L324.401 294.698C323.294 296.096 321.245 296.315 319.865 295.208C319.066 294.58 318.633 293.621 318.633 292.685C318.633 291.969 318.876 291.252 319.338 290.654ZM318.006 66.2388C319.385 65.0959 321.417 65.2972 322.565 66.6651L322.98 67.1921C323.477 67.7902 323.72 68.5067 323.72 69.2173C323.72 70.1647 323.306 71.0944 322.524 71.728C321.144 72.8709 319.095 72.6518 317.97 71.2721L317.579 70.7924C317.088 70.1766 316.827 69.4601 316.827 68.7258C316.827 67.7902 317.242 66.8664 318.006 66.2388ZM306.222 305.44L306.666 304.978C307.927 303.717 309.976 303.705 311.237 304.943C311.883 305.576 312.209 306.411 312.209 307.246C312.209 308.081 311.901 308.904 311.267 309.514L310.811 309.988C309.55 311.255 307.507 311.267 306.24 310.012C305.612 309.378 305.286 308.543 305.286 307.702C305.286 306.891 305.594 306.074 306.222 305.44ZM304.161 51.6599C305.393 50.3808 307.454 50.3453 308.733 51.5888L309.194 52.0566C309.84 52.6843 310.166 53.5192 310.166 54.3542C310.166 55.1714 309.858 55.9944 309.242 56.6221C308.004 57.9012 305.949 57.913 304.67 56.6754L304.214 56.2313C303.569 55.5977 303.237 54.745 303.237 53.9101C303.237 53.0929 303.551 52.2757 304.161 51.6599ZM291.542 318.639L292.04 318.242C293.437 317.117 295.468 317.336 296.593 318.722C297.067 319.32 297.304 320.037 297.304 320.753C297.304 321.689 296.895 322.624 296.096 323.276L295.581 323.684C294.201 324.809 292.158 324.584 291.051 323.193C290.571 322.595 290.334 321.872 290.334 321.162C290.334 320.226 290.737 319.285 291.542 318.639ZM288.765 38.7153C289.855 37.306 291.886 37.0514 293.301 38.1587L293.816 38.5495C294.633 39.195 295.054 40.1365 295.054 41.1017C295.054 41.8064 294.835 42.5052 294.373 43.0973C293.265 44.4948 291.234 44.7376 289.825 43.648L289.328 43.2512C288.51 42.6235 288.078 41.6702 288.078 40.6991C288.078 39.9944 288.303 39.2956 288.765 38.7153ZM275.459 330.133L276.01 329.784C277.514 328.818 279.51 329.257 280.481 330.755C280.818 331.305 280.972 331.904 280.972 332.496C280.972 333.573 280.463 334.616 279.492 335.226L278.929 335.587C277.425 336.54 275.43 336.096 274.476 334.592C274.139 334.047 273.961 333.455 273.961 332.857C273.961 331.803 274.494 330.743 275.459 330.133ZM272.007 27.6006C272.943 26.0669 274.92 25.5872 276.454 26.511L277.017 26.8663C278.006 27.4822 278.55 28.5362 278.55 29.6139C278.55 30.1942 278.402 30.7864 278.077 31.3193C277.135 32.8352 275.14 33.2971 273.624 32.3556L273.097 32.0358C272.09 31.42 271.545 30.3659 271.545 29.2705C271.545 28.6961 271.681 28.1158 272.007 27.6006ZM258.21 339.732L258.784 339.454C260.389 338.666 262.319 339.317 263.107 340.922C263.344 341.378 263.444 341.875 263.444 342.349C263.444 343.545 262.781 344.688 261.638 345.251L261.04 345.541C259.436 346.328 257.493 345.659 256.706 344.06C256.487 343.599 256.386 343.119 256.386 342.645C256.386 341.449 257.049 340.288 258.21 339.732ZM254.118 18.4103C254.864 16.7878 256.795 16.095 258.411 16.8411L259.015 17.1372C260.188 17.682 260.869 18.8367 260.869 20.0684C260.869 20.5065 260.768 20.9862 260.567 21.4303C259.815 23.0528 257.884 23.7516 256.268 22.9818L255.687 22.7034C254.509 22.1587 253.81 21.004 253.81 19.7723C253.81 19.3341 253.911 18.8544 254.118 18.4103ZM239.983 347.335L240.581 347.11C242.269 346.512 244.122 347.4 244.72 349.088C244.845 349.443 244.892 349.804 244.892 350.16C244.892 351.486 244.081 352.736 242.749 353.215L242.133 353.417C240.445 354.015 238.598 353.126 238.005 351.457C237.887 351.101 237.816 350.728 237.816 350.379C237.816 349.035 238.657 347.791 239.983 347.335ZM235.293 11.34C235.856 9.62864 237.686 8.71079 239.385 9.27334L240.019 9.49247C241.363 9.95435 242.216 11.1979 242.216 12.5657C242.216 12.9033 242.168 13.2467 242.044 13.5842C241.47 15.2778 239.646 16.1897 237.952 15.6153L237.336 15.4258C235.992 14.9699 235.122 13.7027 235.122 12.3585C235.122 12.015 235.193 11.6716 235.293 11.34ZM221.011 352.807L221.638 352.653C223.379 352.256 225.049 353.351 225.458 355.092C225.511 355.329 225.523 355.566 225.523 355.809C225.523 357.289 224.469 358.633 222.971 358.995L222.438 359.113C220.697 359.504 218.962 358.414 218.571 356.673C218.518 356.437 218.482 356.182 218.482 355.945C218.482 354.477 219.501 353.144 221.011 352.807ZM215.788 6.40731C216.167 4.6723 217.872 3.54128 219.625 3.92026L220.27 4.0624C221.786 4.37624 222.828 5.72635 222.828 7.21266C222.828 7.43176 222.793 7.66862 222.746 7.89364C222.367 9.65235 220.667 10.7538 218.908 10.3807L218.293 10.2445C216.777 9.91881 215.723 8.5924 215.723 7.09424C215.723 6.86922 215.752 6.6501 215.788 6.40731ZM201.89 356.093L202.541 356.028C204.312 355.821 205.916 357.1 206.118 358.876L206.142 359.249C206.142 360.866 204.91 362.269 203.27 362.459L202.624 362.524C200.854 362.725 199.249 361.446 199.047 359.676L199.03 359.303C199.03 357.68 200.238 356.288 201.89 356.093ZM195.856 3.71302C196.045 1.93655 197.614 0.645622 199.403 0.817347L200.054 0.8825C201.7 1.05423 202.968 2.45765 202.968 4.08607L202.95 4.41768C202.766 6.18822 201.191 7.50278 199.403 7.31329L198.775 7.26003C197.105 7.09423 195.838 5.67305 195.838 4.0387L195.856 3.71302ZM182.899 357.2L183.527 357.189C185.315 357.189 186.766 358.622 186.784 360.41C186.784 362.186 185.333 363.649 183.563 363.667H182.899C181.099 363.667 179.66 362.216 179.66 360.428C179.66 358.633 181.099 357.2 182.899 357.2ZM178.944 0.000192717H179.607C181.401 -0.017572 182.846 1.40954 182.882 3.23338C182.882 4.99209 181.449 6.44284 179.678 6.45468H179.044C177.25 6.49614 175.788 5.06313 175.752 3.25706C175.752 1.37992 177.167 0.0298005 178.944 0.000192717ZM160.723 359.457C160.871 357.68 162.44 356.371 164.229 356.519L164.862 356.573C166.532 356.721 167.811 358.124 167.811 359.794V360.066C167.663 361.843 166.106 363.169 164.317 363.015L163.654 362.968C161.978 362.814 160.705 361.434 160.705 359.782L160.723 359.457ZM158.514 1.46282L159.184 1.37992C160.954 1.1549 162.571 2.41619 162.778 4.19265L162.807 4.58346C162.807 6.20005 161.617 7.5857 159.983 7.78704L159.349 7.87586C157.579 8.09496 155.956 6.85143 155.719 5.07496L155.702 4.69007C155.702 3.06756 156.88 1.66416 158.514 1.46282ZM140.513 356.217C140.874 354.476 142.579 353.351 144.332 353.707L144.948 353.825C146.488 354.139 147.506 355.465 147.506 356.964C147.506 357.189 147.494 357.414 147.441 357.627C147.098 359.385 145.339 360.511 143.604 360.155L143.041 360.031C141.502 359.729 140.448 358.379 140.448 356.881C140.448 356.662 140.465 356.437 140.513 356.217ZM138.399 5.19935L139.026 5.04537C140.767 4.61902 142.502 5.69081 142.935 7.40806C143 7.68638 143.035 7.94101 143.035 8.18379C143.035 9.65234 142.029 10.9788 140.56 11.3163L139.932 11.4762C138.192 11.8966 136.433 10.8426 136.024 9.10755C135.959 8.847 135.924 8.5924 135.924 8.33185C135.924 6.88699 136.912 5.55464 138.399 5.19935ZM122.221 350.42C122.784 348.715 124.602 347.791 126.289 348.342L126.905 348.543C128.273 348.969 129.155 350.249 129.155 351.61C129.155 351.936 129.108 352.28 129.007 352.599C128.456 354.311 126.639 355.24 124.927 354.696L124.3 354.494C122.938 354.05 122.061 352.771 122.061 351.427C122.061 351.089 122.114 350.74 122.221 350.42ZM118.804 11.1979L119.42 10.9788C121.108 10.3452 122.961 11.2156 123.577 12.8914C123.713 13.2586 123.767 13.6376 123.767 14.0165C123.767 15.3252 122.961 16.551 121.653 17.0484L121.037 17.2675C119.367 17.8833 117.508 17.0306 116.898 15.3429C116.761 14.9876 116.69 14.6087 116.69 14.2356C116.69 12.921 117.496 11.6716 118.804 11.1979ZM105.043 343.172C105.783 341.538 107.707 340.821 109.33 341.55L109.886 341.804C111.1 342.349 111.811 343.528 111.811 344.777C111.811 345.221 111.716 345.659 111.527 346.086C110.792 347.72 108.886 348.442 107.263 347.72L106.647 347.448C105.457 346.909 104.752 345.73 104.752 344.505C104.752 344.06 104.841 343.599 105.043 343.172ZM100.015 19.3696L100.613 19.0735C102.218 18.2741 104.16 18.9255 104.96 20.5243C105.185 20.9862 105.303 21.4777 105.303 21.9573C105.303 23.1535 104.634 24.2963 103.509 24.853L102.946 25.149C101.348 25.9484 99.3994 25.3149 98.6 23.7101C98.3631 23.2542 98.2388 22.7568 98.2388 22.2593C98.2388 21.0869 98.8901 19.944 100.015 19.3696ZM87.4141 333.485C88.3379 331.969 90.3335 331.477 91.8494 332.395L92.3764 332.703C93.4008 333.319 93.9752 334.391 93.9752 335.498C93.9752 336.06 93.8272 336.623 93.5193 337.138C92.6133 338.666 90.6355 339.181 89.1077 338.281L88.5274 337.938C87.5148 337.322 86.9522 336.25 86.9522 335.154C86.9522 334.592 87.1062 334.018 87.4141 333.485ZM82.2801 29.6139L82.8486 29.2527C84.3468 28.2815 86.3423 28.7079 87.3135 30.1942C87.6747 30.739 87.8464 31.3548 87.8464 31.9647C87.8464 33.0247 87.3135 34.0491 86.3779 34.6768L85.8449 35.0203C84.3468 36.0092 82.3512 35.5828 81.3623 34.0965C81.007 33.5517 80.8353 32.9418 80.8353 32.326C80.8353 31.266 81.3445 30.2416 82.2801 29.6139ZM70.9818 321.908C72.0714 320.493 74.0965 320.226 75.5177 321.316L76.0092 321.689C76.8441 322.322 77.2882 323.288 77.2882 324.277C77.2882 324.946 77.081 325.627 76.6428 326.207C75.5829 327.64 73.5577 327.924 72.1247 326.858L71.5739 326.444C70.7568 325.816 70.3127 324.839 70.3127 323.868C70.3127 323.193 70.5377 322.506 70.9818 321.908ZM65.8123 41.7886L66.3215 41.3563C67.7013 40.2194 69.7324 40.4207 70.8811 41.7886C71.3726 42.4045 71.6095 43.1328 71.6095 43.8553C71.6095 44.7909 71.2187 45.7087 70.4311 46.3364L69.9574 46.7509C68.5776 47.8938 66.5465 47.7043 65.4037 46.3364C64.8944 45.7265 64.6516 45.01 64.6516 44.2816C64.6516 43.3401 65.0484 42.4222 65.8123 41.7886ZM55.941 308.573C57.1668 307.282 59.2156 307.228 60.5125 308.472L60.9507 308.904C61.6376 309.532 61.9751 310.402 61.9751 311.255C61.9751 312.049 61.6849 312.842 61.0869 313.47C59.8611 314.767 57.8181 314.832 56.5213 313.6L56.0417 313.144C55.3785 312.499 55.035 311.664 55.035 310.811C55.035 310.012 55.3489 309.194 55.941 308.573ZM50.8248 55.6984L51.2689 55.2424C52.5124 53.9456 54.5613 53.9278 55.8404 55.1713C56.5036 55.799 56.8293 56.634 56.8293 57.4926C56.8293 58.292 56.5213 59.1092 55.9055 59.7369L55.4791 60.2047C54.2356 61.4837 52.1868 61.5133 50.8959 60.2698C50.2445 59.6362 49.9069 58.8072 49.9069 57.9545C49.9069 57.1491 50.2089 56.332 50.8248 55.6984ZM42.4872 293.609C43.8492 292.466 45.898 292.65 47.0409 294.029L47.4554 294.527C47.9587 295.125 48.2015 295.853 48.2015 296.587C48.2015 297.511 47.8107 298.429 47.0409 299.08C45.673 300.223 43.6301 300.051 42.4872 298.672L42.0609 298.174C41.5635 297.564 41.3088 296.824 41.3088 296.096C41.3088 295.178 41.7174 294.254 42.4872 293.609ZM37.4598 71.2306L37.8625 70.6918C38.9698 69.2943 41.0068 69.0337 42.4162 70.1292C43.2393 70.7747 43.6656 71.728 43.6656 72.6814C43.6656 73.3801 43.4406 74.0848 42.9846 74.6592L42.5879 75.1566C41.5161 76.5719 39.485 76.8443 38.0697 75.7547C37.2348 75.1211 36.7966 74.1618 36.7966 73.1907C36.7966 72.5097 37.0157 71.8109 37.4598 71.2306ZM30.7803 277.253C32.2784 276.265 34.2681 276.673 35.257 278.177L35.6182 278.704C35.9735 279.249 36.1452 279.865 36.1452 280.493C36.1452 281.535 35.6478 282.559 34.7122 283.187C33.2318 284.176 31.2185 283.767 30.2296 282.281L29.8743 281.736C29.4953 281.174 29.3236 280.564 29.3236 279.948C29.3236 278.906 29.8328 277.869 30.7803 277.253ZM25.9305 88.1485L26.2917 87.5741C27.2096 86.0523 29.2052 85.5726 30.7211 86.4964C31.7277 87.1063 32.2785 88.1663 32.2785 89.2558C32.2785 89.8361 32.1186 90.4165 31.7929 90.9257L31.4731 91.4705C30.5553 93.0101 28.5715 93.5016 27.0379 92.5778C26.0371 91.9679 25.4686 90.9139 25.4686 89.8065C25.4686 89.2381 25.6226 88.6578 25.9305 88.1485ZM21.0038 259.678C22.5908 258.855 24.533 259.507 25.3384 261.088L25.6226 261.638C25.8654 262.112 25.9838 262.627 25.9838 263.142C25.9838 264.297 25.3561 265.422 24.2429 266.003C22.6737 266.82 20.7136 266.21 19.8965 264.635L19.5708 264.007C19.3339 263.545 19.2096 263.048 19.2096 262.55C19.2096 261.384 19.8787 260.235 21.0038 259.678ZM16.379 106.239L16.6574 105.641C17.4094 104.018 19.3161 103.308 20.9505 104.054C22.1289 104.599 22.8276 105.777 22.8276 107.003C22.8276 107.453 22.727 107.909 22.5375 108.353L22.2651 108.915C21.5308 110.556 19.6063 111.272 17.9838 110.538C16.7936 109.987 16.0948 108.815 16.0948 107.583C16.0948 107.145 16.1777 106.683 16.379 106.239ZM13.2643 241.091C14.9342 240.475 16.7935 241.333 17.4094 243.003L17.6285 243.595C17.7825 243.974 17.8535 244.365 17.8535 244.738C17.8535 246.053 17.0482 247.279 15.7514 247.758C14.0815 248.392 12.2221 247.551 11.5944 245.881L11.3516 245.253C11.2154 244.892 11.1503 244.501 11.1503 244.128C11.1503 242.808 11.9497 241.588 13.2643 241.091ZM8.92972 125.318L9.13697 124.69C9.69952 122.979 11.5411 122.061 13.2288 122.63C14.573 123.086 15.4434 124.347 15.4434 125.691C15.4434 126.035 15.3961 126.372 15.2717 126.716L15.0881 127.314C14.5256 129.019 12.7018 129.937 11.0141 129.398C9.63439 128.948 8.78167 127.675 8.78167 126.307C8.78167 125.981 8.82905 125.638 8.92972 125.318ZM7.66841 221.774C9.39159 221.348 11.1503 222.402 11.5707 224.125L11.7424 224.759C11.7957 225.013 11.8313 225.286 11.8313 225.541C11.8313 226.991 10.8601 228.3 9.39159 228.679C7.65657 229.105 5.89788 228.045 5.47152 226.322L5.2998 225.694C5.25243 225.434 5.2169 225.162 5.2169 224.907C5.2169 223.462 6.18802 222.13 7.66841 221.774ZM3.69506 145.096L3.83125 144.451C4.18654 142.71 5.91564 141.585 7.65658 141.964C9.1725 142.266 10.2265 143.61 10.2265 145.114C10.2265 145.333 10.1969 145.558 10.1614 145.783L10.0252 146.411C9.664 148.146 7.95858 149.277 6.2058 148.916C4.68396 148.608 3.62991 147.263 3.62991 145.759C3.62991 145.54 3.64769 145.315 3.69506 145.096ZM4.3109 201.943C6.08737 201.706 7.70396 202.962 7.92306 204.738L8.00596 205.354L8.04741 205.792C8.04741 207.385 6.86902 208.777 5.25243 209.002C3.47596 209.244 1.84161 208.001 1.59883 206.218L1.51592 205.573L1.49815 205.153C1.49815 203.548 2.67655 202.15 4.3109 201.943ZM0.710581 165.366L0.781646 164.702C0.941529 162.932 2.52258 161.617 4.29313 161.789C5.96301 161.943 7.22432 163.34 7.22432 164.998L7.21246 165.3L7.15917 165.934C7.00521 167.705 5.436 169.019 3.64769 168.865C1.97781 168.711 0.698745 167.296 0.698745 165.644L0.710581 165.366ZM3.18579 181.857C4.9741 181.839 6.44265 183.255 6.47818 185.049L6.49596 185.742C6.49596 187.5 5.07479 188.933 3.322 188.969C1.53369 189.004 0.0651275 187.583 0.0177549 185.795L0 184.954C0 183.308 1.46262 181.893 3.18579 181.857ZM178.464 330.121L179.11 330.038C180.886 329.801 182.503 331.045 182.745 332.815L182.775 333.242C182.775 334.847 181.597 336.226 179.962 336.451L179.335 336.534C177.558 336.771 175.924 335.533 175.687 333.751L175.663 333.325C175.663 331.744 176.848 330.34 178.464 330.121ZM255.054 241.404L255.415 240.877C256.422 239.397 258.429 239.018 259.915 240.025C260.839 240.635 261.33 241.659 261.33 242.701C261.33 243.335 261.141 243.962 260.768 244.513L260.389 245.052C259.388 246.538 257.375 246.917 255.912 245.905C254.988 245.271 254.491 244.259 254.491 243.234C254.491 242.601 254.675 241.967 255.054 241.404Z" fill="#C51A43"/>
</svg>
