<svg width="250" height="55" viewBox="0 0 250 55" fill="none" xmlns="http://www.w3.org/2000/svg">
<g clip-path="url(#clip0_273_6883)">
<path d="M104.45 29.1246H91.825V17.9996H86.25V45.5746H91.825V34.3746H104.45V45.5746H110.05V17.9996H104.45V29.1246Z" fill="#24272A"/>
<path d="M135.95 33.7995C135.95 38.2745 133.725 40.6745 129.675 40.6745C125.6 40.6745 123.375 38.2245 123.375 33.5995V18.0245H117.775V33.7745C117.775 41.5245 122.075 45.9745 129.6 45.9745C137.175 45.9745 141.525 41.4495 141.525 33.5495V18.0245H135.925V33.7995H135.95Z" fill="#24272A"/>
<path d="M200.6 36.9746L194.325 17.9996H189.775L183.5 36.9746L177.425 18.0246H171.475L181.075 45.5746H185.7L191.975 27.4746L198.25 45.5746H202.9L212.5 18.0246H206.7L200.6 36.9746Z" fill="#24272A"/>
<path d="M222.525 33.7245H232.7V28.6995H222.525V23.0495H237.275V18.0245H217V45.5495H237.825V40.5495H222.525V33.7245Z" fill="#24272A"/>
<path d="M250 17.9996H244.475V45.5246H250V17.9996Z" fill="#24272A"/>
<path d="M156.525 18.0245L144.375 45.5745H150.075L152.575 39.8245H165.2L167.675 45.5745H173.525L161.45 18.0245H156.525ZM154.675 34.8495L158.9 24.9745L163.15 34.8495H154.675Z" fill="#24272A"/>
<path d="M67.35 21.6496C67.75 15.3996 61.475 9.62463 61.475 9.62463C61.475 9.62463 49.8 23.7496 41.3 42.2996C41.25 42.3996 41.25 42.5496 41.35 42.6496C41.425 42.6996 41.55 42.7496 41.675 42.6746C44.85 41.0996 58.1 34.2746 63.675 28.9496C63.675 28.9496 67.175 26.1496 67.35 21.6496ZM52.5 7.57463C52.5 7.57463 51.05 2.12463 45.125 0.699634C45.125 0.699634 43.425 0.274634 41.625 0.0246338C41.625 0.0246338 35.025 8.52464 38.225 40.6496C38.25 40.8246 38.325 40.8746 38.4 40.8996C38.525 40.9246 38.625 40.8996 38.725 40.7746C40.85 37.6996 50.5 23.3746 52.475 14.6746C52.45 14.6496 53.525 10.4246 52.5 7.57463ZM43.425 47.1996C43.4 47.2746 43.35 47.4496 43.5 47.5496C45.625 49.0746 52.1 53.5996 55.225 54.4746C55.225 54.4746 61 56.4496 66 47.8246C66 47.8246 49.25 47.2496 43.675 47.0496C43.575 47.0746 43.475 47.1246 43.425 47.1996ZM71.925 28.1246C71.925 28.1246 52.975 38.2996 43.175 44.9246C43.1 44.9746 43 45.0746 43.05 45.2496C43.075 45.3496 43.175 45.4246 43.275 45.4246C46.775 45.4246 60.075 45.4496 60.4 45.3746C60.4 45.3746 62.125 45.2996 64.25 44.4996C64.25 44.4996 68.975 42.9996 71.425 37.6246C71.425 37.6246 73.625 33.2246 71.925 28.1246ZM29.4 44.8996C19.6 38.2996 0.65001 28.0996 0.65001 28.0996C-1.04999 33.2246 1.15001 37.5996 1.15001 37.5996C3.60001 42.9746 8.32501 44.4746 8.32501 44.4746C10.45 45.2996 12.175 45.3496 12.175 45.3496C12.5 45.4246 25.8 45.3996 29.3 45.3996C29.425 45.3996 29.5 45.3246 29.525 45.2246C29.575 45.0496 29.475 44.9496 29.4 44.8996ZM28.9 47.0746C23.325 47.2746 6.57501 47.8496 6.57501 47.8496C11.575 56.4496 17.35 54.4996 17.35 54.4996C20.475 53.6246 26.95 49.0996 29.075 47.5746C29.2 47.4746 29.175 47.2996 29.15 47.2246C29.1 47.1246 29 47.0746 28.9 47.0746ZM27.45 0.674634C21.55 2.12463 20.075 7.57463 20.075 7.57463C19.05 10.4246 20.1 14.6496 20.1 14.6496C22.05 23.3746 31.725 37.6996 33.85 40.7496C33.925 40.8746 34.05 40.8996 34.175 40.8746C34.25 40.8496 34.35 40.7996 34.35 40.6246C37.575 8.49963 30.975 -0.000366211 30.975 -0.000366211C29.15 0.249634 27.45 0.674634 27.45 0.674634ZM11.1 9.62463C11.1 9.62463 4.82501 15.3996 5.22501 21.6496C5.40001 26.1496 8.90001 28.9496 8.90001 28.9496C14.475 34.2746 27.725 41.0746 30.9 42.6746C31.025 42.7496 31.15 42.6996 31.225 42.6496C31.325 42.5746 31.3 42.3996 31.275 42.2996C22.775 23.7496 11.1 9.62463 11.1 9.62463Z" fill="#D7002B"/>
</g>
<defs>
<clipPath id="clip0_273_6883">
<rect width="250" height="54.675" fill="white"/>
</clipPath>
</defs>
</svg>
