<svg width="40" height="40" viewBox="0 0 40 40" fill="none" xmlns="http://www.w3.org/2000/svg">
<path d="M21.4827 9.7998C24.3327 9.7998 26.6666 12.1337 26.6666 14.9837V33.916C26.6666 36.3327 24.9327 37.3499 22.7994 36.1833L16.2499 32.5326C15.5668 32.1495 14.4336 32.1496 13.7336 32.5326L7.18254 36.1833C5.0661 37.3661 3.33325 36.3325 3.33325 33.916V14.9837C3.33325 12.1337 5.66717 9.7998 8.51717 9.7998H21.4827ZM16.1588 15.9635C15.5171 14.6799 14.4828 14.6802 13.8411 15.9554L12.6659 18.3219C12.5074 18.6488 12.0832 18.9678 11.7252 19.0267L9.59953 19.3783C8.2411 19.6132 7.92459 20.6037 8.89966 21.5853L10.5582 23.2552C10.8329 23.5322 10.9911 24.0767 10.9163 24.4792L10.441 26.543C10.066 28.1706 10.9332 28.7998 12.3583 27.9525L14.3505 26.7611C14.7089 26.5433 15.3091 26.5431 15.6672 26.7611L17.6578 27.9525C19.0829 28.8082 19.9501 28.1706 19.5751 26.543L19.0999 24.4792C19.0084 24.085 19.1669 23.5403 19.4417 23.2633L21.1002 21.5934C22.0752 20.6034 21.7587 19.6129 20.4003 19.3864L18.2747 19.0348C17.9166 18.9676 17.4924 18.657 17.3339 18.3301L16.1588 15.9635Z" fill="#C42942"/>
<path d="M36.6667 8.51683V27.4502C36.6667 29.8668 34.9334 30.8835 32.8167 29.7168L29.6001 27.9168C29.3334 27.7668 29.1667 27.4835 29.1667 27.1835V14.9835C29.1667 10.7502 25.7167 7.30016 21.4834 7.30016H14.7001C14.0834 7.30016 13.6501 6.65016 13.9334 6.11683C14.8001 4.46683 16.5334 3.3335 18.5167 3.3335H31.4834C34.3334 3.3335 36.6667 5.66683 36.6667 8.51683Z" fill="#C42942"/>
</svg>
