<svg width="40" height="40" viewBox="0 0 40 40" fill="none" xmlns="http://www.w3.org/2000/svg">
<path d="M14.1291 35.7316C11.1592 34.6139 8.56567 32.6794 6.64771 30.1513C4.72976 27.6232 3.56545 24.6045 3.28906 21.4433H10.4891C10.4616 26.4389 11.7148 31.3581 14.1291 35.7316ZM26.6374 21.4433C26.3341 30.5516 23.0141 36.79 20.0157 36.79C17.0157 36.79 13.6974 30.5516 13.3924 21.4433H26.6374ZM36.7091 21.4433C36.4391 24.6088 35.2752 27.6325 33.3531 30.1621C31.4311 32.6918 28.8298 34.6233 25.8524 35.7316C28.2802 31.3627 29.5396 26.4413 29.5091 21.4433H36.7091ZM36.7091 18.5566H29.5091C29.5424 13.5566 28.2841 8.63663 25.8524 4.26829C28.8309 5.37493 31.4332 7.30594 33.3556 9.83592C35.2779 12.3659 36.441 15.3905 36.7091 18.5566ZM26.6374 18.5566H13.3924C13.6974 9.43163 17.0157 3.20996 20.0157 3.20996C23.0141 3.20996 26.3174 9.43163 26.6374 18.5566ZM14.1291 4.34996C11.7123 8.72189 10.4589 13.6413 10.4891 18.6366H3.28906C3.55993 15.4739 4.72216 12.4528 6.64087 9.92406C8.55959 7.39528 11.1561 5.46247 14.1291 4.34996Z" fill="#C42942"/>
</svg>
