<svg width="40" height="40" viewBox="0 0 40 40" fill="none" xmlns="http://www.w3.org/2000/svg">
<path d="M19.9987 3.33325C10.7987 3.33325 3.33203 10.7999 3.33203 19.9999C3.33203 29.1999 10.7987 36.6666 19.9987 36.6666C29.1987 36.6666 36.6654 29.1999 36.6654 19.9999C36.6654 10.7999 29.1987 3.33325 19.9987 3.33325ZM27.732 14.6666C27.482 17.2999 26.3987 23.6999 25.8487 26.6499C25.6154 27.8999 25.1487 28.3166 24.7154 28.3666C23.7487 28.4499 23.0154 27.7333 22.082 27.1166C20.6154 26.1499 19.782 25.5499 18.3654 24.6166C16.7154 23.5333 17.782 22.9333 18.732 21.9666C18.982 21.7166 23.2487 17.8333 23.332 17.4833C23.3436 17.4302 23.3421 17.3752 23.3275 17.3229C23.313 17.2706 23.286 17.2227 23.2487 17.1833C23.1487 17.0999 23.0154 17.1333 22.8987 17.1499C22.7487 17.1833 20.4154 18.7333 15.8654 21.7999C15.1987 22.2499 14.5987 22.4833 14.0654 22.4666C13.4654 22.4499 12.332 22.1333 11.482 21.8499C10.432 21.5166 9.61536 21.3333 9.68203 20.7499C9.71536 20.4499 10.132 20.1499 10.9154 19.8333C15.782 17.7166 19.0154 16.3166 20.632 15.6499C25.2654 13.7166 26.2154 13.3833 26.8487 13.3833C26.982 13.3833 27.2987 13.4166 27.4987 13.5833C27.6654 13.7166 27.7154 13.8999 27.732 14.0333C27.7154 14.1333 27.7487 14.4333 27.732 14.6666Z" fill="#C42942"/>
</svg>
