<svg width="40" height="40" viewBox="0 0 40 40" fill="none" xmlns="http://www.w3.org/2000/svg">
<path d="M28.332 4.05005H11.6654C6.66536 4.05005 3.33203 7.38338 3.33203 12.3834V22.3834C3.33203 27.3834 6.66536 30.7167 11.6654 30.7167V34.2667C11.6654 35.6 13.1487 36.4 14.2487 35.65L21.6654 30.7167H28.332C33.332 30.7167 36.6654 27.3834 36.6654 22.3834V12.3834C36.6654 7.38338 33.332 4.05005 28.332 4.05005ZM19.9987 24.3334C19.2987 24.3334 18.7487 23.7667 18.7487 23.0834C18.7487 22.4 19.2987 21.8334 19.9987 21.8334C20.6987 21.8334 21.2487 22.4 21.2487 23.0834C21.2487 23.7667 20.6987 24.3334 19.9987 24.3334ZM22.0987 17.4167C21.4487 17.85 21.2487 18.1334 21.2487 18.6V18.95C21.2487 19.6334 20.682 20.2 19.9987 20.2C19.3154 20.2 18.7487 19.6334 18.7487 18.95V18.6C18.7487 16.6667 20.1654 15.7167 20.6987 15.35C21.3154 14.9334 21.5154 14.65 21.5154 14.2167C21.5154 13.3834 20.832 12.7 19.9987 12.7C19.1654 12.7 18.482 13.3834 18.482 14.2167C18.482 14.9 17.9154 15.4667 17.232 15.4667C16.5487 15.4667 15.982 14.9 15.982 14.2167C15.982 12 17.782 10.2 19.9987 10.2C22.2154 10.2 24.0154 12 24.0154 14.2167C24.0154 16.1167 22.6154 17.0667 22.0987 17.4167Z" fill="#C42942"/>
</svg>
