<svg width="172" height="110" viewBox="0 0 172 110" fill="none" xmlns="http://www.w3.org/2000/svg">
<path d="M138.888 41.4072H142.693V52.8528H147.825V41.4072H151.629V68.0267H147.825V56.2758H142.693V68.0267H138.888V41.4072ZM128.687 44.8283H125.721V46.9209C125.721 53.3857 125.303 57.0733 124.884 59.4323C124.581 61.2584 124.161 62.8552 123.286 64.7943H128.687V44.8283ZM119.512 64.0656C119.632 63.9474 120.024 63.5222 120.207 63.1552C120.639 62.2871 121.1 61.3255 121.334 59.8998C122.333 53.8303 122.146 47.9866 122.146 43.3462V41.4072H132.491V64.6037H134.657V71.1497H131.046V68.0267H121.232V71.1497H117.62V64.6037L118.383 64.5437C118.383 64.5437 118.773 64.639 119.512 64.0656ZM109.045 58.9382L106.99 48.8212L105.014 58.9382H109.045ZM114.559 68.0267H110.755L109.501 62.3224H104.633L103.378 68.0267H99.5759L105.393 41.4072H108.742L114.559 68.0267ZM81.5261 41.4072H85.3301V57.7596L91.6043 44.449V41.4072H95.4066V68.0267H91.6043V51.6742L85.3301 64.9848V68.0267H81.5261V41.4072ZM68.3672 44.8283V58.4971H70.4209C71.1426 58.4971 72.1712 58.3842 72.9687 57.5091C73.768 56.6357 73.6904 55.3283 73.6904 54.379V48.5936C73.6904 47.6814 73.7292 46.3898 72.6635 45.5147C71.7901 44.7913 70.7262 44.8283 69.6993 44.8283H68.3672ZM64.5631 68.0267V41.4072H70.2304C71.866 41.4072 73.8809 41.483 75.5536 43.1557C77.3039 44.943 77.2986 46.3775 77.2986 48.3554V55.7076C77.2986 57.1915 77.3427 58.1196 75.8588 59.8275C74.3008 61.6166 72.2453 61.9218 70.6115 61.9218H68.3672V68.0267H64.5631ZM54.7742 58.9382L52.7205 48.8212L50.7426 58.9382H54.7742ZM60.288 68.0267H56.4857L55.2294 62.3224H50.3632L49.107 68.0267H45.3047L51.1237 41.4072H54.469L60.288 68.0267ZM170.888 68.0267H167.085L165.831 62.3224H160.961L159.707 68.0267H155.904L161.723 41.4072H165.069L170.888 68.0267ZM165.374 58.9382L163.32 48.8212L161.342 58.9382H165.374Z" fill="#C51A43"/>
<path d="M108.721 41.3995V57.4009L106.977 48.8135L105 58.9306H108.721V62.3147H104.62L103.364 68.019H99.5616L105.379 41.3995H108.721ZM81.5136 41.3995H85.3158V57.752L91.5918 44.4414V41.3995H95.3923V68.019H91.5918V51.6666L85.3158 64.9772V68.019H81.5136V41.3995ZM68.3547 44.8207V58.4895H70.4067C71.1301 58.4895 72.1552 58.3766 72.9545 57.5014C73.7537 56.6281 73.6779 55.3206 73.6779 54.3714V48.5859C73.6779 47.6737 73.7149 46.3822 72.6492 45.5071C71.7776 44.7836 70.7119 44.8207 69.685 44.8207H68.3547ZM64.5506 68.019V41.3995H70.2179C71.8517 41.3995 73.8666 41.4754 75.5411 43.1481C77.2914 44.9354 77.2843 46.3698 77.2843 48.3477V55.7C77.2843 57.1838 77.3284 58.1119 75.8445 59.8199C74.2848 61.609 72.2328 61.9142 70.5972 61.9142H68.3547V68.019H64.5506ZM54.76 58.9306L52.7062 48.8135L50.7301 58.9306H54.76ZM60.2737 68.019H56.4714L55.2169 62.3147H50.3489L49.0945 68.019H45.2904L51.1094 41.3995H54.4565L60.2737 68.019ZM95.9164 73.014L96.0116 72.8535C96.2657 72.3859 96.8497 72.213 97.3191 72.4706C97.6384 72.6435 97.8166 72.9752 97.8166 73.314C97.8166 73.471 97.7796 73.6316 97.6984 73.778L97.6031 73.9492C97.3438 74.4167 96.7598 74.5843 96.2957 74.325C95.9764 74.1521 95.7999 73.8221 95.7999 73.4834C95.7999 73.3246 95.8352 73.1675 95.9164 73.014ZM102.552 73.2558C102.552 72.8411 102.815 72.4477 103.226 72.3189C103.734 72.1636 104.267 72.4247 104.424 72.9329L104.481 73.1146C104.64 73.621 104.357 74.1627 103.849 74.3215C103.343 74.4802 102.801 74.1979 102.642 73.6898L102.598 73.5469C102.568 73.4498 102.552 73.3528 102.552 73.2558ZM65.1858 72.3277L65.3481 72.2218C65.791 71.9325 66.3891 72.0577 66.6802 72.5006C66.7861 72.6629 66.8373 72.8464 66.8373 73.0299C66.8373 73.344 66.6838 73.6492 66.3997 73.8362L66.2321 73.9492C65.7857 74.2332 65.1858 74.1062 64.9017 73.6598C64.7941 73.4957 64.7429 73.314 64.7429 73.1358C64.7429 72.8217 64.9017 72.5112 65.1858 72.3277ZM65.297 36.0852C65.581 35.6317 66.1809 35.5011 66.6291 35.787L66.8002 35.8981C67.0843 36.0799 67.2431 36.3904 67.2431 36.7062C67.2431 36.888 67.1919 37.0715 67.0843 37.2285C66.7949 37.6767 66.2003 37.8019 65.7539 37.5126L65.5969 37.412C65.3075 37.2285 65.1487 36.918 65.1487 36.5986C65.1487 36.4204 65.1964 36.2422 65.297 36.0852ZM59.912 74.7361L60.0902 74.6796C60.5984 74.5261 61.1418 74.812 61.2953 75.3201C61.3253 75.4154 61.3394 75.5071 61.3394 75.6059C61.3394 76.0153 61.0712 76.3964 60.6601 76.5234L60.4572 76.5852C59.9473 76.7316 59.4144 76.4423 59.2609 75.9306C59.2362 75.8424 59.2221 75.7524 59.2221 75.6606C59.2221 75.2442 59.4956 74.8578 59.912 74.7361ZM59.1145 34.386C59.2574 33.8744 59.792 33.5797 60.3037 33.7226L60.5013 33.7826C60.9195 33.9044 61.193 34.2855 61.193 34.7019C61.193 34.7936 61.1771 34.8854 61.1524 34.9754C60.9989 35.4906 60.466 35.7799 59.9526 35.6264L59.7744 35.5753C59.3544 35.4535 59.0739 35.0724 59.0739 34.6525C59.0739 34.566 59.0898 34.4743 59.1145 34.386ZM54.0895 75.553H54.3647C54.8923 75.5495 55.3299 75.9765 55.3351 76.5199C55.3351 77.0422 54.9082 77.4727 54.3841 77.4797H54.0895C53.5566 77.4797 53.1244 77.0492 53.1244 76.5199C53.1244 75.9853 53.5566 75.553 54.0895 75.553ZM53.0591 33.8391C53.0591 33.3115 53.4861 32.874 54.0189 32.874L54.2165 32.8687C54.7511 32.8687 55.1622 33.3009 55.1622 33.8338C55.1622 34.3684 54.7105 34.7989 54.1759 34.7989H54.0295C53.4949 34.7989 53.0644 34.3719 53.0591 33.8391ZM47.1607 75.3607C47.3124 74.8525 47.847 74.5632 48.3552 74.7114L48.544 74.7661C48.9586 74.8896 49.218 75.2636 49.218 75.6747C49.218 75.7665 49.2091 75.8635 49.1774 75.9553C49.0309 76.4634 48.4822 76.7528 47.9688 76.6046L47.8117 76.5605C47.39 76.4387 47.1183 76.0523 47.1183 75.6342C47.1183 75.5495 47.136 75.4524 47.1607 75.3607ZM47.7394 33.8144L47.9388 33.7526C48.4505 33.6062 48.9833 33.8991 49.1315 34.4143C49.158 34.499 49.1721 34.5907 49.1721 34.6825C49.1721 35.0989 48.8986 35.4853 48.4769 35.607L48.2987 35.6582C47.7853 35.8099 47.2524 35.5258 47.0954 35.0124C47.0689 34.9207 47.0548 34.8307 47.0548 34.7372C47.0548 34.3208 47.3248 33.9414 47.7394 33.8144ZM41.7651 72.5659C42.0545 72.1195 42.6491 71.9924 43.0955 72.2818L43.2596 72.3841C43.5384 72.5659 43.6901 72.8658 43.6901 73.1764C43.6901 73.3599 43.6389 73.5416 43.5331 73.7039C43.2437 74.1574 42.6332 74.2738 42.1868 73.988L42.0492 73.898C41.7651 73.7145 41.6081 73.4057 41.6081 73.0899C41.6081 72.9117 41.6593 72.7282 41.7651 72.5659ZM41.9892 36.491L42.1604 36.3798C42.6085 36.094 43.2031 36.2263 43.4925 36.6727C43.5931 36.8368 43.646 37.015 43.646 37.1914C43.646 37.5073 43.4872 37.816 43.1978 38.0066L43.0408 38.1054C42.5979 38.3948 41.9998 38.2748 41.7104 37.8266C41.6028 37.6643 41.5516 37.4808 41.5516 37.2991C41.5516 36.9832 41.7051 36.6798 41.9892 36.491ZM37.3718 68.3648C37.7723 68.0208 38.381 68.0649 38.7268 68.4654L38.8486 68.6101C39.0109 68.7918 39.0938 69.0194 39.0938 69.2435C39.0938 69.5135 38.9827 69.7781 38.7639 69.9704C38.3616 70.3198 37.7564 70.281 37.4018 69.8787L37.2694 69.7217C37.1124 69.5435 37.0348 69.3211 37.0348 69.0971C37.0348 68.8271 37.1477 68.5589 37.3718 68.3648ZM37.2183 40.6832L37.3559 40.5244C37.7053 40.1239 38.3157 40.0815 38.718 40.4326C38.935 40.6267 39.048 40.8896 39.048 41.1596C39.048 41.3819 38.965 41.613 38.808 41.7948L38.6863 41.9324C38.3404 42.3382 37.7317 42.3841 37.3294 42.0382C37.1071 41.8512 36.9889 41.5813 36.9889 41.3078C36.9889 41.089 37.0665 40.8649 37.2183 40.6832ZM34.3282 63.1016C34.8152 62.8829 35.3833 63.0963 35.6021 63.5798L35.6885 63.7562C35.745 63.8886 35.7768 64.0209 35.7768 64.1585C35.7768 64.5237 35.5668 64.8749 35.2122 65.0319C34.7252 65.256 34.1553 65.0425 33.9365 64.5537L33.85 64.3755C33.7936 64.2503 33.7636 64.1126 33.7636 63.9803C33.7636 63.6151 33.9771 63.2657 34.3282 63.1016ZM33.8236 46.0311L33.9065 45.8529C34.1306 45.3712 34.6987 45.1577 35.1857 45.3818C35.5368 45.5388 35.745 45.8899 35.745 46.2552C35.745 46.3875 35.7185 46.5251 35.6585 46.6574L35.5774 46.8339C35.3533 47.3173 34.7852 47.5308 34.3017 47.3067C33.9471 47.1497 33.7389 46.8004 33.7389 46.4334C33.7389 46.301 33.7636 46.1634 33.8236 46.0311ZM32.9096 57.1927C33.4336 57.1168 33.9206 57.4891 33.9912 58.0149L34.0194 58.1948L34.0335 58.3413C34.0335 58.8089 33.693 59.2217 33.2149 59.2923C32.6873 59.3735 32.1933 59.0118 32.1174 58.4895L32.0874 58.2742L32.0768 58.149C32.0768 57.6761 32.4226 57.2597 32.9096 57.1927ZM32.0768 52.143L32.1033 51.94C32.1791 51.4125 32.6679 51.0455 33.1937 51.1214C33.6771 51.1884 34.0229 51.6066 34.0229 52.0706L34.0124 52.21L33.9877 52.3988C33.9171 52.9246 33.4336 53.2969 32.9061 53.2245C32.4226 53.1593 32.0662 52.7499 32.0662 52.2753L32.0768 52.143ZM75.7228 35.8082C76.1286 35.4641 76.7338 35.51 77.0832 35.9105L77.2102 36.0622C77.369 36.2457 77.4449 36.4645 77.4449 36.6886C77.4449 36.9638 77.3284 37.232 77.1061 37.419C76.6985 37.7649 76.0933 37.719 75.7493 37.3132L75.6205 37.1667C75.4634 36.9885 75.3876 36.7645 75.3876 36.5404C75.3876 36.2704 75.504 36.0022 75.7228 35.8082ZM71.1706 31.2789C71.49 30.8502 72.0952 30.769 72.5222 31.0902L72.6845 31.2172C72.928 31.4042 73.0568 31.69 73.0568 31.9794C73.0568 32.1823 72.9897 32.3905 72.8574 32.5687C72.5328 32.9851 71.924 33.0663 71.5059 32.7363L71.3594 32.6234C71.1036 32.4364 70.9783 32.1523 70.9783 31.8577C70.9783 31.6548 71.0383 31.4518 71.1706 31.2789ZM71.6259 77.8114L71.7829 77.6967C72.2099 77.3827 72.8151 77.4797 73.1238 77.9067C73.2509 78.0796 73.3144 78.2772 73.3144 78.4766C73.3144 78.7713 73.175 79.0659 72.9174 79.2547L72.7551 79.3694C72.3228 79.6852 71.7176 79.5847 71.4088 79.1506C71.2871 78.983 71.2253 78.7854 71.2253 78.5931C71.2253 78.2931 71.3665 77.9985 71.6259 77.8114ZM65.9021 28.2918C66.1315 27.8084 66.7067 27.6055 67.1831 27.8348L67.3666 27.9195C67.7107 28.0836 67.91 28.4277 67.91 28.7841C67.91 28.927 67.8783 29.0681 67.813 29.204C67.5836 29.6822 67.0049 29.8868 66.5267 29.6522L66.3591 29.571C66.008 29.4087 65.8051 29.0576 65.8051 28.7029C65.8051 28.56 65.8369 28.4224 65.9021 28.2918ZM65.5828 81.1356L65.7539 81.0597C66.2374 80.8427 66.8073 81.0562 67.0243 81.5431C67.0861 81.6702 67.1108 81.8078 67.1108 81.9401C67.1108 82.3071 66.8973 82.6565 66.5426 82.8188L66.3538 82.9C65.8651 83.1135 65.2987 82.8894 65.0835 82.4024C65.0341 82.2789 65.0023 82.1483 65.0023 82.0213C65.0023 81.6455 65.2211 81.2944 65.5828 81.1356ZM60.1255 26.4515C60.2472 25.9346 60.7713 25.6187 61.29 25.7405L61.4841 25.7917C61.9199 25.8993 62.2145 26.2892 62.2145 26.7268C62.2145 26.7974 62.2093 26.8785 62.1881 26.9544C62.061 27.4731 61.5388 27.789 61.02 27.6602L60.8365 27.6143C60.3937 27.5084 60.099 27.1185 60.099 26.6809C60.099 26.6033 60.1043 26.5274 60.1255 26.4515ZM59.1515 82.9247L59.335 82.8841C59.8538 82.7747 60.3655 83.0993 60.4837 83.6216C60.4978 83.6869 60.5031 83.7575 60.5031 83.8298C60.5031 84.2727 60.1978 84.6679 59.7461 84.7649L59.5432 84.8108C59.0245 84.9167 58.5111 84.5814 58.4052 84.0645C58.3911 83.9974 58.3858 83.9304 58.3858 83.8651C58.3858 83.4169 58.6999 83.0164 59.1515 82.9247ZM54.1001 25.8481C54.1159 25.3153 54.5623 24.8971 55.097 24.913L55.2893 24.9218C55.808 24.9377 56.2191 25.37 56.2191 25.9187C56.1979 26.4515 55.7515 26.8626 55.2187 26.8485L55.0299 26.8432C54.5059 26.8221 54.1001 26.3863 54.1001 25.8481ZM51.7022 84.3432C51.7375 83.8104 52.1998 83.4081 52.7274 83.4505L52.9214 83.4593C53.4278 83.4946 53.8195 83.9163 53.8195 84.4191L53.816 84.4844C53.7789 85.019 53.3237 85.4213 52.7944 85.386L52.5915 85.3684C52.0816 85.3331 51.6969 84.9167 51.7022 84.3432ZM48.8527 25.37L49.0503 25.3347C49.5744 25.2429 50.0719 25.5976 50.1637 26.1216C50.169 26.1781 50.1725 26.2292 50.1725 26.2839C50.1725 26.7462 49.8426 27.152 49.3715 27.2349L49.188 27.2649C48.6639 27.3567 48.1611 27.0056 48.0693 26.4815C48.0605 26.4321 48.0552 26.3757 48.0552 26.3192C48.0552 25.8569 48.3852 25.4511 48.8527 25.37ZM45.1334 83.0835C45.2763 82.5753 45.8091 82.2754 46.3226 82.4218L46.5043 82.473C46.9331 82.5912 47.2118 82.9811 47.2118 83.3975C47.2118 83.4857 47.203 83.5757 47.1766 83.6622C47.0336 84.1756 46.5008 84.4756 45.9873 84.3274L45.7933 84.2727C45.3716 84.1544 45.0928 83.768 45.0928 83.3464C45.0928 83.2617 45.1069 83.1752 45.1334 83.0835ZM42.8379 27.0973L43.0267 27.0214C43.5172 26.8274 44.0765 27.0656 44.2741 27.5649C44.32 27.676 44.3412 27.7995 44.3412 27.9142C44.3412 28.3006 44.1118 28.6606 43.736 28.8141L43.5595 28.8847C43.0655 29.084 42.5027 28.8441 42.3033 28.3518C42.2574 28.2353 42.2327 28.1136 42.2327 27.9919C42.2327 27.6108 42.4603 27.2491 42.8379 27.0973ZM39.5914 80.6239C39.8437 80.1563 40.4242 79.9799 40.8971 80.2269L41.0647 80.3151C41.3893 80.4863 41.5763 80.8215 41.5763 81.1673C41.5763 81.3191 41.5463 81.4726 41.4705 81.6137C41.2217 82.0883 40.643 82.2701 40.1701 82.0213L39.9919 81.9295C39.6673 81.7584 39.4785 81.4232 39.4785 81.0773C39.4785 80.9238 39.5138 80.7721 39.5914 80.6239ZM37.31 30.0297L37.4776 29.9221C37.9205 29.6275 38.5186 29.7439 38.8133 30.1903C38.9192 30.3526 38.9703 30.5361 38.9703 30.7196C38.9703 31.0354 38.8239 31.3389 38.5451 31.5224L38.381 31.6336C37.9399 31.9282 37.34 31.8118 37.0454 31.3707C36.9342 31.2013 36.883 31.0196 36.883 30.8308C36.883 30.5203 37.0312 30.2168 37.31 30.0297ZM34.6775 77.0827C35.0198 76.6716 35.6233 76.6187 36.0344 76.961L36.1773 77.0774C36.4102 77.2715 36.5337 77.545 36.5337 77.8256C36.5337 78.039 36.4614 78.2561 36.3131 78.4343C35.9744 78.8471 35.3639 78.9071 34.9581 78.5666L34.7993 78.4396C34.5717 78.2472 34.4552 77.972 34.4552 77.6967C34.4552 77.4797 34.5258 77.2609 34.6775 77.0827ZM32.5091 34.0332L32.6467 33.8955C33.0172 33.5127 33.626 33.5091 34.0071 33.885C34.1959 34.072 34.2911 34.3208 34.2911 34.5695C34.2911 34.8148 34.2011 35.0583 34.0194 35.2453L33.88 35.3882C33.5042 35.764 32.8955 35.7693 32.5144 35.3935C32.3256 35.2065 32.2285 34.9577 32.2285 34.7072C32.2285 34.4637 32.3203 34.2202 32.5091 34.0332ZM30.5877 72.6065C31.0041 72.2765 31.6145 72.3489 31.9445 72.7635L32.0609 72.9117C32.2038 73.0899 32.2762 73.3034 32.2762 73.5169C32.2762 73.7957 32.1492 74.0762 31.9145 74.2632C31.4963 74.6002 30.8947 74.5332 30.5577 74.1203L30.4306 73.958C30.293 73.7815 30.2224 73.5733 30.2224 73.3652C30.2224 73.0793 30.3495 72.7952 30.5877 72.6065ZM28.6168 38.9382L28.7297 38.7723C29.0138 38.3242 29.6137 38.1936 30.0601 38.483C30.3459 38.6647 30.5012 38.9752 30.5012 39.2964C30.5012 39.4746 30.4518 39.651 30.3495 39.8133L30.2436 39.9757C29.9578 40.4221 29.3632 40.5544 28.9168 40.2703C28.6274 40.0868 28.4704 39.7728 28.4704 39.4587C28.4704 39.2805 28.5162 39.1023 28.6168 38.9382ZM27.5035 67.3891C27.9816 67.1509 28.5604 67.3433 28.795 67.8214L28.8815 67.9873C28.9538 68.1319 28.9891 68.2784 28.9891 68.4248C28.9891 68.7777 28.795 69.1165 28.4598 69.2859C27.9816 69.5241 27.4047 69.3353 27.163 68.8589L27.073 68.6789C27.0059 68.543 26.9706 68.3966 26.9706 68.2537C26.9706 67.8973 27.17 67.5585 27.5035 67.3891ZM25.8238 44.5366L25.8943 44.3496C26.0831 43.852 26.6407 43.6033 27.1383 43.7903C27.5194 43.9385 27.7593 44.3037 27.7593 44.6954C27.7593 44.8066 27.7381 44.9248 27.6976 45.036L27.627 45.2142C27.4435 45.71 26.8859 45.9658 26.3866 45.777C26.0002 45.6359 25.762 45.2636 25.762 44.8789C25.762 44.7607 25.7832 44.6496 25.8238 44.5366ZM25.5644 61.6495C26.0761 61.5119 26.6054 61.8225 26.7377 62.3341L26.7889 62.5176C26.8136 62.6041 26.8224 62.6852 26.8224 62.7717C26.8224 63.1934 26.5384 63.5833 26.1078 63.6962C25.5944 63.8374 25.0651 63.5339 24.9292 63.0152L24.8763 62.8229C24.8586 62.7399 24.8428 62.6588 24.8428 62.5776C24.8481 62.1524 25.1321 61.7607 25.5644 61.6495ZM24.2482 50.5938L24.2799 50.3909C24.3593 49.8669 24.8586 49.5069 25.3809 49.5934C25.8538 49.6693 26.1943 50.0751 26.1943 50.5426C26.1943 50.5938 26.189 50.645 26.1784 50.6962L26.1537 50.8796C26.0726 51.4054 25.5838 51.7671 25.0563 51.6913C24.5781 51.6207 24.234 51.2096 24.234 50.7403L24.2482 50.5938ZM24.8516 55.6276C25.3862 55.6029 25.8379 56.014 25.8626 56.5469L25.8732 56.7869C25.8732 57.295 25.4762 57.722 24.9645 57.7485C24.4317 57.7767 23.9782 57.3709 23.9482 56.8433L23.9376 56.6051C23.9376 56.0917 24.3346 55.6541 24.8516 55.6276ZM85.6246 35.5506C86.0816 35.2771 86.6762 35.4235 86.9514 35.8805L87.052 36.0534C87.1438 36.2051 87.1896 36.378 87.1896 36.5404C87.1896 36.8703 87.0167 37.1897 86.7115 37.3749C86.2545 37.6431 85.6652 37.4914 85.3952 37.0326L85.3 36.8703C85.2029 36.7186 85.1606 36.5457 85.1606 36.3781C85.1606 36.0534 85.3247 35.7323 85.6246 35.5506ZM85.577 72.857L85.6828 72.7C85.9828 72.2589 86.5827 72.146 87.0238 72.4459C87.299 72.6276 87.4455 72.9329 87.4455 73.2434C87.4455 73.4304 87.389 73.6192 87.2779 73.7815L87.1667 73.9421C86.8668 74.385 86.2669 74.4979 85.8293 74.1979C85.5558 74.0092 85.4094 73.7039 85.4094 73.3987C85.4094 73.2116 85.4641 73.0246 85.577 72.857ZM81.9723 30.3173C82.3781 29.9733 82.9886 30.0192 83.3291 30.425L83.4615 30.5785C83.6132 30.7602 83.6873 30.979 83.6873 31.1978C83.6873 31.4713 83.5726 31.7447 83.3432 31.9335C82.9374 32.2794 82.327 32.2229 81.9864 31.8171L81.8647 31.6742C81.7076 31.4924 81.6353 31.2666 81.6353 31.0496C81.6353 30.7761 81.7465 30.5061 81.9723 30.3173ZM81.7712 78.9248L81.9035 78.7871C82.2634 78.3955 82.8739 78.376 83.2638 78.7413C83.4668 78.9301 83.5691 79.1877 83.5691 79.447C83.5691 79.6817 83.4826 79.9199 83.3097 80.1034L83.1686 80.2498C82.8033 80.6362 82.1929 80.6521 81.8065 80.2869C81.6088 80.0928 81.5065 79.8387 81.5065 79.5847C81.5065 79.3465 81.593 79.1065 81.7712 78.9248ZM77.5984 26.1516C77.9424 25.7511 78.5511 25.6999 78.9534 26.0457L79.1069 26.1781C79.3292 26.3651 79.4404 26.6333 79.4404 26.9032C79.4404 27.1273 79.3663 27.3514 79.2075 27.5331C78.8564 27.9354 78.253 27.9813 77.8454 27.6355L77.7042 27.5137C77.4801 27.3214 77.369 27.0514 77.369 26.7762C77.369 26.5592 77.4449 26.3351 77.5984 26.1516ZM76.1092 84.1245L76.2609 84.008C76.6826 83.6834 77.2878 83.7645 77.6125 84.1844C77.7448 84.3574 77.8101 84.5656 77.8101 84.7702C77.8101 85.0596 77.6831 85.3489 77.4343 85.5377L77.2772 85.6542C76.8555 85.9788 76.2521 85.8977 75.9257 85.476C75.7934 85.3031 75.7281 85.0949 75.7281 84.892C75.7281 84.6026 75.8604 84.3115 76.1092 84.1245ZM72.6139 22.7481C72.8874 22.2911 73.482 22.1482 73.9355 22.4287L74.1013 22.5293C74.4013 22.7075 74.5654 23.0286 74.5654 23.3533C74.5654 23.5209 74.5195 23.6938 74.4224 23.8508C74.1472 24.3078 73.5544 24.4507 73.0956 24.1702L72.935 24.0696C72.6333 23.8914 72.471 23.572 72.471 23.2456C72.471 23.0798 72.5169 22.9069 72.6139 22.7481ZM71.1548 87.288L71.3189 87.198C71.7899 86.9493 72.3757 87.1222 72.6245 87.5933C72.7039 87.7379 72.7392 87.895 72.7392 88.0467C72.7392 88.3925 72.5575 88.7225 72.2328 88.9007L72.0546 88.9907C71.5817 89.2412 71.003 89.063 70.7542 88.5901C70.6766 88.4472 70.6413 88.2955 70.6413 88.1438C70.6413 87.7979 70.8248 87.4627 71.1548 87.288ZM67.1425 20.1968C67.3401 19.7045 67.8994 19.4663 68.3917 19.6657L68.5787 19.7415C68.9546 19.895 69.1786 20.2479 69.1786 20.6308C69.1786 20.7508 69.1539 20.8725 69.1081 20.996C68.9052 21.4883 68.3458 21.7212 67.8536 21.5236L67.6754 21.453C67.2995 21.2995 67.0719 20.9396 67.0719 20.5584C67.0719 20.4367 67.0949 20.315 67.1425 20.1968ZM65.7451 89.6117L65.9321 89.55C66.4368 89.3771 66.9784 89.647 67.1513 90.1552C67.1866 90.2575 67.2025 90.3581 67.2025 90.4604C67.2025 90.8609 66.9484 91.2367 66.5462 91.3744L66.3591 91.4397C65.8563 91.609 65.3128 91.3373 65.1399 90.8309C65.1046 90.7286 65.0888 90.6263 65.0888 90.5257C65.0888 90.1252 65.3428 89.7494 65.7451 89.6117ZM61.3253 18.5664C61.4417 18.0495 61.9605 17.7195 62.4792 17.836L62.6698 17.8801C63.1179 17.9789 63.4179 18.3794 63.4179 18.8205C63.4179 18.8876 63.4126 18.9581 63.3985 19.0305C63.2802 19.5474 62.7633 19.8774 62.2445 19.7609L62.0575 19.7151C61.6094 19.6127 61.3041 19.2175 61.3041 18.7764C61.3041 18.7041 61.3094 18.637 61.3253 18.5664ZM60.039 91.0233L60.2261 90.9933C60.7554 90.9086 61.2335 91.2632 61.3253 91.7855C61.3306 91.8402 61.3359 91.8878 61.3359 91.939C61.3359 92.4065 60.9901 92.8176 60.5172 92.8988L60.3443 92.9235C59.8203 93.01 59.328 92.6483 59.2415 92.126C59.2309 92.0766 59.2309 92.0237 59.2309 91.9743C59.2309 91.5049 59.5679 91.0991 60.039 91.0233ZM55.3246 17.8977C55.3598 17.3631 55.8186 16.9608 56.3444 16.9926L56.5402 17.0032C57.0519 17.0385 57.4436 17.4602 57.4436 18.023C57.4136 18.5576 56.9566 18.9581 56.422 18.9281L56.2297 18.9176C55.7163 18.8823 55.3246 18.45 55.3246 17.8977ZM54.1759 91.4926H54.3647C54.8993 91.4926 55.3299 91.9178 55.3351 92.4524C55.3351 92.98 54.9082 93.4158 54.3753 93.4211H54.1759C53.6431 93.4211 53.2108 92.9888 53.2108 92.4559C53.2108 91.9231 53.6431 91.4926 54.1759 91.4926ZM50.1531 17.139L50.3507 17.1196C50.88 17.0685 51.3511 17.4549 51.4023 17.9877L51.4076 18.0795C51.4076 18.5717 51.0371 18.9881 50.5395 19.0393L50.3507 19.0605C49.8232 19.1116 49.3503 18.7235 49.2938 18.1959L49.2885 18.1042C49.2885 17.6225 49.6555 17.1955 50.1531 17.139ZM47.9741 92.0554C48.0411 91.5261 48.5228 91.1556 49.0521 91.2156L49.2462 91.242C49.7314 91.3038 50.0878 91.7202 50.0878 92.1983L50.0843 92.3183C50.0172 92.8406 49.5391 93.2182 49.0115 93.1529L48.8122 93.1317C48.3252 93.0717 47.9688 92.6536 47.9688 92.1772L47.9741 92.0554ZM44.0659 18.2824L44.2547 18.2312C44.7664 18.0953 45.2975 18.4006 45.4386 18.9123C45.458 18.9934 45.4686 19.0799 45.4686 19.161C45.4686 19.5898 45.1898 19.9744 44.7576 20.0909L44.5705 20.1421C44.0571 20.2797 43.5278 19.978 43.3919 19.4663C43.3654 19.3798 43.3566 19.2934 43.3566 19.2122C43.3566 18.7905 43.6389 18.4006 44.0659 18.2824ZM42.4162 90.6827C42.5697 90.171 43.1026 89.8799 43.6089 90.0281L43.7924 90.0793C44.2141 90.201 44.4947 90.5857 44.4947 91.0091C44.4947 91.0956 44.4788 91.1803 44.4541 91.272C44.3112 91.7855 43.7783 92.0801 43.2631 91.9337L43.0726 91.8772C42.6509 91.7555 42.3809 91.3691 42.3809 90.9509C42.3809 90.8609 42.3915 90.7745 42.4162 90.6827ZM38.2399 20.4014L38.4234 20.3203C38.9103 20.1015 39.4785 20.315 39.6973 20.7984C39.7537 20.929 39.7837 21.0631 39.7837 21.1936C39.7837 21.5589 39.5702 21.91 39.2156 22.0723L39.048 22.1482C38.5592 22.3723 37.9911 22.1641 37.767 21.6824C37.7052 21.55 37.6753 21.4124 37.6753 21.2748C37.6753 20.9149 37.8835 20.5637 38.2399 20.4014ZM37.1565 88.3678C37.3912 87.8897 37.9646 87.6868 38.4481 87.9197L38.6157 88.0008C38.965 88.1685 39.1644 88.509 39.1644 88.8689C39.1644 89.0118 39.1344 89.153 39.0727 89.2853C38.8433 89.7652 38.2699 89.9681 37.7864 89.737L37.61 89.6523C37.2641 89.49 37.0595 89.1442 37.0595 88.7825C37.0595 88.6466 37.0965 88.5037 37.1565 88.3678ZM32.839 23.4344L33.0014 23.3215C33.4442 23.0286 34.0424 23.1503 34.3388 23.5879C34.4499 23.7555 34.5011 23.9426 34.5011 24.1243C34.5011 24.4348 34.3529 24.7401 34.0741 24.9289L33.91 25.0347C33.4689 25.3294 32.869 25.2129 32.5761 24.7701C32.4632 24.6025 32.412 24.419 32.412 24.2355C32.412 23.9214 32.5655 23.6162 32.839 23.4344ZM32.0309 85.1866C32.3362 84.7491 32.9361 84.6432 33.3719 84.9467L33.5236 85.0543C33.7989 85.2431 33.9418 85.543 33.9418 85.8518C33.9418 86.0388 33.8853 86.2294 33.7742 86.3952C33.4689 86.8328 32.869 86.944 32.4332 86.6387L32.2709 86.5276C32.0009 86.3405 31.858 86.0388 31.858 85.7354C31.858 85.5466 31.9145 85.356 32.0309 85.1866ZM27.9975 27.2949L28.1457 27.1644C28.5321 26.7974 29.1408 26.8221 29.5061 27.2085C29.679 27.3955 29.7619 27.6319 29.7619 27.8648C29.7619 28.1242 29.6578 28.3818 29.4549 28.5706L29.3138 28.7029C28.9274 29.0681 28.3186 29.0487 27.9516 28.657C27.7787 28.4735 27.6923 28.2353 27.6923 28.0007C27.6923 27.7413 27.7928 27.489 27.9975 27.2949ZM27.4841 81.2132C27.8546 80.8339 28.4651 80.8268 28.8444 81.1991L28.9785 81.3296C29.1761 81.5184 29.2714 81.7707 29.2714 82.0213C29.2714 82.2648 29.1867 82.503 29.0032 82.6918C28.6327 83.0729 28.024 83.087 27.6411 82.7165L27.5 82.5753C27.3076 82.3865 27.2053 82.1377 27.2053 81.889C27.2053 81.6455 27.297 81.402 27.4841 81.2132ZM23.8406 31.8877L23.9641 31.7253C24.2887 31.3089 24.8922 31.2331 25.3156 31.5577C25.5591 31.7518 25.6844 32.0359 25.6844 32.3199C25.6844 32.5281 25.6191 32.7363 25.4815 32.9128L25.365 33.061C25.0457 33.4844 24.4422 33.5603 24.0135 33.2392C23.7718 33.0469 23.6377 32.761 23.6377 32.4717C23.6377 32.2688 23.7047 32.0606 23.8406 31.8877ZM23.6236 76.5658C24.0506 76.2499 24.654 76.3417 24.9751 76.7687L25.0863 76.9204C25.2133 77.0933 25.2803 77.2962 25.2803 77.4956C25.2803 77.7903 25.1427 78.0796 24.8886 78.2719C24.4617 78.586 23.8618 78.5013 23.5424 78.0743L23.426 77.9173C23.2972 77.7426 23.2319 77.5397 23.2319 77.3439C23.2319 77.0492 23.3677 76.7581 23.6236 76.5658ZM20.4776 37.0803L20.5694 36.9074C20.8252 36.4398 21.4092 36.2669 21.875 36.521C22.1962 36.6939 22.3779 37.0291 22.3779 37.3696C22.3779 37.5267 22.3426 37.6837 22.2614 37.8266L22.1697 37.9978C21.9174 38.4671 21.3316 38.64 20.8658 38.3859C20.5447 38.213 20.3612 37.8831 20.3612 37.539C20.3612 37.3838 20.3965 37.2285 20.4776 37.0803ZM20.5694 71.3573C21.0422 71.1138 21.621 71.3026 21.8645 71.7737L21.9509 71.943C22.0285 72.086 22.0585 72.2377 22.0585 72.3877C22.0585 72.7335 21.875 73.0687 21.5451 73.2363C21.074 73.4869 20.4935 73.3034 20.2447 72.8305L20.153 72.6523C20.0771 72.5112 20.0418 72.363 20.0418 72.2095C20.0418 71.8654 20.2342 71.5266 20.5694 71.3573ZM17.9951 42.7564L18.0604 42.5623C18.2386 42.0594 18.7873 41.7948 19.2884 41.973C19.6872 42.1141 19.9342 42.4864 19.9342 42.8816C19.9342 42.9893 19.9148 43.0951 19.8795 43.2027L19.8178 43.3792C19.6448 43.8838 19.0961 44.152 18.5933 43.9791C18.191 43.8415 17.944 43.4656 17.944 43.0651C17.944 42.9628 17.9598 42.8569 17.9951 42.7564ZM18.3956 65.7182C18.9038 65.5559 19.4472 65.8347 19.6096 66.3375L19.6643 66.521C19.696 66.6216 19.7172 66.724 19.7172 66.821C19.7172 67.2286 19.4578 67.6026 19.0502 67.7349C18.5421 67.9026 18.0004 67.6238 17.8363 67.1209L17.7763 66.9269C17.7393 66.8316 17.7234 66.7292 17.7234 66.6322C17.7234 66.2264 17.9898 65.8506 18.3956 65.7182ZM16.4707 48.7535L16.506 48.5559C16.5977 48.0337 17.0953 47.6826 17.6175 47.7743C18.0851 47.8555 18.4168 48.2666 18.4168 48.7236C18.4168 48.78 18.4098 48.8347 18.4009 48.8929L18.3692 49.08C18.2792 49.604 17.7799 49.9551 17.2576 49.8669C16.79 49.7857 16.4548 49.3834 16.4548 48.9229C16.4548 48.8665 16.4583 48.8118 16.4707 48.7535ZM17.1711 59.804C17.6934 59.7299 18.1874 60.0898 18.2633 60.6174L18.2951 60.8097L18.3039 60.9526C18.3039 61.4202 17.9598 61.833 17.487 61.9036C16.9577 61.983 16.4654 61.6195 16.3895 61.0938L16.3578 60.9014L16.3472 60.755C16.3472 60.2874 16.693 59.8763 17.1711 59.804ZM15.9308 54.9219L15.9361 54.7243C15.9414 54.195 16.3789 53.768 16.9065 53.775C17.434 53.7803 17.861 54.2055 17.861 54.7437V54.9378C17.8575 55.4706 17.4199 55.8976 16.8871 55.8923C16.3736 55.887 15.9308 55.4918 15.9308 54.9219ZM94.9407 35.8099C95.4294 35.5876 95.9993 35.7993 96.2163 36.2863L96.2975 36.4645C96.3592 36.5915 96.3839 36.7292 96.3839 36.8597C96.3839 37.2267 96.1757 37.5778 95.8211 37.7402C95.3394 37.959 94.7642 37.7455 94.5454 37.262L94.4643 37.0838C94.4078 36.9515 94.3778 36.8209 94.3778 36.6833C94.3778 36.3163 94.586 35.9722 94.9407 35.8099ZM93.2239 77.8361L93.3209 77.6756C93.575 77.2062 94.159 77.0351 94.6266 77.2945C94.946 77.4674 95.1224 77.7973 95.1224 78.1378C95.1224 78.2966 95.0871 78.4519 95.0077 78.5984L94.9107 78.773C94.6513 79.2406 94.0673 79.4082 93.605 79.1488C93.2839 78.9759 93.1074 78.646 93.1074 78.3055C93.1074 78.1467 93.1427 77.9896 93.2239 77.8361ZM91.9659 30.2574C92.4176 29.9733 93.0104 30.1091 93.2909 30.5573L93.3968 30.7232C93.4991 30.8872 93.545 31.0584 93.545 31.2384C93.545 31.5577 93.3827 31.8735 93.0933 32.0553C92.6399 32.3358 92.0453 32.1982 91.7665 31.7518L91.6642 31.5877C91.5636 31.4254 91.5124 31.2472 91.5124 31.076C91.5124 30.7549 91.6748 30.4409 91.9659 30.2574ZM89.6033 82.0372L89.718 81.8837C90.0339 81.4567 90.639 81.3649 91.066 81.6808C91.3201 81.8678 91.456 82.1624 91.456 82.4571C91.456 82.6547 91.396 82.8541 91.2689 83.0252L91.1525 83.184C90.8314 83.6092 90.2332 83.7028 89.8045 83.3816C89.5469 83.1946 89.4146 82.9053 89.4146 82.6088C89.4146 82.413 89.4745 82.2083 89.6033 82.0372ZM88.3224 25.467C88.7282 25.1247 89.3387 25.1812 89.6792 25.594L89.8045 25.744C89.9527 25.924 90.0233 26.1428 90.0233 26.3545C90.0233 26.6333 89.9068 26.9103 89.6792 27.0973C89.2681 27.4361 88.6576 27.3814 88.3224 26.9703L88.2006 26.8221C88.0471 26.6456 87.9766 26.4251 87.9766 26.2081C87.9766 25.9346 88.0948 25.6593 88.3224 25.467ZM85.8893 86.0847L86.0198 85.9488C86.3921 85.566 87.0009 85.5571 87.382 85.9277C87.5796 86.1147 87.6766 86.3688 87.6766 86.6193C87.6766 86.8593 87.5902 87.101 87.4084 87.288L87.2708 87.4327C86.8985 87.812 86.2898 87.8173 85.9087 87.4486C85.7146 87.258 85.6193 87.011 85.6193 86.7605C85.6193 86.517 85.7058 86.2753 85.8893 86.0847ZM84.079 21.2042C84.4354 20.8072 85.0459 20.7825 85.4411 21.1442L85.5893 21.2801C85.7922 21.4671 85.8928 21.7282 85.8928 21.9876C85.8928 22.2205 85.8081 22.4534 85.6352 22.6422C85.2735 23.0321 84.663 23.0533 84.2766 22.6916L84.1355 22.5663C83.9326 22.3723 83.8267 22.1129 83.8267 21.8553C83.8267 21.6224 83.9079 21.386 84.079 21.2042ZM81.51 90.0228L81.6618 89.9011C82.0764 89.5712 82.6834 89.6417 83.0133 90.0634C83.1545 90.2363 83.2215 90.4481 83.2215 90.6563C83.2215 90.9421 83.0945 91.2262 82.8563 91.415L82.7028 91.5385C82.2828 91.8666 81.6759 91.7908 81.3459 91.3744C81.2101 91.1962 81.143 90.988 81.143 90.778C81.143 90.4957 81.2701 90.2116 81.51 90.0228ZM79.3134 17.5307C79.6204 17.1002 80.2203 16.9926 80.6561 17.2961L80.8149 17.409C81.0831 17.596 81.226 17.8977 81.226 18.1959C81.226 18.3882 81.1695 18.5823 81.0478 18.7499C80.7425 19.1875 80.1426 19.2898 79.7068 18.9846L79.548 18.877C79.2834 18.6882 79.1351 18.3882 79.1351 18.0848C79.1351 17.8977 79.1987 17.7037 79.3134 17.5307ZM76.6474 93.3452L76.815 93.2499C77.2719 92.9747 77.8613 93.1282 78.1312 93.5852C78.2265 93.7369 78.2671 93.9028 78.2671 94.0721C78.2671 94.4021 78.0995 94.7232 77.8013 94.9049L77.6284 95.0073C77.1714 95.2755 76.5768 95.1237 76.3068 94.6614C76.2168 94.5097 76.1745 94.3403 76.1745 94.1727C76.1745 93.8428 76.3439 93.5234 76.6474 93.3452ZM74.1013 14.5348C74.3466 14.0602 74.9253 13.8731 75.3982 14.1184L75.5799 14.2084C75.9063 14.3813 76.0933 14.7148 76.0933 15.0606C76.0933 15.2141 76.0563 15.3676 75.9857 15.5087C75.7387 15.9816 75.1529 16.1598 74.6871 15.9146L74.5195 15.8299C74.1895 15.6622 73.9955 15.3217 73.9955 14.9706C73.9955 14.8224 74.029 14.6759 74.1013 14.5348ZM71.3894 95.9918L71.5659 95.9159C72.0599 95.7077 72.6245 95.9424 72.8309 96.4294C72.8821 96.5511 72.9086 96.6782 72.9086 96.8052C72.9086 97.181 72.6845 97.5357 72.3193 97.6944L72.1358 97.765C71.6488 97.9732 71.0842 97.7456 70.876 97.2586C70.8248 97.1298 70.8001 97.0028 70.8001 96.8811C70.8001 96.5052 71.0189 96.1506 71.3894 95.9918ZM68.5399 12.2428C68.7164 11.7435 69.2704 11.4806 69.7679 11.6641L69.962 11.7294C70.3484 11.8705 70.5919 12.2428 70.5919 12.6328C70.5919 12.7439 70.5707 12.8569 70.5302 12.9645C70.352 13.4673 69.7979 13.7196 69.2969 13.5361L69.1186 13.4762C68.727 13.335 68.4835 12.9645 68.4835 12.5675C68.4835 12.4616 68.4993 12.3487 68.5399 12.2428ZM65.821 97.9132L66.0045 97.8674C66.5179 97.7244 67.0296 98.0297 67.1725 98.5431C67.1937 98.6243 67.2025 98.7054 67.2025 98.7901C67.2025 99.2189 66.9079 99.6141 66.4773 99.7323L66.3309 99.7711C65.8104 99.9141 65.2828 99.6106 65.1452 99.0971C65.1205 99.0089 65.1099 98.9295 65.1099 98.8431C65.1099 98.4214 65.394 98.0297 65.821 97.9132ZM62.7368 10.7237C62.8497 10.205 63.3773 9.87501 63.896 9.98617L64.0583 10.0215C64.5047 10.122 64.8153 10.5208 64.8153 10.9619C64.8153 11.0325 64.8047 11.0995 64.7888 11.1701C64.6794 11.6888 64.166 12.0188 63.6472 11.9076L63.4584 11.867C63.0068 11.7647 62.7121 11.373 62.7121 10.9319C62.7121 10.8666 62.7209 10.7943 62.7368 10.7237ZM60.0496 99.076L60.2437 99.0513C60.7713 98.9789 61.2529 99.3495 61.3253 99.8788L61.3359 100.006C61.3359 100.484 60.9848 100.895 60.496 100.96L60.309 100.987C59.7797 101.057 59.2927 100.687 59.2221 100.158L59.2151 100.031C59.2151 99.5594 59.5679 99.143 60.0496 99.076ZM56.7467 9.98617C56.7925 9.45332 57.2566 9.05986 57.7894 9.10221L57.9817 9.11809C58.4846 9.15867 58.8657 9.58036 58.8657 10.0779L58.8604 10.1591C58.8198 10.6884 58.3523 11.0836 57.823 11.0378L57.6306 11.0219C57.1278 10.9813 56.7467 10.5596 56.7467 10.062V9.98617ZM51.6458 9.03163L51.8399 9.02105C52.3674 8.99635 52.8191 9.40215 52.8509 9.98617C52.8509 10.4943 52.4504 10.9213 51.9351 10.946L51.7446 10.9584C51.21 10.9813 50.7583 10.5755 50.7336 10.0073C50.7336 9.49037 51.1235 9.05633 51.6458 9.03163ZM46.0173 99.66C46.1038 99.1377 46.6014 98.7813 47.1254 98.8678L47.3124 98.8978C47.7853 98.9754 48.1099 99.3812 48.1099 99.8435C48.1099 99.8947 48.1064 99.9494 48.094 100.001C48.0146 100.53 47.5047 100.884 46.9825 100.798L46.8113 100.768C46.3367 100.69 46.0015 100.285 46.0015 99.8223C46.0015 99.7676 46.0085 99.7164 46.0173 99.66ZM45.5445 9.76738L45.7439 9.7321C46.2661 9.63506 46.7654 9.98087 46.8607 10.5049C46.8713 10.5667 46.8766 10.6214 46.8766 10.6813C46.8766 11.1348 46.5502 11.5406 46.0879 11.6271L45.9009 11.6641C45.3769 11.7594 44.874 11.4136 44.7787 10.8895C44.7629 10.8296 44.7576 10.7731 44.7576 10.7131C44.7576 10.2561 45.0822 9.85384 45.5445 9.76738ZM39.9778 98.162C40.1348 97.6539 40.673 97.3698 41.1811 97.5268L41.3593 97.5762C41.7757 97.705 42.0492 98.0897 42.0492 98.5008C42.0492 98.5943 42.0351 98.6843 42.0051 98.7813C41.8569 99.2895 41.3187 99.5806 40.8106 99.4271L40.6165 99.3671C40.2001 99.2383 39.9372 98.8572 39.9372 98.4461C39.9372 98.3543 39.946 98.2591 39.9778 98.162ZM39.5967 11.313L39.7837 11.2477C40.2919 11.0836 40.8353 11.3571 40.9976 11.8617C41.0329 11.9623 41.0488 12.0646 41.0488 12.167C41.0488 12.5675 40.7894 12.9486 40.3836 13.0809L40.2054 13.1409C39.6973 13.3103 39.1538 13.0351 38.9862 12.5322C38.9509 12.4299 38.935 12.3293 38.935 12.227C38.935 11.8194 39.1891 11.4436 39.5967 11.313ZM34.4041 95.9018C34.6281 95.4184 35.1963 95.2049 35.6832 95.4272L35.8562 95.5084C36.2073 95.6724 36.4208 96.0183 36.4208 96.3835C36.4208 96.5211 36.3908 96.6517 36.329 96.7858C36.1102 97.2675 35.5368 97.481 35.0551 97.2586L34.8751 97.1757C34.5258 97.0134 34.3176 96.6676 34.3176 96.3023C34.3176 96.17 34.3423 96.0324 34.4041 95.9018ZM33.9665 13.6032L34.0829 13.5467C34.5611 13.3138 35.1398 13.5185 35.3692 13.9949C35.4345 14.1325 35.4645 14.2737 35.4645 14.4166C35.4645 14.7712 35.2668 15.1188 34.921 15.2811L34.7499 15.3676C34.2717 15.6005 33.723 15.387 33.4901 14.9106C33.4283 14.7783 33.3983 14.6407 33.3983 14.5083C33.3983 14.136 33.6171 13.7761 33.9665 13.6032ZM29.1867 92.9129C29.4708 92.4665 30.0654 92.3342 30.5118 92.62L30.6706 92.7153C30.9635 92.8988 31.1276 93.2129 31.1276 93.534C31.1276 93.7104 31.0764 93.8833 30.9794 94.0457C30.6953 94.4938 30.106 94.635 29.6525 94.3509L29.4796 94.245C29.1903 94.0616 29.0332 93.751 29.0332 93.4317C29.0332 93.2552 29.0844 93.077 29.1867 92.9129ZM28.578 16.6979L28.7386 16.5868C29.1867 16.2904 29.7813 16.4139 30.0742 16.8603C30.1871 17.0244 30.2383 17.2061 30.2383 17.3878C30.2383 17.7037 30.0866 18.0071 29.806 18.1959L29.6437 18.2983C29.2026 18.5911 28.608 18.4747 28.308 18.0336C28.2004 17.866 28.1493 17.6842 28.1493 17.5007C28.1493 17.1849 28.2975 16.8797 28.578 16.6979ZM24.4052 89.2659C24.7457 88.8583 25.3544 88.8036 25.762 89.1442L25.9032 89.2659C26.1378 89.4529 26.2543 89.7335 26.2543 90.007C26.2543 90.2257 26.1837 90.4445 26.0355 90.621C25.6967 91.0338 25.0863 91.0903 24.6804 90.748L24.5216 90.621C24.294 90.4304 24.1776 90.1605 24.1776 89.8852C24.1776 89.6664 24.2535 89.4424 24.4052 89.2659ZM23.6994 20.4367L23.8512 20.3044C24.2535 19.955 24.8586 19.9938 25.2062 20.3961C25.3703 20.5779 25.448 20.8072 25.448 21.0313C25.448 21.2995 25.335 21.5642 25.118 21.7582L24.9751 21.8835C24.5728 22.2364 23.9641 22.194 23.613 21.7918C23.4507 21.61 23.3748 21.386 23.3748 21.1566C23.3748 20.8937 23.4859 20.6255 23.6994 20.4367ZM20.1477 85.019C20.5394 84.6573 21.1499 84.6838 21.5045 85.0737L21.6369 85.2166C21.8045 85.4001 21.8909 85.633 21.8909 85.8677C21.8909 86.127 21.7886 86.3864 21.5822 86.577C21.1905 86.9404 20.58 86.914 20.2183 86.5223L20.0877 86.3741C19.9148 86.1923 19.8336 85.9594 19.8336 85.7248C19.8336 85.4654 19.9395 85.206 20.1477 85.019ZM19.3608 24.7859L19.4931 24.6325C19.8477 24.2355 20.46 24.1966 20.8535 24.546C21.0669 24.7401 21.1799 25.0047 21.1799 25.2729C21.1799 25.497 21.104 25.7264 20.9417 25.9081L20.8182 26.0457C20.4688 26.4515 19.8636 26.4921 19.4578 26.1463C19.239 25.954 19.1279 25.684 19.1279 25.4141C19.1279 25.1918 19.2037 24.9677 19.3608 24.7859ZM16.4866 80.2428C16.9171 79.9375 17.5223 80.0399 17.8257 80.4757L17.9387 80.6398C18.0551 80.8056 18.1116 80.9997 18.1116 81.1867C18.1116 81.4937 17.9687 81.7919 17.6987 81.9807C17.2629 82.286 16.663 82.1801 16.3578 81.7425L16.2448 81.5837C16.1284 81.4161 16.0737 81.2238 16.0737 81.0297C16.0737 80.7262 16.2166 80.4316 16.4866 80.2428ZM15.6379 29.6627L15.7438 29.5004C16.0437 29.0576 16.6383 28.9411 17.0794 29.2358C17.3599 29.4193 17.5117 29.7245 17.5117 30.0386C17.5117 30.2221 17.4605 30.4056 17.3476 30.5661L17.2417 30.7302C16.9471 31.1766 16.3472 31.2931 15.9061 30.9984C15.6273 30.8114 15.4791 30.5061 15.4791 30.1956C15.4791 30.0139 15.5303 29.8251 15.6379 29.6627ZM13.4871 75.0202C13.9599 74.7767 14.5404 74.9637 14.7821 75.4383L14.8757 75.6059C14.9462 75.7471 14.9815 75.8988 14.9815 76.0523C14.9815 76.3964 14.7945 76.7316 14.4646 76.9045C13.9917 77.1498 13.4112 76.9663 13.1624 76.4934L13.0707 76.3205C13.0001 76.1776 12.9648 76.0259 12.9648 75.8794C12.9648 75.5283 13.1571 75.1913 13.4871 75.0202ZM12.589 34.9983L12.6808 34.8148C12.9137 34.3366 13.4924 34.1443 13.9705 34.3772C14.3111 34.5448 14.5034 34.8907 14.5034 35.2418C14.5034 35.3882 14.4734 35.5294 14.4063 35.667L14.3269 35.8364C14.0923 36.3128 13.5135 36.5157 13.0372 36.2828C12.6949 36.1134 12.492 35.7746 12.492 35.4129C12.492 35.2771 12.5272 35.1289 12.589 34.9983ZM11.211 69.4482C11.7156 69.27 12.2643 69.5276 12.4408 70.0322L12.5078 70.2139C12.5484 70.3198 12.5625 70.4327 12.5625 70.5403C12.5625 70.9356 12.319 71.3061 11.9291 71.442C11.4245 71.6255 10.8758 71.3626 10.694 70.865L10.627 70.6762C10.5917 70.5703 10.5723 70.4645 10.5723 70.3568C10.5723 69.9599 10.8158 69.5893 11.211 69.4482ZM10.2812 40.6867L10.3429 40.4997C10.5105 39.9968 11.0593 39.7216 11.5621 39.8892C11.9644 40.0268 12.2185 40.4044 12.2185 40.8049C12.2185 40.9055 12.2026 41.0061 12.1708 41.1084L12.1108 41.2901C11.9432 41.7948 11.3998 42.0682 10.8969 41.9059C10.4911 41.7736 10.2318 41.3978 10.2318 40.992C10.2318 40.8896 10.2459 40.7891 10.2812 40.6867ZM9.70244 63.6204C10.2265 63.5092 10.7329 63.8427 10.8458 64.3667L10.8864 64.5502C10.8969 64.6208 10.9058 64.6878 10.9058 64.7531C10.9058 65.196 10.597 65.5965 10.1435 65.6935C9.62657 65.8047 9.11313 65.4748 9.00198 64.9578L8.9561 64.7566C8.94551 64.6914 8.93669 64.6261 8.93669 64.5608C8.93669 64.1126 9.25076 63.7157 9.70244 63.6204ZM8.75849 46.6063L8.78848 46.4422C8.88905 45.9199 9.39367 45.5741 9.91593 45.6764C10.3782 45.7682 10.6976 46.1705 10.6976 46.6204C10.6976 46.6821 10.694 46.7421 10.6799 46.8039L10.6429 46.9927C10.5458 47.5149 10.043 47.8449 9.52423 47.7443C9.06373 47.6579 8.73731 47.2468 8.73731 46.788C8.73731 46.728 8.7479 46.6663 8.75849 46.6063ZM8.9808 57.6461C9.51012 57.6038 9.97768 58.0008 10.0183 58.5336L10.0324 58.7277V58.8036C10.0324 59.3011 9.64774 59.7228 9.14312 59.7634C8.61557 59.804 8.14801 59.4088 8.10743 58.8741L8.09154 58.6818V58.6007C8.09154 58.1084 8.47795 57.6849 8.9808 57.6461ZM8.02626 52.7376L8.03685 52.5399C8.06684 52.0053 8.52382 51.5995 9.05314 51.6295C9.56482 51.6595 9.96181 52.0865 9.96181 52.6458L9.95122 52.8346C9.92123 53.3692 9.46954 53.775 8.94199 53.7503C8.41796 53.7239 8.02626 53.2757 8.02626 52.7376ZM103.899 35.7041C104.396 35.5258 104.95 35.7852 105.127 36.2881L105.194 36.4733C105.234 36.5792 105.255 36.6903 105.255 36.7962C105.255 37.1932 105.01 37.5584 104.615 37.7013C104.117 37.8831 103.563 37.6184 103.385 37.1226L103.32 36.9391C103.279 36.8333 103.258 36.7203 103.258 36.6127C103.258 36.2157 103.502 35.847 103.899 35.7041ZM99.1823 82.1607L99.2793 82.0019C99.5599 81.5502 100.154 81.4073 100.606 81.6861C100.899 81.8696 101.063 82.1854 101.063 82.51C101.063 82.6812 101.017 82.8558 100.92 83.0129L100.814 83.1858C100.529 83.634 99.9357 83.7698 99.4822 83.491C99.1929 83.3022 99.0341 82.9935 99.0341 82.6724C99.0341 82.4942 99.0817 82.3177 99.1823 82.1607ZM99.4346 26.2575C99.8827 25.9681 100.477 26.0951 100.772 26.5362L100.878 26.7091C100.985 26.8662 101.031 27.0514 101.031 27.2261C101.031 27.5419 100.878 27.8525 100.59 28.0413C100.142 28.3253 99.5475 28.193 99.2581 27.7449L99.1558 27.5931C99.0499 27.4308 98.9988 27.2473 98.9988 27.0638C98.9988 26.7497 99.1558 26.4445 99.4346 26.2575ZM95.1506 87.6038L95.2671 87.4627C95.597 87.0392 96.2022 86.9704 96.6186 87.3004C96.8621 87.4874 96.9891 87.7715 96.9891 88.0555C96.9891 88.2655 96.9221 88.4737 96.7809 88.6519L96.6592 88.8089C96.3292 89.2253 95.7188 89.2906 95.3077 88.9607C95.0695 88.7736 94.9407 88.4878 94.9407 88.209C94.9407 87.9955 95.013 87.7821 95.1506 87.6038ZM94.7536 20.7367C95.1647 20.3961 95.7699 20.4561 96.1122 20.8637L96.2357 21.0207C96.3839 21.1989 96.4563 21.4124 96.4563 21.6241C96.4563 21.9065 96.3328 22.1835 96.0999 22.3723C95.6888 22.7128 95.0783 22.6475 94.743 22.2364L94.6266 22.0935C94.4801 21.91 94.4025 21.6965 94.4025 21.4777C94.4025 21.1989 94.526 20.9237 94.7536 20.7367ZM91.2425 92.0096L91.3748 91.8719C91.7506 91.4961 92.3611 91.4926 92.7369 91.8613C92.9292 92.0501 93.0263 92.2989 93.0263 92.5477C93.0263 92.7965 92.9345 93.0417 92.7457 93.2235L92.6099 93.3646C92.2341 93.7422 91.6253 93.7457 91.2478 93.3717C91.0607 93.1829 90.9637 92.9341 90.9637 92.6836C90.9637 92.4418 91.0554 92.1983 91.2425 92.0096ZM90.6285 16.3927C90.9955 16.0116 91.6095 16.001 91.9906 16.3715L92.1282 16.5109C92.3205 16.6979 92.4176 16.9467 92.4176 17.1955C92.4176 17.439 92.3258 17.6842 92.1423 17.8713C91.7736 18.2524 91.1613 18.2559 90.7802 17.8871L90.6443 17.7548C90.452 17.566 90.3532 17.312 90.3532 17.0632C90.3532 16.8197 90.4467 16.5762 90.6285 16.3927ZM86.8685 95.9424L87.0167 95.8242C87.4331 95.4889 88.0383 95.5542 88.3736 95.9671C88.5147 96.1453 88.5853 96.3588 88.5853 96.5723C88.5853 96.8511 88.4635 97.1298 88.2253 97.3239L88.0718 97.4457C87.6607 97.7809 87.052 97.7139 86.7221 97.2992C86.5792 97.121 86.5086 96.9058 86.5086 96.694C86.5086 96.4153 86.6286 96.1347 86.8685 95.9424ZM86.041 12.5357C86.3657 12.1158 86.9709 12.0399 87.3925 12.3699L87.5461 12.4863C87.7895 12.6786 87.9148 12.9592 87.9148 13.2468C87.9148 13.4567 87.8495 13.6649 87.7119 13.8414C87.382 14.2578 86.7768 14.3301 86.3568 14.0055L86.2086 13.8873C85.9652 13.7002 85.8363 13.4162 85.8363 13.1268C85.8363 12.9168 85.9034 12.7086 86.041 12.5357ZM82.0764 99.3671L82.2405 99.263C82.6887 98.9754 83.2833 99.106 83.5726 99.5524C83.6732 99.7164 83.7191 99.8947 83.7191 100.071C83.7191 100.392 83.5673 100.703 83.278 100.884L83.1103 100.992C82.6622 101.276 82.0676 101.144 81.7835 100.696C81.6829 100.533 81.63 100.357 81.63 100.179C81.63 99.8647 81.7888 99.5488 82.0764 99.3671ZM81.0478 9.22395C81.3265 8.76697 81.9159 8.62406 82.3728 8.8993L82.5404 9.00516C82.8351 9.18866 82.9974 9.50273 82.9974 9.82385C82.9974 9.99676 82.9533 10.1732 82.8563 10.332C82.5757 10.7837 81.9811 10.9213 81.5294 10.6408L81.3724 10.5455C81.0725 10.362 80.9101 10.0479 80.9101 9.72151C80.9101 9.55036 80.9507 9.37745 81.0478 9.22395ZM76.9367 102.227L77.1079 102.144C77.586 101.91 78.1612 102.104 78.3959 102.582C78.4664 102.718 78.4964 102.866 78.4964 103.007C78.4964 103.363 78.2988 103.704 77.9583 103.872L77.7801 103.958C77.3019 104.193 76.7232 103.993 76.4885 103.517C76.4233 103.379 76.3933 103.236 76.3933 103.095C76.3933 102.739 76.5909 102.393 76.9367 102.227ZM75.7175 6.4856C75.9398 6.00215 76.515 5.79572 76.9967 6.01803L77.1767 6.10626C77.526 6.26858 77.7289 6.61264 77.7289 6.97964C77.7289 7.1102 77.6989 7.25312 77.6389 7.38545C77.4149 7.86889 76.8397 8.07709 76.358 7.84772L76.1851 7.76479C75.834 7.60247 75.6258 7.25841 75.6258 6.89142C75.6258 6.76085 75.6558 6.61793 75.7175 6.4856ZM71.5059 104.493L71.6841 104.426C72.1869 104.247 72.7392 104.512 72.9174 105.015C72.9545 105.121 72.9686 105.228 72.9686 105.334C72.9686 105.73 72.7268 106.102 72.3299 106.245L72.1464 106.305C71.6435 106.483 71.093 106.218 70.9166 105.721C70.8813 105.615 70.8601 105.504 70.8601 105.4C70.8601 104.999 71.1107 104.629 71.5059 104.493ZM70.1085 4.37891C70.2761 3.869 70.8213 3.59552 71.3277 3.76313L71.5165 3.82842C71.917 3.96604 72.1711 4.33656 72.1711 4.74414C72.1711 4.84471 72.1569 4.94705 72.1199 5.04762C71.9487 5.55223 71.4053 5.82395 70.9007 5.6528L70.7172 5.59635C70.3167 5.46049 70.0573 5.08291 70.0573 4.68239C70.0573 4.58006 70.0785 4.47771 70.1085 4.37891ZM65.8527 106.123L66.0398 106.077C66.5585 105.959 67.0561 106.285 67.1778 106.804C67.1937 106.875 67.1972 106.945 67.1972 107.018C67.1972 107.459 66.8832 107.859 66.4368 107.967L66.278 108.002C65.7592 108.119 65.2423 107.794 65.1258 107.275C65.1099 107.205 65.0993 107.129 65.0993 107.058C65.0993 106.621 65.4028 106.224 65.8527 106.123ZM64.2965 2.90916C64.4095 2.39219 64.9176 2.0552 65.4399 2.16812L65.6322 2.21047C66.0839 2.30398 66.3944 2.70626 66.3944 3.14912C66.3944 3.21441 66.3838 3.28498 66.3697 3.35203C66.2568 3.87606 65.7504 4.20424 65.2264 4.09308L65.0429 4.0525C64.5912 3.95546 64.2771 3.56023 64.2771 3.11384C64.2771 3.04679 64.286 2.9815 64.2965 2.90916ZM60.1555 107.102L60.3496 107.083C60.8771 107.021 61.3553 107.402 61.4153 107.931L61.4223 108.043C61.4223 108.524 61.0553 108.942 60.5666 108.999L60.3743 109.018C59.8467 109.078 59.3686 108.697 59.3086 108.17L59.3033 108.059C59.3033 107.575 59.6632 107.16 60.1555 107.102ZM58.3576 2.10636C58.414 1.57704 58.8816 1.1924 59.4144 1.24357L59.6085 1.26298C60.099 1.31415 60.4766 1.73231 60.4766 2.21752L60.4713 2.31633C60.4166 2.84388 59.9473 3.23558 59.4144 3.17911L59.2274 3.16324C58.7299 3.11384 58.3523 2.69038 58.3523 2.20341L58.3576 2.10636ZM54.4971 107.432L54.6841 107.429C55.2169 107.429 55.6492 107.856 55.6545 108.388C55.6545 108.918 55.2222 109.354 54.6947 109.359H54.4971C53.9607 109.359 53.5319 108.927 53.5319 108.394C53.5319 107.859 53.9607 107.432 54.4971 107.432ZM53.3184 1.00009H53.516C54.0507 0.994794 54.4812 1.42002 54.4918 1.96345C54.4918 2.48748 54.0648 2.91975 53.5372 2.92328H53.3484C52.8138 2.93563 52.378 2.50865 52.3674 1.97051C52.3674 1.41119 52.7891 1.00891 53.3184 1.00009ZM47.8894 108.104C47.9335 107.575 48.4011 107.185 48.9339 107.229L49.1227 107.245C49.6203 107.289 50.0014 107.707 50.0014 108.205V108.286C49.9573 108.815 49.4932 109.211 48.9604 109.165L48.7628 109.151C48.2634 109.105 47.8841 108.694 47.8841 108.201L47.8894 108.104ZM47.2313 1.43589L47.4306 1.41119C47.9582 1.34414 48.4399 1.71996 48.5016 2.24928L48.5104 2.36573C48.5104 2.84741 48.1558 3.26028 47.6688 3.32027L47.48 3.34673C46.9525 3.41202 46.469 3.04149 46.3985 2.51217L46.3932 2.39749C46.3932 1.91405 46.7443 1.49588 47.2313 1.43589ZM41.8675 107.139C41.9751 106.621 42.4833 106.285 43.0055 106.391L43.189 106.426C43.6478 106.52 43.9512 106.915 43.9512 107.362C43.9512 107.429 43.9477 107.496 43.9318 107.559C43.8295 108.083 43.3055 108.418 42.7885 108.313L42.6209 108.276C42.1621 108.186 41.8481 107.783 41.8481 107.337C41.8481 107.272 41.8534 107.205 41.8675 107.139ZM41.2376 2.54923L41.4246 2.50336C41.9433 2.37632 42.4603 2.69567 42.5891 3.20735C42.6085 3.29028 42.6191 3.36615 42.6191 3.43849C42.6191 3.87606 42.3192 4.27128 41.8816 4.37185L41.6946 4.41949C41.1758 4.54476 40.6518 4.2307 40.5301 3.71373C40.5106 3.6361 40.5001 3.56023 40.5001 3.4826C40.5001 3.05209 40.7947 2.6551 41.2376 2.54923ZM36.4172 105.412C36.5849 104.904 37.1265 104.629 37.6294 104.793L37.8129 104.853C38.2205 104.98 38.4834 105.361 38.4834 105.767C38.4834 105.864 38.4692 105.966 38.4392 106.061C38.2752 106.571 37.7335 106.848 37.2236 106.686L37.0365 106.626C36.6307 106.494 36.3696 106.112 36.3696 105.712C36.3696 105.611 36.3855 105.507 36.4172 105.412ZM35.3992 4.33656L35.5827 4.27128C36.0855 4.08249 36.6378 4.34186 36.8213 4.84118C36.8619 4.95057 36.8777 5.0635 36.8777 5.17642C36.8777 5.56635 36.6378 5.93159 36.2479 6.0798L36.0644 6.14507C35.5668 6.32857 35.0128 6.0745 34.831 5.57164C34.7905 5.46578 34.7693 5.35286 34.7693 5.2417C34.7693 4.85001 35.0092 4.47772 35.3992 4.33656ZM31.2987 103.252C31.5193 102.765 32.0927 102.552 32.5761 102.769L32.742 102.845C33.1037 103.007 33.3154 103.358 33.3154 103.73C33.3154 103.863 33.2872 103.993 33.2307 104.12C33.0119 104.607 32.4438 104.823 31.9604 104.607L31.7769 104.526C31.4222 104.366 31.2123 104.015 31.2123 103.649C31.2123 103.517 31.2387 103.379 31.2987 103.252ZM29.8007 6.77144L29.9789 6.68321C30.4571 6.44502 31.0358 6.63911 31.274 7.11549C31.3411 7.25312 31.3763 7.39956 31.3763 7.54248C31.3763 7.89889 31.177 8.23941 30.8417 8.40527L30.6741 8.49349C30.1977 8.73168 29.6172 8.5429 29.379 8.06474C29.3085 7.92889 29.2714 7.78067 29.2714 7.63246C29.2714 7.28311 29.4655 6.94258 29.8007 6.77144ZM26.0461 100.366C26.3213 99.9141 26.9159 99.7676 27.3676 100.041L27.5247 100.133C27.8299 100.316 28.001 100.636 28.001 100.966C28.001 101.133 27.9569 101.301 27.8652 101.454C27.5952 101.91 27.0059 102.063 26.5507 101.795L26.3778 101.693C26.0761 101.509 25.9085 101.19 25.9085 100.863C25.9085 100.696 25.9543 100.525 26.0461 100.366ZM24.5164 9.82385L24.6857 9.71622C25.1321 9.42685 25.7267 9.55389 26.0161 9.99676C26.1237 10.1591 26.1749 10.3426 26.1749 10.5243C26.1749 10.8401 26.0161 11.1454 25.7373 11.3324L25.5785 11.4347C25.1321 11.7294 24.5375 11.6024 24.2429 11.1595C24.137 10.9972 24.0858 10.8154 24.0858 10.6319C24.0858 10.3161 24.2376 10.0109 24.5164 9.82385ZM21.1499 96.9163C21.4745 96.4947 22.0779 96.4153 22.5014 96.7399L22.6478 96.8511C22.8966 97.0399 23.029 97.3275 23.029 97.6221C23.029 97.8215 22.9672 98.0244 22.8366 98.1973C22.5208 98.6243 21.9174 98.709 21.4904 98.3914L21.3263 98.2679C21.0828 98.0808 20.9505 97.7897 20.9505 97.5004C20.9505 97.2992 21.0175 97.0946 21.1499 96.9163ZM19.6096 13.4515L19.7613 13.3226C20.1724 12.9839 20.7776 13.0439 21.1199 13.4515C21.2663 13.6349 21.3369 13.852 21.3369 14.0672C21.3369 14.346 21.2205 14.6195 20.9858 14.8065L20.8446 14.93C20.4335 15.2705 19.8283 15.2141 19.4878 14.8065C19.3361 14.6248 19.2637 14.4113 19.2637 14.1943C19.2637 13.9137 19.3819 13.6402 19.6096 13.4515ZM16.6683 92.9429C17.0335 92.5583 17.644 92.5424 18.0304 92.9129L18.161 93.0417C18.3656 93.2288 18.4662 93.4881 18.4662 93.7422C18.4662 93.9786 18.3798 94.2151 18.2016 94.4021C17.8363 94.7885 17.2276 94.8079 16.8412 94.4409L16.6983 94.305C16.5007 94.1127 16.3983 93.8639 16.3983 93.6099C16.3983 93.3717 16.4919 93.1282 16.6683 92.9429ZM15.1439 17.596L15.2762 17.4602C15.6467 17.0738 16.2572 17.0685 16.6383 17.439C16.8359 17.626 16.933 17.8748 16.933 18.1306C16.933 18.3688 16.8412 18.6123 16.6577 18.7993L16.5307 18.9387C16.1601 19.3198 15.5497 19.3287 15.165 18.9581C14.9709 18.7693 14.8704 18.5223 14.8704 18.2683C14.8704 18.0283 14.9604 17.7848 15.1439 17.596ZM12.6596 88.4843C13.0654 88.1438 13.6759 88.1985 14.0164 88.6096L14.1399 88.7578C14.2899 88.936 14.3622 89.153 14.3622 89.3718C14.3622 89.647 14.2458 89.9205 14.0164 90.1146C13.6088 90.4551 13.0001 90.404 12.6596 89.9928L12.5325 89.8446C12.3843 89.6629 12.3085 89.4424 12.3085 89.2253C12.3085 88.9519 12.4302 88.6766 12.6596 88.4843ZM11.1616 22.224L11.2816 22.0635C11.6115 21.6471 12.2185 21.5694 12.6384 21.8959C12.8837 22.0882 13.0107 22.3723 13.0107 22.6563C13.0107 22.8645 12.9436 23.0745 12.8078 23.2456L12.6896 23.3938C12.3702 23.8155 11.765 23.8967 11.3433 23.572C11.0946 23.3833 10.964 23.0974 10.964 22.8081C10.964 22.6052 11.0293 22.397 11.1616 22.224ZM9.17135 83.611C9.61775 83.3164 10.2106 83.4381 10.5052 83.8863L10.6129 84.0433C10.7187 84.2056 10.7699 84.3891 10.7699 84.5761C10.7699 84.8867 10.6217 85.1919 10.3429 85.3789C9.90182 85.6736 9.30192 85.5519 9.00727 85.109L8.9014 84.9467C8.78848 84.779 8.73731 84.5973 8.73731 84.4138C8.73731 84.1033 8.88905 83.7945 9.17135 83.611ZM7.72631 27.2649L7.83394 27.0938C8.10742 26.6403 8.70203 26.4974 9.15371 26.7727C9.45366 26.9544 9.61775 27.2702 9.61775 27.5949C9.61775 27.7678 9.57011 27.9407 9.47307 28.0924L9.37779 28.2548C9.10431 28.7135 8.51323 28.8599 8.05625 28.5847C7.75807 28.403 7.58869 28.0889 7.58869 27.759C7.58869 27.5896 7.63456 27.4167 7.72631 27.2649ZM6.25833 78.3743C6.73119 78.129 7.30991 78.3231 7.54987 78.7942L7.63456 78.9583C7.7069 79.0994 7.74219 79.2529 7.74219 79.4065C7.74219 79.7505 7.55516 80.0857 7.22345 80.2587C6.75589 80.5021 6.17188 80.3204 5.92839 79.8511L5.83135 79.6641C5.76077 79.5264 5.72372 79.3782 5.72372 79.23C5.72372 78.8824 5.9231 78.5401 6.25833 78.3743ZM4.88033 32.6552L4.96326 32.477C5.18734 31.9935 5.75547 31.7818 6.24245 32.0041C6.59356 32.1664 6.80177 32.5175 6.80177 32.8828C6.80177 33.0169 6.77177 33.1527 6.71531 33.2851L6.63415 33.4527C6.41536 33.9414 5.84193 34.1549 5.35848 33.9361C5.00384 33.772 4.79564 33.4227 4.79564 33.0557C4.79564 32.9251 4.82034 32.7875 4.88033 32.6552ZM3.95225 72.8358C4.44982 72.6523 5.00384 72.9082 5.18734 73.4057L5.25262 73.5822C5.2985 73.6951 5.31967 73.8115 5.31967 73.9227C5.31967 74.3144 5.07971 74.6796 4.69331 74.8225C4.19575 75.0113 3.64172 74.7608 3.4547 74.2632L3.38236 74.0762C3.34178 73.9686 3.32237 73.8521 3.32237 73.741C3.32237 73.3475 3.56056 72.984 3.95225 72.8358ZM2.66072 38.3401L2.72247 38.153C2.89009 37.6431 3.43882 37.3696 3.94167 37.539C4.34219 37.6749 4.60155 38.0507 4.60155 38.4512C4.60155 38.5536 4.58744 38.6541 4.55039 38.7565L4.49569 38.9347C4.32808 39.4428 3.78464 39.7163 3.28179 39.5557C2.87068 39.4216 2.6166 39.0423 2.6166 38.6347C2.6166 38.5377 2.63072 38.4353 2.66072 38.3401ZM2.2849 67.0804C2.79834 66.9533 3.32236 67.2674 3.44764 67.7808L3.4988 67.9696C3.51468 68.0455 3.52528 68.1266 3.52528 68.2025C3.52528 68.6348 3.23591 69.0247 2.79834 69.1377C2.28137 69.2647 1.75734 68.9489 1.63031 68.4354L1.57914 68.2484C1.56502 68.1708 1.55444 68.0896 1.55444 68.0137C1.55444 67.5832 1.8438 67.1862 2.2849 67.0804ZM1.10099 44.2332L1.14157 44.0408C1.24743 43.5221 1.76264 43.1869 2.28137 43.2998C2.73306 43.3898 3.04712 43.7903 3.04712 44.2385C3.04712 44.3037 3.0383 44.3708 3.02771 44.4378L2.98713 44.6249C2.8795 45.1418 2.37136 45.4788 1.84909 45.3712C1.39564 45.2794 1.08158 44.8789 1.08158 44.4308C1.08158 44.3655 1.08687 44.2984 1.10099 44.2332ZM1.28449 61.1714C1.81381 61.1008 2.29549 61.4749 2.36077 62.0042L2.38547 62.1877L2.39782 62.3182C2.39782 62.7929 2.04671 63.2075 1.56503 63.2745C1.03571 63.3469 0.54873 62.9764 0.476389 62.4453L0.451688 62.253L0.446391 62.1277C0.446391 61.6495 0.79751 61.2331 1.28449 61.1714ZM0.211726 50.2727L0.232901 50.0751C0.28054 49.5475 0.751632 49.1558 1.27919 49.207C1.77675 49.2529 2.15257 49.6693 2.15257 50.1633L2.14904 50.2533L2.13316 50.4421C2.08729 50.9696 1.61972 51.3613 1.08687 51.3155C0.589312 51.2696 0.208199 50.8479 0.208199 50.3556L0.211726 50.2727ZM0.949245 55.1865C1.48209 55.1813 1.91966 55.6029 1.93025 56.1376L1.93555 56.344C1.93555 56.868 1.51209 57.295 0.98983 57.3056C0.456981 57.3162 0.0194055 56.8927 0.0052903 56.3599L0 56.1093C0 55.6188 0.435804 55.1971 0.949245 55.1865ZM53.1755 99.3636L53.3678 99.3389C53.8972 99.2683 54.3788 99.6388 54.4512 100.166L54.46 100.293C54.46 100.772 54.1089 101.183 53.6219 101.25L53.4349 101.274C52.9056 101.345 52.4186 100.976 52.348 100.445L52.341 100.318C52.341 99.847 52.6938 99.4289 53.1755 99.3636ZM75.9963 72.9293L76.1039 72.7723C76.4039 72.3312 77.002 72.2183 77.4449 72.5182C77.7201 72.7 77.8665 73.0052 77.8665 73.3157C77.8665 73.5045 77.8101 73.6916 77.6989 73.8557L77.586 74.0162C77.2878 74.4591 76.6879 74.572 76.2521 74.2703C75.9769 74.0815 75.8287 73.7798 75.8287 73.4745C75.8287 73.2858 75.8834 73.097 75.9963 72.9293Z" fill="#C51A43"/>
</svg>
