<svg width="24" height="24" viewBox="0 0 24 24" fill="none" xmlns="http://www.w3.org/2000/svg">
<rect width="24" height="24" rx="12" fill="#57596A"/>
<path d="M13.1999 13.986H11.4719L10.8959 5.184H13.7939L13.1999 13.986ZM13.7579 16.65C13.7579 17.034 13.6139 17.364 13.3259 17.64C13.0499 17.916 12.7199 18.054 12.3359 18.054C11.9519 18.054 11.6219 17.916 11.3459 17.64C11.0699 17.364 10.9319 17.034 10.9319 16.65C10.9319 16.266 11.0699 15.936 11.3459 15.66C11.6219 15.372 11.9519 15.228 12.3359 15.228C12.7199 15.228 13.0499 15.372 13.3259 15.66C13.6139 15.936 13.7579 16.266 13.7579 16.65Z" fill="white"/>
</svg>
