<svg width="409" height="359" viewBox="0 0 409 359" fill="none" xmlns="http://www.w3.org/2000/svg">
<g clip-path="url(#clip0_539_13529)">
<path fill-rule="evenodd" clip-rule="evenodd" d="M44.8805 538.542L44.056 538.527C41.7095 538.397 39.7044 540.19 39.5832 542.552C39.4918 544.153 40.3247 545.592 41.5976 546.379C42.1877 546.743 42.8771 546.976 43.6157 547.011L44.4799 547.05C46.8388 547.161 48.8239 545.355 48.9262 543.01C49.0176 541.408 48.1873 539.98 46.9143 539.194C46.3176 538.825 45.6456 538.593 44.8805 538.542ZM30.3889 564.038C28.8308 563.076 26.7422 563.151 25.3042 564.397C23.5415 565.946 23.2861 568.554 24.8312 570.324L25.383 570.957C26.9173 572.729 29.6079 572.926 31.3838 571.385C33.1557 569.85 33.3519 567.16 31.811 565.384L31.3764 564.886C31.0813 564.548 30.7535 564.264 30.3889 564.038ZM113.618 421.474L112.843 421.839C110.728 422.831 109.811 425.37 110.799 427.491C111.164 428.266 111.734 428.884 112.424 429.31C113.604 430.039 115.107 430.17 116.469 429.537L117.282 429.169C119.386 428.151 120.301 425.602 119.283 423.498C118.916 422.713 118.352 422.099 117.682 421.686C116.502 420.957 114.966 420.833 113.618 421.474ZM-22.827 337.784C-25.1902 337.799 -27.0729 339.751 -27.0389 342.098L-27.0184 342.999C-26.9948 344.488 -26.1964 345.806 -25.0096 346.539C-24.3267 346.96 -23.5185 347.194 -22.6786 347.154C-20.3231 347.107 -18.4724 345.163 -18.5238 342.814L-18.5373 341.991C-18.5553 340.477 -19.3537 339.16 -20.5537 338.419C-21.2233 338.005 -22.0036 337.771 -22.827 337.784ZM134.906 407.247L134.281 407.785C132.525 409.338 132.338 412.044 133.891 413.8C134.179 414.134 134.491 414.4 134.862 414.629C136.401 415.579 138.455 415.455 139.887 414.206L140.589 413.586C142.323 412.01 142.472 409.336 140.906 407.572C140.632 407.275 140.326 407.013 139.982 406.8C138.417 405.833 136.33 405.964 134.906 407.247ZM-14.8641 310.61C-17.1184 309.959 -19.4663 311.284 -20.1167 313.539L-20.35 314.421C-20.8629 316.274 -20.0655 318.186 -18.5008 319.153C-18.156 319.366 -17.7744 319.519 -17.379 319.635C-15.0868 320.254 -12.7629 318.923 -12.1482 316.637L-11.9268 315.849C-11.4098 313.989 -12.1908 312.05 -13.7688 311.076C-14.0936 310.875 -14.4753 310.722 -14.8641 310.61ZM151.488 387.263L150.85 388.298C149.612 390.272 150.201 392.907 152.231 394.188C154.193 395.4 156.802 394.795 158.045 392.842L158.728 391.735C159.965 389.732 159.35 387.109 157.361 385.881C155.353 384.64 152.725 385.261 151.488 387.263ZM-2.86661 286.586C-4.84896 285.362 -7.48412 285.951 -8.7207 287.953L-9.19918 288.683C-10.4399 290.692 -9.76957 293.24 -7.76731 294.477C-5.75842 295.718 -3.09248 295.019 -1.85181 293.01L-1.51196 292.46C-0.271283 290.451 -0.876636 287.843 -2.86661 286.586ZM166.845 360.781C164.584 360.172 162.256 361.509 161.633 363.763L161.401 364.599C160.903 366.444 161.706 368.286 163.251 369.24C163.596 369.453 163.981 369.645 164.4 369.739C166.649 370.368 169.01 368.978 169.644 366.704L169.843 366.012C170.364 364.145 169.543 362.227 167.971 361.257C167.653 361.06 167.247 360.901 166.845 360.781ZM9.38589 266.539L8.69114 267.145C6.9534 268.728 6.81741 271.41 8.40944 273.163C8.66624 273.459 8.97822 273.725 9.32299 273.938C10.8877 274.904 12.9743 274.773 14.4104 273.471L15.0162 272.92C16.7779 271.343 16.9471 268.681 15.3822 266.9C15.0988 266.587 14.7935 266.325 14.4421 266.108C12.8774 265.142 10.8255 265.276 9.38589 266.539ZM168.865 334.021C166.516 334.072 164.659 336.011 164.71 338.36L164.714 339.214C164.75 340.684 165.525 341.95 166.692 342.671C167.381 343.097 168.183 343.326 169.038 343.305C171.414 343.27 173.268 341.246 173.23 338.905L173.211 338.18C173.181 336.686 172.385 335.38 171.198 334.647C170.529 334.233 169.721 334 168.865 334.021ZM32.788 251.144L31.9731 251.529C29.859 252.55 28.9764 255.091 29.9822 257.214C30.3654 257.973 30.9122 258.585 31.5753 258.995C32.762 259.728 34.2908 259.848 35.6783 259.203L36.414 258.842C38.5291 257.849 39.4664 255.323 38.4538 253.196C38.0937 252.415 37.5229 251.797 36.84 251.375C35.6532 250.642 34.1566 250.515 32.788 251.144ZM163.274 307.763C161.052 308.469 159.805 310.859 160.508 313.088L160.769 313.881C161.075 314.913 161.738 315.753 162.58 316.273C163.594 316.899 164.847 317.096 166.077 316.72C168.323 316.019 169.582 313.655 168.893 311.388L168.61 310.527C168.305 309.523 167.65 308.716 166.808 308.196C165.794 307.569 164.524 307.371 163.274 307.763ZM59.6128 242.945L58.6967 243.094C56.3809 243.477 54.805 245.673 55.1908 247.999C55.4165 249.265 56.1423 250.3 57.1567 250.926C57.9921 251.442 59.0531 251.667 60.1004 251.498L60.9 251.36C63.2275 251.003 64.8125 248.822 64.4466 246.507C64.2598 245.238 63.5197 244.167 62.4921 243.533C61.67 243.025 60.6478 242.797 59.6128 242.945ZM150.56 284.112C148.608 285.434 148.092 288.064 149.401 290.008L149.863 290.742C150.229 291.262 150.653 291.688 151.17 292.007C152.543 292.855 154.349 292.881 155.762 291.913C157.734 290.603 158.255 287.966 156.926 286.01L156.457 285.271C156.117 284.768 155.67 284.336 155.172 284.029C153.8 283.181 151.992 283.173 150.56 284.112ZM87.5864 242.6L86.7243 242.498C84.3943 242.222 82.2736 243.861 81.9854 246.211C81.7607 247.895 82.5969 249.492 83.9693 250.34C84.4665 250.647 85.0451 250.867 85.6816 250.949L86.5329 251.053C88.8696 251.333 90.9903 249.694 91.2702 247.357C91.5031 245.66 90.6736 244.067 89.2945 243.215C88.7973 242.908 88.2228 242.681 87.5864 242.6ZM131.649 265.068C130.148 266.861 130.416 269.555 132.228 271.04L132.839 271.564L133.357 271.957C135.114 273.042 137.455 272.721 138.83 271.088C140.359 269.294 140.147 266.598 138.36 265.101L137.621 264.489L137.175 264.158C135.398 263.061 133.031 263.394 131.649 265.068ZM114.606 250.22L113.782 249.849C111.624 248.909 109.111 249.894 108.176 252.046C107.306 254.018 108.074 256.288 109.818 257.365L110.366 257.649L111.133 257.994C113.273 258.949 115.794 257.996 116.746 255.846C117.623 253.878 116.912 251.589 115.128 250.487L114.606 250.22ZM-48.0631 376.318C-50.2977 377.045 -51.5298 379.425 -50.8356 381.667L-50.5602 382.497C-50.2392 383.519 -49.5931 384.312 -48.7511 384.832C-47.7168 385.471 -46.4388 385.656 -45.2201 385.255C-42.9748 384.526 -41.7427 382.145 -42.4691 379.91L-42.7205 379.087C-43.0257 378.083 -43.6917 377.278 -44.5337 376.758C-45.5481 376.131 -46.8261 375.946 -48.0631 376.318ZM-54.5181 348.702C-56.8704 348.907 -58.5798 350.993 -58.364 353.342L-58.2634 354.247C-58.1257 355.596 -57.3505 356.743 -56.2632 357.415C-55.5008 357.886 -54.5628 358.117 -53.5861 358.033C-51.268 357.78 -49.5504 355.681 -49.8198 353.344L-49.9042 352.531C-50.0133 351.136 -50.79 350.006 -51.8972 349.322C-52.6596 348.851 -53.5613 348.606 -54.5181 348.702ZM119.278 458.4L118.483 458.724C116.312 459.6 115.272 462.099 116.16 464.25C116.515 465.129 117.11 465.826 117.859 466.289C118.966 466.972 120.397 467.132 121.704 466.603L122.512 466.259C124.702 465.367 125.728 462.86 124.814 460.692C124.467 459.846 123.867 459.155 123.145 458.709C122.018 458.013 120.583 457.859 119.278 458.4ZM-53.5162 321.972C-55.8651 321.712 -57.9624 323.403 -58.206 325.725L-58.3136 326.611C-58.4955 328.285 -57.6653 329.833 -56.3261 330.66C-55.789 330.991 -55.1849 331.2 -54.5229 331.27C-52.1939 331.517 -50.0818 329.818 -49.854 327.476L-49.7699 326.658C-49.565 324.962 -50.4135 323.385 -51.7462 322.562C-52.2832 322.23 -52.8741 322.03 -53.5162 321.972ZM145.793 443.407L145.111 443.874C143.174 445.187 142.653 447.824 143.98 449.769C144.314 450.296 144.773 450.708 145.271 451.015C146.65 451.867 148.458 451.876 149.891 450.92L150.634 450.399C152.57 449.057 153.043 446.409 151.712 444.47C151.363 443.998 150.946 443.576 150.469 443.281C149.056 442.409 147.229 442.416 145.793 443.407ZM-47.0254 295.995C-49.2505 295.253 -51.6534 296.489 -52.3997 298.721L-52.6579 299.569C-53.2648 301.456 -52.4834 303.468 -50.8392 304.484C-50.574 304.648 -50.2567 304.816 -49.9225 304.913C-47.6785 305.639 -45.2797 304.41 -44.5598 302.161L-44.3064 301.365C-43.6764 299.456 -44.4578 297.443 -46.1021 296.428C-46.3938 296.248 -46.6912 296.092 -47.0254 295.995ZM167.441 423.392L166.863 423.988C165.248 425.683 165.28 428.359 166.968 430.015C167.181 430.22 167.434 430.403 167.706 430.571C169.37 431.599 171.563 431.369 172.976 429.897L173.619 429.241C175.221 427.538 175.153 424.83 173.456 423.233C173.237 423.024 172.997 422.849 172.752 422.697C171.068 421.657 168.834 421.908 167.441 423.392ZM-35.3097 271.953C-37.3488 270.776 -39.9561 271.483 -41.1371 273.529L-41.5502 274.272C-42.6944 276.258 -42.0241 278.806 -39.9622 280.08C-37.9108 281.237 -35.33 280.513 -34.1465 278.478L-33.7282 277.757C-32.5917 275.738 -33.2875 273.202 -35.3097 271.953ZM190.059 398.692C187.975 397.588 185.391 398.392 184.325 400.473L183.908 401.222C182.866 403.207 183.541 405.658 185.431 406.824L185.684 406.963C187.779 408.064 190.347 407.287 191.443 405.216L191.847 404.413C192.898 402.415 192.226 400.003 190.059 398.692ZM-24.929 251.126L-25.5202 251.787C-27.081 253.543 -26.9031 256.236 -25.1469 257.796C-24.947 257.947 -24.763 258.079 -24.5575 258.206C-22.8204 259.279 -20.5298 258.981 -19.1249 257.403L-18.5863 256.783C-17.0255 255.027 -17.1779 252.323 -18.9341 250.762C-19.0993 250.614 -19.2991 250.463 -19.5113 250.332C-21.2483 249.259 -23.5389 249.557 -24.929 251.126ZM200.57 371.085C198.329 370.443 195.965 371.749 195.324 374.018L195.094 374.82C194.543 376.706 195.362 378.658 196.926 379.624C197.258 379.829 197.616 380.005 198.003 380.106C200.264 380.76 202.627 379.454 203.262 377.181L203.507 376.325C204.041 374.466 203.236 372.522 201.652 371.543C201.333 371.346 200.976 371.199 200.57 371.085ZM-4.47961 232.533L-5.20283 233.066C-7.07043 234.459 -7.47338 237.114 -6.0557 239.015C-5.74446 239.445 -5.32953 239.811 -4.89856 240.078C-3.4466 240.974 -1.56176 240.948 -0.112785 239.892L0.561903 239.393C2.45757 237.999 2.86206 235.327 1.47498 233.435C1.14388 232.993 0.743719 232.617 0.286242 232.335C-1.14583 231.45 -3.03317 231.466 -4.47961 232.533ZM204.189 344.553C201.846 344.416 199.836 346.187 199.667 348.538L199.609 349.372C199.499 350.989 200.325 352.47 201.624 353.273C202.194 353.625 202.841 353.868 203.547 353.911C205.908 354.077 207.934 352.324 208.097 349.97L208.165 349.088C208.276 347.471 207.454 345.983 206.155 345.181C205.578 344.824 204.926 344.605 204.189 344.553ZM19.3679 218.567L18.5745 218.947C16.4395 219.927 15.489 222.445 16.4826 224.588C16.8469 225.362 17.4177 225.981 18.1072 226.406C19.294 227.139 20.7742 227.293 22.1107 226.672L22.9092 226.313C25.04 225.339 25.9946 222.815 25.0209 220.684C24.6424 219.873 24.0783 219.259 23.3689 218.821C22.202 218.1 20.7177 217.953 19.3679 218.567ZM202.286 317.87C199.947 318.202 198.347 320.347 198.68 322.686L198.785 323.493C198.974 324.819 199.715 325.918 200.769 326.569C201.572 327.064 202.555 327.296 203.569 327.153C205.906 326.838 207.548 324.683 207.211 322.368L207.102 321.476C206.907 320.175 206.143 319.098 205.109 318.46C204.293 317.956 203.308 317.714 202.286 317.87ZM45.5529 209.817L44.7164 210.015C42.4178 210.519 40.9919 212.798 41.5196 215.102C41.7843 216.245 42.498 217.181 43.4328 217.758C44.3544 218.327 45.4782 218.554 46.6027 218.305L47.4632 218.113C49.7475 217.573 51.1801 215.298 50.6523 212.994C50.3877 211.85 49.678 210.908 48.7366 210.327C47.8217 209.762 46.6938 209.542 45.5529 209.817ZM194.957 292.114C192.751 292.913 191.606 295.375 192.398 297.577L192.685 298.358C193.023 299.309 193.657 300.076 194.459 300.571C195.507 301.218 196.856 301.392 198.103 300.944C200.34 300.155 201.484 297.739 200.715 295.514L200.4 294.66C200.056 293.734 199.438 292.985 198.655 292.502C197.581 291.839 196.219 291.657 194.957 292.114ZM73.017 206.574L72.1318 206.614C69.7885 206.641 67.9057 208.592 67.9571 210.941C67.9766 212.437 68.7832 213.741 69.9898 214.486C70.6595 214.9 71.4371 215.124 72.2846 215.116L73.1402 215.095C75.4809 215.057 77.3581 213.129 77.3266 210.793C77.3086 209.28 76.4929 207.961 75.3128 207.232C74.6431 206.818 73.867 206.577 73.017 206.574ZM182.509 268.417C180.505 269.661 179.884 272.282 181.136 274.273L181.559 274.983C181.935 275.59 182.403 276.063 182.954 276.403C184.28 277.222 186.003 277.278 187.417 276.412C189.422 275.168 190.052 272.562 188.822 270.548L188.355 269.792C188 269.225 187.532 268.752 186.995 268.421C185.655 267.594 183.92 267.557 182.509 268.417ZM100.536 209.071L99.6692 208.902C97.3615 208.457 95.1327 209.975 94.6808 212.279C94.3533 214.055 95.1688 215.804 96.6407 216.713C97.0584 216.971 97.5518 217.166 98.0636 217.271L98.897 217.419C101.186 217.881 103.441 216.379 103.891 214.065C104.257 212.285 103.411 210.526 101.965 209.634C101.521 209.359 101.054 209.181 100.536 209.071ZM165.442 247.81C163.737 249.414 163.676 252.123 165.292 253.808L165.862 254.426C166.13 254.72 166.414 254.941 166.739 255.142C168.324 256.12 170.448 255.958 171.872 254.602C173.594 253.001 173.682 250.307 172.048 248.593L171.448 247.948C171.177 247.689 170.909 247.441 170.604 247.253C168.994 246.286 166.863 246.444 165.442 247.81ZM126.953 217.208L126.117 216.856C123.964 215.938 121.452 216.979 120.565 219.142C119.753 221.095 120.487 223.317 122.244 224.402C122.437 224.52 122.641 224.619 122.858 224.698L123.605 225.031C125.769 225.946 128.262 224.949 129.202 222.791C130.046 220.83 129.3 218.584 127.536 217.494L126.953 217.208ZM144.468 231.157C143.135 233.109 143.631 235.76 145.576 237.089L146.453 237.686C148.363 238.865 150.888 238.364 152.175 236.503C153.518 234.566 153.045 231.921 151.133 230.584L150.262 229.991C148.333 228.8 145.767 229.276 144.468 231.157ZM-72.0102 412.928C-74.0983 414.01 -74.9279 416.585 -73.8495 418.679L-73.4332 419.459C-73.0759 420.155 -72.5327 420.729 -71.9227 421.106C-70.6829 421.872 -69.0816 421.963 -67.6771 421.246C-65.6088 420.151 -64.8113 417.585 -65.9087 415.506L-66.2976 414.771C-66.6425 414.054 -67.194 413.494 -67.8238 413.105C-69.0437 412.351 -70.6312 412.223 -72.0102 412.928ZM68.285 499.326L67.4492 499.359C65.0956 499.463 63.2791 501.455 63.3826 503.808C63.4267 505.264 64.2338 506.523 65.4007 507.244C66.1035 507.678 66.9439 507.904 67.8119 507.863L68.6732 507.818C71.0334 507.718 72.8498 505.726 72.7382 503.386C72.6635 501.92 71.8564 500.661 70.7094 499.953C70.0066 499.519 69.1769 499.29 68.285 499.326ZM-83.1989 387.059C-85.4335 387.786 -86.6779 390.186 -85.9432 392.407L-85.6735 393.261C-85.3427 394.253 -84.6926 395.039 -83.8705 395.547C-82.8428 396.181 -81.549 396.385 -80.3073 395.961C-78.0661 395.239 -76.8615 392.814 -77.5961 390.593L-77.8506 389.804C-78.1691 388.792 -78.8499 387.996 -79.6653 387.492C-80.693 386.857 -81.9653 386.649 -83.1989 387.059ZM99.9176 499.106L99.0934 499.284C96.7863 499.728 95.2966 501.977 95.7641 504.289C96.0026 505.49 96.7331 506.472 97.7077 507.074C98.5895 507.619 99.6852 507.847 100.776 507.623L101.654 507.432C103.953 506.957 105.43 504.699 104.954 502.4C104.683 501.207 103.966 500.233 103.011 499.643C102.116 499.09 101.014 498.858 99.9176 499.106ZM-88.7016 360.956C-91.0051 361.319 -92.6101 363.488 -92.2442 365.802L-92.1031 366.686C-91.9163 367.955 -91.1665 368.996 -90.1521 369.622C-89.3101 370.142 -88.2961 370.384 -87.2447 370.209C-84.9182 369.823 -83.3455 367.662 -83.6991 365.328L-83.829 364.515C-84.0316 363.227 -84.7881 362.182 -85.8223 361.544C-86.6378 361.04 -87.6559 360.805 -88.7016 360.956ZM132.596 489.898L131.806 490.197C129.608 491.029 128.508 493.491 129.333 495.685C129.675 496.584 130.306 497.312 131.075 497.787C132.163 498.459 133.545 498.653 134.831 498.156L135.633 497.837C137.832 497.005 138.927 494.55 138.1 492.344C137.758 491.446 137.127 490.717 136.364 490.247C135.277 489.575 133.876 489.397 132.596 489.898ZM-89.9236 334.328C-92.2754 334.295 -94.1924 336.197 -94.1905 338.552L-94.1975 339.409C-94.2239 340.95 -93.3981 342.312 -92.1782 343.065C-91.5483 343.454 -90.7921 343.683 -89.9768 343.683C-87.6209 343.709 -85.7081 341.813 -85.6976 339.438L-85.7029 338.601C-85.6724 337.054 -86.4957 335.703 -87.7222 334.945C-88.3455 334.56 -89.1017 334.332 -89.9236 334.328ZM155.981 478.622L155.262 479.03C153.234 480.223 152.525 482.825 153.717 484.853C154.077 485.487 154.585 485.984 155.155 486.337C156.455 487.139 158.116 487.222 159.539 486.416L160.291 485.955C162.33 484.759 163.003 482.171 161.804 480.139C161.447 479.516 160.958 479.031 160.388 478.679C159.089 477.876 157.403 477.788 155.981 478.622ZM-86.8131 307.847C-89.1215 307.447 -91.3145 308.996 -91.7077 311.309L-91.8567 312.188C-92.152 313.956 -91.346 315.617 -89.9073 316.506C-89.4565 316.784 -88.9417 316.974 -88.3711 317.088C-86.0505 317.468 -83.8773 315.907 -83.4775 313.598L-83.3291 312.765C-83.0338 310.996 -83.8581 309.306 -85.2902 308.421C-85.7476 308.139 -86.2583 307.943 -86.8131 307.847ZM177.267 463.687L176.601 464.247C174.78 465.742 174.538 468.403 176.046 470.232C176.348 470.602 176.689 470.896 177.074 471.133C178.579 472.063 180.581 471.98 182.031 470.788L182.711 470.236C184.514 468.74 184.754 466.067 183.253 464.242C182.95 463.872 182.603 463.575 182.225 463.342C180.72 462.412 178.718 462.495 177.267 463.687ZM-79.4392 282.205C-81.652 281.443 -84.0956 282.626 -84.8619 284.845L-85.1384 285.664C-85.8071 287.577 -84.9982 289.634 -83.3407 290.657C-83.0888 290.813 -82.8113 290.957 -82.5067 291.072C-80.2898 291.827 -77.8502 290.65 -77.084 288.431L-76.8223 287.622C-76.1668 285.7 -76.9436 283.636 -78.6011 282.612C-78.8729 282.444 -79.1372 282.309 -79.4392 282.205ZM195.813 445.521L195.266 446.155C193.72 447.947 193.943 450.567 195.692 452.124L195.755 452.171C195.922 452.299 196.073 452.414 196.245 452.52C198.001 453.605 200.349 453.259 201.751 451.671L202.245 451.078C203.786 449.31 203.569 446.621 201.808 445.084C201.647 444.929 201.448 444.807 201.262 444.692C199.498 443.603 197.191 443.927 195.813 445.521ZM-68.0261 258.104C-70.1169 256.996 -72.6932 257.786 -73.794 259.836L-74.2087 260.596C-75.2636 262.601 -74.588 265.051 -72.4731 266.358C-70.3946 267.485 -67.829 266.698 -66.7011 264.619L-66.2946 263.872C-65.2356 261.861 -65.9509 259.386 -68.0261 258.104ZM211.183 424.579L210.745 425.289C209.504 427.297 210.103 429.902 212.1 431.163C214.082 432.387 216.711 431.794 217.967 429.804L218.43 429.055C219.666 427.052 219.045 424.425 217.043 423.188C215.041 421.952 212.42 422.577 211.183 424.579ZM-58.8756 236.911L-59.4072 237.608C-60.8278 239.479 -60.4691 242.146 -58.5856 243.575L-58.2531 243.807C-56.4034 244.95 -53.9788 244.524 -52.6319 242.773L-52.1142 242.113C-50.6976 240.249 -51.0589 237.571 -52.9102 236.135L-53.2427 235.902C-55.0527 234.784 -57.5088 235.172 -58.8756 236.911ZM227.691 402.581C225.546 401.604 223.036 402.555 222.033 404.683L221.682 405.473C220.788 407.44 221.526 409.746 223.322 410.855L223.781 411.12C225.9 412.08 228.428 411.16 229.407 409.026L229.79 408.228C230.695 406.259 229.951 403.949 228.161 402.843L227.691 402.581ZM-40.4529 216.691L-41.0833 217.281C-42.7813 218.889 -42.8668 221.593 -41.2716 223.311C-41.0117 223.572 -40.7114 223.812 -40.4064 224.001C-38.7953 224.996 -36.703 224.841 -35.2623 223.487L-34.636 222.903C-32.9273 221.293 -32.8326 218.604 -34.44 216.906C-34.7035 216.606 -35.0079 216.372 -35.3129 216.183C-36.8974 215.205 -39.0178 215.361 -40.4529 216.691ZM235.431 378.511C233.152 377.9 230.821 379.227 230.203 381.473L229.969 382.282C229.448 384.149 230.243 386.096 231.834 387.078C232.159 387.279 232.514 387.416 232.916 387.536C235.177 388.19 237.521 386.872 238.166 384.596L238.396 383.749C238.917 381.882 238.092 379.971 236.52 379.001C236.182 378.792 235.833 378.631 235.431 378.511ZM-18.9698 199.716L-19.7006 200.217C-21.6529 201.539 -22.1691 204.17 -20.8602 206.114C-20.5006 206.629 -20.0664 207.053 -19.5757 207.356C-18.2033 208.203 -16.3885 208.216 -14.9556 207.26L-14.2815 206.806C-12.3052 205.49 -11.7691 202.872 -13.0591 200.912C-13.413 200.373 -13.8605 199.941 -14.3777 199.621C-15.7302 198.786 -17.5327 198.754 -18.9698 199.716ZM238.938 353.375C236.597 353.147 234.504 354.831 234.257 357.188L234.173 358.006C233.992 359.708 234.809 361.247 236.161 362.082C236.699 362.414 237.299 362.629 237.939 362.704C240.275 362.956 242.368 361.272 242.621 358.919L242.713 358.059C242.905 356.383 242.081 354.812 240.722 353.972C240.211 353.657 239.588 353.464 238.938 353.375ZM4.96082 186.46L4.15977 186.808C2.03144 187.793 1.10084 190.323 2.0572 192.452C2.42907 193.259 3.0131 193.885 3.69598 194.307C4.86287 195.028 6.35383 195.179 7.71017 194.57L8.48876 194.199C10.6196 193.225 11.5742 190.7 10.5898 188.572C10.222 187.759 9.65123 187.141 8.96174 186.715C7.78158 185.986 6.27837 185.854 4.96082 186.46ZM238.879 326.732C236.527 326.863 234.737 328.872 234.866 331.214L234.918 332.034C234.989 333.506 235.784 334.739 236.944 335.456C237.647 335.89 238.494 336.12 239.375 336.087C241.728 335.955 243.538 333.959 243.402 331.613L243.361 330.745C243.285 329.297 242.483 328.06 241.343 327.355C240.633 326.917 239.786 326.687 238.879 326.732ZM30.7029 177.227L29.8683 177.481C27.5926 178.081 26.2727 180.426 26.8771 182.695C27.1786 183.778 27.8746 184.639 28.7498 185.179C29.7244 185.781 30.9339 185.988 32.1142 185.663L32.9391 185.44C35.2082 184.836 36.5479 182.503 35.9278 180.215C35.6395 179.14 34.9451 178.262 34.0633 177.718C33.0887 177.116 31.9072 176.908 30.7029 177.227ZM234.5 300.425C232.215 300.937 230.772 303.215 231.29 305.504L231.47 306.311C231.721 307.492 232.448 308.435 233.389 309.017C234.304 309.582 235.396 309.816 236.531 309.565C238.823 309.057 240.289 306.802 239.785 304.504L239.582 303.646C239.319 302.485 238.622 301.523 237.687 300.946C236.772 300.381 235.644 300.16 234.5 300.425ZM57.6078 172.265L56.7111 172.352C54.3931 172.606 52.7076 174.697 52.9448 177.042C53.1091 178.407 53.8858 179.537 54.9532 180.196C55.7356 180.679 56.6694 180.917 57.6517 180.81L58.4789 180.716C60.8113 180.499 62.4967 178.407 62.285 176.051C62.1234 174.696 61.3605 173.529 60.2732 172.858C59.5107 172.387 58.5728 172.156 57.6078 172.265ZM225.996 275.133C223.818 276.005 222.763 278.485 223.622 280.683L223.934 281.453C224.289 282.331 224.896 283.054 225.645 283.517C226.752 284.201 228.159 284.355 229.471 283.847C231.642 282.971 232.716 280.52 231.853 278.329L231.533 277.527C231.176 276.638 230.565 275.922 229.829 275.467C228.722 274.784 227.312 274.618 225.996 275.133ZM84.9242 171.678L84.0615 171.622C81.7109 171.498 79.7058 173.291 79.5795 175.631C79.4841 177.239 80.322 178.7 81.6016 179.49C82.1917 179.855 82.8636 180.087 83.589 180.113L84.445 180.166C86.7942 180.307 88.8033 178.507 88.9296 176.167C89.025 174.559 88.2111 173.104 86.9182 172.305C86.3348 171.945 85.6695 171.717 84.9242 171.678ZM213.512 251.57C211.5 252.781 210.866 255.394 212.071 257.402L212.507 258.12C212.864 258.744 213.365 259.209 213.928 259.557C215.228 260.359 216.913 260.448 218.309 259.597C220.343 258.408 221.001 255.801 219.802 253.769L219.345 253.01C218.991 252.398 218.516 251.921 217.939 251.565C216.646 250.766 214.927 250.703 213.512 251.57ZM112.014 175.522L111.133 175.317C108.83 174.82 106.562 176.268 106.069 178.564C105.674 180.39 106.5 182.182 107.985 183.1C108.389 183.349 108.832 183.522 109.318 183.639L110.125 183.817C112.422 184.338 114.703 182.898 115.221 180.608C115.637 178.777 114.798 176.976 113.293 176.047C112.909 175.809 112.474 175.623 112.014 175.522ZM197.367 230.315C195.578 231.848 195.364 234.537 196.877 236.314L197.44 236.945C197.744 237.298 198.08 237.615 198.444 237.84C199.976 238.786 201.983 238.679 203.426 237.455C205.235 235.934 205.445 233.252 203.936 231.469L203.346 230.793C203.074 230.432 202.726 230.135 202.362 229.91C200.837 228.968 198.806 229.097 197.367 230.315ZM138.087 183.712L137.263 183.386C135.087 182.519 132.613 183.573 131.746 185.749C130.966 187.694 131.741 189.895 133.458 190.955C133.67 191.086 133.892 191.187 134.131 191.288L134.908 191.603C137.086 192.481 139.564 191.42 140.444 189.252C141.225 187.307 140.491 185.114 138.76 184.045C138.548 183.914 138.335 183.8 138.087 183.712ZM177.985 211.989C176.495 213.779 176.701 216.471 178.507 217.98L179.156 218.546L179.673 218.911C181.43 219.996 183.779 219.661 185.142 218.048C186.669 216.243 186.445 213.55 184.646 212.045L183.997 211.479L183.471 211.099C181.714 210.014 179.367 210.36 177.985 211.989ZM162.519 195.998L161.764 195.559C159.762 194.351 157.143 195.004 155.945 197.003C154.74 198.997 155.347 201.589 157.369 202.838L158.099 203.288C160.109 204.511 162.729 203.858 163.946 201.843C165.117 199.902 164.66 197.32 162.519 195.998ZM-92.6553 448.536C-94.6248 449.857 -95.1518 452.49 -93.8256 454.435L-93.3443 455.154C-93.0102 455.681 -92.5504 456.093 -92.0598 456.396C-90.6808 457.248 -88.8782 457.28 -87.4452 456.324C-85.5053 455.022 -84.9727 452.365 -86.2816 450.421L-86.7628 449.703C-87.1291 449.183 -87.5501 448.768 -88.0672 448.448C-89.4462 447.596 -91.2223 447.58 -92.6553 448.536ZM69.2486 539.615L68.4201 539.607C66.0669 539.473 64.0685 541.27 63.958 543.629C63.8666 545.23 64.697 546.659 65.9766 547.449C66.5733 547.818 67.2386 548.046 67.9731 548.087L68.8547 548.128C71.2136 548.238 73.1987 546.433 73.2969 544.094C73.3924 542.486 72.5621 541.057 71.2825 540.267C70.6858 539.898 70.0138 539.666 69.2486 539.615ZM-106.616 424.472C-108.732 425.51 -109.597 428.053 -108.564 430.148L-108.187 430.93C-107.808 431.696 -107.271 432.265 -106.595 432.683C-105.395 433.424 -103.831 433.547 -102.477 432.881C-100.37 431.828 -99.5075 429.275 -100.538 427.191L-100.917 426.426C-101.294 425.671 -101.844 425.065 -102.488 424.668C-103.694 423.923 -105.251 423.804 -106.616 424.472ZM93.4369 535.76L92.5939 535.835C90.2565 536.03 88.5073 538.092 88.7032 540.429C88.8163 541.818 89.6082 543.012 90.7154 543.696C91.458 544.154 92.3464 544.392 93.2843 544.312L94.1513 544.242C96.4943 544.023 98.2338 541.992 98.0221 539.636C97.9172 538.234 97.137 537.065 96.0231 536.377C95.2872 535.923 94.3789 535.673 93.4369 535.76ZM-116.161 399.664C-118.389 400.395 -119.594 402.82 -118.833 405.058L-118.56 405.876C-118.228 406.851 -117.569 407.624 -116.774 408.115C-115.726 408.762 -114.415 408.968 -113.184 408.546C-110.957 407.788 -109.746 405.367 -110.513 403.153L-110.787 402.352C-111.094 401.365 -111.759 400.588 -112.574 400.085C-113.602 399.45 -114.91 399.255 -116.161 399.664ZM117.265 531.197L116.452 531.372C114.149 531.882 112.703 534.149 113.211 536.441C113.455 537.618 114.185 538.572 115.126 539.154C116.028 539.71 117.137 539.947 118.261 539.698L119.124 539.516C121.414 538.998 122.846 536.723 122.345 534.435C122.08 533.263 121.372 532.332 120.431 531.751C119.516 531.186 118.407 530.949 117.265 531.197ZM-122.332 373.827C-124.651 374.245 -126.16 376.481 -125.718 378.806L-125.552 379.678C-125.32 380.874 -124.572 381.858 -123.597 382.46C-122.722 383.001 -121.65 383.223 -120.54 383.011C-118.235 382.557 -116.739 380.312 -117.201 378.021L-117.344 377.2C-117.603 375.987 -118.332 374.987 -119.3 374.389C-120.175 373.849 -121.252 373.605 -122.332 373.827ZM142.226 523.88L141.417 524.168C139.215 524.96 138.071 527.405 138.89 529.623C139.212 530.555 139.852 531.298 140.635 531.781C141.709 532.445 143.071 532.627 144.333 532.17L145.153 531.879C147.361 531.063 148.485 528.606 147.686 526.4C147.331 525.476 146.705 524.741 145.916 524.254C144.855 523.599 143.493 523.417 142.226 523.88ZM-125.076 347.394C-127.406 347.549 -129.203 349.553 -129.074 351.895L-129.018 352.754C-128.937 354.195 -128.135 355.433 -127.015 356.125C-126.292 356.571 -125.432 356.809 -124.519 356.741C-122.167 356.609 -120.39 354.592 -120.526 352.246L-120.562 351.4C-120.657 349.967 -121.44 348.714 -122.58 348.01C-123.283 347.576 -124.16 347.364 -125.076 347.394ZM165.995 513.318L165.248 513.727C163.154 514.805 162.363 517.376 163.453 519.451C163.803 520.161 164.332 520.698 164.968 521.091C166.208 521.857 167.804 521.973 169.178 521.274L169.964 520.862C172.032 519.767 172.842 517.18 171.732 515.093C171.37 514.403 170.832 513.851 170.202 513.462C168.962 512.696 167.369 512.591 165.995 513.318ZM-124.238 320.856C-126.591 320.676 -128.636 322.417 -128.812 324.763L-128.896 325.655C-129.004 327.283 -128.185 328.759 -126.885 329.562C-126.308 329.918 -125.645 330.135 -124.951 330.197C-122.601 330.367 -120.572 328.579 -120.413 326.259L-120.342 325.433C-120.206 323.804 -121.035 322.285 -122.355 321.47C-122.912 321.126 -123.54 320.912 -124.238 320.856ZM188.142 499.703L187.448 500.19C185.519 501.563 185.09 504.229 186.441 506.135C186.78 506.61 187.196 507.004 187.673 507.299C189.086 508.171 190.938 508.152 192.382 507.148L193.074 506.622C194.986 505.276 195.441 502.626 194.094 500.713C193.729 500.222 193.309 499.834 192.852 499.552C191.439 498.68 189.599 498.679 188.142 499.703ZM-119.944 294.64C-122.23 294.144 -124.503 295.616 -124.969 297.911L-125.174 298.792C-125.54 300.571 -124.706 302.35 -123.241 303.255C-122.823 303.513 -122.35 303.696 -121.851 303.793C-119.548 304.29 -117.314 302.794 -116.841 300.485L-116.653 299.676C-116.274 297.877 -117.101 296.102 -118.593 295.181C-118.991 294.935 -119.452 294.733 -119.944 294.64ZM208.285 483.237L207.687 483.821C205.958 485.418 205.918 488.049 207.516 489.778C207.771 490.046 208.056 490.267 208.374 490.464C209.985 491.459 212.154 491.269 213.597 489.925L214.083 489.465C215.828 487.841 215.912 485.154 214.302 483.446C214.028 483.148 213.754 482.924 213.429 482.723C211.845 481.745 209.714 481.903 208.285 483.237ZM-112.185 269.308C-114.396 268.529 -116.861 269.745 -117.647 271.952L-117.891 272.644C-118.549 274.555 -117.771 276.647 -116.114 277.671C-115.848 277.835 -115.572 277.951 -115.27 278.055C-113.067 278.847 -110.635 277.684 -109.849 275.477L-109.564 274.673C-108.9 272.738 -109.688 270.722 -111.346 269.698C-111.591 269.547 -111.883 269.412 -112.185 269.308ZM226.048 464.249L225.505 464.921C224.008 466.736 224.283 469.405 226.104 470.906L226.557 471.24C228.354 472.35 230.713 471.985 232.093 470.3L232.626 469.658C234.12 467.833 233.858 465.143 232.032 463.65L231.571 463.328C229.801 462.235 227.418 462.595 226.048 464.249ZM-101.055 245.088C-103.164 244.023 -105.719 244.854 -106.797 246.955L-107.183 247.714C-108.198 249.698 -107.498 252.108 -105.628 253.263L-105.311 253.432C-103.228 254.508 -100.658 253.668 -99.6015 251.572L-99.2149 250.813C-98.2004 248.829 -98.9005 246.418 -100.77 245.264L-101.055 245.088ZM-92.8045 223.705L-93.2947 224.41C-94.6118 226.335 -94.1352 228.974 -92.0143 230.449C-90.1049 231.628 -87.571 231.114 -86.2825 229.235L-85.7938 228.548C-84.467 226.592 -84.9437 223.953 -87.0212 222.542C-88.9638 221.342 -91.4997 221.8 -92.8045 223.705ZM260.807 412.876C258.644 411.989 256.15 413.031 255.259 415.201L254.937 415.974C254.132 417.931 254.903 420.092 256.64 421.165C256.833 421.284 257.046 421.397 257.267 421.47C259.44 422.4 261.956 421.307 262.844 419.144L263.128 418.431C263.938 416.467 263.191 414.266 261.454 413.193C261.248 413.066 261.04 412.974 260.807 412.876ZM-75.8806 202.486L-76.4758 203.153C-78.0525 204.891 -77.9118 207.569 -76.1638 209.144C-75.9564 209.327 -75.7631 209.473 -75.5377 209.613C-73.8338 210.665 -71.5514 210.38 -70.1537 208.844L-69.5804 208.227C-68.0063 206.479 -68.1388 203.787 -69.8868 202.213C-70.0754 202.014 -70.2753 201.863 -70.5007 201.724C-72.2178 200.663 -74.4829 200.95 -75.8806 202.486ZM269.194 386.705C266.92 386.116 264.604 387.479 264.015 389.753L263.787 390.537C263.304 392.401 264.115 394.321 265.66 395.275C266.011 395.492 266.382 395.648 266.816 395.76C269.07 396.383 271.413 395.036 272.015 392.77L272.24 391.902C272.722 390.038 271.9 388.166 270.356 387.212C270.011 386.999 269.632 386.811 269.194 386.705ZM-56.2697 183.723L-56.949 184.274C-58.7449 185.803 -58.9783 188.48 -57.4589 190.261C-57.1628 190.627 -56.8152 190.924 -56.4307 191.161C-54.9257 192.091 -52.8917 192.001 -51.4526 190.783L-50.8136 190.253C-48.9979 188.736 -48.7711 186.055 -50.2716 184.259C-50.5743 183.889 -50.9153 183.595 -51.2999 183.358C-52.8314 182.412 -54.8332 182.495 -56.2697 183.723ZM273.636 360.516C271.299 360.236 269.179 361.875 268.884 364.221L268.788 365.059C268.589 366.759 269.393 368.364 270.766 369.212C271.283 369.531 271.843 369.721 272.49 369.801C274.808 370.096 276.941 368.437 277.224 366.111L277.33 365.242C277.53 363.553 276.714 361.968 275.342 361.12C274.844 360.813 274.27 360.587 273.636 360.516ZM-34.5979 167.882L-35.0804 168.188C-37.0652 169.444 -37.6391 172.094 -36.3813 174.062C-36.0157 174.626 -35.5549 175.067 -35.0179 175.398C-33.6852 176.221 -31.9206 176.285 -30.5081 175.362L-29.786 174.92C-27.8012 173.664 -27.33 171.106 -28.5796 169.126C-28.9335 168.587 -29.3811 168.154 -29.8783 167.847C-31.2773 166.983 -33.1375 166.97 -34.5979 167.882ZM274.513 333.975C272.176 334.006 270.299 335.933 270.337 338.274L270.326 339.092C270.336 340.618 271.136 341.964 272.342 342.709C273.005 343.118 273.774 343.327 274.609 343.339C276.952 343.312 278.85 341.425 278.835 339.062L278.839 338.167C278.821 336.653 278.018 335.343 276.818 334.602C276.155 334.192 275.367 333.971 274.513 333.975ZM-10.464 154.816L-11.2542 155.161C-13.4081 156.157 -14.3239 158.678 -13.3263 160.815C-12.9717 161.62 -12.4076 162.234 -11.7247 162.655C-10.5379 163.388 -9.04542 163.522 -7.68496 162.906L-6.92371 162.534C-4.79948 161.556 -3.85718 159.052 -4.81859 156.901C-5.19864 156.107 -5.76278 155.493 -6.45227 155.068C-7.63905 154.335 -9.13 154.183 -10.464 154.816ZM271.905 307.544C269.583 307.877 267.965 310.038 268.299 312.36L268.429 313.173C268.587 314.488 269.371 315.577 270.398 316.212C271.22 316.719 272.206 316.962 273.213 316.814C275.551 316.5 277.18 314.337 276.835 312.017L276.726 311.126C276.539 309.828 275.794 308.764 274.76 308.126C273.938 307.618 272.92 307.383 271.905 307.544ZM14.9067 145.16L14.0573 145.423C11.8109 146.124 10.5524 148.488 11.2574 150.728C11.5595 151.766 12.2412 152.59 13.0832 153.11C14.091 153.733 15.3475 153.923 16.5804 153.558L17.3829 153.311C19.6424 152.619 20.8959 150.233 20.1991 147.98C19.893 146.948 19.227 146.143 18.3651 145.611C17.3773 145.001 16.1115 144.796 14.9067 145.16ZM265.827 281.69C263.559 282.322 262.241 284.678 262.884 286.915L263.113 287.744C263.414 288.8 264.089 289.665 264.97 290.21C265.945 290.812 267.157 291.029 268.352 290.695C270.627 290.067 271.944 287.712 271.312 285.444L271.058 284.609C270.776 283.537 270.089 282.692 269.208 282.147C268.233 281.546 267.013 281.341 265.827 281.69ZM41.3183 138.95L40.4344 139.091C38.1196 139.503 36.5529 141.713 36.9526 144.002C37.1864 145.255 37.9189 146.294 38.9266 146.916C39.7686 147.436 40.8066 147.683 41.8662 147.495L42.6699 147.35C45.0056 146.979 46.5626 144.799 46.2048 142.472C45.9899 141.203 45.2334 140.159 44.2191 139.533C43.3837 139.017 42.3656 138.782 41.3183 138.95ZM256.376 256.848C254.23 257.758 253.21 260.269 254.143 262.421L254.498 263.226C254.851 264.049 255.449 264.711 256.152 265.145C257.305 265.858 258.757 266.013 260.093 265.436C262.252 264.507 263.246 262.007 262.31 259.845L261.976 259.052C261.616 258.225 261.02 257.574 260.291 257.123C259.151 256.419 257.712 256.272 256.376 256.848ZM68.2833 136.279L67.4276 136.3C65.0674 136.399 63.25 138.363 63.3335 140.704C63.372 142.184 64.1668 143.463 65.347 144.192C66.0365 144.618 66.8447 144.851 67.7101 144.799L68.5724 144.782C70.9336 144.711 72.7633 142.727 72.6798 140.386C72.624 138.904 71.8209 137.639 70.6541 136.918C69.9712 136.497 69.143 136.251 68.2833 136.279ZM243.712 233.457C241.7 234.669 241.055 237.284 242.278 239.294L242.691 240.034C243.057 240.627 243.545 241.112 244.122 241.468C245.415 242.267 247.109 242.342 248.524 241.503C250.543 240.296 251.201 237.688 250.001 235.656L249.565 234.91C249.191 234.313 248.703 233.829 248.153 233.489C246.833 232.674 245.121 232.615 243.712 233.457ZM95.4079 137.204L94.5055 137.123C92.1682 136.888 90.1026 138.617 89.8681 140.954C89.7076 142.623 90.5608 144.148 91.8802 144.963C92.4305 145.303 93.0305 145.517 93.7032 145.585L94.5239 145.68C96.8586 145.903 98.9641 144.2 99.1945 141.869C99.3524 140.19 98.5503 138.641 97.1912 137.802C96.6806 137.486 96.0419 137.275 95.4079 137.204ZM228.056 211.974C226.216 213.456 225.91 216.116 227.397 217.95L227.924 218.624C228.228 219.022 228.619 219.337 229.024 219.587C230.509 220.504 232.466 220.449 233.882 219.299C235.742 217.829 236.028 215.157 234.58 213.319L234.026 212.629C233.71 212.251 233.358 211.932 232.953 211.682C231.461 210.761 229.504 210.816 228.056 211.974ZM122.139 141.733L121.293 141.531C119.014 140.994 116.706 142.417 116.169 144.696C115.753 146.527 116.582 148.358 118.087 149.287C118.465 149.521 118.88 149.694 119.338 149.812L120.16 150.009C122.445 150.55 124.734 149.143 125.291 146.876C125.736 145.044 124.925 143.198 123.4 142.256C123.016 142.018 122.605 141.838 122.139 141.733ZM209.658 192.78C208.025 194.492 208.103 197.168 209.81 198.809L210.405 199.387C210.646 199.591 210.877 199.779 211.122 199.931C212.787 200.959 215.008 200.728 216.425 199.249C218.042 197.565 217.994 194.869 216.31 193.252L215.66 192.613C215.439 192.422 215.215 192.237 214.969 192.085C213.285 191.045 211.065 191.304 209.658 192.78ZM147.916 149.749L147.23 149.481C145.034 148.647 142.563 149.74 141.736 151.94C141.008 153.89 141.778 156.024 143.469 157.068C143.701 157.211 143.935 157.337 144.2 157.428L144.995 157.726C147.183 158.574 149.589 157.45 150.415 155.267C151.159 153.336 150.372 151.156 148.648 150.091C148.423 149.952 148.166 149.848 147.916 149.749ZM188.884 176.204C187.497 178.095 187.903 180.773 189.811 182.162L190.508 182.666L190.793 182.842C192.663 183.997 195.14 183.53 196.463 181.728C197.84 179.84 197.44 177.166 195.525 175.772L194.84 175.266L194.535 175.078C192.685 173.936 190.197 174.405 188.884 176.204ZM172.655 161.226L171.887 160.807C169.809 159.679 167.224 160.455 166.108 162.514C165.033 164.506 165.716 166.988 167.818 168.286L168.552 168.685C170.63 169.813 173.204 169.057 174.335 167.018C175.452 164.987 174.677 162.475 172.655 161.226ZM-113.842 481.951C-115.666 483.407 -115.977 486.091 -114.497 487.921L-113.956 488.603C-113.653 489.001 -113.284 489.338 -112.886 489.584C-111.395 490.505 -109.453 490.431 -107.999 489.278C-106.161 487.83 -105.87 485.134 -107.319 483.314L-107.857 482.643C-108.161 482.245 -108.536 481.903 -108.941 481.653C-110.432 480.732 -112.383 480.791 -113.842 481.951ZM71.6712 572.041L70.8493 572.037C68.501 572.043 66.584 573.945 66.5833 576.29C66.5932 577.816 67.3991 579.166 68.6191 579.919C69.2622 580.316 70.025 580.549 70.8403 580.549L71.7357 580.552C74.083 580.518 75.9693 578.606 75.9741 576.255C75.9362 574.73 75.1445 573.416 73.9379 572.671C73.2682 572.258 72.4947 572.027 71.6712 572.041ZM-138.979 443.255C-141.106 444.267 -142.009 446.796 -141.035 448.927L-140.631 449.726C-140.291 450.495 -139.701 451.097 -139.045 451.503C-137.858 452.236 -136.335 452.379 -134.958 451.737C-132.851 450.712 -131.968 448.171 -132.981 446.043L-133.313 445.307C-133.677 444.532 -134.248 443.914 -134.938 443.488C-136.118 442.759 -137.629 442.641 -138.979 443.255ZM101.481 569.523L100.68 569.633C98.3234 569.89 96.6604 572.005 96.9339 574.335C97.0716 575.684 97.8442 576.821 98.9116 577.48C99.7006 577.967 100.639 578.198 101.636 578.081L102.508 577.988C104.839 577.715 106.501 575.572 106.215 573.262C106.065 571.933 105.29 570.786 104.242 570.139C103.44 569.643 102.47 569.419 101.481 569.523ZM-148.861 412.853C-151.095 413.608 -152.274 416.021 -151.537 418.253L-151.233 419.082C-150.908 420.052 -150.273 420.819 -149.478 421.311C-148.417 421.966 -147.089 422.145 -145.839 421.707C-143.606 420.953 -142.434 418.507 -143.201 416.294L-143.468 415.524C-143.818 414.548 -144.44 413.761 -145.262 413.253C-146.309 412.606 -147.63 412.432 -148.861 412.853ZM127.106 565.062L126.281 565.24C123.997 565.78 122.567 568.066 123.081 570.334C123.344 571.494 124.053 572.436 124.988 573.014C125.923 573.591 127.057 573.815 128.178 573.528L129.024 573.345C131.315 572.809 132.741 570.53 132.212 568.243C131.936 567.102 131.227 566.16 130.285 565.579C129.377 565.018 128.249 564.797 127.106 565.062ZM-155.611 387.271C-157.895 387.766 -159.36 390.048 -158.852 392.34L-158.647 393.181C-158.391 394.338 -157.681 395.28 -156.746 395.857C-155.831 396.422 -154.697 396.646 -153.568 396.391C-151.28 395.89 -149.846 393.597 -150.348 391.309L-150.53 390.492C-150.793 389.331 -151.518 388.37 -152.453 387.793C-153.368 387.228 -154.5 387.014 -155.611 387.271ZM152.035 557.753L151.246 558.036C149.02 558.822 147.861 561.248 148.635 563.466C148.977 564.41 149.615 565.17 150.417 565.666C151.465 566.313 152.795 566.502 154.077 566.058L154.891 565.763C157.104 564.997 158.265 562.554 157.473 560.352C157.135 559.401 156.49 558.636 155.694 558.145C154.647 557.498 153.314 557.298 152.035 557.753ZM-159.458 361.082C-161.79 361.328 -163.479 363.426 -163.218 365.776L-163.137 366.623C-162.979 367.984 -162.215 369.106 -161.135 369.773C-160.346 370.261 -159.412 370.499 -158.43 370.391C-156.099 370.117 -154.423 368.011 -154.668 365.68L-154.769 364.849C-154.906 363.5 -155.675 362.356 -156.762 361.685C-157.551 361.198 -158.489 360.966 -159.458 361.082ZM176.024 547.694L175.252 548.069C173.132 549.085 172.242 551.623 173.248 553.746C173.631 554.505 174.195 555.09 174.858 555.5C176.064 556.245 177.583 556.396 178.938 555.73L179.731 555.35C181.839 554.325 182.721 551.784 181.696 549.676C181.32 548.922 180.78 548.313 180.11 547.9C178.93 547.171 177.375 547.035 176.024 547.694ZM-160.315 334.634C-162.679 334.621 -164.584 336.504 -164.61 338.859L-164.601 339.735C-164.595 341.268 -163.792 342.607 -162.585 343.352C-161.935 343.753 -161.17 343.997 -160.348 344.001C-158 343.995 -156.103 342.08 -156.109 339.732L-156.102 338.921C-156.096 337.368 -156.899 336.029 -158.126 335.271C-158.769 334.874 -159.513 334.625 -160.315 334.634ZM198.699 535.018L197.99 535.469C195.999 536.721 195.393 539.332 196.646 541.324C196.992 541.904 197.48 542.361 198.01 542.689C199.349 543.516 201.088 543.563 202.508 542.673L203.246 542.204C205.237 540.952 205.831 538.314 204.586 536.327C204.22 535.762 203.753 535.318 203.222 534.99C201.883 534.163 200.125 534.103 198.699 535.018ZM-158.235 308.25C-160.567 307.963 -162.678 309.645 -162.96 311.971L-163.046 312.852C-163.247 314.542 -162.425 316.103 -161.046 316.954C-160.556 317.257 -159.949 317.476 -159.312 317.558C-156.976 317.838 -154.859 316.16 -154.603 313.817L-154.513 312.975C-154.308 311.279 -155.118 309.698 -156.497 308.847C-156.988 308.544 -157.594 308.325 -158.235 308.25ZM219.815 519.868L219.15 520.382C217.313 521.858 217.026 524.548 218.502 526.384C218.814 526.769 219.186 527.072 219.584 527.318C221.069 528.235 223.029 528.19 224.487 527.03L225.138 526.48C226.975 525.004 227.258 522.321 225.798 520.504C225.482 520.125 225.113 519.788 224.722 519.546C223.217 518.617 221.243 518.698 219.815 519.868ZM-153.134 282.284C-155.439 281.73 -157.732 283.144 -158.277 285.436L-158.47 286.297C-158.882 288.122 -158.08 289.936 -156.548 290.882C-156.17 291.115 -155.753 291.3 -155.289 291.394C-152.996 291.922 -150.714 290.51 -150.186 288.217L-149.972 287.397C-149.553 285.576 -150.37 283.725 -151.875 282.796C-152.26 282.558 -152.693 282.4 -153.134 282.284ZM239.061 502.409L238.454 503.005C236.806 504.68 236.878 507.307 238.545 508.969C238.773 509.192 239.03 509.369 239.302 509.537C240.96 510.561 243.193 510.31 244.634 508.883L245.135 508.368C246.776 506.689 246.756 503.993 245.077 502.351C244.849 502.128 244.588 501.912 244.323 501.748C242.679 500.733 240.483 500.952 239.061 502.409ZM-145.169 257.034C-147.374 256.258 -149.819 257.386 -150.607 259.61L-150.894 260.431C-151.591 262.346 -150.8 264.446 -149.136 265.474C-148.891 265.625 -148.601 265.749 -148.316 265.852C-146.085 266.644 -143.677 265.502 -142.878 263.275L-142.605 262.492C-141.921 260.569 -142.678 258.472 -144.355 257.436C-144.607 257.28 -144.873 257.162 -145.169 257.034ZM255.962 483.273L255.439 483.958C253.982 485.797 254.305 488.478 256.155 489.932L256.556 490.216C258.366 491.334 260.789 490.925 262.135 489.22L262.654 488.542C264.104 486.699 263.782 484.018 261.939 482.568L261.533 482.29C259.717 481.168 257.323 481.559 255.962 483.273ZM-134.403 232.854C-136.523 231.838 -139.054 232.702 -140.098 234.823L-140.475 235.598C-141.422 237.56 -140.726 239.949 -138.903 241.075L-138.52 241.284C-136.41 242.303 -133.849 241.448 -132.825 239.315L-132.451 238.575C-131.481 236.591 -132.196 234.19 -134.026 233.06L-134.403 232.854ZM270.333 462.777L269.886 463.471C268.649 465.474 269.251 468.089 271.241 469.345C273.23 470.574 275.87 469.961 277.115 467.991L277.573 467.248C278.818 465.232 278.189 462.618 276.186 461.382C274.178 460.141 271.578 460.761 270.333 462.777ZM-126.866 211.352L-127.325 212.094C-128.585 214.091 -127.986 216.695 -125.969 217.996C-124 219.212 -121.385 218.611 -120.147 216.637L-119.709 215.927C-118.422 213.947 -119.015 211.319 -121.012 210.03C-123.114 208.732 -125.604 209.383 -126.866 211.352ZM288.194 439.507C286.102 438.445 283.552 439.297 282.481 441.401L282.103 442.148C281.114 444.12 281.801 446.522 283.67 447.677L283.975 447.865C286.067 448.928 288.629 448.101 289.693 445.993L290.098 445.217C291.085 443.235 290.42 440.855 288.571 439.713L288.194 439.507ZM-111.102 189.489L-111.657 190.181C-113.134 192.008 -112.839 194.69 -110.994 196.151L-110.576 196.454C-108.767 197.572 -106.392 197.197 -105.037 195.507L-104.499 194.859C-103.029 193.028 -103.3 190.351 -105.125 188.858L-105.544 188.572C-107.36 187.45 -109.746 187.799 -111.102 189.489ZM298.542 414.639C296.343 413.84 293.904 414.971 293.09 417.18L292.797 417.951C292.083 419.892 292.864 421.949 294.542 422.985C294.794 423.141 295.054 423.283 295.329 423.371C297.536 424.203 300.012 423.011 300.814 420.823L301.063 420.107C301.79 418.175 301.007 416.061 299.33 415.025C299.084 414.874 298.82 414.738 298.542 414.639ZM-93.0088 169.551L-93.6153 170.147C-95.2965 171.802 -95.2962 174.486 -93.6724 176.157C-93.4058 176.422 -93.1453 176.638 -92.8735 176.806C-91.2292 177.822 -89.048 177.612 -87.6546 176.201L-87.0416 175.609C-85.3671 173.95 -85.3311 171.252 -86.9911 169.595C-87.2378 169.342 -87.4983 169.126 -87.79 168.946C-89.4077 167.947 -91.5833 168.133 -93.0088 169.551ZM304.7 390.151C302.401 389.601 300.11 390.998 299.56 393.268L299.359 394.097C298.891 395.923 299.713 397.796 301.237 398.737C301.602 398.963 302.019 399.147 302.447 399.255C304.744 399.822 307.042 398.43 307.615 396.137L307.824 395.295C308.268 393.463 307.442 391.597 305.937 390.668C305.559 390.434 305.131 390.252 304.7 390.151ZM-72.7436 151.76L-73.4147 152.298C-75.2911 153.75 -75.5981 156.427 -74.1477 158.275C-73.8308 158.681 -73.4433 159.003 -73.019 159.265C-71.5537 160.17 -69.6244 160.116 -68.1626 158.995L-67.4915 158.457C-65.6473 157.013 -65.3163 154.341 -66.7841 152.492C-67.0877 152.093 -67.4629 151.752 -67.8806 151.494C-69.3524 150.585 -71.3083 150.623 -72.7436 151.76ZM308.463 365.905C306.121 365.604 303.988 367.263 303.682 369.583L303.582 370.383C303.353 372.119 304.181 373.729 305.58 374.593C306.077 374.9 306.633 375.097 307.241 375.18C309.579 375.488 311.706 373.852 312.019 371.536L312.14 370.658C312.36 368.953 311.528 367.349 310.155 366.502C309.658 366.195 309.08 365.975 308.463 365.905ZM-50.6019 136.374L-51.347 136.839C-53.3517 138.083 -53.9654 140.708 -52.7281 142.708C-52.3665 143.28 -51.8981 143.752 -51.3611 144.084C-50.0218 144.911 -48.2796 144.952 -46.8783 144.077L-46.1579 143.652C-44.1573 142.415 -43.5195 139.795 -44.7635 137.791C-45.1102 137.21 -45.5811 136.727 -46.1381 136.383C-47.4508 135.572 -49.1808 135.511 -50.6019 136.374ZM309.806 339.469C307.47 339.455 305.54 341.349 305.519 343.681L305.5 344.484C305.481 346.057 306.284 347.441 307.523 348.207C308.153 348.596 308.886 348.819 309.675 348.831C312.012 348.873 313.957 347.015 314.005 344.682L314.022 343.795C314.033 342.235 313.222 340.864 311.995 340.106C311.365 339.717 310.616 339.493 309.806 339.469ZM-26.8686 123.601L-27.6661 123.987C-29.7894 124.993 -30.6919 127.522 -29.6993 129.637C-29.3391 130.419 -28.7683 131.037 -28.0854 131.458C-26.8987 132.191 -25.3831 132.303 -24.0334 131.69L-23.2803 131.33C-21.1372 130.337 -20.2347 127.808 -21.215 125.673C-21.5793 124.898 -22.1434 124.284 -22.8329 123.858C-24.0197 123.125 -25.5188 122.987 -26.8686 123.601ZM308.207 313.066C305.869 313.307 304.17 315.39 304.408 317.735L304.485 318.543C304.618 319.916 305.391 321.081 306.498 321.764C307.248 322.227 308.153 322.466 309.106 322.377C311.443 322.181 313.162 320.11 312.96 317.768L312.876 316.865C312.739 315.516 311.952 314.343 310.864 313.672C310.109 313.205 309.184 312.982 308.207 313.066ZM-1.85011 113.581L-2.68627 113.852C-4.91328 114.611 -6.09231 117.024 -5.35513 119.257C-5.00546 120.233 -4.35375 121.001 -3.5449 121.501C-2.49737 122.148 -1.19947 122.345 0.047887 121.897L0.839566 121.654C3.07322 120.899 4.26552 118.494 3.52424 116.268C3.1935 115.276 2.55914 114.509 1.74366 114.006C0.689486 113.355 -0.61249 113.164 -1.85011 113.581ZM303.677 287.004C301.384 287.484 299.907 289.741 300.403 292.053L300.584 292.843C300.812 294.046 301.553 295.026 302.508 295.615C303.396 296.164 304.485 296.388 305.602 296.152C307.901 295.676 309.387 293.434 308.904 291.13L308.725 290.278C308.461 289.089 307.764 288.127 306.809 287.538C305.914 286.985 304.782 286.771 303.677 287.004ZM24.0872 106.419L23.2696 106.601C20.9578 107.097 19.5211 109.378 20.029 111.67C20.2732 112.847 20.9828 113.789 21.9442 114.382C22.8392 114.935 23.9671 115.156 25.0957 114.9L25.9143 114.746C28.2062 114.238 29.6561 111.965 29.1564 109.66C28.8974 108.492 28.2027 107.541 27.2479 106.951C26.3463 106.394 25.2225 106.168 24.0872 106.419ZM296.226 261.594C294.004 262.328 292.793 264.749 293.548 266.983L293.818 267.791C294.14 268.768 294.787 269.544 295.609 270.051C296.644 270.69 297.941 270.887 299.203 270.476C301.429 269.734 302.649 267.328 301.894 265.095L301.632 264.273C301.293 263.295 300.641 262.498 299.825 261.994C298.798 261.36 297.481 261.178 296.226 261.594ZM50.7193 102.195L49.8376 102.274C47.5072 102.547 45.8069 104.648 46.0589 106.983C46.2125 108.351 46.985 109.487 48.0525 110.147C48.8348 110.63 49.7794 110.865 50.7378 110.752L51.569 110.652C53.8947 110.43 55.6042 108.344 55.3629 106.006C55.2308 104.634 54.4598 103.48 53.3725 102.808C52.61 102.337 51.6762 102.099 50.7193 102.195ZM286.009 237.177C283.866 238.171 282.947 240.681 283.948 242.828L284.288 243.597C284.652 244.371 285.223 244.989 285.926 245.424C287.093 246.144 288.583 246.296 289.933 245.682C292.064 244.708 292.999 242.172 292.018 240.037L291.654 239.262C291.286 238.449 290.722 237.835 290.033 237.409C288.866 236.688 287.353 236.542 286.009 237.177ZM77.6335 100.985L76.7406 100.992C74.402 100.968 72.4851 102.87 72.4711 105.206C72.4579 106.755 73.2639 108.105 74.4838 108.858C75.1336 109.259 75.8939 109.482 76.6893 109.469L77.5203 109.488C79.8788 109.525 81.8007 107.644 81.827 105.288C81.8361 103.745 81.049 102.38 79.8092 101.614C79.1728 101.221 78.4166 100.992 77.6335 100.985ZM273.091 214.078C271.072 215.286 270.459 217.911 271.672 219.906L272.092 220.605C272.454 221.204 272.949 221.693 273.526 222.049C274.819 222.848 276.513 222.923 277.932 222.078C279.932 220.886 280.605 218.269 279.406 216.265L278.929 215.467C278.575 214.882 278.104 214.399 277.547 214.055C276.241 213.248 274.492 213.203 273.091 214.078ZM104.493 102.8L103.631 102.698C101.294 102.418 99.18 104.062 98.8852 106.407C98.6803 108.103 99.5165 109.701 100.889 110.548C101.393 110.859 101.973 111.062 102.601 111.157L103.419 111.241C105.764 111.553 107.897 109.894 108.196 107.569C108.403 105.856 107.573 104.263 106.194 103.411C105.704 103.108 105.129 102.882 104.493 102.8ZM257.631 192.56C255.787 194.003 255.463 196.679 256.907 198.523L257.418 199.178C257.736 199.612 258.124 199.962 258.542 200.22C260.014 201.129 261.943 201.075 263.377 199.955C265.241 198.523 265.585 195.86 264.15 194.002L263.615 193.297C263.305 192.894 262.912 192.551 262.494 192.293C261.016 191.38 259.097 191.432 257.631 192.56ZM131.006 107.652L130.16 107.45C127.854 106.897 125.553 108.324 125.023 110.607C124.604 112.427 125.414 114.274 126.919 115.203C127.304 115.441 127.714 115.621 128.185 115.719L128.982 115.927C131.28 116.477 133.569 115.069 134.132 112.807C134.583 110.951 133.747 109.116 132.215 108.17C131.851 107.945 131.433 107.761 131.006 107.652ZM239.874 172.937C238.205 174.572 238.169 177.27 239.807 178.932L240.398 179.563C240.646 179.798 240.927 180.027 241.212 180.203C242.836 181.206 244.973 181.023 246.413 179.641C248.09 177.993 248.119 175.291 246.485 173.622L245.901 172.996C245.642 172.763 245.361 172.535 245.076 172.359C243.458 171.36 241.295 171.526 239.874 172.937ZM156.769 115.467L155.953 115.174C153.758 114.368 151.302 115.526 150.523 117.737C149.813 119.643 150.589 121.753 152.273 122.793C152.518 122.944 152.791 123.067 153.067 123.182L153.864 123.464C156.056 124.259 158.502 123.132 159.31 120.92C160.017 119.003 159.241 116.893 157.557 115.853C157.312 115.702 157.048 115.566 156.769 115.467ZM219.992 155.465C218.498 157.291 218.786 159.969 220.623 161.442L221.255 161.961L221.717 162.31C223.501 163.412 225.874 163.055 227.243 161.4C228.744 159.579 228.482 156.889 226.654 155.385L225.988 154.846L225.53 154.535C223.733 153.426 221.354 153.779 219.992 155.465ZM181.528 126.142L180.736 125.763C178.643 124.717 176.078 125.579 175.046 127.68C174.064 129.656 174.756 132.034 176.612 133.181L176.959 133.377L177.705 133.755C179.794 134.807 182.351 133.959 183.415 131.85C184.397 129.874 183.697 127.463 181.847 126.321L181.528 126.142ZM198.281 140.317C197.024 142.307 197.593 144.93 199.578 146.21L200.341 146.709C202.31 147.925 204.897 147.325 206.149 145.387C207.425 143.409 206.85 140.782 204.88 139.493L203.951 138.891C202.108 137.753 199.512 138.412 198.281 140.317ZM243.081 439.086L242.542 439.751C241.048 441.577 241.323 444.246 243.137 445.743L243.594 446.071C245.391 447.18 247.751 446.815 249.133 445.141L249.66 444.495C251.153 442.67 250.898 439.984 249.066 438.487L248.605 438.165C246.835 437.072 244.444 437.428 243.081 439.086ZM90.7906 463.493L89.9508 463.533C87.5972 463.636 85.7848 465.622 85.8842 467.982C85.9283 469.438 86.7354 470.697 87.9023 471.417C88.6117 471.855 89.4455 472.077 90.3201 472.04L91.1855 471.989C93.5416 471.896 95.3581 469.904 95.2357 467.566C95.1651 466.094 94.3753 464.836 93.2283 464.128C92.5189 463.69 91.6826 463.457 90.7906 463.493Z" fill="#DAE2EF"/>
</g>
<defs>
<clipPath id="clip0_539_13529">
<rect width="498.513" height="484.27" fill="white" transform="matrix(0.525459 -0.850819 -0.850819 -0.525459 147.038 678.609)"/>
</clipPath>
</defs>
</svg>
