<svg width="250" height="57" viewBox="0 0 250 57" fill="none" xmlns="http://www.w3.org/2000/svg">
<path d="M39.6277 15.8927H15.4502V51.9485H22.0284V22.4632H39.6277V15.8927ZM133.756 3.875H127.181V51.9485H133.756V3.875ZM114.024 15.8927V20.2821C114.024 20.2821 111.938 17.4998 107.802 15.9965C97.8895 12.5808 87.0804 17.8349 83.6593 27.7318C80.2382 37.6287 85.5006 48.4207 95.4132 51.8364C99.4267 53.2194 103.789 53.2194 107.802 51.8364C111.938 50.3359 114.019 47.5536 114.024 47.5481V51.9403H120.6V15.8899L114.024 15.8927ZM101.615 46.474C94.6691 46.474 89.038 40.8518 89.038 33.9165C89.038 26.9812 94.6691 21.359 101.615 21.359C108.562 21.359 114.193 26.9812 114.193 33.9165C114.193 40.8518 108.562 46.474 101.615 46.474ZM191.183 23.4007C189.075 18.4154 184.435 14.9661 178.558 14.9661C173.817 14.9423 169.384 17.3084 166.77 21.2579C164.63 17.456 160.89 14.9661 155.897 14.9661C152.073 14.9661 149.053 16.5623 146.915 19.0877V15.8954H140.334V51.9485H146.913V30.2363C146.913 28.5691 147.137 27.2626 147.548 26.2951C149.29 22.1878 154.037 20.2684 158.151 22.008C160.086 22.8261 161.626 24.3636 162.445 26.2951C162.856 27.2626 163.08 28.5691 163.08 30.2363V51.9485H169.658V30.2363C169.658 28.5691 169.883 27.2626 170.294 26.2951C172.036 22.1878 176.783 20.2684 180.897 22.008C182.832 22.8261 184.372 24.3636 185.191 26.2951C185.602 27.2626 185.826 28.5691 185.826 30.2363V51.9485H192.401V31.2694C192.401 28.0771 191.972 25.2838 191.175 23.3979L191.183 23.4007ZM73.6738 20.3887C66.3647 13.1541 53.8736 13.1541 46.5727 20.3887C39.3238 27.6835 39.3238 40.1576 46.5727 47.447C50.2218 51.0629 55.1712 52.875 60.1233 52.875C65.4696 52.875 70.8132 51.0684 74.7579 47.447C75.8803 46.4029 76.8356 45.244 77.6323 44.0086L71.7193 40.6004C71.1937 41.4204 70.5604 42.1802 69.8195 42.8799C67.2052 45.2768 63.6656 46.474 60.1287 46.474C56.8465 46.474 53.567 45.2768 51.1498 42.8799C49.5193 41.219 48.3904 39.1332 47.8922 36.8614H78.8778C79.7429 30.9934 78.0265 24.7618 73.6766 20.3887M47.8894 30.9797C48.3876 28.7079 49.5166 26.6222 51.1471 24.9613C55.9869 20.1673 64.2596 20.1701 69.0995 24.9613C70.7336 26.6195 71.8631 28.7064 72.3571 30.9797H47.8894ZM229.029 20.3887C221.725 13.1541 209.232 13.1541 201.928 20.3887C194.682 27.6835 194.682 40.1576 201.928 47.447C205.58 51.0629 210.529 52.875 215.481 52.875C220.828 52.875 226.171 51.0684 230.116 47.447C231.238 46.4029 232.194 45.244 232.99 44.0086L227.077 40.6004C226.552 41.4204 225.918 42.1802 225.177 42.8799C222.563 45.2768 219.024 46.474 215.487 46.474C212.204 46.474 208.925 45.2768 206.508 42.8799C204.877 41.219 203.748 39.1332 203.25 36.8614H234.233C235.098 30.9934 233.382 24.7618 229.032 20.3887M203.25 30.9797C203.748 28.7079 204.877 26.6222 206.508 24.9613C211.345 20.1673 219.62 20.1701 224.457 24.9613C226.092 26.6195 227.221 28.7063 227.715 30.9797H203.25Z" fill="#000001"/>
</svg>
