<svg width="250" height="39" viewBox="0 0 250 39" fill="none" xmlns="http://www.w3.org/2000/svg">
<g clip-path="url(#clip0_273_6834)">
<path d="M9.5 10.35C9.325 9.625 9.375 8.875 9.475 8.475C9.725 7.325 10.5 6.075 12.75 6.075C14.85 6.075 16.075 7.375 16.075 9.325C16.075 9.975 16.075 11.525 16.075 11.525H25V9.025C24.975 1.25 17.95 0 12.9 0C6.55 0 1.375 2.1 0.425 7.95C0.175 9.55 0.125 10.95 0.5 12.775C2.05 20.075 14.75 22.2 16.6 26.825C16.95 27.675 16.85 28.8 16.675 29.475C16.375 30.675 15.575 31.9 13.175 31.9C10.95 31.9 9.6 30.6 9.6 28.65L9.575 25.2H0V27.925C0 35.925 6.275 38.325 13 38.325C19.45 38.325 24.75 36.125 25.625 30.15C26.05 27.075 25.725 25.05 25.575 24.3C24.075 16.75 10.525 14.525 9.5 10.35ZM125.725 10.45C125.575 9.75 125.6 9 125.7 8.6C125.95 7.45 126.725 6.2 128.95 6.2C131.025 6.2 132.225 7.475 132.225 9.425C132.225 10.075 132.225 11.6 132.225 11.6H141.025V9.1C141.025 1.4 134.125 0.2 129.125 0.2C122.825 0.2 117.7 2.275 116.75 8.075C116.5 9.65 116.45 11.05 116.825 12.85C118.35 20.075 130.925 22.175 132.75 26.75C133.075 27.625 132.975 28.725 132.825 29.375C132.55 30.575 131.75 31.75 129.375 31.75C127.15 31.75 125.8 30.475 125.8 28.55V25.125H116.325V27.85C116.325 35.75 122.525 38.125 129.175 38.125C135.55 38.125 140.825 35.95 141.675 30.025C142.075 26.975 141.775 24.975 141.6 24.225C140.15 16.8 126.75 14.575 125.725 10.45ZM206.875 29.925L198.475 1.15H185.2V36.5H193.975L193.475 6.8L202.5 36.5H215.225V1.15H206.4L206.875 29.925ZM38.275 1.15L31.65 36.9H41.3L46.3 3.825L51.175 36.9H60.75L54.15 1.15H38.275ZM92.25 1.15L87.75 29.075L83.25 1.15H68.675L67.9 36.9H76.825L77.075 3.825L83.225 36.9H92.25L98.4 3.825L98.65 36.9H107.6L106.8 1.15H92.25ZM175.3 1.15H166.25V27.6C166.275 28.05 166.25 28.575 166.175 28.95C165.975 29.85 165.225 31.55 162.75 31.55C160.3 31.55 159.525 29.85 159.35 28.95C159.25 28.575 159.25 28.05 159.25 27.6V1.15H150.225V26.75C150.225 27.4 150.275 28.75 150.3 29.125C150.925 35.8 156.175 37.975 162.75 37.975C169.325 37.975 174.6 35.8 175.225 29.125C175.275 28.775 175.35 27.425 175.3 26.75V1.15ZM237.35 16.825V22.025H241.025V27.2C241.025 27.65 241 28.15 240.925 28.55C240.775 29.525 239.875 31.15 237.275 31.15C234.7 31.15 233.8 29.5 233.625 28.55C233.55 28.15 233.525 27.65 233.525 27.2V10.875C233.525 10.3 233.575 9.675 233.675 9.175C233.85 8.3 234.625 6.6 237.225 6.6C239.95 6.6 240.65 8.4 240.8 9.175C240.9 9.7 240.9 10.55 240.9 10.55V12.525H249.9V11.35C249.9 11.35 249.95 10.125 249.825 8.975C249.15 2.275 243.625 0.15 237.3 0.15C230.95 0.15 225.55 2.3 224.75 8.975C224.675 9.575 224.575 10.675 224.575 11.35V26.375C224.575 27.025 224.6 27.525 224.725 28.725C225.3 35.25 230.975 37.55 237.275 37.55C243.625 37.55 249.25 35.25 249.85 28.725C249.95 27.525 249.975 27.025 249.975 26.375V16.825H237.35Z" fill="#1428A0"/>
</g>
<defs>
<clipPath id="clip0_273_6834">
<rect width="250" height="38.3" fill="white"/>
</clipPath>
</defs>
</svg>
