<svg width="566" height="368" viewBox="0 0 566 368" fill="none" xmlns="http://www.w3.org/2000/svg">
<path fill-rule="evenodd" clip-rule="evenodd" d="M501.794 182.248L502.272 183.053C503.546 185.398 506.475 186.265 508.828 184.973C510.429 184.106 511.323 182.443 511.323 180.744C511.323 179.957 511.137 179.151 510.73 178.417L510.252 177.559C508.952 175.214 506.023 174.374 503.696 175.674C502.095 176.541 501.21 178.196 501.21 179.895C501.21 180.691 501.387 181.478 501.794 182.248ZM535.069 181.036C535.069 183.115 536.388 185.088 538.449 185.734C540.997 186.512 543.669 185.203 544.456 182.655L544.74 181.744C545.536 179.204 544.12 176.488 541.572 175.692C539.033 174.896 536.317 176.311 535.521 178.859L535.299 179.576C535.149 180.063 535.069 180.549 535.069 181.036ZM347.699 185.69L348.513 186.22C350.734 187.671 353.733 187.043 355.193 184.823C355.724 184.009 355.98 183.089 355.98 182.168C355.98 180.594 355.21 179.063 353.786 178.125L352.945 177.559C350.707 176.134 347.699 176.771 346.275 179.01C345.735 179.833 345.478 180.744 345.478 181.638C345.478 183.212 346.275 184.77 347.699 185.69ZM348.256 367.424C349.681 369.698 352.689 370.353 354.936 368.919L355.794 368.362C357.219 367.451 358.015 365.893 358.015 364.31C358.015 363.398 357.758 362.478 357.219 361.691C355.768 359.444 352.786 358.815 350.548 360.266L349.76 360.771C348.309 361.691 347.513 363.248 347.513 364.849C347.513 365.743 347.752 366.637 348.256 367.424ZM321.254 173.613L322.148 173.896C324.696 174.666 327.421 173.232 328.19 170.684C328.341 170.207 328.412 169.747 328.412 169.251C328.412 167.199 327.067 165.288 325.005 164.651L323.988 164.341C321.431 163.607 318.759 165.058 317.989 167.623C317.866 168.066 317.795 168.517 317.795 168.977C317.795 171.065 319.166 173.002 321.254 173.613ZM317.255 375.944C317.972 378.51 320.652 379.987 323.218 379.271L324.209 378.97C326.306 378.359 327.677 376.448 327.677 374.36C327.677 373.9 327.598 373.44 327.474 372.989C326.704 370.406 324.032 368.955 321.458 369.724L320.564 369.981C318.458 370.591 317.052 372.502 317.052 374.608C317.052 375.042 317.131 375.502 317.255 375.944ZM292.058 169.517H293.438C296.083 169.534 298.277 167.393 298.304 164.668C298.304 162.049 296.163 159.891 293.535 159.855H292.058C289.386 159.855 287.218 162.014 287.218 164.668C287.218 167.349 289.386 169.517 292.058 169.517ZM286.891 378.687C286.891 381.332 289.032 383.526 291.704 383.526L292.695 383.553C295.375 383.553 297.437 381.385 297.437 378.713C297.437 376.033 295.172 373.874 292.491 373.874H291.757C289.076 373.874 286.917 376.015 286.891 378.687ZM257.314 170.481C258.075 173.029 260.755 174.48 263.304 173.737L264.25 173.463C266.329 172.843 267.63 170.968 267.63 168.906C267.63 168.446 267.586 167.959 267.426 167.499C266.692 164.951 263.941 163.5 261.366 164.244L260.579 164.465C258.464 165.075 257.102 167.013 257.102 169.11C257.102 169.534 257.19 170.021 257.314 170.481ZM260.216 378.811L261.216 379.12C263.781 379.855 266.453 378.386 267.196 375.802C267.329 375.378 267.4 374.918 267.4 374.458C267.4 372.37 266.029 370.432 263.914 369.822L263.02 369.565C260.446 368.804 257.774 370.229 256.987 372.803C256.854 373.263 256.783 373.715 256.783 374.183C256.783 376.271 258.137 378.174 260.216 378.811ZM230.258 184.495C231.709 186.734 234.691 187.371 236.929 185.92L237.752 185.407C239.15 184.495 239.911 182.991 239.911 181.434C239.911 180.514 239.654 179.603 239.124 178.789C237.673 176.515 234.611 175.931 232.373 177.364L231.683 177.815C230.259 178.736 229.471 180.284 229.471 181.868C229.471 182.761 229.728 183.681 230.258 184.495ZM231.382 365.389L232.24 365.947C234.488 367.38 237.469 366.716 238.92 364.478C239.424 363.655 239.69 362.761 239.69 361.877C239.69 360.293 238.894 358.745 237.443 357.789L236.655 357.294C234.434 355.843 231.435 356.444 229.984 358.692C229.445 359.506 229.188 360.426 229.188 361.337C229.188 362.921 229.958 364.442 231.382 365.389ZM208.228 205.561C210.237 207.286 213.289 207.065 215.023 205.057L215.634 204.331C216.448 203.42 216.863 202.279 216.863 201.155C216.863 199.801 216.306 198.474 215.209 197.51C213.192 195.758 210.157 195.953 208.379 197.97L207.715 198.757C206.928 199.651 206.539 200.766 206.539 201.889C206.539 203.243 207.105 204.588 208.228 205.561ZM207.459 344.368L208.149 345.164C209.901 347.172 212.962 347.385 214.979 345.624C216.067 344.651 216.633 343.333 216.633 341.979C216.633 340.864 216.218 339.705 215.43 338.794L214.82 338.104C213.086 336.069 210.033 335.839 208.016 337.573C206.901 338.511 206.309 339.864 206.309 341.236C206.309 342.333 206.698 343.456 207.459 344.368ZM192.967 231.953C195.409 233.05 198.257 231.979 199.354 229.555L199.788 228.67C200.071 228.007 200.23 227.343 200.23 226.653C200.23 224.822 199.178 223.061 197.399 222.274C194.957 221.15 192.1 222.221 191.003 224.671L190.569 225.565C190.286 226.193 190.135 226.883 190.135 227.547C190.135 229.378 191.206 231.13 192.967 231.953ZM190.436 317.551L190.852 318.445C191.976 320.86 194.825 321.931 197.267 320.807C199.027 320.02 200.071 318.259 200.071 316.428C200.071 315.764 199.938 315.074 199.638 314.41L199.231 313.526C198.107 311.101 195.258 310.031 192.834 311.155C191.056 311.942 190.012 313.694 190.012 315.534C190.012 316.198 190.135 316.888 190.436 317.551ZM185.853 261.583C188.481 261.963 190.923 260.096 191.277 257.46L191.418 256.557L191.489 255.823C191.489 253.478 189.782 251.408 187.384 251.054C184.739 250.647 182.261 252.461 181.881 255.08L181.73 256.159L181.677 256.787C181.677 259.158 183.411 261.246 185.853 261.583ZM181.677 286.904L181.81 287.921C182.191 290.567 184.641 292.407 187.278 292.026C189.702 291.69 191.436 289.593 191.436 287.267L191.383 286.568L191.259 285.621C190.905 282.984 188.481 281.118 185.836 281.48C183.411 281.808 181.624 283.86 181.624 286.24L181.677 286.904ZM400.536 368.813C402.571 370.538 405.605 370.308 407.357 368.3L407.994 367.539C408.79 366.619 409.171 365.522 409.171 364.398C409.171 363.018 408.587 361.673 407.472 360.735C405.428 359.001 402.394 359.231 400.668 361.266L400.023 362.001C399.235 362.894 398.855 364.018 398.855 365.141C398.855 366.495 399.439 367.84 400.536 368.813ZM377.709 391.524C379.311 393.674 382.345 394.081 384.486 392.471L385.3 391.834C386.521 390.896 387.167 389.463 387.167 388.012C387.167 386.994 386.831 385.95 386.168 385.057C384.54 382.969 381.487 382.562 379.39 384.216L378.656 384.783C377.373 385.72 376.745 387.145 376.745 388.622C376.745 389.64 377.046 390.657 377.709 391.524ZM379.992 158.192L380.779 158.767C382.92 160.342 385.955 159.855 387.503 157.714C388.14 156.847 388.459 155.856 388.459 154.856C388.459 153.379 387.76 151.901 386.468 150.955L385.654 150.38C383.487 148.796 380.452 149.3 378.904 151.477C378.293 152.317 377.984 153.308 377.984 154.273C377.984 155.777 378.691 157.254 379.992 158.192ZM351.291 406.503C352.441 408.927 355.325 409.945 357.714 408.794L358.634 408.37C360.36 407.547 361.359 405.822 361.359 404.035C361.359 403.318 361.2 402.61 360.873 401.929C359.723 399.531 356.821 398.505 354.423 399.682L353.583 400.089C351.822 400.903 350.804 402.663 350.804 404.442C350.804 405.158 350.964 405.848 351.291 406.503ZM349.69 141.523L350.548 141.904C352.972 142.992 355.83 141.922 356.918 139.48C357.228 138.843 357.352 138.153 357.352 137.489C357.352 135.649 356.281 133.897 354.503 133.083L353.556 132.676C351.105 131.605 348.265 132.729 347.186 135.171C346.938 135.79 346.779 136.445 346.779 137.082C346.779 138.967 347.876 140.727 349.69 141.523ZM322.325 415.731C322.935 418.323 325.563 419.907 328.164 419.296L329.137 419.04C331.322 418.5 332.8 416.545 332.8 414.351C332.8 413.997 332.773 413.59 332.667 413.209C332.03 410.608 329.411 409.024 326.81 409.67L325.89 409.9C323.669 410.431 322.192 412.386 322.192 414.581C322.192 414.97 322.218 415.35 322.325 415.731ZM317.441 132.552L318.361 132.756C320.962 133.304 323.528 131.676 324.121 129.057C324.191 128.73 324.218 128.376 324.218 128.013C324.218 125.793 322.687 123.811 320.422 123.324L319.405 123.094C316.804 122.563 314.229 124.244 313.698 126.837C313.628 127.173 313.601 127.509 313.601 127.837C313.601 130.084 315.176 132.092 317.441 132.552ZM292.111 418.757C292.19 421.429 294.429 423.525 297.109 423.446L298.074 423.402C300.675 423.322 302.736 421.154 302.736 418.403C302.63 415.731 300.392 413.669 297.72 413.74L296.773 413.767C294.146 413.873 292.111 416.058 292.111 418.757ZM280.087 125.439C280.264 128.111 282.582 130.128 285.227 129.916L286.201 129.871C288.74 129.694 290.704 127.58 290.704 125.058L290.686 124.731C290.5 122.05 288.218 120.033 285.564 120.21L284.546 120.299C281.989 120.475 280.061 122.563 280.087 125.439ZM265.799 421.154L266.789 421.331C269.417 421.791 271.912 420.013 272.372 417.385C272.399 417.102 272.416 416.846 272.416 416.571C272.416 414.253 270.762 412.218 268.4 411.803L267.48 411.652C264.852 411.192 262.33 412.953 261.87 415.58C261.826 415.828 261.8 416.111 261.8 416.394C261.8 418.712 263.454 420.747 265.799 421.154ZM247.148 131.756C247.865 134.304 250.537 135.808 253.111 135.074L254.023 134.817C256.173 134.224 257.57 132.269 257.57 130.181C257.57 129.739 257.526 129.287 257.393 128.854C256.677 126.279 254.005 124.775 251.43 125.519L250.457 125.793C248.343 126.386 246.945 128.323 246.945 130.438C246.945 130.862 247.015 131.296 247.148 131.756ZM235.638 412.493L236.584 412.873C239.044 413.846 241.849 412.652 242.84 410.148C243.07 409.591 243.176 408.971 243.176 408.396C243.176 406.459 242.026 404.654 240.141 403.884L239.256 403.53C236.779 402.53 233.957 403.734 232.957 406.202C232.727 406.786 232.603 407.397 232.603 408.007C232.603 409.918 233.744 411.732 235.638 412.493ZM219.358 144.089C220.624 146.434 223.534 147.318 225.906 146.08L226.746 145.637C228.374 144.779 229.312 143.098 229.312 141.364C229.312 140.603 229.161 139.834 228.781 139.126C227.533 136.746 224.632 135.835 222.26 137.082L221.367 137.542C219.739 138.4 218.792 140.081 218.792 141.815C218.792 142.585 218.969 143.346 219.358 144.089ZM207.919 397.788L208.759 398.328C210.98 399.805 213.979 399.222 215.457 396.983C215.988 396.169 216.244 395.249 216.244 394.329C216.244 392.745 215.51 391.224 214.112 390.303L213.289 389.746C211.077 388.268 208.069 388.852 206.592 391.064C206.034 391.914 205.778 392.825 205.778 393.772C205.778 395.329 206.521 396.85 207.919 397.788ZM194.718 161.846C196.435 163.907 199.461 164.173 201.522 162.456L202.239 161.872C203.407 160.899 204.026 159.528 204.026 158.121C204.026 157.051 203.663 155.962 202.92 155.069C201.221 152.999 198.16 152.698 196.125 154.405L195.329 155.042C194.188 156.007 193.604 157.387 193.604 158.767C193.604 159.855 193.958 160.952 194.718 161.846ZM183.845 377.714L184.535 378.404C186.393 380.324 189.445 380.341 191.356 378.457C192.303 377.519 192.781 376.271 192.781 375.024C192.781 373.794 192.33 372.573 191.418 371.635L190.719 370.919C188.835 369.034 185.783 369.008 183.872 370.892C182.925 371.83 182.438 373.078 182.438 374.334C182.438 375.555 182.898 376.776 183.845 377.714ZM174.21 184.292C176.298 185.946 179.359 185.583 181.014 183.504L181.598 182.761C182.314 181.868 182.677 180.797 182.677 179.727C182.677 178.329 182.04 176.922 180.863 175.984C178.767 174.294 175.75 174.63 174.06 176.701L173.423 177.515C172.733 178.399 172.379 179.443 172.379 180.487C172.379 181.921 173.016 183.345 174.21 184.292ZM164.328 353.118L164.894 353.949C166.318 356.197 169.326 356.851 171.565 355.4C172.998 354.489 173.777 352.932 173.777 351.322C173.777 350.428 173.529 349.543 173.016 348.729L172.485 347.916C171.052 345.677 168.07 345.014 165.832 346.438C164.381 347.358 163.593 348.933 163.593 350.508C163.593 351.401 163.823 352.295 164.328 353.118ZM158.745 210.454C161.143 211.648 164.045 210.684 165.221 208.286L165.655 207.454C166.017 206.729 166.194 205.994 166.194 205.26C166.194 203.491 165.221 201.792 163.54 200.943C161.143 199.748 158.249 200.695 157.037 203.084L156.586 203.986C156.25 204.667 156.073 205.402 156.073 206.118C156.073 207.905 157.073 209.604 158.745 210.454ZM150.322 325.045L150.676 325.983C151.623 328.478 154.419 329.725 156.913 328.787C158.825 328.044 160.028 326.213 160.028 324.249C160.028 323.691 159.922 323.099 159.718 322.541L159.364 321.648C158.444 319.161 155.648 317.879 153.144 318.825C151.207 319.533 150.013 321.4 150.013 323.329C150.013 323.921 150.119 324.479 150.322 325.045ZM149.022 239.234C151.587 239.924 154.242 238.367 154.905 235.801L155.162 234.881C155.286 234.448 155.33 234.041 155.33 233.607C155.33 231.493 153.905 229.537 151.747 228.971C149.172 228.263 146.518 229.785 145.837 232.386L145.571 233.351C145.483 233.766 145.403 234.173 145.403 234.58C145.43 236.713 146.854 238.677 149.022 239.234ZM142.421 294.672L142.581 295.689C142.979 298.317 145.483 300.122 148.101 299.688C150.473 299.308 152.18 297.273 152.18 294.928C152.18 294.672 152.154 294.415 152.1 294.159L151.977 293.239C151.57 290.602 149.119 288.788 146.474 289.169C144.076 289.523 142.351 291.584 142.351 293.938L142.421 294.672ZM145.447 269.43C148.128 269.554 150.393 267.493 150.517 264.821L150.57 263.618C150.57 261.069 148.579 258.928 146.013 258.796C143.342 258.654 141.068 260.689 140.917 263.334L140.864 264.529C140.864 267.103 142.855 269.298 145.447 269.43ZM450.187 370.105C452.479 371.476 455.46 370.742 456.841 368.45L457.345 367.583C457.805 366.822 458.035 365.955 458.035 365.141C458.035 363.487 457.168 361.886 455.637 360.957C453.346 359.612 450.391 360.373 449.037 362.673L448.559 363.487C448.073 364.248 447.86 365.115 447.86 365.955C447.86 367.583 448.683 369.193 450.187 370.105ZM449.948 183.035L450.479 183.823C451.983 186.035 454.991 186.601 457.203 185.097C458.584 184.186 459.318 182.655 459.318 181.098C459.318 180.16 459.035 179.213 458.477 178.399L457.92 177.594C456.416 175.374 453.408 174.807 451.214 176.311C449.842 177.258 449.108 178.789 449.108 180.319C449.108 181.257 449.382 182.195 449.948 183.035ZM431.873 396.346C433.908 398.071 436.969 397.841 438.677 395.806L439.34 395.037C440.101 394.125 440.473 393.028 440.473 391.931C440.473 390.56 439.898 389.189 438.748 388.242C436.713 386.508 433.652 386.791 431.944 388.826L431.333 389.543C430.546 390.454 430.183 391.586 430.183 392.674C430.183 394.046 430.741 395.399 431.873 396.346ZM430.865 152.609L431.528 153.299C433.333 155.263 436.394 155.361 438.349 153.529C439.367 152.583 439.88 151.291 439.88 149.99C439.88 148.814 439.447 147.619 438.579 146.699L437.872 145.965C436.04 144.027 432.979 143.948 431.042 145.779C430.051 146.752 429.537 148.026 429.537 149.3C429.537 150.495 429.971 151.698 430.865 152.609ZM409.94 417.235C411.666 419.243 414.718 419.5 416.735 417.766L417.505 417.102C418.62 416.164 419.177 414.82 419.177 413.466C419.177 412.342 418.806 411.219 418.009 410.307C416.249 408.29 413.223 408.06 411.179 409.794L410.471 410.405C409.348 411.369 408.79 412.723 408.79 414.103C408.79 415.191 409.171 416.315 409.94 417.235ZM402.473 126.536L403.234 127.12C405.349 128.748 408.383 128.341 410.011 126.235C410.675 125.368 411.002 124.324 411.002 123.298C411.002 121.847 410.365 120.396 409.118 119.449L408.33 118.865C406.216 117.237 403.19 117.644 401.553 119.759C400.89 120.626 400.562 121.67 400.562 122.687C400.562 124.138 401.226 125.598 402.473 126.536ZM384.947 434.301C386.318 436.593 389.299 437.31 391.573 435.903L392.405 435.399C393.909 434.505 394.732 432.895 394.732 431.267C394.732 430.426 394.502 429.559 394.015 428.772C392.635 426.48 389.662 425.764 387.362 427.17L386.557 427.675C385.044 428.568 384.23 430.17 384.23 431.807C384.23 432.638 384.46 433.505 384.947 434.301ZM377.63 110.673L378.453 111.124C380.815 112.371 383.752 111.504 385 109.142C385.398 108.416 385.575 107.629 385.575 106.868C385.575 105.134 384.663 103.48 383.035 102.586L382.142 102.135C379.771 100.879 376.869 101.772 375.621 104.143C375.232 104.86 375.055 105.621 375.055 106.382C375.055 108.116 375.975 109.797 377.63 110.673ZM357.511 447.095C358.502 449.563 361.306 450.758 363.775 449.758L364.713 449.377C366.597 448.608 367.721 446.838 367.721 444.918C367.721 444.317 367.597 443.706 367.367 443.087C366.349 440.619 363.545 439.451 361.076 440.442L360.183 440.796C358.298 441.565 357.157 443.37 357.157 445.281C357.157 445.892 357.272 446.502 357.511 447.095ZM350.504 99.0205L351.441 99.3302C353.972 100.197 356.688 98.8436 357.555 96.2955C357.732 95.7824 357.812 95.2781 357.812 94.7649C357.812 92.7566 356.538 90.8721 354.52 90.182L353.583 89.8546C351.061 89.0053 348.336 90.3678 347.469 92.907C347.292 93.4201 347.212 93.9333 347.212 94.4376C347.212 96.4459 348.486 98.3304 350.504 99.0205ZM328.341 455.27C328.925 457.862 331.526 459.517 334.127 458.933L335.083 458.711C337.33 458.216 338.834 456.208 338.834 453.996C338.834 453.66 338.807 453.306 338.737 452.943C338.144 450.351 335.551 448.696 332.95 449.28L332.013 449.51C329.765 450.023 328.235 452.005 328.235 454.217C328.235 454.58 328.261 454.916 328.341 455.27ZM321.891 91.9426L322.829 92.093C325.483 92.5177 327.881 90.7394 328.341 88.1206L328.35 88.0317C328.373 87.7938 328.394 87.5793 328.394 87.3508C328.394 85.0063 326.66 82.9448 324.289 82.5378L323.422 82.414C320.794 81.9805 318.326 83.7942 317.892 86.413C317.839 86.6607 317.839 86.9262 317.839 87.1739C317.839 89.5273 319.529 91.5622 321.891 91.9426ZM298.251 458.623C298.428 461.304 300.728 463.321 303.365 463.162L304.347 463.109C306.912 462.932 308.877 460.817 308.877 457.995C308.726 455.314 306.435 453.306 303.754 453.456L302.79 453.509C300.215 453.686 298.251 455.854 298.251 458.623ZM292.491 89.5892H293.438C296.119 89.5892 298.277 87.457 298.304 84.7762C298.304 82.1309 296.163 79.9456 293.491 79.919H292.491C289.819 79.919 287.652 82.0866 287.652 84.7585C287.652 87.4305 289.819 89.5892 292.491 89.5892ZM272.319 462.427L273.31 462.525C275.964 462.781 278.326 460.844 278.583 458.172L278.61 457.712C278.61 455.243 276.752 453.155 274.257 452.899L273.31 452.793C270.665 452.536 268.294 454.482 268.01 457.128L267.984 457.588C267.984 460.003 269.824 462.144 272.319 462.427ZM261.393 86.7669C261.729 89.4211 264.144 91.2791 266.798 90.9783L267.772 90.8455C270.205 90.5359 271.992 88.4479 271.992 86.0503L271.974 85.4486C271.638 82.8298 269.24 80.9365 266.595 81.2638L265.595 81.37C263.153 81.6708 261.366 83.7676 261.366 86.1564L261.393 86.7669ZM241.796 456.694L242.742 456.951C245.308 457.632 247.971 456.102 248.679 453.536C248.776 453.129 248.829 452.695 248.829 452.288C248.829 450.138 247.431 448.21 245.264 447.626L244.326 447.369C241.751 446.679 239.097 448.192 238.416 450.758C238.283 451.191 238.239 451.625 238.239 452.032C238.239 454.146 239.654 456.102 241.796 456.694ZM233.523 93.6502C234.293 96.2159 236.965 97.6757 239.504 96.9325L240.424 96.676C242.539 96.0655 243.945 94.1368 243.945 92.0134C243.945 91.5799 243.866 91.1552 243.742 90.6951C243.025 88.1205 240.353 86.643 237.77 87.3774L236.814 87.6605C234.7 88.271 233.346 90.2085 233.346 92.3054C233.346 92.7566 233.399 93.1901 233.523 93.6502ZM212.581 446.069L213.502 446.475C215.943 447.573 218.792 446.502 219.889 444.078C220.172 443.423 220.323 442.751 220.323 442.096C220.323 440.265 219.252 438.504 217.474 437.69L216.633 437.31C214.183 436.186 211.334 437.23 210.21 439.645C209.901 440.309 209.75 440.999 209.75 441.689C209.75 443.494 210.794 445.255 212.581 446.069ZM207.149 105.258C208.326 107.656 211.201 108.673 213.625 107.505L214.466 107.098C216.218 106.258 217.217 104.55 217.217 102.745C217.217 102.029 217.067 101.321 216.757 100.657C215.607 98.2508 212.732 97.2334 210.308 98.3924L209.423 98.8171C207.689 99.631 206.662 101.365 206.662 103.179C206.662 103.86 206.848 104.577 207.149 105.258ZM185.499 430.86L186.313 431.426C188.534 432.895 191.533 432.284 193.02 430.09C193.577 429.25 193.834 428.312 193.834 427.401C193.834 425.843 193.091 424.313 191.693 423.366L190.87 422.835C188.658 421.358 185.65 421.942 184.181 424.162C183.615 425.003 183.358 425.923 183.358 426.843C183.358 428.418 184.128 429.949 185.499 430.86ZM181.447 121.21C182.978 123.404 185.986 123.935 188.171 122.413L188.932 121.873C190.312 120.927 191.029 119.423 191.029 117.874C191.029 116.937 190.746 115.981 190.189 115.149C188.658 112.955 185.65 112.398 183.465 113.928L182.651 114.486C181.297 115.424 180.58 116.937 180.58 118.458C180.58 119.405 180.863 120.36 181.447 121.21ZM161.222 411.502L161.965 412.156C163.903 413.997 166.955 413.873 168.787 411.935C169.654 410.997 170.07 409.812 170.07 408.644C170.07 407.343 169.548 406.052 168.53 405.105L167.822 404.442C165.885 402.61 162.832 402.707 160.992 404.672C160.125 405.592 159.692 406.786 159.692 407.963C159.692 409.263 160.196 410.529 161.222 411.502ZM158.648 141.134C160.506 143.036 163.567 143.072 165.469 141.205L166.141 140.55C167.132 139.604 167.61 138.338 167.61 137.082C167.61 135.861 167.185 134.667 166.265 133.72C164.407 131.809 161.355 131.738 159.435 133.596L158.727 134.304C157.763 135.251 157.25 136.498 157.25 137.746C157.25 138.967 157.71 140.187 158.648 141.134ZM140.378 388.472L140.997 389.286C142.625 391.374 145.651 391.754 147.774 390.126C148.995 389.153 149.623 387.729 149.623 386.304C149.623 385.26 149.296 384.216 148.606 383.332L148.022 382.588C146.42 380.465 143.395 380.085 141.245 381.695C140.033 382.659 139.36 384.092 139.36 385.543C139.36 386.561 139.696 387.605 140.378 388.472ZM139.289 164.438C141.431 166.022 144.456 165.562 146.067 163.421L146.624 162.66C147.261 161.793 147.597 160.775 147.597 159.776C147.597 158.298 146.907 156.847 145.633 155.883C143.492 154.308 140.484 154.733 138.882 156.874L138.299 157.661C137.653 158.537 137.325 159.554 137.325 160.536C137.325 162.014 138.007 163.474 139.289 164.438ZM123.515 362.434L123.975 363.301C125.257 365.646 128.186 366.513 130.522 365.239C132.132 364.372 133.043 362.691 133.043 360.983C133.043 360.196 132.866 359.408 132.459 358.692L131.999 357.833C130.734 355.48 127.797 354.613 125.461 355.887C123.851 356.754 122.931 358.409 122.931 360.134C122.931 360.912 123.108 361.691 123.515 362.434ZM123.975 190.556C126.346 191.777 129.248 190.83 130.469 188.468L130.902 187.618C131.291 186.902 131.442 186.141 131.442 185.389C131.442 183.655 130.522 181.974 128.867 181.133C126.505 179.877 123.594 180.797 122.347 183.168L121.887 184.062C121.506 184.77 121.329 185.513 121.329 186.282C121.329 188.008 122.294 189.706 123.975 190.556ZM111.066 333.972L111.394 334.945C112.287 337.467 115.039 338.794 117.551 337.9C119.551 337.192 120.79 335.326 120.79 333.344C120.79 332.804 120.692 332.273 120.515 331.734L120.206 330.849C119.339 328.319 116.587 326.974 114.065 327.841C112.048 328.531 110.81 330.415 110.81 332.424C110.81 332.937 110.889 333.468 111.066 333.972ZM113.075 218.832C115.623 219.646 118.348 218.248 119.162 215.727L119.436 214.806C119.595 214.302 119.701 213.789 119.701 213.302C119.701 211.259 118.401 209.383 116.357 208.719C113.809 207.879 111.093 209.277 110.27 211.798L109.969 212.772C109.783 213.249 109.704 213.762 109.704 214.249C109.704 216.284 111.04 218.168 113.075 218.832ZM103.422 303.9L103.599 304.891C104.059 307.509 106.554 309.27 109.173 308.81C111.517 308.403 113.181 306.342 113.181 304.05C113.181 303.767 113.145 303.493 113.101 303.201L112.942 302.263C112.491 299.635 109.987 297.875 107.368 298.317C105.023 298.724 103.342 300.741 103.342 303.05C103.342 303.333 103.36 303.608 103.422 303.9ZM106.934 248.488C109.553 248.86 112.031 247.055 112.411 244.41L112.57 243.445L112.615 242.729C112.615 240.384 110.889 238.314 108.518 237.96C105.864 237.562 103.396 239.385 103.015 242.021L102.856 242.985L102.803 243.72C102.803 246.064 104.537 248.126 106.934 248.488ZM100.715 272.969L100.741 273.96C100.768 276.614 102.962 278.755 105.607 278.72C108.253 278.693 110.394 276.561 110.394 273.863V272.89C110.376 270.218 108.182 268.077 105.51 268.103C102.935 268.13 100.715 270.112 100.715 272.969ZM496.902 368.804C499.352 369.919 502.21 368.857 503.298 366.415L503.705 365.522C504.015 364.885 504.139 364.195 504.139 363.54C504.139 361.7 503.095 359.939 501.316 359.125C498.901 358.028 496.017 359.099 494.92 361.523L494.513 362.416C494.23 363.08 494.079 363.735 494.079 364.425C494.079 366.265 495.123 367.99 496.902 368.804ZM488.293 158.068L488.78 158.873C490.054 161.227 492.982 162.085 495.327 160.784C496.928 159.917 497.813 158.263 497.813 156.555C497.813 155.759 497.636 154.98 497.238 154.246L496.751 153.37C495.451 151.026 492.522 150.185 490.204 151.486C488.594 152.353 487.709 154.007 487.709 155.715C487.709 156.511 487.886 157.298 488.293 158.068ZM481.985 396.647C484.25 398.071 487.223 397.39 488.629 395.143L489.16 394.311C489.673 393.488 489.903 392.63 489.903 391.728C489.903 390.126 489.089 388.543 487.638 387.632C485.365 386.225 482.383 386.915 480.985 389.153L480.472 389.976C479.968 390.79 479.711 391.684 479.711 392.542C479.711 394.152 480.525 395.727 481.985 396.647ZM470.138 137.002L470.713 137.772C472.297 139.913 475.332 140.373 477.473 138.79C478.747 137.852 479.428 136.374 479.428 134.897C479.428 133.906 479.127 132.906 478.49 132.048L477.906 131.252C476.296 129.119 473.297 128.65 471.147 130.261C469.855 131.199 469.192 132.649 469.192 134.136C469.192 135.118 469.492 136.144 470.138 137.002ZM463.715 420.668C465.75 422.384 468.811 422.101 470.519 420.031L471.147 419.279C471.89 418.376 472.244 417.279 472.244 416.217C472.244 414.82 471.66 413.43 470.519 412.493C468.457 410.794 465.396 411.068 463.715 413.13L463.105 413.873C462.335 414.758 461.981 415.864 461.981 416.952C461.981 418.323 462.574 419.703 463.715 420.668ZM451.514 116.706L452.169 117.388C454.036 119.308 457.088 119.352 458.999 117.494C459.99 116.556 460.477 115.282 460.477 114.026C460.477 112.822 460.043 111.61 459.132 110.673L458.442 109.947C456.575 108.045 453.523 108.018 451.612 109.867C450.639 110.823 450.161 112.062 450.161 113.318C450.161 114.539 450.594 115.751 451.514 116.706ZM442.437 442.043C444.224 444.034 447.285 444.158 449.267 442.344L450.01 441.663C451.028 440.725 451.532 439.415 451.532 438.115C451.532 436.947 451.107 435.779 450.24 434.832C448.427 432.877 445.365 432.771 443.428 434.585L442.72 435.213C441.703 436.186 441.172 437.487 441.172 438.778C441.172 439.946 441.579 441.132 442.437 442.043ZM429.555 96.9591L430.316 97.5696C432.395 99.224 435.439 98.8701 437.093 96.7556C437.801 95.8886 438.137 94.8269 438.137 93.7829C438.137 92.3496 437.5 90.9252 436.306 89.9785L435.536 89.3592C433.43 87.7136 430.387 88.094 428.732 90.182C428.051 91.0756 427.715 92.1196 427.715 93.1724C427.715 94.588 428.352 96.0124 429.555 96.9591ZM418.54 460.463C420.08 462.622 423.088 463.162 425.273 461.64L426.069 461.074C427.414 460.136 428.131 458.623 428.131 457.128C428.131 456.163 427.848 455.19 427.237 454.35C425.707 452.156 422.698 451.642 420.513 453.173L419.717 453.713C418.39 454.659 417.647 456.163 417.647 457.685C417.647 458.623 417.965 459.596 418.54 460.463ZM405.172 80.2995L406.012 80.7772C408.304 82.1574 411.259 81.3877 412.612 79.0962C413.09 78.3353 413.294 77.5037 413.294 76.6543C413.294 74.9998 412.453 73.3896 410.958 72.4783L410.091 71.9652C407.799 70.6204 404.818 71.3813 403.464 73.6993C403.013 74.4602 402.801 75.3095 402.801 76.15C402.801 77.8045 403.65 79.4059 405.172 80.2995ZM392.405 475.486C393.635 477.866 396.537 478.804 398.908 477.574L399.819 477.123C401.456 476.256 402.394 474.584 402.394 472.85C402.394 472.08 402.208 471.31 401.854 470.602C400.615 468.231 397.678 467.338 395.342 468.567L394.502 468.992C392.847 469.833 391.874 471.54 391.874 473.301C391.874 474.044 392.042 474.778 392.405 475.486ZM378.806 67.0284L379.691 67.4088C382.168 68.4528 385 67.2761 386.035 64.8342C386.291 64.2237 386.424 63.5867 386.424 62.9497C386.424 61.0652 385.3 59.2869 383.469 58.4906L382.549 58.1367C380.107 57.0927 377.276 58.234 376.232 60.6759C375.975 61.3218 375.851 61.9588 375.851 62.5693C375.851 64.4538 376.948 66.2321 378.806 67.0284ZM364.518 486.979C365.403 489.483 368.181 490.801 370.676 489.881L371.649 489.553C373.586 488.846 374.807 486.979 374.807 485.024C374.807 484.466 374.701 483.9 374.498 483.36C373.604 480.839 370.826 479.574 368.313 480.494L367.42 480.795C365.456 481.502 364.235 483.36 364.235 485.351C364.235 485.882 364.314 486.448 364.518 486.979ZM350.884 57.3935L351.804 57.6236C354.379 58.3402 356.945 56.8096 357.661 54.235C357.767 53.828 357.812 53.4211 357.812 52.9964C357.812 50.8465 356.334 48.8646 354.175 48.2719L353.441 48.0772C350.831 47.3606 348.186 48.8823 347.495 51.4569C347.372 51.8993 347.319 52.2974 347.319 52.731C347.319 54.8455 348.743 56.8096 350.884 57.3935ZM335.419 494.596C335.985 497.198 338.63 498.852 341.231 498.295L342.045 498.118C344.284 497.613 345.841 495.614 345.841 493.402C345.841 493.048 345.788 492.712 345.708 492.358C345.16 489.757 342.585 488.103 339.984 488.66L339.037 488.863C336.772 489.377 335.295 491.341 335.295 493.552C335.295 493.88 335.339 494.243 335.419 494.596ZM321.944 51.5631L322.917 51.687C325.563 52.0497 327.978 50.1917 328.341 47.5375L328.394 46.9005C328.394 44.5029 326.633 42.4414 324.183 42.1141L323.245 41.9814C320.591 41.6275 318.149 43.4854 317.795 46.1397L317.759 46.7767C317.759 49.1389 319.529 51.2269 321.944 51.5631ZM305.382 498.295C305.612 500.967 307.939 502.94 310.611 502.727L311.575 502.648C314.097 502.444 316.008 500.33 316.008 497.835L315.981 497.428C315.778 494.773 313.433 492.792 310.779 493.022L309.814 493.101C307.293 493.305 305.382 495.419 305.382 497.914V498.295ZM279.804 503.081L280.777 503.134C283.423 503.258 285.688 501.223 285.847 498.295C285.847 495.747 283.838 493.606 281.255 493.482L280.299 493.42C277.619 493.305 275.354 495.34 275.23 498.189C275.23 500.781 277.185 502.957 279.804 503.081ZM251.581 48.6346C252.014 51.2534 254.509 53.0406 257.137 52.6071L258.075 52.4567C260.446 52.0674 262.074 50.0325 262.074 47.7145C262.074 47.4579 262.056 47.1836 261.994 46.9271C261.596 44.2728 259.039 42.4945 256.42 42.928L255.562 43.0785C253.182 43.4677 251.501 45.5026 251.501 47.8207C251.501 48.0949 251.537 48.3515 251.581 48.6346ZM249.21 499.392L250.209 499.569C252.828 500.055 255.332 498.321 255.81 495.694C255.863 495.384 255.889 495.11 255.889 494.809C255.889 492.535 254.253 490.5 251.935 490.067L250.997 489.881C248.369 489.403 245.848 491.137 245.37 493.765C245.29 494.066 245.264 494.349 245.264 494.65C245.264 496.941 246.892 498.958 249.21 499.392ZM221.296 56.146C222.084 58.6941 224.782 60.1185 227.33 59.3311L228.224 59.0834C230.312 58.4375 231.683 56.5088 231.683 54.4474C231.683 53.9785 231.612 53.5272 231.462 53.0406C230.719 50.4926 228.02 49.0327 225.472 49.8025L224.499 50.1033C222.411 50.7491 221.093 52.6602 221.093 54.7216C221.093 55.1817 221.137 55.6594 221.296 56.146ZM219.385 491.641L220.323 491.969C222.871 492.792 225.596 491.42 226.41 488.89C226.587 488.386 226.666 487.872 226.666 487.359C226.666 485.351 225.366 483.44 223.331 482.776L222.437 482.476C219.889 481.626 217.164 483.006 216.324 485.528C216.147 486.041 216.067 486.545 216.067 487.059C216.067 489.102 217.341 490.987 219.385 491.641ZM193.347 67.4796C194.471 69.9038 197.32 70.9743 199.761 69.8595L200.629 69.4525C202.389 68.6297 203.46 66.8956 203.46 65.0642C203.46 64.3741 203.309 63.7194 203 63.047C201.903 60.6317 199.027 59.5611 196.612 60.6759L195.709 61.0918C193.958 61.9057 192.914 63.6398 192.914 65.4712C192.914 66.1348 193.037 66.8249 193.347 67.4796ZM191.153 480.158L191.737 480.441C194.135 481.609 197.036 480.582 198.187 478.193C198.514 477.503 198.664 476.796 198.664 476.079C198.664 474.301 197.674 472.558 195.939 471.744L195.081 471.31C192.684 470.142 189.932 471.213 188.764 473.602C188.454 474.265 188.304 474.955 188.304 475.619C188.304 477.486 189.401 479.29 191.153 480.158ZM167.185 82.4671C168.61 84.7055 171.591 85.369 173.83 83.9357L174.626 83.458C176.095 82.5378 176.917 80.963 176.917 79.3528C176.917 78.468 176.661 77.601 176.174 76.787C174.75 74.5398 171.795 73.832 169.521 75.2564L168.654 75.7873C167.203 76.7074 166.416 78.2645 166.416 79.8659C166.416 80.7507 166.672 81.6443 167.185 82.4671ZM164.133 464.639L164.938 465.197C167.185 466.683 170.167 466.064 171.636 463.825C172.202 463.002 172.458 462.091 172.458 461.18C172.458 459.596 171.698 458.074 170.291 457.128L169.477 456.615C167.265 455.146 164.283 455.73 162.779 457.942C162.24 458.782 161.983 459.693 161.983 460.614C161.983 462.197 162.726 463.728 164.133 464.639ZM143.209 100.755C144.916 102.798 147.969 103.073 150.013 101.365L150.72 100.755C151.897 99.8168 152.481 98.4101 152.481 97.0387C152.481 95.9416 152.127 94.8446 151.384 93.9598C149.685 91.8895 146.624 91.6064 144.589 93.3228L143.793 93.9598C142.651 94.9154 142.068 96.269 142.068 97.6492C142.068 98.7463 142.448 99.8699 143.209 100.755ZM139.67 445.892L140.431 446.555C142.448 448.307 145.483 448.112 147.226 446.095C148.048 445.184 148.438 444.034 148.438 442.91C148.438 441.565 147.871 440.238 146.783 439.265L146.067 438.637C144.049 436.867 140.997 437.08 139.236 439.097C138.422 440.008 138.042 441.132 138.042 442.282C138.042 443.6 138.599 444.945 139.67 445.892ZM121.86 122.05C123.824 123.864 126.885 123.731 128.664 121.776L129.327 121.059C130.168 120.139 130.601 118.971 130.601 117.795C130.601 116.494 130.088 115.194 129.053 114.238C127.089 112.416 124.028 112.548 122.214 114.512L121.559 115.256C120.692 116.167 120.285 117.335 120.285 118.511C120.285 119.812 120.816 121.112 121.86 122.05ZM117.914 424.083L118.578 424.852C120.356 426.843 123.426 427.038 125.399 425.286C126.47 424.313 127.036 422.986 127.036 421.641C127.036 420.517 126.655 419.367 125.841 418.456L125.222 417.766C123.47 415.731 120.436 415.527 118.401 417.261C117.304 418.226 116.746 419.579 116.746 420.933C116.746 422.048 117.127 423.171 117.914 424.083ZM103.502 146C105.66 147.531 108.695 147.018 110.217 144.832L110.783 144.01C111.367 143.178 111.65 142.205 111.65 141.267C111.65 139.727 110.934 138.232 109.58 137.286C107.395 135.755 104.386 136.286 102.856 138.48L102.29 139.276C101.706 140.117 101.431 141.081 101.431 142.054C101.431 143.576 102.148 145.054 103.502 146ZM99.2461 399.629L99.777 400.443C101.281 402.663 104.263 403.247 106.474 401.77C107.881 400.849 108.642 399.319 108.642 397.744C108.642 396.824 108.385 395.904 107.819 395.099L107.288 394.276C105.811 392.037 102.803 391.454 100.591 392.931C99.193 393.869 98.4498 395.399 98.4498 396.957C98.4498 397.868 98.7064 398.815 99.2461 399.629ZM88.4611 172.189C90.8322 173.409 93.743 172.472 94.9551 170.092L95.424 169.251C95.7779 168.543 95.9549 167.783 95.9549 167.013C95.9549 165.288 95.017 163.607 93.3626 162.74C90.9915 161.51 88.0807 162.43 86.8332 164.801L86.3731 165.668C86.0192 166.385 85.8423 167.146 85.8423 167.88C85.8423 169.64 86.8067 171.33 88.4611 172.189ZM83.9578 372.874L84.4179 373.794C85.5857 376.192 88.4877 377.156 90.8853 375.988C92.5928 375.148 93.5572 373.414 93.5572 371.653C93.5572 370.919 93.4068 370.211 93.0706 369.521L92.6725 368.672C91.4958 366.283 88.5938 365.265 86.205 366.433C84.4886 367.283 83.4712 368.981 83.4712 370.795C83.4712 371.476 83.6481 372.219 83.9578 372.874ZM77.048 200.129C79.5783 201.022 82.3299 199.73 83.2146 197.2L83.5508 196.289C83.7543 195.758 83.8251 195.192 83.8251 194.652C83.8251 192.67 82.6041 190.812 80.6488 190.131C78.1185 189.211 75.367 190.529 74.4557 193.024L74.1195 193.971C73.9425 194.502 73.8452 195.032 73.8452 195.572C73.8452 197.563 75.0661 199.421 77.048 200.129ZM72.3854 344.35L72.695 345.288C73.5355 347.809 76.2871 349.19 78.8086 348.349C80.8258 347.659 82.0998 345.766 82.0998 343.757C82.0998 343.253 82.0202 342.749 81.8609 342.235L81.5601 341.324C80.7196 338.794 77.9946 337.423 75.4731 338.236C73.4382 338.9 72.1377 340.784 72.1377 342.819C72.1377 343.333 72.2084 343.837 72.3854 344.35ZM69.4834 229.352C72.1111 229.909 74.6503 228.237 75.2165 225.609L75.42 224.689C75.4731 224.335 75.5174 223.999 75.5174 223.672C75.5174 221.451 73.9691 219.442 71.6953 218.956C69.103 218.398 66.5284 220.053 65.971 222.645L65.741 223.654C65.6879 223.981 65.6436 224.309 65.6436 224.636C65.6436 226.883 67.2185 228.874 69.4834 229.352ZM64.7501 314.667L64.9005 315.49C65.4048 318.109 67.9351 319.843 70.554 319.33C72.872 318.87 74.4734 316.852 74.4734 314.596C74.4734 314.287 74.4557 313.986 74.3849 313.676L74.1991 312.729C73.7125 310.111 71.191 308.456 68.5898 308.96C66.2807 309.394 64.6439 311.455 64.6439 313.756C64.6439 314.057 64.697 314.366 64.7501 314.667ZM65.8648 259.309C68.5191 259.521 70.8636 257.53 71.0671 254.859L71.1379 253.885V253.505C71.1379 251.01 69.2092 248.895 66.6788 248.692C64.0334 248.488 61.6889 250.47 61.4854 253.151L61.4057 254.115V254.522C61.4057 256.991 63.3433 259.114 65.8648 259.309ZM61.0784 283.922L61.1315 284.913C61.2819 287.594 63.5734 289.629 66.2276 289.478C68.7933 289.328 70.784 287.187 70.784 284.382L70.7309 283.436C70.5805 280.755 68.3156 278.72 65.6702 278.844C63.0425 278.977 61.0784 281.224 61.0784 283.922ZM541.82 369.335C544.315 370.229 547.093 368.928 547.978 366.407L548.314 365.478C548.517 364.947 548.624 364.389 548.624 363.859C548.624 361.868 547.394 360.036 545.412 359.32C542.917 358.409 540.139 359.736 539.245 362.222L538.918 363.142C538.714 363.673 538.608 364.239 538.608 364.779C538.608 366.769 539.829 368.618 541.82 369.335ZM518.171 136.383L518.657 137.179C520.064 139.444 523.046 140.161 525.311 138.763C526.779 137.843 527.602 136.259 527.602 134.631C527.602 133.773 527.372 132.897 526.885 132.11L526.355 131.243C524.921 128.996 521.949 128.314 519.675 129.712C518.224 130.659 517.428 132.207 517.428 133.817C517.428 134.711 517.667 135.596 518.171 136.383ZM519.436 416.704C521.683 418.155 524.665 417.518 526.142 415.306L526.673 414.439C527.213 413.652 527.443 412.723 527.443 411.847C527.443 410.263 526.673 408.706 525.231 407.759C522.984 406.335 520.002 406.998 518.551 409.246L518.038 410.007C517.507 410.82 517.251 411.741 517.251 412.661C517.251 414.236 518.038 415.766 519.436 416.704ZM497.954 109.089L498.538 109.797C500.193 111.92 503.228 112.265 505.316 110.611C506.536 109.673 507.173 108.248 507.173 106.824C507.173 105.771 506.837 104.727 506.129 103.834L505.519 103.046C503.865 100.958 500.803 100.631 498.742 102.285C497.547 103.223 496.902 104.656 496.902 106.054C496.902 107.125 497.264 108.195 497.954 109.089ZM495.964 444.387C498.025 446.095 501.06 445.794 502.776 443.751L503.396 442.963C504.139 442.07 504.502 440.999 504.502 439.937C504.502 438.522 503.882 437.133 502.714 436.186C500.653 434.478 497.592 434.806 495.911 436.867L495.327 437.584C494.592 438.504 494.203 439.575 494.203 440.672C494.203 442.07 494.822 443.45 495.964 444.387ZM478.357 86.9969L479.021 87.687C480.905 89.5715 483.967 89.5892 485.851 87.7401C486.816 86.7934 487.302 85.546 487.302 84.2985C487.302 83.051 486.842 81.8212 485.895 80.9099L485.214 80.2021C483.33 78.3088 480.277 78.2911 478.384 80.1667C477.446 81.1134 476.96 82.3609 476.96 83.6172C476.96 84.8293 477.42 86.0503 478.357 86.9969ZM475.279 466.17C477.119 468.081 480.198 468.134 482.109 466.276L482.799 465.577C483.763 464.639 484.25 463.392 484.25 462.144C484.25 460.923 483.79 459.694 482.87 458.756C481.021 456.845 477.95 456.827 476.039 458.676L475.358 459.34C474.394 460.286 473.898 461.56 473.898 462.808C473.898 464.029 474.367 465.25 475.279 466.17ZM456.425 67.2761L457.168 67.8689C459.256 69.5499 462.291 69.2225 463.972 67.1522C464.679 66.2586 465.033 65.1881 465.033 64.1176C465.033 62.7197 464.423 61.3218 463.228 60.3486L462.459 59.7381C460.397 58.0571 457.345 58.3933 455.69 60.4724C454.974 61.366 454.62 62.4454 454.62 63.5071C454.62 64.905 455.222 66.3117 456.425 67.2761ZM452.275 485.51C453.903 487.616 456.938 487.996 459.052 486.342L459.822 485.758C461.043 484.794 461.671 483.387 461.671 481.945C461.671 480.892 461.344 479.848 460.654 478.963C458.999 476.875 455.965 476.512 453.859 478.14L453.116 478.733C451.895 479.671 451.249 481.095 451.249 482.546C451.249 483.599 451.585 484.643 452.275 485.51ZM432.395 50.1033L433.218 50.6253C435.465 52.0674 438.447 51.4127 439.898 49.1743C440.402 48.3515 440.632 47.4579 440.632 46.5732C440.632 44.963 439.871 43.4058 438.42 42.4945L437.58 41.9548C435.333 40.5304 432.351 41.194 430.926 43.4412C430.422 44.2552 430.157 45.1399 430.157 46.0335C430.157 47.6083 430.953 49.192 432.395 50.1033ZM427.237 502.117C428.635 504.408 431.59 505.125 433.882 503.745L434.722 503.214C436.2 502.294 437.014 500.719 437.014 499.109C437.014 498.242 436.792 497.357 436.306 496.561C434.899 494.296 431.917 493.606 429.653 495.012L428.865 495.49C427.361 496.41 426.547 497.985 426.547 499.622C426.547 500.48 426.751 501.347 427.237 502.117ZM406.623 35.7617L407.481 36.1775C409.879 37.3542 412.763 36.381 413.939 33.9833C414.293 33.3021 414.444 32.5589 414.444 31.8511C414.444 30.0639 413.453 28.3564 411.745 27.5159L410.852 27.0823C408.454 25.9056 405.552 26.9054 404.375 29.2942C404.048 29.9843 403.898 30.7009 403.898 31.4087C403.898 33.1959 404.889 34.93 406.623 35.7617ZM400.509 515.848C401.624 518.272 404.508 519.307 406.923 518.193L407.826 517.75C409.578 516.936 410.595 515.211 410.595 513.371C410.595 512.716 410.445 511.999 410.144 511.336C409.02 508.912 406.136 507.868 403.721 509.018L402.854 509.434C401.093 510.248 400.049 511.973 400.049 513.813C400.049 514.468 400.199 515.184 400.509 515.848ZM379.39 24.4016L380.284 24.7378C382.805 25.6314 385.575 24.3043 386.468 21.7828C386.654 21.2519 386.725 20.7122 386.725 20.1814C386.725 18.1996 385.513 16.3328 383.522 15.6161L382.602 15.3153C380.08 14.4217 377.32 15.7488 376.435 18.2438C376.258 18.7746 376.152 19.332 376.152 19.854C376.152 21.8624 377.409 23.7204 379.39 24.4016ZM372.383 526.412C373.224 528.969 375.958 530.34 378.497 529.5L379.443 529.172C381.452 528.482 382.726 526.624 382.726 524.58C382.726 524.076 382.655 523.563 382.469 523.059C381.611 520.528 378.886 519.166 376.356 520.024L375.436 520.307C373.427 520.988 372.127 522.882 372.127 524.89C372.127 525.403 372.233 525.916 372.383 526.412ZM351.043 16.2266L351.981 16.4566C354.582 17.0494 357.077 15.4126 357.688 12.8115C357.767 12.4576 357.785 12.1037 357.785 11.741C357.785 9.52913 356.21 7.52075 353.972 6.98106L353.176 6.80411C350.574 6.22018 347.982 7.84813 347.398 10.4493C347.319 10.8032 347.265 11.1836 347.265 11.5375C347.265 13.7316 348.787 15.7223 351.043 16.2266ZM343.24 533.782C343.806 536.374 346.354 538.064 348.973 537.498L349.937 537.285C352.202 536.816 353.759 534.799 353.759 532.578C353.759 532.251 353.706 531.897 353.636 531.561C353.069 528.933 350.53 527.288 347.902 527.845L346.982 528.049C344.717 528.535 343.143 530.517 343.143 532.755C343.143 533.091 343.187 533.419 343.24 533.782ZM322.475 11.3163L323.448 11.4136C326.094 11.7233 328.491 9.81223 328.792 7.15802L328.827 6.60063C328.827 4.18529 326.987 2.08846 324.536 1.80534L323.572 1.70801C320.927 1.4072 318.529 3.31826 318.228 5.96363L318.202 6.52102C318.202 8.9452 320.007 11.0243 322.475 11.3163ZM313.459 537.807C313.743 540.461 316.087 542.39 318.759 542.134L319.732 542.036C322.192 541.78 324.085 539.683 324.085 537.25L324.059 536.754C323.784 534.109 321.431 532.145 318.759 532.428L317.821 532.508C315.326 532.755 313.433 534.879 313.433 537.321L313.459 537.807ZM294.101 9.66184L295.039 9.67952C297.711 9.67952 299.879 7.53846 299.905 4.86655C299.905 2.21233 297.738 0.0270305 295.092 0.000488281L294.101 0.000488281C291.412 0.000488281 289.262 2.16807 289.262 4.83999C289.262 7.52075 291.412 9.66184 294.101 9.66184ZM288.191 543.354H289.182C291.863 543.381 294.022 541.249 294.075 538.524C294.075 535.896 291.934 533.729 289.288 533.711H288.342C285.661 533.649 283.476 535.79 283.423 538.488C283.423 541.293 285.537 543.31 288.191 543.354ZM260.968 6.29097C261.189 8.94519 263.534 10.9005 266.206 10.6793L267.152 10.5997C269.647 10.3785 271.558 8.28165 271.558 5.78668V5.37969C271.337 2.72547 269.01 0.743641 266.338 0.973674L265.347 1.04448C262.844 1.27451 260.941 3.33594 260.941 5.80436L260.968 6.29097ZM257.668 541.169L258.668 541.293C261.313 541.629 263.728 539.745 264.038 537.091L264.082 536.507C264.082 534.091 262.304 532.021 259.862 531.72L258.915 531.587C256.27 531.26 253.846 533.118 253.492 535.772L253.465 536.347C253.465 538.772 255.226 540.868 257.668 541.169ZM230.772 11.1305C231.311 13.7316 233.859 15.4126 236.478 14.8818L237.398 14.7049C239.699 14.2359 241.22 12.2541 241.22 10.0157C241.22 9.67954 241.203 9.34331 241.123 9.0248C240.61 6.39713 237.982 4.71614 235.39 5.24698L234.549 5.43278C232.249 5.88399 230.674 7.90121 230.674 10.1396C230.674 10.467 230.701 10.8032 230.772 11.1305ZM227.613 535.586L228.551 535.817C231.152 536.454 233.744 534.852 234.39 532.286C234.488 531.871 234.541 531.49 234.541 531.127C234.541 528.933 233.037 526.951 230.842 526.447L229.905 526.208C227.303 525.58 224.676 527.155 224.065 529.747C223.968 530.136 223.915 530.517 223.915 530.906C223.915 533.065 225.392 535.056 227.613 535.586ZM203.442 19.7921C204.283 22.3402 206.999 23.7203 209.52 22.8975L210.44 22.5967C212.484 21.9597 213.802 20.0487 213.802 18.0138C213.802 17.5272 213.732 17.014 213.581 16.5363C212.758 13.9794 210.042 12.5903 207.485 13.4043L206.547 13.7051C204.513 14.3687 203.203 16.2797 203.203 18.288C203.203 18.7923 203.283 19.3144 203.442 19.7921ZM198.337 526.624L199.257 526.951C201.779 527.898 204.548 526.598 205.468 524.094C205.672 523.545 205.751 522.979 205.751 522.413C205.751 520.457 204.548 518.626 202.593 517.883L201.673 517.555C199.178 516.635 196.399 517.909 195.488 520.431C195.285 520.962 195.179 521.528 195.179 522.085C195.179 524.049 196.382 525.916 198.337 526.624ZM177.776 30.6213C178.882 33.0632 181.757 34.1337 184.181 33.0455L185.013 32.6651C186.827 31.8511 187.888 30.0905 187.888 28.2237C187.888 27.5601 187.747 26.9054 187.464 26.2684C186.367 23.8265 183.518 22.7471 181.093 23.8265L180.173 24.2335C178.395 25.0386 177.342 26.7993 177.342 28.6307C177.342 29.2942 177.475 29.9843 177.776 30.6213ZM170.264 514.415L171.158 514.857C173.555 516.051 176.457 515.078 177.652 512.689C177.988 511.999 178.165 511.265 178.165 510.548C178.165 508.761 177.165 507.054 175.484 506.222L174.644 505.78C172.255 504.585 169.344 505.532 168.15 507.93C167.796 508.611 167.61 509.354 167.61 510.097C167.61 511.849 168.583 513.556 170.264 514.415ZM151.437 45.0957C152.817 47.3606 155.799 48.0949 158.064 46.7236L158.851 46.2635C160.382 45.3434 161.24 43.742 161.24 42.0876C161.24 41.2471 161.019 40.4065 160.559 39.6368C159.205 37.3542 156.25 36.5845 153.967 37.9293L153.1 38.4424C151.587 39.3625 150.747 40.9639 150.747 42.6007C150.747 43.4412 150.977 44.2994 151.437 45.0957ZM143.766 499.109L144.616 499.648C146.854 501.099 149.836 500.462 151.287 498.242C151.826 497.428 152.083 496.508 152.083 495.596C152.083 494.013 151.287 492.482 149.889 491.544L149.092 491.031C146.854 489.553 143.872 490.19 142.395 492.411C141.864 493.225 141.607 494.136 141.607 495.057C141.607 496.64 142.368 498.171 143.766 499.109ZM126.885 62.3923C128.513 64.5068 131.539 64.905 133.662 63.2771L134.397 62.7197C135.644 61.773 136.308 60.3309 136.308 58.8534C136.308 57.8536 135.998 56.8361 135.344 55.9691C133.76 53.828 130.734 53.4034 128.593 54.9959L127.77 55.6152C126.549 56.553 125.886 58.0129 125.886 59.4638C125.886 60.4724 126.222 61.4987 126.885 62.3923ZM119.162 480.918L119.923 481.564C121.984 483.263 125.019 482.962 126.735 480.918C127.469 479.998 127.823 478.91 127.823 477.831C127.823 476.433 127.239 475.061 126.063 474.124L125.355 473.504C123.293 471.797 120.259 472.08 118.551 474.124C117.79 475.035 117.428 476.105 117.428 477.194C117.428 478.6 118.02 479.972 119.162 480.918ZM104.413 82.3167C106.244 84.2454 109.306 84.325 111.243 82.4671L111.898 81.8212C112.924 80.8834 113.428 79.5828 113.428 78.3088C113.428 77.1232 112.995 75.9377 112.101 74.9998C110.27 73.0623 107.218 72.965 105.28 74.8052L104.563 75.4865C103.572 76.4508 103.059 77.6983 103.059 78.9723C103.059 80.1667 103.528 81.3877 104.413 82.3167ZM96.7688 460.136L97.4324 460.817C99.2904 462.755 102.352 462.781 104.263 460.923C105.253 459.986 105.74 458.738 105.74 457.455C105.74 456.261 105.28 455.04 104.36 454.102L103.723 453.403C101.865 451.492 98.8037 451.448 96.875 453.306C95.9018 454.252 95.3975 455.491 95.3975 456.765C95.3975 457.968 95.8487 459.189 96.7688 460.136ZM84.3117 104.674C86.3466 106.382 89.4078 106.107 91.1153 104.046L91.7347 103.303C92.4867 102.409 92.8494 101.321 92.8494 100.224C92.8494 98.8436 92.2655 97.4722 91.1153 96.499C89.0716 94.7915 86.0192 95.0481 84.3117 97.1095L83.6747 97.8527C82.9315 98.764 82.551 99.8699 82.551 100.958C82.551 102.329 83.1615 103.71 84.3117 104.674ZM76.8002 436.929L77.4019 437.734C79.0563 439.822 82.0998 440.212 84.2055 438.575C85.4353 437.61 86.0723 436.186 86.0723 434.762C86.0723 433.718 85.7361 432.665 85.0549 431.807L84.4621 431.063C82.8607 428.949 79.8261 428.542 77.7115 430.17C76.464 431.116 75.8093 432.55 75.8093 434.001C75.8093 435.018 76.1367 436.062 76.8002 436.929ZM66.8203 129.111C69.0587 130.588 72.0315 129.978 73.509 127.73L74.0487 126.943C74.5795 126.129 74.8361 125.209 74.8361 124.271C74.8361 122.714 74.0929 121.183 72.695 120.245C70.4832 118.768 67.4751 119.378 65.9976 121.599L65.4667 122.413C64.9005 123.254 64.6439 124.165 64.6439 125.085C64.6439 126.642 65.4048 128.19 66.8203 129.111ZM59.5743 411.652L60.114 412.51C61.4854 414.784 64.4669 415.501 66.7319 414.121C68.2359 413.209 69.0588 411.626 69.0588 409.998C69.0588 409.131 68.8199 408.264 68.3333 407.503L67.8555 406.689C66.4841 404.388 63.5203 403.654 61.2288 405.034C59.7336 405.946 58.8842 407.52 58.8842 409.175C58.8842 410.024 59.1143 410.891 59.5743 411.652ZM52.2133 155.37C54.5844 156.599 57.4863 155.626 58.6896 153.264L59.1143 152.441C59.477 151.733 59.654 150.964 59.654 150.194C59.654 148.469 58.7161 146.788 57.0528 145.921C54.7082 144.7 51.7798 145.611 50.5588 147.964L50.0722 148.902C49.7183 149.592 49.5325 150.335 49.5325 151.079C49.5325 152.822 50.5323 154.538 52.2133 155.37ZM45.3035 384.623L45.7193 385.517C46.8429 387.941 49.6918 389.003 52.1337 387.888C53.8943 387.074 54.9383 385.313 54.9383 383.482C54.9383 382.81 54.7879 382.128 54.5048 381.465L54.0978 380.624C53.0007 378.174 50.1253 377.103 47.7011 378.2C45.9228 379.023 44.8788 380.775 44.8788 382.615C44.8788 383.27 45.0026 383.96 45.3035 384.623ZM40.6497 183.142C43.1447 184.062 45.9228 182.779 46.8429 180.284L47.1703 179.399C47.4003 178.833 47.5065 178.249 47.5065 177.692C47.5065 175.727 46.3032 173.896 44.3656 173.179C41.8707 172.233 39.0926 173.489 38.1548 175.984L37.792 176.922C37.5885 177.462 37.4912 178.046 37.4912 178.603C37.4912 180.576 38.6856 182.398 40.6497 183.142ZM34.1734 356.117L34.4831 357.055C35.3236 359.612 38.0751 360.983 40.5967 360.134C42.605 359.453 43.9056 357.568 43.9056 355.56C43.9056 355.047 43.8348 354.542 43.649 354.029L43.3747 353.135C42.5342 350.587 39.8092 349.216 37.2877 350.021C35.2263 350.694 33.9522 352.596 33.9522 354.64C33.9522 355.126 34.023 355.639 34.1734 356.117ZM32.2889 212.002C34.8635 212.639 37.4912 211.064 38.1194 208.489L38.3759 207.543C38.4556 207.162 38.5087 206.755 38.5087 206.375C38.5087 204.207 37.0577 202.252 34.8635 201.686C32.2712 201.049 29.6436 202.632 29.0065 205.207L28.75 206.145C28.6792 206.534 28.6261 206.941 28.6261 207.322C28.6261 209.48 30.0771 211.471 32.2889 212.002ZM26.3523 326.567L26.5558 327.531C27.0867 330.132 29.6701 331.813 32.2712 331.247C34.5362 330.796 36.111 328.787 36.111 326.54C36.111 326.213 36.0668 325.877 36.0137 325.54L35.8102 324.603C35.2705 322.01 32.7225 320.32 30.1036 320.86C27.8298 321.32 26.255 323.329 26.255 325.576C26.255 325.903 26.2816 326.239 26.3523 326.567ZM27.2725 241.632C29.9267 241.986 32.342 240.11 32.6694 237.456L32.7932 236.536L32.8552 235.881C32.8552 233.501 31.0945 231.422 28.6792 231.086C26.025 230.723 23.5831 232.581 23.2203 235.244L23.0965 236.208L23.0699 236.836C23.0699 239.234 24.8306 241.322 27.2725 241.632ZM21.8932 296.282L21.9994 297.273C22.2383 299.918 24.6005 301.883 27.2459 301.626C29.7409 301.396 31.6254 299.308 31.6254 296.831L31.6077 296.379L31.5281 295.433C31.298 292.787 28.9535 290.823 26.2816 291.053C23.7866 291.283 21.8755 293.398 21.8755 295.866L21.8932 296.282ZM25.5914 271.642C28.2633 271.669 30.4575 269.554 30.5106 266.873L30.5371 265.838C30.5371 263.211 28.4138 261.069 25.7949 261.016C23.123 260.963 20.9288 263.087 20.8581 265.759L20.8315 267.015C20.8315 269.474 23.0168 271.589 25.5914 271.642ZM287.475 50.121L288.439 50.2448C291.093 50.5987 293.509 48.7408 293.871 46.0954L293.916 45.4584C293.916 43.0607 292.155 40.9993 289.713 40.6631L288.775 40.5392C286.121 40.1853 283.679 42.0345 283.325 44.6975L283.29 45.3345C283.29 47.6968 285.059 49.7936 287.475 50.121ZM401.907 182.673L402.447 183.46C403.951 185.672 406.95 186.238 409.171 184.734C410.551 183.823 411.285 182.292 411.285 180.735C411.285 179.788 411.002 178.851 410.445 178.028L409.879 177.223C408.383 175.002 405.375 174.436 403.19 175.949C401.81 176.895 401.066 178.408 401.066 179.939C401.066 180.885 401.341 181.832 401.907 182.673Z" fill="white"/>
</svg>
