<svg width="40" height="40" viewBox="0 0 40 40" fill="none" xmlns="http://www.w3.org/2000/svg">
<path d="M33.3334 20.0007V30.0007C33.3334 33.684 30.3501 36.6673 26.6667 36.6673H13.3334C9.65008 36.6673 6.66675 33.684 6.66675 30.0007V20.0007C6.66675 19.084 7.41675 18.334 8.33341 18.334H11.6167C12.5334 18.334 13.2834 19.084 13.2834 20.0007V25.234C13.2834 26.4673 13.9667 27.6006 15.0501 28.184C15.5334 28.4507 16.0667 28.584 16.6167 28.584C17.2501 28.584 17.8834 28.4007 18.4334 28.034L20.0167 27.0007L21.4834 27.984C22.5001 28.6673 23.8001 28.7506 24.8834 28.1673C25.9834 27.584 26.6667 26.4673 26.6667 25.2173V20.0007C26.6667 19.084 27.4167 18.334 28.3334 18.334H31.6667C32.5834 18.334 33.3334 19.084 33.3334 20.0007Z" fill="#C42942"/>
<path d="M35.8334 11.6673V13.334C35.8334 15.1673 34.9501 16.6673 32.5001 16.6673H7.50008C4.95008 16.6673 4.16675 15.1673 4.16675 13.334V11.6673C4.16675 9.83398 4.95008 8.33398 7.50008 8.33398H32.5001C34.9501 8.33398 35.8334 9.83398 35.8334 11.6673Z" fill="#C42942"/>
<path d="M19.4 8.33372H10.2C9.6333 7.71706 9.64997 6.76706 10.25 6.16706L12.6166 3.80039C13.2333 3.18372 14.25 3.18372 14.8666 3.80039L19.4 8.33372Z" fill="#C42942"/>
<path d="M29.7828 8.33372H20.5828L25.1161 3.80039C25.7328 3.18372 26.7494 3.18372 27.3661 3.80039L29.7328 6.16706C30.3328 6.76706 30.3494 7.71706 29.7828 8.33372Z" fill="#C42942"/>
<path d="M23.284 18.334C24.2006 18.334 24.9506 19.084 24.9506 20.0007V25.2173C24.9506 26.5507 23.4673 27.3507 22.3673 26.6007L20.8673 25.6007C20.3173 25.234 19.6006 25.234 19.034 25.6007L17.4673 26.634C16.3673 27.3673 14.9006 26.5673 14.9006 25.2507V20.0007C14.9006 19.084 15.6506 18.334 16.5673 18.334H23.284Z" fill="#C42942"/>
</svg>
