<svg width="40" height="40" viewBox="0 0 40 40" fill="none" xmlns="http://www.w3.org/2000/svg">
<path d="M26.3002 3.33398H13.7002C7.40016 3.33398 5.8335 5.01732 5.8335 11.734V30.5006C5.8335 34.934 8.26683 35.984 11.2168 32.8173L11.2335 32.8007C12.6002 31.3507 14.6835 31.4673 15.8668 33.0506L17.5502 35.3007C18.9002 37.084 21.0835 37.084 22.4335 35.3007L24.1168 33.0506C25.3168 31.4507 27.4002 31.334 28.7668 32.8007C31.7335 35.9673 34.1502 34.9173 34.1502 30.484V11.734C34.1668 5.01732 32.6002 3.33398 26.3002 3.33398ZM15.0002 11.6673C15.9168 11.6673 16.6668 12.4173 16.6668 13.334C16.6668 14.2507 15.9335 15.0007 15.0002 15.0007C14.0668 15.0007 13.3335 14.2507 13.3335 13.334C13.3335 12.4173 14.0668 11.6673 15.0002 11.6673ZM25.0002 23.334C24.0668 23.334 23.3335 22.584 23.3335 21.6673C23.3335 20.7507 24.0835 20.0007 25.0002 20.0007C25.9168 20.0007 26.6668 20.7507 26.6668 21.6673C26.6668 22.584 25.9335 23.334 25.0002 23.334ZM26.5002 12.6507L15.2835 23.8673C15.0335 24.1173 14.7168 24.234 14.4002 24.234C14.0835 24.234 13.7668 24.1173 13.5168 23.8673C13.0335 23.384 13.0335 22.584 13.5168 22.1007L24.7335 10.884C25.2168 10.4007 26.0168 10.4007 26.5002 10.884C26.9835 11.3673 26.9835 12.1673 26.5002 12.6507Z" fill="#C42942"/>
</svg>
