<svg width="40" height="40" viewBox="0 0 40 40" fill="none" xmlns="http://www.w3.org/2000/svg">
<path d="M27.0667 3.33398H12.9334C8.33342 3.33398 6.66675 5.00065 6.66675 9.68398V30.3173C6.66675 35.0007 8.33342 36.6673 12.9334 36.6673H27.0501C31.6667 36.6673 33.3334 35.0007 33.3334 30.3173V9.68398C33.3334 5.00065 31.6667 3.33398 27.0667 3.33398ZM20.0001 32.1673C18.4001 32.1673 17.0834 30.8506 17.0834 29.2506C17.0834 27.6507 18.4001 26.334 20.0001 26.334C21.6001 26.334 22.9167 27.6507 22.9167 29.2506C22.9167 30.8506 21.6001 32.1673 20.0001 32.1673ZM23.3334 10.4173H16.6667C15.9834 10.4173 15.4167 9.85065 15.4167 9.16732C15.4167 8.48398 15.9834 7.91732 16.6667 7.91732H23.3334C24.0167 7.91732 24.5834 8.48398 24.5834 9.16732C24.5834 9.85065 24.0167 10.4173 23.3334 10.4173Z" fill="#C42942"/>
</svg>
