<svg width="40" height="40" viewBox="0 0 40 40" fill="none" xmlns="http://www.w3.org/2000/svg">
<path d="M34.5167 13.5338V29.2171C34.5167 33.3171 31.1667 36.6671 27.0667 36.6671H12.9334C8.8334 36.6671 5.4834 33.3171 5.4834 29.2171V13.5338C5.4834 10.6838 7.0834 8.20045 9.4334 6.95045C10.2501 6.51712 11.2667 7.10045 11.2667 8.03379C11.2667 10.6838 13.4334 12.8505 16.0834 12.8505H23.9167C26.5667 12.8505 28.7334 10.6838 28.7334 8.03379C28.7334 7.10045 29.7334 6.51712 30.5667 6.95045C32.9167 8.20045 34.5167 10.6838 34.5167 13.5338Z" fill="#C42942"/>
<path d="M23.9167 3.33398H16.0833C14.35 3.33398 12.9333 4.73398 12.9333 6.46732V8.03398C12.9333 9.76732 14.3333 11.1673 16.0667 11.1673H23.9167C25.65 11.1673 27.05 9.76732 27.05 8.03398V6.46732C27.0667 4.73398 25.65 3.33398 23.9167 3.33398Z" fill="#C42942"/>
<path d="M25.2985 28.4851C23.6652 28.4851 22.1583 27.7171 21.1763 26.3657C20.943 26.0448 21.011 25.5879 21.3319 25.3448C21.6527 25.1018 22.1097 25.1796 22.3527 25.5004C23.0624 26.4629 24.1319 27.0171 25.2985 27.0171C27.3305 27.0171 28.993 25.3643 28.993 23.3226C28.993 21.2809 27.3402 19.6282 25.2985 19.6282C23.918 19.6282 22.6152 20.3671 21.9055 21.5434L19.3291 25.8309C18.3569 27.4546 16.5777 28.4559 14.6916 28.4559C11.8527 28.4559 9.53882 26.1421 9.53882 23.3032C9.53882 20.4643 11.8527 18.1504 14.6916 18.1504C16.3249 18.1504 17.8319 18.9184 18.8138 20.2698C19.0472 20.5907 18.9791 21.0476 18.6583 21.2907C18.3277 21.5337 17.8805 21.4559 17.6374 21.1351C16.9374 20.1921 15.868 19.6379 14.7013 19.6379C12.6694 19.6379 11.0069 21.2907 11.0069 23.3323C11.0069 25.374 12.6597 27.0268 14.7013 27.0268C16.0819 27.0268 17.3847 26.2879 18.0944 25.1115L20.6708 20.824C21.643 19.2004 23.4222 18.199 25.3083 18.199C28.1472 18.199 30.461 20.5129 30.461 23.3518C30.461 26.1907 28.1374 28.4851 25.2985 28.4851Z" fill="white" stroke="white" stroke-width="0.833333"/>
</svg>
