<svg width="40" height="40" viewBox="0 0 40 40" fill="none" xmlns="http://www.w3.org/2000/svg">
<path d="M30.9013 6.86576L21.7346 3.43242C20.7846 3.08242 19.2346 3.08242 18.2846 3.43242L9.11797 6.86576C7.3513 7.53242 5.91797 9.59909 5.91797 11.4824V24.9824C5.91797 26.3324 6.8013 28.1158 7.88464 28.9158L17.0513 35.7658C18.668 36.9824 21.318 36.9824 22.9346 35.7658L32.1013 28.9158C33.1846 28.0991 34.068 26.3324 34.068 24.9824V11.4824C34.0846 9.59909 32.6513 7.53242 30.9013 6.86576ZM25.8013 16.1991L18.6346 23.3658C18.3846 23.6158 18.068 23.7324 17.7513 23.7324C17.4346 23.7324 17.118 23.6158 16.868 23.3658L14.2013 20.6658C13.718 20.1824 13.718 19.3824 14.2013 18.8991C14.6846 18.4158 15.4846 18.4158 15.968 18.8991L17.768 20.6991L24.0513 14.4158C24.5346 13.9324 25.3346 13.9324 25.818 14.4158C26.3013 14.8991 26.3013 15.7158 25.8013 16.1991Z" fill="#C42942"/>
</svg>
